<?xml version="1.0" encoding="utf-8" standalone="no"?>
<!DOCTYPE svg PUBLIC "-//W3C//DTD SVG 1.1//EN"
  "http://www.w3.org/Graphics/SVG/1.1/DTD/svg11.dtd">
<!-- Created with matplotlib (https://matplotlib.org/) -->
<svg height="362.8225pt" version="1.1" viewBox="0 0 349.53125 362.8225" width="349.53125pt" xmlns="http://www.w3.org/2000/svg" xmlns:xlink="http://www.w3.org/1999/xlink">
 <defs>
  <style type="text/css">
*{stroke-linecap:butt;stroke-linejoin:round;}
  </style>
 </defs>
 <g id="figure_1">
  <g id="patch_1">
   <path d="M 0 362.8225 
L 349.53125 362.8225 
L 349.53125 0 
L 0 0 
z
" style="fill:#ffffff;"/>
  </g>
  <g id="axes_1">
   <g id="patch_2">
    <path d="M 63.33125 333.36 
L 342.33125 333.36 
L 342.33125 7.2 
L 63.33125 7.2 
z
" style="fill:#ffffff;"/>
   </g>
   <g id="patch_3">
    <path clip-path="url(#p7e9a912ef6)" d="M 106.254327 241.4966 
L 106.189942 240.162309 
L 106.232865 240.162309 
L 106.232865 228.398895 
L 106.275788 228.398895 
L 106.275788 240.162309 
L 106.318712 240.162309 
z
" style="fill:#bbbbbb;stroke:#bbbbbb;stroke-linejoin:miter;"/>
   </g>
   <g id="patch_4">
    <path clip-path="url(#p7e9a912ef6)" d="M 149.177404 267.683728 
L 149.241788 269.018019 
L 149.198865 269.018019 
L 149.198865 297.68253 
L 149.155942 297.68253 
L 149.155942 269.018019 
L 149.113019 269.018019 
z
" style="fill:#bbbbbb;stroke:#bbbbbb;stroke-linejoin:miter;"/>
   </g>
   <g id="patch_5">
    <path clip-path="url(#p7e9a912ef6)" d="M 192.100481 242.459022 
L 192.164865 243.793313 
L 192.121942 243.793313 
L 192.121942 272.423507 
L 192.079019 272.423507 
L 192.079019 243.793313 
L 192.036096 243.793313 
z
" style="fill:#bbbbbb;stroke:#bbbbbb;stroke-linejoin:miter;"/>
   </g>
   <g id="patch_6">
    <path clip-path="url(#p7e9a912ef6)" d="M 235.023558 266.432584 
L 235.087942 267.766875 
L 235.045019 267.766875 
L 235.045019 298.792206 
L 235.002096 298.792206 
L 235.002096 267.766875 
L 234.959173 267.766875 
z
" style="fill:#bbbbbb;stroke:#bbbbbb;stroke-linejoin:miter;"/>
   </g>
   <g id="patch_7">
    <path clip-path="url(#p7e9a912ef6)" d="M 277.946635 215.665569 
L 277.88225 214.331279 
L 277.925173 214.331279 
L 277.925173 206.313723 
L 277.968096 206.313723 
L 277.968096 214.331279 
L 278.011019 214.331279 
z
" style="fill:#bbbbbb;stroke:#bbbbbb;stroke-linejoin:miter;"/>
   </g>
   <g id="matplotlib.axis_1">
    <g id="xtick_1">
     <g id="line2d_1">
      <path clip-path="url(#p7e9a912ef6)" d="M 106.254327 333.36 
L 106.254327 7.2 
" style="fill:none;stroke:#b0b0b0;stroke-linecap:square;stroke-opacity:0.3;stroke-width:0.8;"/>
     </g>
     <g id="line2d_2">
      <defs>
       <path d="M 0 0 
L 0 3.5 
" id="mef02244083" style="stroke:#000000;stroke-width:0.8;"/>
      </defs>
      <g>
       <use style="stroke:#000000;stroke-width:0.8;" x="106.254327" xlink:href="#mef02244083" y="333.36"/>
      </g>
     </g>
     <g id="text_1">
      <!-- $H_2$ -->
      <defs>
       <path d="M 8.40625 67.09375 
L 8.40625 63.296875 
L 14.90625 62.796875 
L 15.90625 61.296875 
L 5.203125 5.796875 
L 3.59375 4.40625 
L -2.796875 3.796875 
L -2.796875 0 
L 21.5 0 
L 21.5 3.796875 
L 15.09375 4.40625 
L 13.90625 5.796875 
L 19.09375 32.796875 
L 51.59375 32.796875 
L 46.5 5.796875 
L 45 4.40625 
L 38.5 3.796875 
L 38.5 0 
L 62.703125 0 
L 62.703125 3.796875 
L 56.296875 4.40625 
L 55.296875 5.796875 
L 65.90625 61.296875 
L 67.5 62.796875 
L 74.09375 63.296875 
L 74.09375 67.09375 
L 49.703125 67.09375 
L 49.703125 63.296875 
L 56.09375 62.796875 
L 57.296875 61.296875 
L 52.59375 37.40625 
L 20 37.40625 
L 24.703125 61.296875 
L 26.203125 62.796875 
L 32.796875 63.296875 
L 32.796875 67.09375 
z
" id="Charter-Italic-72"/>
       <path d="M 44.203125 7.90625 
L 46 16.40625 
L 50.5 16.40625 
L 50.5 0 
L 4.203125 0 
L 4.203125 6.296875 
Q 12.40625 13 18.796875 18.5 
Q 25.203125 24 29.59375 28.953125 
Q 34 33.90625 36.296875 38.546875 
Q 38.59375 43.203125 38.59375 48.09375 
Q 38.59375 55.296875 35.09375 59.25 
Q 31.59375 63.203125 25.296875 63.203125 
Q 23 63.203125 20.84375 62.640625 
Q 18.703125 62.09375 16.40625 60.796875 
L 16.40625 50.09375 
Q 14.296875 48.59375 11.90625 48.59375 
Q 9.296875 48.59375 7.796875 50.09375 
Q 6.296875 51.59375 6.296875 54.203125 
Q 6.296875 56.796875 7.84375 59.34375 
Q 9.40625 61.90625 12.25 63.90625 
Q 15.09375 65.90625 18.9375 67.09375 
Q 22.796875 68.296875 27.5 68.296875 
Q 32.296875 68.296875 36.140625 66.9375 
Q 40 65.59375 42.703125 63.09375 
Q 45.40625 60.59375 46.84375 57.09375 
Q 48.296875 53.59375 48.296875 49.40625 
Q 48.296875 44.703125 46.046875 40.09375 
Q 43.796875 35.5 39.4375 30.546875 
Q 35.09375 25.59375 28.75 20.046875 
Q 22.40625 14.5 14.09375 7.90625 
z
" id="Charter-50"/>
      </defs>
      <g transform="translate(97.214327 352.135)scale(0.16 -0.16)">
       <use transform="translate(0 0.90625)" xlink:href="#Charter-Italic-72"/>
       <use transform="translate(71.199982 -13.671875)scale(0.7)" xlink:href="#Charter-50"/>
      </g>
     </g>
    </g>
    <g id="xtick_2">
     <g id="line2d_3">
      <path clip-path="url(#p7e9a912ef6)" d="M 149.177404 333.36 
L 149.177404 7.2 
" style="fill:none;stroke:#b0b0b0;stroke-linecap:square;stroke-opacity:0.3;stroke-width:0.8;"/>
     </g>
     <g id="line2d_4">
      <g>
       <use style="stroke:#000000;stroke-width:0.8;" x="149.177404" xlink:href="#mef02244083" y="333.36"/>
      </g>
     </g>
     <g id="text_2">
      <!-- $O$ -->
      <defs>
       <path d="M 40.5 68.203125 
C 30.296875 68.203125 20.296875 63.09375 13.5 54.09375 
C 7.40625 46.09375 4.09375 36.296875 4.09375 25.90625 
C 4.09375 10 15 -1.203125 30.5 -1.203125 
C 40.90625 -1.203125 50.796875 3.90625 57.703125 12.90625 
C 63.59375 20.59375 66.90625 30.796875 66.90625 42 
C 66.90625 50.796875 63 58.59375 56.203125 63.59375 
C 52.203125 66.5 46.796875 68.203125 40.5 68.203125 
z
M 57.09375 41.90625 
C 57.09375 32 54 22 49.203125 14.90625 
C 44.09375 7.40625 37.90625 3.59375 31 3.59375 
C 20.703125 3.59375 13.703125 11.90625 13.703125 25.296875 
C 13.703125 35.09375 16.703125 45.09375 21.59375 52.296875 
C 26.703125 59.796875 33 63.59375 39.796875 63.59375 
C 50.203125 63.59375 57.09375 55.5 57.09375 41.90625 
z
" id="Charter-Italic-79"/>
      </defs>
      <g transform="translate(143.497404 352.135)scale(0.16 -0.16)">
       <use transform="translate(0 0.796875)" xlink:href="#Charter-Italic-79"/>
      </g>
     </g>
    </g>
    <g id="xtick_3">
     <g id="line2d_5">
      <path clip-path="url(#p7e9a912ef6)" d="M 192.100481 333.36 
L 192.100481 7.2 
" style="fill:none;stroke:#b0b0b0;stroke-linecap:square;stroke-opacity:0.3;stroke-width:0.8;"/>
     </g>
     <g id="line2d_6">
      <g>
       <use style="stroke:#000000;stroke-width:0.8;" x="192.100481" xlink:href="#mef02244083" y="333.36"/>
      </g>
     </g>
     <g id="text_3">
      <!-- $OH$ -->
      <g transform="translate(180.740481 352.135)scale(0.16 -0.16)">
       <use transform="translate(0 0.796875)" xlink:href="#Charter-Italic-79"/>
       <use transform="translate(70.799988 0.796875)" xlink:href="#Charter-Italic-72"/>
      </g>
     </g>
    </g>
    <g id="xtick_4">
     <g id="line2d_7">
      <path clip-path="url(#p7e9a912ef6)" d="M 235.023558 333.36 
L 235.023558 7.2 
" style="fill:none;stroke:#b0b0b0;stroke-linecap:square;stroke-opacity:0.3;stroke-width:0.8;"/>
     </g>
     <g id="line2d_8">
      <g>
       <use style="stroke:#000000;stroke-width:0.8;" x="235.023558" xlink:href="#mef02244083" y="333.36"/>
      </g>
     </g>
     <g id="text_4">
      <!-- $H$ -->
      <g transform="translate(229.263558 352.135)scale(0.16 -0.16)">
       <use transform="translate(0 0.90625)" xlink:href="#Charter-Italic-72"/>
      </g>
     </g>
    </g>
    <g id="xtick_5">
     <g id="line2d_9">
      <path clip-path="url(#p7e9a912ef6)" d="M 277.946635 333.36 
L 277.946635 7.2 
" style="fill:none;stroke:#b0b0b0;stroke-linecap:square;stroke-opacity:0.3;stroke-width:0.8;"/>
     </g>
     <g id="line2d_10">
      <g>
       <use style="stroke:#000000;stroke-width:0.8;" x="277.946635" xlink:href="#mef02244083" y="333.36"/>
      </g>
     </g>
     <g id="text_5">
      <!-- $CO$ -->
      <defs>
       <path d="M 62.203125 64.90625 
C 55.703125 67.203125 49.703125 68.296875 44.09375 68.296875 
C 34.90625 68.296875 26.5 65.296875 19.59375 59.703125 
C 9.796875 51.59375 4.09375 39.5 4.09375 26.5 
C 4.09375 9.59375 14.5 -1.203125 31 -1.203125 
C 37.203125 -1.203125 44 0 50.90625 2.296875 
L 53.59375 18.09375 
L 49.296875 18.09375 
L 44.90625 6.59375 
L 43 4.90625 
C 40.09375 4 37.203125 3.5 34.40625 3.5 
C 21.203125 3.5 13.59375 11.5 13.59375 25.296875 
C 13.59375 38.40625 18.296875 49.796875 26.09375 56.796875 
C 31 61.203125 37.203125 63.59375 43.796875 63.59375 
C 47.5 63.59375 51 62.796875 54.40625 61 
L 55.203125 59.09375 
L 55.203125 49.5 
L 59.40625 49.5 
z
" id="Charter-Italic-67"/>
      </defs>
      <g transform="translate(267.386635 352.135)scale(0.16 -0.16)">
       <use transform="translate(0 0.703125)" xlink:href="#Charter-Italic-67"/>
       <use transform="translate(60.399994 0.703125)" xlink:href="#Charter-Italic-79"/>
      </g>
     </g>
    </g>
   </g>
   <g id="matplotlib.axis_2">
    <g id="ytick_1">
     <g id="line2d_11">
      <path clip-path="url(#p7e9a912ef6)" d="M 63.33125 318.534545 
L 342.33125 318.534545 
" style="fill:none;stroke:#b0b0b0;stroke-linecap:square;stroke-opacity:0.3;stroke-width:0.8;"/>
     </g>
     <g id="line2d_12">
      <defs>
       <path d="M 0 0 
L -3.5 0 
" id="mcdb290fc4b" style="stroke:#000000;stroke-width:0.8;"/>
      </defs>
      <g>
       <use style="stroke:#000000;stroke-width:0.8;" x="63.33125" xlink:href="#mcdb290fc4b" y="318.534545"/>
      </g>
     </g>
     <g id="text_6">
      <!-- 0.0 -->
      <defs>
       <path d="M 27.796875 68.296875 
Q 33.203125 68.296875 37.546875 66 
Q 41.90625 63.703125 45 59.25 
Q 48.09375 54.796875 49.796875 48.34375 
Q 51.5 41.90625 51.5 33.59375 
Q 51.5 25.296875 49.796875 18.84375 
Q 48.09375 12.40625 45 7.953125 
Q 41.90625 3.5 37.546875 1.140625 
Q 33.203125 -1.203125 27.796875 -1.203125 
Q 22.40625 -1.203125 18.046875 1.140625 
Q 13.703125 3.5 10.59375 7.953125 
Q 7.5 12.40625 5.796875 18.84375 
Q 4.09375 25.296875 4.09375 33.59375 
Q 4.09375 41.90625 5.796875 48.34375 
Q 7.5 54.796875 10.59375 59.25 
Q 13.703125 63.703125 18.046875 66 
Q 22.40625 68.296875 27.796875 68.296875 
z
M 27.796875 63.59375 
Q 20.90625 63.59375 17.203125 56.046875 
Q 13.5 48.5 13.5 33.5 
Q 13.5 18.59375 17.203125 11.09375 
Q 20.90625 3.59375 27.796875 3.59375 
Q 34.703125 3.59375 38.34375 11.140625 
Q 42 18.703125 42 33.59375 
Q 42 48.5 38.34375 56.046875 
Q 34.703125 63.59375 27.796875 63.59375 
z
" id="Charter-48"/>
       <path d="M 13.90625 11.796875 
Q 16.5 11.796875 18.34375 9.9375 
Q 20.203125 8.09375 20.203125 5.40625 
Q 20.203125 2.796875 18.34375 0.9375 
Q 16.5 -0.90625 13.90625 -0.90625 
Q 11.296875 -0.90625 9.390625 0.890625 
Q 7.5 2.703125 7.5 5.40625 
Q 7.5 8.09375 9.390625 9.9375 
Q 11.296875 11.796875 13.90625 11.796875 
z
" id="Charter-46"/>
      </defs>
      <g transform="translate(34.09375 324.422045)scale(0.16 -0.16)">
       <use xlink:href="#Charter-48"/>
       <use x="55.599991" xlink:href="#Charter-46"/>
       <use x="83.399979" xlink:href="#Charter-48"/>
      </g>
     </g>
    </g>
    <g id="ytick_2">
     <g id="line2d_13">
      <path clip-path="url(#p7e9a912ef6)" d="M 63.33125 259.232727 
L 342.33125 259.232727 
" style="fill:none;stroke:#b0b0b0;stroke-linecap:square;stroke-opacity:0.3;stroke-width:0.8;"/>
     </g>
     <g id="line2d_14">
      <g>
       <use style="stroke:#000000;stroke-width:0.8;" x="63.33125" xlink:href="#mcdb290fc4b" y="259.232727"/>
      </g>
     </g>
     <g id="text_7">
      <!-- 0.2 -->
      <g transform="translate(34.09375 265.120227)scale(0.16 -0.16)">
       <use xlink:href="#Charter-48"/>
       <use x="55.599991" xlink:href="#Charter-46"/>
       <use x="83.399979" xlink:href="#Charter-50"/>
      </g>
     </g>
    </g>
    <g id="ytick_3">
     <g id="line2d_15">
      <path clip-path="url(#p7e9a912ef6)" d="M 63.33125 199.930909 
L 342.33125 199.930909 
" style="fill:none;stroke:#b0b0b0;stroke-linecap:square;stroke-opacity:0.3;stroke-width:0.8;"/>
     </g>
     <g id="line2d_16">
      <g>
       <use style="stroke:#000000;stroke-width:0.8;" x="63.33125" xlink:href="#mcdb290fc4b" y="199.930909"/>
      </g>
     </g>
     <g id="text_8">
      <!-- 0.4 -->
      <defs>
       <path d="M 42.59375 67.703125 
L 42.59375 25.90625 
L 53.90625 25.90625 
L 53.90625 19.40625 
L 42.59375 19.40625 
L 42.59375 -3.703125 
L 34.90625 -3.703125 
L 34.90625 19.40625 
L 2.703125 19.40625 
L 2.703125 25.90625 
L 36.796875 67.703125 
z
M 10.203125 25.90625 
L 34.90625 25.90625 
L 34.90625 56.796875 
z
" id="Charter-52"/>
      </defs>
      <g transform="translate(34.09375 205.818409)scale(0.16 -0.16)">
       <use xlink:href="#Charter-48"/>
       <use x="55.599991" xlink:href="#Charter-46"/>
       <use x="83.399979" xlink:href="#Charter-52"/>
      </g>
     </g>
    </g>
    <g id="ytick_4">
     <g id="line2d_17">
      <path clip-path="url(#p7e9a912ef6)" d="M 63.33125 140.629091 
L 342.33125 140.629091 
" style="fill:none;stroke:#b0b0b0;stroke-linecap:square;stroke-opacity:0.3;stroke-width:0.8;"/>
     </g>
     <g id="line2d_18">
      <g>
       <use style="stroke:#000000;stroke-width:0.8;" x="63.33125" xlink:href="#mcdb290fc4b" y="140.629091"/>
      </g>
     </g>
     <g id="text_9">
      <!-- 0.6 -->
      <defs>
       <path d="M 44.296875 65.59375 
L 44 65.59375 
Q 31.90625 65.59375 24.453125 58.6875 
Q 17 51.796875 14.703125 38.40625 
Q 22.59375 44.5 31.703125 44.5 
Q 36.203125 44.5 40 42.890625 
Q 43.796875 41.296875 46.546875 38.390625 
Q 49.296875 35.5 50.890625 31.5 
Q 52.5 27.5 52.5 22.703125 
Q 52.5 17.59375 50.640625 13.25 
Q 48.796875 8.90625 45.546875 5.703125 
Q 42.296875 2.5 37.84375 0.640625 
Q 33.40625 -1.203125 28.296875 -1.203125 
Q 23.203125 -1.203125 18.953125 0.796875 
Q 14.703125 2.796875 11.59375 6.5 
Q 8.5 10.203125 6.75 15.546875 
Q 5 20.90625 5 27.703125 
Q 5 37.296875 7.703125 45.09375 
Q 10.40625 52.90625 15.453125 58.546875 
Q 20.5 64.203125 27.796875 67.5 
Q 35.09375 70.796875 44.296875 71.40625 
z
M 14.5 34 
Q 14.296875 32.40625 14.296875 30.84375 
Q 14.296875 29.296875 14.296875 27.90625 
Q 14.296875 15.90625 18.140625 9.75 
Q 22 3.59375 29.09375 3.59375 
Q 32.203125 3.59375 34.84375 4.9375 
Q 37.5 6.296875 39.390625 8.6875 
Q 41.296875 11.09375 42.34375 14.4375 
Q 43.40625 17.796875 43.40625 21.796875 
Q 43.40625 29.59375 39.40625 34.046875 
Q 35.40625 38.5 29 38.5 
Q 20.59375 38.5 14.5 34 
z
" id="Charter-54"/>
      </defs>
      <g transform="translate(34.09375 146.516591)scale(0.16 -0.16)">
       <use xlink:href="#Charter-48"/>
       <use x="55.599991" xlink:href="#Charter-46"/>
       <use x="83.399979" xlink:href="#Charter-54"/>
      </g>
     </g>
    </g>
    <g id="ytick_5">
     <g id="line2d_19">
      <path clip-path="url(#p7e9a912ef6)" d="M 63.33125 81.327273 
L 342.33125 81.327273 
" style="fill:none;stroke:#b0b0b0;stroke-linecap:square;stroke-opacity:0.3;stroke-width:0.8;"/>
     </g>
     <g id="line2d_20">
      <g>
       <use style="stroke:#000000;stroke-width:0.8;" x="63.33125" xlink:href="#mcdb290fc4b" y="81.327273"/>
      </g>
     </g>
     <g id="text_10">
      <!-- 0.8 -->
      <defs>
       <path d="M 32.09375 36.90625 
Q 36 39.5 38.046875 43.09375 
Q 40.09375 46.703125 40.09375 50.703125 
Q 40.09375 56.703125 36.796875 60.203125 
Q 33.5 63.703125 28 63.703125 
Q 25.40625 63.703125 23.203125 62.796875 
Q 21 61.90625 19.34375 60.296875 
Q 17.703125 58.703125 16.796875 56.546875 
Q 15.90625 54.40625 15.90625 51.90625 
Q 15.90625 46.90625 19.90625 43.34375 
Q 23.90625 39.796875 32.09375 36.90625 
z
M 36.296875 35.09375 
Q 43.40625 32.59375 47 28.1875 
Q 50.59375 23.796875 50.59375 17.90625 
Q 50.59375 13.90625 48.9375 10.34375 
Q 47.296875 6.796875 44.25 4.140625 
Q 41.203125 1.5 36.953125 -0.046875 
Q 32.703125 -1.59375 27.5 -1.59375 
Q 22.09375 -1.59375 17.796875 -0.140625 
Q 13.5 1.296875 10.546875 3.84375 
Q 7.59375 6.40625 6 9.953125 
Q 4.40625 13.5 4.40625 17.703125 
Q 4.40625 29.703125 18.09375 35 
Q 7.59375 39.40625 7.59375 50.40625 
Q 7.59375 54.40625 9.09375 57.703125 
Q 10.59375 61 13.296875 63.390625 
Q 16 65.796875 19.796875 67.140625 
Q 23.59375 68.5 28.296875 68.5 
Q 32.796875 68.5 36.390625 67.25 
Q 40 66 42.546875 63.75 
Q 45.09375 61.5 46.4375 58.390625 
Q 47.796875 55.296875 47.796875 51.703125 
Q 47.796875 46.703125 44.84375 42.34375 
Q 41.90625 38 36.296875 35.09375 
z
M 21.90625 32.90625 
Q 16.796875 30.203125 14.4375 26.796875 
Q 12.09375 23.40625 12.09375 18.296875 
Q 12.09375 11.703125 16.34375 7.640625 
Q 20.59375 3.59375 27.796875 3.59375 
Q 34.296875 3.59375 38.140625 7.25 
Q 42 10.90625 42 16.90625 
Q 42 19.90625 40.75 22.046875 
Q 39.5 24.203125 37 26 
Q 34.5 27.796875 30.703125 29.390625 
Q 26.90625 31 21.90625 32.90625 
z
" id="Charter-56"/>
      </defs>
      <g transform="translate(34.09375 87.214773)scale(0.16 -0.16)">
       <use xlink:href="#Charter-48"/>
       <use x="55.599991" xlink:href="#Charter-46"/>
       <use x="83.399979" xlink:href="#Charter-56"/>
      </g>
     </g>
    </g>
    <g id="ytick_6">
     <g id="line2d_21">
      <path clip-path="url(#p7e9a912ef6)" d="M 63.33125 22.025455 
L 342.33125 22.025455 
" style="fill:none;stroke:#b0b0b0;stroke-linecap:square;stroke-opacity:0.3;stroke-width:0.8;"/>
     </g>
     <g id="line2d_22">
      <g>
       <use style="stroke:#000000;stroke-width:0.8;" x="63.33125" xlink:href="#mcdb290fc4b" y="22.025455"/>
      </g>
     </g>
     <g id="text_11">
      <!-- 1.0 -->
      <defs>
       <path d="M 33.90625 68.296875 
L 33.90625 6.203125 
L 35.09375 4.703125 
L 45.90625 4.203125 
L 45.90625 0 
L 12.40625 0 
L 12.40625 4.296875 
L 23.90625 4.90625 
L 25.09375 6.59375 
L 25.09375 60.40625 
L 9.40625 57.59375 
L 9.40625 61.796875 
L 31.09375 68.296875 
z
" id="Charter-49"/>
      </defs>
      <g transform="translate(34.09375 27.912955)scale(0.16 -0.16)">
       <use xlink:href="#Charter-49"/>
       <use x="55.599991" xlink:href="#Charter-46"/>
       <use x="83.399979" xlink:href="#Charter-48"/>
      </g>
     </g>
    </g>
    <g id="text_12">
     <!-- Normalized center [-] -->
     <defs>
      <path d="M 2.90625 4.09375 
L 9 4.90625 
L 10.796875 6.796875 
L 10.796875 61.09375 
L 9 62.5 
L 2.59375 63.09375 
L 2.59375 67.09375 
L 21.40625 67.09375 
L 21.40625 64.59375 
L 55.5 13.40625 
L 55.5 60.40625 
L 53.703125 62.203125 
L 47.703125 63.09375 
L 47.703125 67.09375 
L 68.703125 67.09375 
L 68.703125 63.09375 
L 62.703125 62.203125 
L 60.90625 60.40625 
L 60.90625 0 
L 54.296875 0 
L 16.203125 56.796875 
L 16.203125 6.796875 
L 18 4.90625 
L 24 4.09375 
L 24 0 
L 2.90625 0 
z
" id="Charter-78"/>
      <path d="M 26.90625 49.09375 
Q 32 49.09375 36.25 47.25 
Q 40.5 45.40625 43.59375 42.09375 
Q 46.703125 38.796875 48.453125 34.1875 
Q 50.203125 29.59375 50.203125 24.09375 
Q 50.203125 18.5 48.453125 13.890625 
Q 46.703125 9.296875 43.59375 6 
Q 40.5 2.703125 36.203125 0.890625 
Q 31.90625 -0.90625 26.90625 -0.90625 
Q 21.90625 -0.90625 17.65625 0.890625 
Q 13.40625 2.703125 10.296875 6 
Q 7.203125 9.296875 5.453125 13.890625 
Q 3.703125 18.5 3.703125 24.09375 
Q 3.703125 29.703125 5.453125 34.296875 
Q 7.203125 38.90625 10.25 42.203125 
Q 13.296875 45.5 17.546875 47.296875 
Q 21.796875 49.09375 26.90625 49.09375 
z
M 26.90625 44.796875 
Q 20.796875 44.796875 16.9375 39.34375 
Q 13.09375 33.90625 13.09375 24.09375 
Q 13.09375 19.296875 14.140625 15.4375 
Q 15.203125 11.59375 17 8.890625 
Q 18.796875 6.203125 21.34375 4.796875 
Q 23.90625 3.40625 26.90625 3.40625 
Q 33 3.40625 36.890625 8.84375 
Q 40.796875 14.296875 40.796875 24.09375 
Q 40.796875 33.796875 36.890625 39.296875 
Q 33 44.796875 26.90625 44.796875 
z
" id="Charter-111"/>
      <path d="M 3 3.59375 
L 8.296875 4.09375 
L 10.09375 5.703125 
L 10.09375 41.90625 
L 3 41.90625 
L 3 45 
L 14.59375 48.59375 
L 18.40625 48.59375 
L 18.40625 39.203125 
Q 21 41.90625 23.703125 44.296875 
Q 26.40625 46.703125 29.09375 48.90625 
Q 29.703125 49.09375 30.34375 49.09375 
Q 31 49.09375 31.59375 49.09375 
Q 34.59375 49.09375 37.59375 47.796875 
L 37.59375 39.203125 
L 34.40625 39.203125 
Q 32.40625 41.59375 29.296875 41.59375 
Q 24.59375 41.59375 18.40625 34.296875 
L 18.40625 5.703125 
L 20.09375 4.09375 
L 27.09375 3.59375 
L 27.09375 0 
L 3 0 
z
" id="Charter-114"/>
      <path d="M 45.40625 42.40625 
Q 56.796875 49.09375 62.59375 49.09375 
Q 68.59375 49.09375 72.046875 45.25 
Q 75.5 41.40625 75.5 33.90625 
L 75.5 5.703125 
L 77.203125 4.09375 
L 82.5 3.59375 
L 82.5 0 
L 60.703125 0 
L 60.703125 3.59375 
L 65.40625 4.09375 
L 67.203125 5.703125 
L 67.203125 32.203125 
Q 67.203125 37.5 65.046875 40 
Q 62.90625 42.5 58.203125 42.5 
Q 55.796875 42.5 52.9375 41.640625 
Q 50.09375 40.796875 46.90625 39.203125 
L 46.90625 5.703125 
L 48.703125 4.09375 
L 53.40625 3.59375 
L 53.40625 0 
L 32.09375 0 
L 32.09375 3.59375 
L 36.90625 4.09375 
L 38.59375 5.703125 
L 38.59375 32.203125 
Q 38.59375 42.5 29.796875 42.5 
Q 25 42.5 18.40625 39.203125 
L 18.40625 5.703125 
L 20.09375 4.09375 
L 24.90625 3.59375 
L 24.90625 0 
L 3 0 
L 3 3.59375 
L 8.40625 4.09375 
L 10.09375 5.703125 
L 10.09375 41.90625 
L 3 41.90625 
L 3 45 
L 14.59375 48.59375 
L 18.40625 48.59375 
L 18.40625 43.09375 
Q 23.40625 46 27.296875 47.546875 
Q 31.203125 49.09375 34.40625 49.09375 
Q 41.90625 49.09375 45.40625 42.40625 
z
" id="Charter-109"/>
      <path d="M 33.40625 5.796875 
Q 28.59375 2.59375 24.59375 0.9375 
Q 20.59375 -0.703125 17 -0.703125 
Q 11 -0.703125 7.59375 2.84375 
Q 4.203125 6.40625 4.203125 12.09375 
Q 4.203125 16 5.953125 18.640625 
Q 7.703125 21.296875 11.296875 23.296875 
Q 14.90625 25.296875 20.40625 26.890625 
Q 25.90625 28.5 33.40625 30.296875 
L 33.40625 33.5 
Q 33.40625 39.5 31.5 42.09375 
Q 29.59375 44.703125 24.203125 44.703125 
Q 20.5 44.703125 16.59375 43.09375 
L 16.59375 34.703125 
L 9.703125 34.703125 
Q 8 34.703125 7.296875 35.34375 
Q 6.59375 36 6.59375 37.796875 
Q 6.59375 40.09375 8 42.140625 
Q 9.40625 44.203125 12 45.75 
Q 14.59375 47.296875 18.34375 48.1875 
Q 22.09375 49.09375 26.796875 49.09375 
Q 34.703125 49.09375 38.203125 45.6875 
Q 41.703125 42.296875 41.703125 34.703125 
L 41.703125 5.703125 
L 43.5 4.09375 
L 48.796875 3.59375 
L 48.796875 0 
L 34.703125 0 
z
M 33.40625 26.796875 
Q 28.09375 25.296875 24.25 24 
Q 20.40625 22.703125 17.90625 21.140625 
Q 15.40625 19.59375 14.203125 17.59375 
Q 13 15.59375 13 12.90625 
Q 13 9.203125 15.09375 6.953125 
Q 17.203125 4.703125 21 4.703125 
Q 23.5 4.703125 26.546875 5.84375 
Q 29.59375 7 33.40625 9.203125 
z
" id="Charter-97"/>
      <path d="M 2.796875 3.59375 
L 8.703125 4.09375 
L 10.40625 5.703125 
L 10.40625 66.90625 
L 2.703125 66.90625 
L 2.703125 70 
L 14.90625 73.59375 
L 18.703125 73.59375 
L 18.703125 5.703125 
L 20.5 4.09375 
L 26.203125 3.59375 
L 26.203125 0 
L 2.796875 0 
z
" id="Charter-108"/>
      <path d="M 15.40625 70.796875 
Q 17.796875 70.796875 19.5 69.09375 
Q 21.203125 67.40625 21.203125 65 
Q 21.203125 62.59375 19.5 60.9375 
Q 17.796875 59.296875 15.40625 59.296875 
Q 13 59.296875 11.296875 60.9375 
Q 9.59375 62.59375 9.59375 65 
Q 9.59375 67.5 11.296875 69.140625 
Q 13 70.796875 15.40625 70.796875 
z
M 18.796875 48.59375 
L 18.796875 5.703125 
L 20.59375 4.09375 
L 26 3.59375 
L 26 0 
L 3.5 0 
L 3.5 3.59375 
L 8.796875 4.09375 
L 10.5 5.703125 
L 10.5 41.90625 
L 3.5 41.90625 
L 3.5 45 
L 15 48.59375 
z
" id="Charter-105"/>
      <path d="M 4.5 5 
L 31.203125 43.5 
L 12.703125 43.5 
L 11.296875 41.90625 
L 10.203125 34.203125 
L 5.5 34.203125 
L 5.5 48.09375 
L 41.59375 48.09375 
L 41.59375 44.296875 
L 13.90625 4.59375 
L 35.40625 4.59375 
L 36.90625 6.203125 
L 38 14.703125 
L 43.09375 14.703125 
L 43.09375 0 
L 4.5 0 
z
" id="Charter-122"/>
      <path d="M 44.796875 5.09375 
Q 40.296875 2.09375 35.546875 0.59375 
Q 30.796875 -0.90625 26 -0.90625 
Q 21 -0.90625 16.890625 0.890625 
Q 12.796875 2.703125 9.890625 5.890625 
Q 7 9.09375 5.34375 13.640625 
Q 3.703125 18.203125 3.703125 23.703125 
Q 3.703125 29.40625 5.390625 34.046875 
Q 7.09375 38.703125 10.1875 42.046875 
Q 13.296875 45.40625 17.546875 47.25 
Q 21.796875 49.09375 26.796875 49.09375 
Q 35 49.09375 39.890625 43.890625 
Q 44.796875 38.703125 44.796875 29.40625 
Q 44.796875 28.59375 44.796875 27.84375 
Q 44.796875 27.09375 44.703125 26.296875 
L 12.296875 26.296875 
L 12.296875 25.203125 
Q 12.296875 15.5 16.890625 10.140625 
Q 21.5 4.796875 29.09375 4.796875 
Q 32.90625 4.796875 36.703125 6.25 
Q 40.5 7.703125 44.796875 10.59375 
z
M 35.90625 32.09375 
Q 35.90625 38.203125 33.25 41.390625 
Q 30.59375 44.59375 25.5 44.59375 
Q 23.09375 44.59375 20.890625 43.59375 
Q 18.703125 42.59375 16.953125 40.75 
Q 15.203125 38.90625 14.09375 36.296875 
Q 13 33.703125 12.796875 30.5 
L 35.90625 30.5 
z
" id="Charter-101"/>
      <path d="M 30.59375 66.90625 
L 30.59375 70 
L 42.796875 73.59375 
L 46.59375 73.59375 
L 46.59375 5.703125 
L 48.296875 4.09375 
L 53.09375 3.59375 
L 53.09375 0 
L 38.296875 0 
L 38.296875 5.203125 
Q 34.5 2.09375 30.796875 0.59375 
Q 27.09375 -0.90625 22.90625 -0.90625 
Q 18.796875 -0.90625 15.296875 0.796875 
Q 11.796875 2.5 9.1875 5.546875 
Q 6.59375 8.59375 5.09375 12.890625 
Q 3.59375 17.203125 3.59375 22.5 
Q 3.59375 28.5 5.5 33.390625 
Q 7.40625 38.296875 10.796875 41.84375 
Q 14.203125 45.40625 18.953125 47.296875 
Q 23.703125 49.203125 29.40625 49.203125 
Q 33.40625 49.203125 38.296875 48.09375 
L 38.296875 66.90625 
z
M 38.296875 43.203125 
Q 35.703125 44 33.5 44.390625 
Q 31.296875 44.796875 29.5 44.796875 
Q 25.703125 44.796875 22.546875 43.34375 
Q 19.40625 41.90625 17.15625 39.203125 
Q 14.90625 36.5 13.65625 32.703125 
Q 12.40625 28.90625 12.40625 24.203125 
Q 12.40625 15.40625 16.5 10.40625 
Q 20.59375 5.40625 27.40625 5.40625 
Q 32.703125 5.40625 38.296875 8.90625 
z
" id="Charter-100"/>
      <path id="Charter-32"/>
      <path d="M 42.5 4.203125 
Q 34.09375 -0.703125 26.203125 -0.703125 
Q 21.09375 -0.703125 16.9375 1.09375 
Q 12.796875 2.90625 9.84375 6.15625 
Q 6.90625 9.40625 5.296875 13.953125 
Q 3.703125 18.5 3.703125 24.09375 
Q 3.703125 29.703125 5.453125 34.296875 
Q 7.203125 38.90625 10.296875 42.203125 
Q 13.40625 45.5 17.75 47.296875 
Q 22.09375 49.09375 27.40625 49.09375 
Q 34.59375 49.09375 38.5 46.390625 
Q 42.40625 43.703125 42.40625 39.296875 
Q 42.40625 36.90625 40.90625 35.453125 
Q 39.40625 34 36.796875 34 
Q 34.5 34 32.296875 35.5 
L 32.296875 43.703125 
Q 30 45.09375 27.5 45.09375 
Q 21 45.09375 16.890625 39.6875 
Q 12.796875 34.296875 12.796875 24.796875 
Q 12.796875 15.5 17.390625 10.34375 
Q 22 5.203125 29.796875 5.203125 
Q 36.203125 5.203125 42.5 9.40625 
L 42.5 4.203125 
z
" id="Charter-99"/>
      <path d="M 3 3.59375 
L 8.40625 4.09375 
L 10.09375 5.703125 
L 10.09375 41.90625 
L 3 41.90625 
L 3 45 
L 14.59375 48.59375 
L 18.40625 48.59375 
L 18.40625 43.09375 
Q 23.5 45.90625 27.390625 47.5 
Q 31.296875 49.09375 34.5 49.09375 
Q 41.09375 49.09375 44.546875 45.25 
Q 48 41.40625 48 33.90625 
L 48 5.703125 
L 49.703125 4.09375 
L 55.09375 3.59375 
L 55.09375 0 
L 33.203125 0 
L 33.203125 3.59375 
L 38 4.09375 
L 39.703125 5.703125 
L 39.703125 32.203125 
Q 39.703125 37.703125 37.453125 40.09375 
Q 35.203125 42.5 29.59375 42.5 
Q 24.796875 42.5 18.40625 39.203125 
L 18.40625 5.703125 
L 20.09375 4.09375 
L 24.90625 3.59375 
L 24.90625 0 
L 3 0 
z
" id="Charter-110"/>
      <path d="M 2.5 42.09375 
L 2.5 45.203125 
L 9.09375 48.09375 
L 13.40625 57.40625 
L 17.09375 57.40625 
L 17.09375 46.796875 
L 32.296875 46.796875 
L 32.296875 42.09375 
L 17.09375 42.09375 
L 17.09375 15.703125 
Q 17.09375 12.796875 17.390625 10.75 
Q 17.703125 8.703125 18.59375 7.390625 
Q 19.5 6.09375 21.140625 5.4375 
Q 22.796875 4.796875 25.40625 4.796875 
Q 28.59375 4.796875 32.296875 5.59375 
L 32.296875 1.90625 
Q 28.796875 0.796875 25.4375 0.25 
Q 22.09375 -0.296875 19.203125 -0.296875 
Q 13 -0.296875 10.890625 2.09375 
Q 8.796875 4.5 8.796875 9.796875 
L 8.796875 42.09375 
z
" id="Charter-116"/>
      <path d="M 37.59375 70.796875 
L 37.59375 66.5 
L 21.796875 66.5 
L 21.796875 -9 
L 37.59375 -9 
L 37.59375 -13.203125 
L 13.90625 -13.203125 
L 13.90625 70.796875 
z
" id="Charter-91"/>
      <path d="M 27.203125 27.40625 
L 27.203125 20.703125 
L 4.703125 20.703125 
L 4.703125 27.40625 
z
" id="Charter-45"/>
      <path d="M 28.203125 70.796875 
L 28.203125 -13.296875 
L 4.59375 -13.296875 
L 4.59375 -9 
L 20.40625 -9 
L 20.40625 66.5 
L 4.59375 66.5 
L 4.59375 70.796875 
z
" id="Charter-93"/>
     </defs>
     <g transform="translate(24.8625 284.265)rotate(-90)scale(0.24 -0.24)">
      <use xlink:href="#Charter-78"/>
      <use x="71.299988" xlink:href="#Charter-111"/>
      <use x="125.199982" xlink:href="#Charter-114"/>
      <use x="163.399979" xlink:href="#Charter-109"/>
      <use x="247.699966" xlink:href="#Charter-97"/>
      <use x="298.399963" xlink:href="#Charter-108"/>
      <use x="326.59996" xlink:href="#Charter-105"/>
      <use x="354.599945" xlink:href="#Charter-122"/>
      <use x="401.399933" xlink:href="#Charter-101"/>
      <use x="450.499924" xlink:href="#Charter-100"/>
      <use x="506.999908" xlink:href="#Charter-32"/>
      <use x="534.799896" xlink:href="#Charter-99"/>
      <use x="579.399887" xlink:href="#Charter-101"/>
      <use x="628.499878" xlink:href="#Charter-110"/>
      <use x="685.299866" xlink:href="#Charter-116"/>
      <use x="718.69986" xlink:href="#Charter-101"/>
      <use x="767.79985" xlink:href="#Charter-114"/>
      <use x="805.999847" xlink:href="#Charter-32"/>
      <use x="833.799835" xlink:href="#Charter-91"/>
      <use x="875.899826" xlink:href="#Charter-45"/>
      <use x="907.79982" xlink:href="#Charter-93"/>
     </g>
    </g>
   </g>
   <g id="PathCollection_1">
    <defs>
     <path d="M 0 3.535534 
C 0.937635 3.535534 1.836992 3.163008 2.5 2.5 
C 3.163008 1.836992 3.535534 0.937635 3.535534 0 
C 3.535534 -0.937635 3.163008 -1.836992 2.5 -2.5 
C 1.836992 -3.163008 0.937635 -3.535534 0 -3.535534 
C -0.937635 -3.535534 -1.836992 -3.163008 -2.5 -2.5 
C -3.163008 -1.836992 -3.535534 -0.937635 -3.535534 0 
C -3.535534 0.937635 -3.163008 1.836992 -2.5 2.5 
C -1.836992 3.163008 -0.937635 3.535534 0 3.535534 
z
" id="C0_0_eda4f128ff"/>
    </defs>
    <g clip-path="url(#p7e9a912ef6)">
     <use style="fill:#191b27;" x="106.254327" xlink:href="#C0_0_eda4f128ff" y="228.398895"/>
    </g>
    <g clip-path="url(#p7e9a912ef6)">
     <use style="fill:#191b27;" x="149.177404" xlink:href="#C0_0_eda4f128ff" y="297.68253"/>
    </g>
    <g clip-path="url(#p7e9a912ef6)">
     <use style="fill:#191b27;" x="192.100481" xlink:href="#C0_0_eda4f128ff" y="272.423507"/>
    </g>
    <g clip-path="url(#p7e9a912ef6)">
     <use style="fill:#191b27;" x="235.023558" xlink:href="#C0_0_eda4f128ff" y="298.792206"/>
    </g>
    <g clip-path="url(#p7e9a912ef6)">
     <use style="fill:#191b27;" x="277.946635" xlink:href="#C0_0_eda4f128ff" y="206.313723"/>
    </g>
   </g>
   <g id="PathCollection_2">
    <path clip-path="url(#p7e9a912ef6)" d="M 109.789861 240.162309 
L 102.718793 236.626775 
L 102.718793 243.697843 
z
" style="fill:#ff2f18;"/>
    <path clip-path="url(#p7e9a912ef6)" d="M 152.712938 269.018019 
L 145.64187 265.482485 
L 145.64187 272.553553 
z
" style="fill:#ff2f18;"/>
    <path clip-path="url(#p7e9a912ef6)" d="M 195.636015 243.793313 
L 188.564947 240.257779 
L 188.564947 247.328847 
z
" style="fill:#ff2f18;"/>
    <path clip-path="url(#p7e9a912ef6)" d="M 238.559092 267.766875 
L 231.488024 264.231341 
L 231.488024 271.302409 
z
" style="fill:#ff2f18;"/>
    <path clip-path="url(#p7e9a912ef6)" d="M 281.482169 214.331279 
L 274.411101 210.795745 
L 274.411101 217.866812 
z
" style="fill:#ff2f18;"/>
   </g>
   <g id="patch_8">
    <path d="M 63.33125 333.36 
L 63.33125 7.2 
" style="fill:none;stroke:#000000;stroke-linecap:square;stroke-linejoin:miter;stroke-width:0.8;"/>
   </g>
   <g id="patch_9">
    <path d="M 342.33125 333.36 
L 342.33125 7.2 
" style="fill:none;stroke:#000000;stroke-linecap:square;stroke-linejoin:miter;stroke-width:0.8;"/>
   </g>
   <g id="patch_10">
    <path d="M 63.33125 333.36 
L 342.33125 333.36 
" style="fill:none;stroke:#000000;stroke-linecap:square;stroke-linejoin:miter;stroke-width:0.8;"/>
   </g>
   <g id="patch_11">
    <path d="M 63.33125 7.2 
L 342.33125 7.2 
" style="fill:none;stroke:#000000;stroke-linecap:square;stroke-linejoin:miter;stroke-width:0.8;"/>
   </g>
   <g id="text_13">
    <!-- -13 % -->
    <defs>
     <path d="M 31.703125 35.296875 
Q 40.09375 34.703125 44.640625 30.390625 
Q 49.203125 26.09375 49.203125 19.203125 
Q 49.203125 15 47.390625 11.296875 
Q 45.59375 7.59375 42.296875 4.84375 
Q 39 2.09375 34.34375 0.5 
Q 29.703125 -1.09375 23.90625 -1.09375 
Q 19.40625 -1.09375 15.75 -0.09375 
Q 12.09375 0.90625 9.5 2.5 
Q 6.90625 4.09375 5.5 6.046875 
Q 4.09375 8 4.09375 9.90625 
Q 4.09375 12.09375 5.6875 13.546875 
Q 7.296875 15 9.703125 15 
Q 11.296875 15 12.703125 14.5 
L 15.796875 6 
Q 19.796875 3.59375 24.296875 3.59375 
Q 27.703125 3.59375 30.59375 4.796875 
Q 33.5 6 35.59375 8.140625 
Q 37.703125 10.296875 38.84375 13.1875 
Q 40 16.09375 40 19.40625 
Q 40 25.40625 36.203125 28.65625 
Q 32.40625 31.90625 25.203125 31.90625 
Q 24 31.90625 22.640625 31.796875 
Q 21.296875 31.703125 19.90625 31.5 
L 19.90625 37.40625 
Q 20.40625 37.40625 20.953125 37.34375 
Q 21.5 37.296875 22 37.296875 
Q 29.59375 37.296875 33.546875 40.6875 
Q 37.5 44.09375 37.5 50.203125 
Q 37.5 56.203125 34.046875 59.703125 
Q 30.59375 63.203125 24.796875 63.203125 
Q 19.5 63.203125 15.296875 60.296875 
L 15.296875 50.90625 
Q 13.59375 49.59375 11.203125 49.59375 
Q 8.796875 49.59375 7.296875 51.09375 
Q 5.796875 52.59375 5.796875 55 
Q 5.796875 57.5 7.34375 59.84375 
Q 8.90625 62.203125 11.65625 64.09375 
Q 14.40625 66 18.296875 67.140625 
Q 22.203125 68.296875 26.90625 68.296875 
Q 31.40625 68.296875 35.046875 67.09375 
Q 38.703125 65.90625 41.25 63.703125 
Q 43.796875 61.5 45.1875 58.390625 
Q 46.59375 55.296875 46.59375 51.5 
Q 46.59375 45.703125 42.84375 41.546875 
Q 39.09375 37.40625 31.703125 35.296875 
z
" id="Charter-51"/>
     <path d="M 18.09375 68.296875 
Q 24.90625 68.296875 29 62.84375 
Q 33.09375 57.40625 33.09375 47.40625 
Q 33.09375 37.40625 29.046875 31.90625 
Q 25 26.40625 18.09375 26.40625 
Q 11.203125 26.40625 7.140625 31.84375 
Q 3.09375 37.296875 3.09375 47.40625 
Q 3.09375 57.40625 7.1875 62.84375 
Q 11.296875 68.296875 18.09375 68.296875 
z
M 66.90625 67.09375 
L 24.09375 0 
L 18.09375 0 
L 60.796875 67.09375 
z
M 17.90625 64.703125 
Q 14.09375 64.703125 12.09375 60.34375 
Q 10.09375 56 10.09375 47.40625 
Q 10.09375 30 17.90625 30 
Q 25.90625 30 25.90625 47.40625 
Q 25.90625 56.09375 23.796875 60.390625 
Q 21.703125 64.703125 17.90625 64.703125 
z
M 67.09375 40.703125 
Q 73.90625 40.703125 78 35.25 
Q 82.09375 29.796875 82.09375 19.796875 
Q 82.09375 9.796875 78.046875 4.296875 
Q 74 -1.203125 67.09375 -1.203125 
Q 60.203125 -1.203125 56.140625 4.25 
Q 52.09375 9.703125 52.09375 19.796875 
Q 52.09375 29.796875 56.1875 35.25 
Q 60.296875 40.703125 67.09375 40.703125 
z
M 66.90625 37.203125 
Q 63.09375 37.203125 61.09375 32.796875 
Q 59.09375 28.40625 59.09375 19.796875 
Q 59.09375 2.40625 66.90625 2.40625 
Q 74.90625 2.40625 74.90625 19.796875 
Q 74.90625 28.5 72.796875 32.84375 
Q 70.703125 37.203125 66.90625 37.203125 
z
" id="Charter-37"/>
    </defs>
    <g style="fill:#ff2f18;" transform="translate(108.400481 237.197218)scale(0.16 -0.16)">
     <use xlink:href="#Charter-45"/>
     <use x="31.899994" xlink:href="#Charter-49"/>
     <use x="87.499985" xlink:href="#Charter-51"/>
     <use x="143.099976" xlink:href="#Charter-32"/>
     <use x="170.899963" xlink:href="#Charter-37"/>
    </g>
   </g>
   <g id="text_14">
    <!-- 137 % -->
    <defs>
     <path d="M 53.09375 67.09375 
L 53.09375 63.09375 
L 19.90625 -1.5 
L 19.90625 -3.703125 
L 11.59375 -3.703125 
L 44.203125 59.5 
L 13.40625 59.5 
L 11.796875 50.40625 
L 7.09375 50.40625 
L 7.09375 67.09375 
z
" id="Charter-55"/>
    </defs>
    <g style="fill:#ff2f18;" transform="translate(151.323558 266.052928)scale(0.16 -0.16)">
     <use xlink:href="#Charter-49"/>
     <use x="55.599991" xlink:href="#Charter-51"/>
     <use x="111.199982" xlink:href="#Charter-55"/>
     <use x="166.799973" xlink:href="#Charter-32"/>
     <use x="194.59996" xlink:href="#Charter-37"/>
    </g>
   </g>
   <g id="text_15">
    <!-- 62 % -->
    <g style="fill:#ff2f18;" transform="translate(194.246635 240.828222)scale(0.16 -0.16)">
     <use xlink:href="#Charter-54"/>
     <use x="55.599991" xlink:href="#Charter-50"/>
     <use x="111.199982" xlink:href="#Charter-32"/>
     <use x="138.999969" xlink:href="#Charter-37"/>
    </g>
   </g>
   <g id="text_16">
    <!-- 157 % -->
    <defs>
     <path d="M 45.90625 67.09375 
L 45.90625 59.296875 
L 16.296875 59.296875 
L 16.296875 39.296875 
Q 22 40.90625 27 40.90625 
Q 32 40.90625 36.046875 39.5 
Q 40.09375 38.09375 42.9375 35.546875 
Q 45.796875 33 47.34375 29.5 
Q 48.90625 26 48.90625 21.703125 
Q 48.90625 16.90625 47.046875 12.75 
Q 45.203125 8.59375 41.703125 5.546875 
Q 38.203125 2.5 33.25 0.796875 
Q 28.296875 -0.90625 22.203125 -0.90625 
Q 18.296875 -0.90625 15.140625 -0.09375 
Q 12 0.703125 9.75 2 
Q 7.5 3.296875 6.25 5 
Q 5 6.703125 5 8.5 
Q 5 10.796875 6.59375 12.296875 
Q 8.203125 13.796875 10.796875 13.796875 
Q 11.703125 13.796875 13.203125 13.5 
L 17.203125 4.90625 
Q 20.5 3.703125 23.90625 3.703125 
Q 27.40625 3.703125 30.296875 4.890625 
Q 33.203125 6.09375 35.296875 8.1875 
Q 37.40625 10.296875 38.546875 13.25 
Q 39.703125 16.203125 39.703125 19.703125 
Q 39.703125 27.5 34.546875 31.09375 
Q 29.40625 34.703125 18.90625 34.703125 
Q 13.40625 34.703125 10.09375 34.09375 
L 10.09375 67.09375 
z
" id="Charter-53"/>
    </defs>
    <g style="fill:#ff2f18;" transform="translate(237.169712 264.801784)scale(0.16 -0.16)">
     <use xlink:href="#Charter-49"/>
     <use x="55.599991" xlink:href="#Charter-53"/>
     <use x="111.199982" xlink:href="#Charter-55"/>
     <use x="166.799973" xlink:href="#Charter-32"/>
     <use x="194.59996" xlink:href="#Charter-37"/>
    </g>
   </g>
   <g id="text_17">
    <!-- -7 % -->
    <g style="fill:#ff2f18;" transform="translate(280.092788 211.366188)scale(0.16 -0.16)">
     <use xlink:href="#Charter-45"/>
     <use x="31.899994" xlink:href="#Charter-55"/>
     <use x="87.499985" xlink:href="#Charter-32"/>
     <use x="115.299973" xlink:href="#Charter-37"/>
    </g>
   </g>
   <g id="legend_1">
    <g id="patch_12">
     <path d="M 264.41125 66.525 
L 331.13125 66.525 
Q 334.33125 66.525 334.33125 63.325 
L 334.33125 18.4 
Q 334.33125 15.2 331.13125 15.2 
L 264.41125 15.2 
Q 261.21125 15.2 261.21125 18.4 
L 261.21125 63.325 
Q 261.21125 66.525 264.41125 66.525 
z
" style="fill:#ffffff;opacity:0.8;stroke:#cccccc;stroke-linejoin:miter;"/>
    </g>
    <g id="PathCollection_3">
     <path d="M 283.61125 32.710534 
C 284.548885 32.710534 285.448242 32.338008 286.11125 31.675 
C 286.774258 31.011992 287.146784 30.112635 287.146784 29.175 
C 287.146784 28.237365 286.774258 27.338008 286.11125 26.675 
C 285.448242 26.011992 284.548885 25.639466 283.61125 25.639466 
C 282.673615 25.639466 281.774258 26.011992 281.11125 26.675 
C 280.448242 27.338008 280.075716 28.237365 280.075716 29.175 
C 280.075716 30.112635 280.448242 31.011992 281.11125 31.675 
C 281.774258 32.338008 282.673615 32.710534 283.61125 32.710534 
z
" style="fill:#191b27;"/>
    </g>
    <g id="text_18">
     <!-- $\mathbf{X}$ -->
     <defs>
      <path d="M 29.703125 67.09375 
L 29.703125 62.296875 
L 23.703125 61.796875 
L 22.90625 60.5 
L 34.296875 41.90625 
L 47.296875 60.203125 
L 46.40625 61.59375 
L 40.90625 62.296875 
L 40.90625 67.09375 
L 63.296875 67.09375 
L 63.296875 62.296875 
L 57.09375 61.5 
L 38.5 36.296875 
L 57.703125 6.09375 
L 64.40625 4.796875 
L 64.40625 0 
L 35.40625 0 
L 35.40625 4.796875 
L 41.703125 5.59375 
L 42.40625 6.90625 
L 30.203125 26.90625 
L 16 7.09375 
L 16.59375 5.40625 
L 23.09375 4.796875 
L 23.09375 0 
L 0 0 
L 0 4.796875 
L 6.40625 5.796875 
L 25.90625 32.5 
L 7.703125 61.296875 
L 1.40625 62.296875 
L 1.40625 67.09375 
z
" id="Charter-Bold-88"/>
     </defs>
     <g transform="translate(312.41125 33.375)scale(0.16 -0.16)">
      <use transform="translate(0 0.90625)" xlink:href="#Charter-Bold-88"/>
     </g>
    </g>
    <g id="PathCollection_4">
     <path d="M 287.146784 52.4375 
L 280.075716 48.901966 
L 280.075716 55.973034 
z
" style="fill:#ff2f18;"/>
    </g>
    <g id="text_19">
     <!-- $\mathbf{X_r}$ -->
     <defs>
      <path d="M 2.90625 4.5 
L 8.203125 4.90625 
L 9.59375 6.40625 
L 9.59375 40.90625 
L 2.40625 40.90625 
L 2.40625 44.90625 
L 17.09375 49.59375 
L 21.90625 49.59375 
L 21.5 39.40625 
Q 24.203125 42.296875 27.140625 44.84375 
Q 30.09375 47.40625 33.203125 49.59375 
Q 33.703125 49.703125 34.296875 49.75 
Q 34.90625 49.796875 35.40625 49.796875 
Q 38.59375 49.796875 42 48.09375 
L 40.703125 34.296875 
L 35.5 34.296875 
Q 33.296875 37.90625 29 37.90625 
Q 26.5 37.90625 21.90625 35.09375 
L 21.90625 6.40625 
L 23.40625 4.90625 
L 30.5 4.5 
L 30.5 0 
L 2.90625 0 
z
" id="Charter-Bold-114"/>
     </defs>
     <g transform="translate(312.41125 56.6375)scale(0.16 -0.16)">
      <use transform="translate(0 0.90625)" xlink:href="#Charter-Bold-88"/>
      <use transform="translate(64.552302 -13.704688)scale(0.7)" xlink:href="#Charter-Bold-114"/>
     </g>
    </g>
   </g>
  </g>
 </g>
 <defs>
  <clipPath id="p7e9a912ef6">
   <rect height="326.16" width="279" x="63.33125" y="7.2"/>
  </clipPath>
 </defs>
</svg>
