<?xml version="1.0" encoding="utf-8" standalone="no"?>
<!DOCTYPE svg PUBLIC "-//W3C//DTD SVG 1.1//EN"
  "http://www.w3.org/Graphics/SVG/1.1/DTD/svg11.dtd">
<!-- Created with matplotlib (https://matplotlib.org/) -->
<svg height="167.130625pt" version="1.1" viewBox="0 0 591.22 167.130625" width="591.22pt" xmlns="http://www.w3.org/2000/svg" xmlns:xlink="http://www.w3.org/1999/xlink">
 <defs>
  <style type="text/css">
*{stroke-linecap:butt;stroke-linejoin:round;}
  </style>
 </defs>
 <g id="figure_1">
  <g id="patch_1">
   <path d="M 0 167.130625 
L 591.22 167.130625 
L 591.22 0 
L 0 0 
z
" style="fill:#ffffff;"/>
  </g>
  <g id="axes_1">
   <g id="patch_2">
    <path d="M 26.02 115.92 
L 584.02 115.92 
L 584.02 7.2 
L 26.02 7.2 
z
" style="fill:#ffffff;"/>
   </g>
   <g id="matplotlib.axis_1">
    <g id="xtick_1">
     <g id="line2d_1">
      <defs>
       <path d="M 0 0 
L 0 3.5 
" id="m76926ea96f" style="stroke:#000000;stroke-width:0.8;"/>
      </defs>
      <g>
       <use style="stroke:#000000;stroke-width:0.8;" x="51.383636" xlink:href="#m76926ea96f" y="115.92"/>
      </g>
     </g>
     <g id="text_1">
      <!-- $\sigma_{min, i}$ -->
      <defs>
       <path d="M 18.703125 -1.125 
Q 14.265625 -1.125 10.8125 1 
Q 7.375 3.125 5.484375 6.734375 
Q 3.609375 10.359375 3.609375 14.703125 
Q 3.609375 19.34375 5.703125 24.46875 
Q 7.8125 29.59375 11.453125 33.84375 
Q 15.09375 38.09375 19.671875 40.59375 
Q 24.265625 43.109375 29.109375 43.109375 
L 54.296875 43.109375 
Q 55.328125 43.109375 56.046875 42.421875 
Q 56.78125 41.75 56.78125 40.578125 
Q 56.78125 39.109375 55.734375 38.015625 
Q 54.6875 36.921875 53.21875 36.921875 
L 41.015625 36.921875 
Q 43.890625 32.625 43.890625 26.515625 
Q 43.890625 21.484375 41.9375 16.59375 
Q 39.984375 11.71875 36.515625 7.6875 
Q 33.0625 3.65625 28.4375 1.265625 
Q 23.828125 -1.125 18.703125 -1.125 
z
M 18.796875 1.515625 
Q 24.265625 1.515625 28.484375 5.78125 
Q 32.71875 10.0625 34.953125 16.234375 
Q 37.203125 22.40625 37.203125 27.6875 
Q 37.203125 31.984375 34.828125 34.453125 
Q 32.46875 36.921875 28.21875 36.921875 
Q 22.40625 36.921875 18.328125 33.015625 
Q 14.265625 29.109375 12.234375 23.1875 
Q 10.203125 17.28125 10.203125 11.8125 
Q 10.203125 7.515625 12.46875 4.515625 
Q 14.75 1.515625 18.796875 1.515625 
z
" id="Cmmi10-190"/>
       <path d="M 18.09375 48.203125 
L 3.296875 45 
L 3.296875 42.40625 
L 11.5 40.796875 
L 3.203125 0 
L 11.59375 0 
L 17.90625 33.90625 
C 24.203125 39.59375 29.5 42.09375 32.09375 42.09375 
C 35.59375 42.09375 37.59375 39.90625 37.59375 36.203125 
C 37.59375 34.796875 37.296875 32.5 36.703125 29.296875 
L 30.703125 0 
L 39 0 
L 45.5 34 
C 50.09375 39.40625 55.296875 42.09375 59.09375 42.09375 
C 62.40625 42.09375 64 39.90625 64 35.703125 
C 64 34.296875 63.796875 32.203125 63.09375 29.296875 
L 58.796875 10.796875 
C 58.296875 8.5 58 6.59375 58 5.40625 
C 58 1.296875 60.296875 -0.59375 65.296875 -0.59375 
C 68 -0.59375 72 0.5 77.296875 2.5 
L 77.296875 5.203125 
C 75 4.59375 73.09375 4.296875 71.703125 4.296875 
C 68.5 4.296875 66.59375 6.09375 66.59375 9.296875 
C 66.59375 10.90625 67.09375 13.09375 67.703125 15.796875 
L 71.09375 31.296875 
C 71.90625 34.703125 72.296875 37.5 72.296875 39.703125 
C 72.296875 45 68.90625 48.203125 64.09375 48.203125 
C 59.296875 48.203125 53.09375 45.203125 45.796875 39.09375 
C 45.703125 45 42.703125 48.203125 37.703125 48.203125 
C 33 48.203125 26.59375 45.09375 18.796875 38.703125 
L 20.59375 48.203125 
z
" id="Charter-Italic-109"/>
       <path d="M 20.09375 70.40625 
C 17.09375 70.40625 14.703125 68 14.703125 65 
C 14.703125 61.90625 17.09375 59.59375 20.09375 59.59375 
C 23 59.59375 25.5 62 25.5 65 
C 25.5 67.90625 23 70.40625 20.09375 70.40625 
z
M 18.09375 48.203125 
L 3.296875 45 
L 3.296875 42.40625 
L 11.40625 40.90625 
L 5.5 11.09375 
C 5.09375 8.90625 4.90625 7.09375 4.90625 5.90625 
C 4.90625 1.5 7 -0.703125 11.296875 -0.703125 
C 15.09375 -0.703125 19.90625 0.5 25.40625 2.796875 
L 25.40625 5.90625 
C 22.296875 4.90625 19.90625 4.40625 18 4.40625 
C 14.90625 4.40625 13.203125 5.703125 13.203125 8.296875 
C 13.203125 8.90625 13.296875 9.703125 13.5 10.796875 
L 20.703125 48.203125 
z
" id="Charter-Italic-105"/>
       <path d="M 18.09375 48.203125 
L 3.296875 44.90625 
L 3.296875 42.40625 
L 11.5 40.90625 
L 3.203125 0 
L 11.703125 0 
L 17.90625 33.796875 
C 24 39.40625 29.296875 42 32.703125 42 
C 36.5 42 38.09375 40.09375 38.09375 35.703125 
C 38.09375 34.40625 37.90625 32.203125 37.203125 29.296875 
L 32.90625 10.796875 
C 32.40625 8.59375 32.09375 6.703125 32.09375 5.40625 
C 32.09375 1.40625 34.5 -0.59375 39.40625 -0.59375 
C 42.203125 -0.59375 46.203125 0.40625 51.40625 2.40625 
L 51.40625 5.203125 
C 49.09375 4.59375 47.296875 4.296875 45.90625 4.296875 
C 42.59375 4.296875 40.703125 6 40.703125 9.203125 
C 40.703125 10.703125 41.203125 12.90625 41.796875 15.796875 
L 45.203125 31.296875 
C 46 34.90625 46.59375 37.703125 46.59375 40.203125 
C 46.59375 45.09375 43.40625 48.203125 38.203125 48.203125 
C 32.90625 48.203125 26.703125 44.90625 18.796875 38.59375 
L 20.59375 48.203125 
z
" id="Charter-Italic-110"/>
       <path d="M 3.90625 -13.59375 
Q 14.90625 -11.5 14.90625 -0.40625 
L 14.90625 0.703125 
L 8.5 0.703125 
Q 6.90625 2.40625 6.90625 5.09375 
Q 6.90625 7.59375 8.546875 9.09375 
Q 10.203125 10.59375 12.796875 10.59375 
Q 16.59375 10.59375 18.6875 8 
Q 20.796875 5.40625 20.796875 0.59375 
Q 20.796875 -2.59375 19.59375 -5.59375 
Q 18.40625 -8.59375 16.15625 -10.9375 
Q 13.90625 -13.296875 10.796875 -14.890625 
Q 7.703125 -16.5 3.90625 -16.90625 
z
" id="Charter-44"/>
      </defs>
      <g transform="translate(28.683636 135.810625)scale(0.2 -0.2)">
       <use transform="translate(0 0.890625)" xlink:href="#Cmmi10-190"/>
       <use transform="translate(57.080078 -13.6875)scale(0.7)" xlink:href="#Charter-Italic-109"/>
       <use transform="translate(114.130067 -13.6875)scale(0.7)" xlink:href="#Charter-Italic-105"/>
       <use transform="translate(134.220065 -13.6875)scale(0.7)" xlink:href="#Charter-Italic-110"/>
       <use transform="translate(173.140059 -13.6875)scale(0.7)" xlink:href="#Charter-44"/>
       <use transform="translate(204.010048 -13.6875)scale(0.7)" xlink:href="#Charter-Italic-105"/>
      </g>
     </g>
    </g>
    <g id="xtick_2">
     <g id="line2d_2">
      <g>
       <use style="stroke:#000000;stroke-width:0.8;" x="373.257194" xlink:href="#m76926ea96f" y="115.92"/>
      </g>
     </g>
     <g id="text_2">
      <!-- $\sigma_{peak, i}$ -->
      <defs>
       <path d="M 16.90625 48.203125 
L 2.703125 45.203125 
L 2.703125 42.703125 
L 10.5 41.703125 
L 0 -16.5 
L -1 -17.59375 
L -6.90625 -18.796875 
L -6.90625 -21.796875 
L 17.09375 -21.796875 
L 17.09375 -18.796875 
L 7.59375 -17.09375 
L 10.90625 1.5 
C 13.40625 0.296875 16 -0.40625 18.59375 -0.40625 
C 25.40625 -0.40625 32.5 2.90625 37.59375 8.5 
C 43.296875 14.796875 46.09375 22.09375 46.09375 30.796875 
C 46.09375 42.09375 41.296875 48.203125 33.40625 48.203125 
C 29.09375 48.203125 24.09375 46.203125 18.296875 42.09375 
L 19.5 48.203125 
z
M 11.90625 6.703125 
L 17.59375 37.703125 
C 22.09375 41.203125 25.796875 43 28.796875 43 
C 34.203125 43 37.796875 38.5 37.796875 30.59375 
C 37.796875 22.59375 35 14.5 31.703125 10.09375 
C 28.59375 6 24.90625 4 20.5 4 
C 17.703125 4 14.90625 4.90625 11.90625 6.703125 
z
" id="Charter-Italic-112"/>
       <path d="M 11 25.59375 
C 13.90625 37.703125 19.59375 44 25.40625 44 
C 28.296875 44 30.59375 41.703125 30.59375 38.59375 
C 30.59375 32.296875 23.5 26.296875 11 25.59375 
z
M 10.5 22.203125 
C 28.296875 23.40625 37.796875 29.796875 37.796875 38.296875 
C 37.796875 44.296875 33.796875 48.203125 27.5 48.203125 
C 22.59375 48.203125 16.09375 45.296875 11 40 
C 5.40625 34.09375 2.09375 25.703125 2.09375 17.296875 
C 2.09375 5.703125 7.796875 -0.90625 17.203125 -0.90625 
C 23.796875 -0.90625 30.40625 2.09375 36.59375 8.09375 
L 36.59375 12.796875 
C 30.796875 7.40625 25.203125 4.59375 20.59375 4.59375 
C 14.203125 4.59375 10.203125 9.5 10.203125 17.59375 
C 10.203125 19.203125 10.296875 20.796875 10.5 22.203125 
z
" id="Charter-Italic-101"/>
       <path d="M 41 48.203125 
L 39 46 
C 35.90625 47.5 32.796875 48.203125 30 48.203125 
C 20.09375 48.203125 12 43.5 6.90625 35.09375 
C 3.5 29.5 1.703125 23.296875 1.703125 16.59375 
C 1.703125 5.59375 7 -0.90625 15.5 -0.90625 
C 20.296875 -0.90625 25.09375 1.90625 30.40625 7.5 
C 30.40625 7.203125 30.40625 7 30.40625 6.703125 
C 30.40625 1.59375 32.296875 -0.90625 36.5 -0.90625 
C 39.203125 -0.90625 43.296875 0.296875 48.796875 2.59375 
L 48.796875 5.59375 
C 46.09375 5 44.296875 4.59375 43.203125 4.59375 
C 39.5 4.59375 37.796875 6 37.796875 9.203125 
C 37.796875 10.59375 38.09375 12.90625 38.796875 16.203125 
L 42.40625 33.90625 
C 43.90625 41.296875 45.203125 46.09375 46.203125 48.203125 
z
M 31.703125 44.296875 
L 35.703125 38.203125 
L 30.5 11.796875 
C 26.40625 7.40625 22.5 5.203125 18.703125 5.203125 
C 12.90625 5.203125 10 9.203125 10 17.203125 
C 10 33.09375 18.59375 44.296875 30.296875 44.296875 
C 30.796875 44.296875 31.203125 44.296875 31.703125 44.296875 
z
" id="Charter-Italic-97"/>
       <path d="M 22.5 73.59375 
L 6.796875 70.703125 
L 6.796875 67.90625 
L 16 67.40625 
L 2.5 0 
L 10.796875 0 
L 14 19.203125 
L 19.703125 24.40625 
L 28.203125 7.203125 
C 30.796875 2 33.59375 -0.5 37.59375 -0.5 
C 39.5 -0.5 43.5 0.296875 49.296875 2.203125 
L 49.296875 5 
C 47.296875 4.59375 45.59375 4.296875 44.09375 4.296875 
C 37.203125 4.296875 33.203125 12.796875 25.59375 30 
C 30 34 34.203125 37.703125 38.5 40.796875 
L 42.09375 36.90625 
C 45.796875 38.40625 47.59375 40.5 47.59375 43.09375 
C 47.59375 46 45.203125 48.203125 41.90625 48.203125 
C 39.5 48.203125 36.59375 46.5 33.09375 42.90625 
L 14.59375 23.796875 
L 25.296875 73.59375 
z
" id="Charter-Italic-107"/>
      </defs>
      <g transform="translate(348.357194 135.210625)scale(0.2 -0.2)">
       <use transform="translate(0 0.890625)" xlink:href="#Cmmi10-190"/>
       <use transform="translate(57.080078 -13.6875)scale(0.7)" xlink:href="#Charter-Italic-112"/>
       <use transform="translate(93.200072 -13.6875)scale(0.7)" xlink:href="#Charter-Italic-101"/>
       <use transform="translate(122.880067 -13.6875)scale(0.7)" xlink:href="#Charter-Italic-97"/>
       <use transform="translate(159.630057 -13.6875)scale(0.7)" xlink:href="#Charter-Italic-107"/>
       <use transform="translate(195.610052 -13.6875)scale(0.7)" xlink:href="#Charter-44"/>
       <use transform="translate(226.480042 -13.6875)scale(0.7)" xlink:href="#Charter-Italic-105"/>
      </g>
     </g>
    </g>
    <g id="xtick_3">
     <g id="line2d_3">
      <g>
       <use style="stroke:#000000;stroke-width:0.8;" x="558.656364" xlink:href="#m76926ea96f" y="115.92"/>
      </g>
     </g>
     <g id="text_3">
      <!-- $\sigma_{max, i}$ -->
      <defs>
       <path d="M 12.90625 48.5 
L 2.796875 45 
L 2.796875 42.59375 
L 11.09375 41.5 
C 13.796875 39 16.09375 33.203125 18.703125 24.09375 
C 14.59375 14.203125 9.296875 7.796875 4.796875 5.40625 
L 0.203125 9.703125 
C -2.90625 9.09375 -4.703125 7.296875 -4.703125 4.59375 
C -4.703125 1.40625 -2.296875 -0.796875 1.5 -0.796875 
C 8.09375 -0.796875 14.09375 5.90625 20.59375 19.5 
C 23.90625 5.296875 25.203125 -0.59375 32.203125 -0.59375 
C 34.90625 -0.59375 38.703125 0.40625 43.40625 2.296875 
L 43.40625 5.40625 
C 41 4.703125 39.203125 4.296875 38.09375 4.296875 
C 32.09375 4.296875 30.703125 10.59375 26.796875 24.09375 
C 31.203125 34.296875 35.59375 40 40.203125 41.203125 
L 44.5 37.296875 
C 47.703125 38.59375 49.40625 40.5 49.40625 42.90625 
C 49.40625 46 46.90625 48.5 43.703125 48.5 
C 37.40625 48.5 31.203125 41.796875 24.59375 28.40625 
C 21.09375 42 19.90625 48.59375 14 48.59375 
C 13.59375 48.59375 13.296875 48.5 12.90625 48.5 
z
" id="Charter-Italic-120"/>
      </defs>
      <g transform="translate(534.856364 135.810625)scale(0.2 -0.2)">
       <use transform="translate(0 0.890625)" xlink:href="#Cmmi10-190"/>
       <use transform="translate(57.080078 -13.6875)scale(0.7)" xlink:href="#Charter-Italic-109"/>
       <use transform="translate(114.130067 -13.6875)scale(0.7)" xlink:href="#Charter-Italic-97"/>
       <use transform="translate(150.880057 -13.6875)scale(0.7)" xlink:href="#Charter-Italic-120"/>
       <use transform="translate(184.270055 -13.6875)scale(0.7)" xlink:href="#Charter-44"/>
       <use transform="translate(215.140044 -13.6875)scale(0.7)" xlink:href="#Charter-Italic-105"/>
      </g>
     </g>
    </g>
    <g id="text_4">
     <!-- $\sigma$ [-] -->
     <defs>
      <path id="ArialMT-32"/>
      <path d="M 6.78125 -19.875 
L 6.78125 71.578125 
L 26.171875 71.578125 
L 26.171875 64.3125 
L 15.578125 64.3125 
L 15.578125 -12.59375 
L 26.171875 -12.59375 
L 26.171875 -19.875 
z
" id="ArialMT-91"/>
      <path d="M 3.171875 21.484375 
L 3.171875 30.328125 
L 30.171875 30.328125 
L 30.171875 21.484375 
z
" id="ArialMT-45"/>
      <path d="M 21.296875 -19.875 
L 1.90625 -19.875 
L 1.90625 -12.59375 
L 12.5 -12.59375 
L 12.5 64.3125 
L 1.90625 64.3125 
L 1.90625 71.578125 
L 21.296875 71.578125 
z
" id="ArialMT-93"/>
     </defs>
     <g transform="translate(291.1 156.730625)scale(0.16 -0.16)">
      <use transform="translate(0 0.421875)" xlink:href="#Cmmi10-190"/>
      <use transform="translate(57.080078 0.421875)" xlink:href="#ArialMT-32"/>
      <use transform="translate(84.863281 0.421875)" xlink:href="#ArialMT-91"/>
      <use transform="translate(112.646484 0.421875)" xlink:href="#ArialMT-45"/>
      <use transform="translate(145.947266 0.421875)" xlink:href="#ArialMT-93"/>
     </g>
    </g>
   </g>
   <g id="matplotlib.axis_2">
    <g id="text_5">
     <!-- Weight [-] -->
     <defs>
      <path d="M 20.21875 0 
L 1.21875 71.578125 
L 10.9375 71.578125 
L 21.828125 24.65625 
Q 23.578125 17.28125 24.859375 10.015625 
Q 27.59375 21.484375 28.078125 23.25 
L 41.703125 71.578125 
L 53.125 71.578125 
L 63.375 35.359375 
Q 67.234375 21.875 68.953125 10.015625 
Q 70.3125 16.796875 72.515625 25.59375 
L 83.734375 71.578125 
L 93.265625 71.578125 
L 73.640625 0 
L 64.5 0 
L 49.421875 54.546875 
Q 47.515625 61.375 47.171875 62.9375 
Q 46.046875 58.015625 45.0625 54.546875 
L 29.890625 0 
z
" id="ArialMT-87"/>
      <path d="M 42.09375 16.703125 
L 51.171875 15.578125 
Q 49.03125 7.625 43.21875 3.21875 
Q 37.40625 -1.171875 28.375 -1.171875 
Q 17 -1.171875 10.328125 5.828125 
Q 3.65625 12.84375 3.65625 25.484375 
Q 3.65625 38.578125 10.390625 45.796875 
Q 17.140625 53.03125 27.875 53.03125 
Q 38.28125 53.03125 44.875 45.953125 
Q 51.46875 38.875 51.46875 26.03125 
Q 51.46875 25.25 51.421875 23.6875 
L 12.75 23.6875 
Q 13.234375 15.140625 17.578125 10.59375 
Q 21.921875 6.0625 28.421875 6.0625 
Q 33.25 6.0625 36.671875 8.59375 
Q 40.09375 11.140625 42.09375 16.703125 
z
M 13.234375 30.90625 
L 42.1875 30.90625 
Q 41.609375 37.453125 38.875 40.71875 
Q 34.671875 45.796875 27.984375 45.796875 
Q 21.921875 45.796875 17.796875 41.75 
Q 13.671875 37.703125 13.234375 30.90625 
z
" id="ArialMT-101"/>
      <path d="M 6.640625 61.46875 
L 6.640625 71.578125 
L 15.4375 71.578125 
L 15.4375 61.46875 
z
M 6.640625 0 
L 6.640625 51.859375 
L 15.4375 51.859375 
L 15.4375 0 
z
" id="ArialMT-105"/>
      <path d="M 4.984375 -4.296875 
L 13.53125 -5.5625 
Q 14.0625 -9.515625 16.5 -11.328125 
Q 19.78125 -13.765625 25.4375 -13.765625 
Q 31.546875 -13.765625 34.859375 -11.328125 
Q 38.1875 -8.890625 39.359375 -4.5 
Q 40.046875 -1.8125 39.984375 6.78125 
Q 34.234375 0 25.640625 0 
Q 14.9375 0 9.078125 7.71875 
Q 3.21875 15.4375 3.21875 26.21875 
Q 3.21875 33.640625 5.90625 39.90625 
Q 8.59375 46.1875 13.6875 49.609375 
Q 18.796875 53.03125 25.6875 53.03125 
Q 34.859375 53.03125 40.828125 45.609375 
L 40.828125 51.859375 
L 48.921875 51.859375 
L 48.921875 7.03125 
Q 48.921875 -5.078125 46.453125 -10.125 
Q 44 -15.1875 38.640625 -18.109375 
Q 33.296875 -21.046875 25.484375 -21.046875 
Q 16.21875 -21.046875 10.5 -16.875 
Q 4.78125 -12.703125 4.984375 -4.296875 
z
M 12.25 26.859375 
Q 12.25 16.65625 16.296875 11.96875 
Q 20.359375 7.28125 26.46875 7.28125 
Q 32.515625 7.28125 36.609375 11.9375 
Q 40.71875 16.609375 40.71875 26.5625 
Q 40.71875 36.078125 36.5 40.90625 
Q 32.28125 45.75 26.3125 45.75 
Q 20.453125 45.75 16.34375 40.984375 
Q 12.25 36.234375 12.25 26.859375 
z
" id="ArialMT-103"/>
      <path d="M 6.59375 0 
L 6.59375 71.578125 
L 15.375 71.578125 
L 15.375 45.90625 
Q 21.53125 53.03125 30.90625 53.03125 
Q 36.671875 53.03125 40.921875 50.75 
Q 45.171875 48.484375 47 44.484375 
Q 48.828125 40.484375 48.828125 32.859375 
L 48.828125 0 
L 40.046875 0 
L 40.046875 32.859375 
Q 40.046875 39.453125 37.1875 42.453125 
Q 34.328125 45.453125 29.109375 45.453125 
Q 25.203125 45.453125 21.75 43.421875 
Q 18.3125 41.40625 16.84375 37.9375 
Q 15.375 34.46875 15.375 28.375 
L 15.375 0 
z
" id="ArialMT-104"/>
      <path d="M 25.78125 7.859375 
L 27.046875 0.09375 
Q 23.34375 -0.6875 20.40625 -0.6875 
Q 15.625 -0.6875 12.984375 0.828125 
Q 10.359375 2.34375 9.28125 4.8125 
Q 8.203125 7.28125 8.203125 15.1875 
L 8.203125 45.015625 
L 1.765625 45.015625 
L 1.765625 51.859375 
L 8.203125 51.859375 
L 8.203125 64.703125 
L 16.9375 69.96875 
L 16.9375 51.859375 
L 25.78125 51.859375 
L 25.78125 45.015625 
L 16.9375 45.015625 
L 16.9375 14.703125 
Q 16.9375 10.9375 17.40625 9.859375 
Q 17.875 8.796875 18.921875 8.15625 
Q 19.96875 7.515625 21.921875 7.515625 
Q 23.390625 7.515625 25.78125 7.859375 
z
" id="ArialMT-116"/>
     </defs>
     <g transform="translate(18.6525 95.7875)rotate(-90)scale(0.16 -0.16)">
      <use xlink:href="#ArialMT-87"/>
      <use x="94.369141" xlink:href="#ArialMT-101"/>
      <use x="149.984375" xlink:href="#ArialMT-105"/>
      <use x="172.201172" xlink:href="#ArialMT-103"/>
      <use x="227.816406" xlink:href="#ArialMT-104"/>
      <use x="283.431641" xlink:href="#ArialMT-116"/>
      <use x="311.214844" xlink:href="#ArialMT-32"/>
      <use x="338.998047" xlink:href="#ArialMT-91"/>
      <use x="366.78125" xlink:href="#ArialMT-45"/>
      <use x="400.082031" xlink:href="#ArialMT-93"/>
     </g>
    </g>
   </g>
   <g id="line2d_4">
    <path clip-path="url(#p222a12412d)" d="M 51.383636 12.141818 
L 373.257194 110.978182 
L 558.656364 54.048436 
L 558.656364 54.048436 
" style="fill:none;stroke:#000000;stroke-dasharray:11.1,4.8;stroke-dashoffset:0;stroke-width:3;"/>
   </g>
   <g id="patch_3">
    <path d="M 26.02 115.92 
L 26.02 7.2 
" style="fill:none;stroke:#000000;stroke-linecap:square;stroke-linejoin:miter;stroke-width:0.8;"/>
   </g>
   <g id="patch_4">
    <path d="M 584.02 115.92 
L 584.02 7.2 
" style="fill:none;stroke:#000000;stroke-linecap:square;stroke-linejoin:miter;stroke-width:0.8;"/>
   </g>
   <g id="patch_5">
    <path d="M 26.02 115.92 
L 584.02 115.92 
" style="fill:none;stroke:#000000;stroke-linecap:square;stroke-linejoin:miter;stroke-width:0.8;"/>
   </g>
   <g id="patch_6">
    <path d="M 26.02 7.2 
L 584.02 7.2 
" style="fill:none;stroke:#000000;stroke-linecap:square;stroke-linejoin:miter;stroke-width:0.8;"/>
   </g>
   <g id="legend_1">
    <g id="patch_7">
     <path d="M 314.0925 42.82 
L 572.82 42.82 
Q 576.02 42.82 576.02 39.62 
L 576.02 18.4 
Q 576.02 15.2 572.82 15.2 
L 314.0925 15.2 
Q 310.8925 15.2 310.8925 18.4 
L 310.8925 39.62 
Q 310.8925 42.82 314.0925 42.82 
z
" style="fill:#ffffff;opacity:0.8;stroke:#cccccc;stroke-linejoin:miter;"/>
    </g>
    <g id="line2d_5">
     <path d="M 317.2925 27.4525 
L 349.2925 27.4525 
" style="fill:none;stroke:#000000;stroke-dasharray:11.1,4.8;stroke-dashoffset:0;stroke-width:3;"/>
    </g>
    <g id="line2d_6"/>
    <g id="text_6">
     <!-- weight='log-sigma-over-peak' -->
     <defs>
      <path d="M 16.15625 0 
L 0.296875 51.859375 
L 9.375 51.859375 
L 17.625 21.921875 
L 20.703125 10.796875 
Q 20.90625 11.625 23.390625 21.484375 
L 31.640625 51.859375 
L 40.671875 51.859375 
L 48.4375 21.78125 
L 51.03125 11.859375 
L 54 21.875 
L 62.890625 51.859375 
L 71.4375 51.859375 
L 55.21875 0 
L 46.09375 0 
L 37.84375 31.0625 
L 35.84375 39.890625 
L 25.34375 0 
z
" id="ArialMT-119"/>
      <path d="M 52.828125 42.09375 
L 5.5625 42.09375 
L 5.5625 50.296875 
L 52.828125 50.296875 
z
M 52.828125 20.359375 
L 5.5625 20.359375 
L 5.5625 28.5625 
L 52.828125 28.5625 
z
" id="ArialMT-61"/>
      <path d="M 6.640625 46.234375 
L 4.390625 59.625 
L 4.390625 71.578125 
L 14.40625 71.578125 
L 14.40625 59.625 
L 12.0625 46.234375 
z
" id="ArialMT-39"/>
      <path d="M 6.390625 0 
L 6.390625 71.578125 
L 15.1875 71.578125 
L 15.1875 0 
z
" id="ArialMT-108"/>
      <path d="M 3.328125 25.921875 
Q 3.328125 40.328125 11.328125 47.265625 
Q 18.015625 53.03125 27.640625 53.03125 
Q 38.328125 53.03125 45.109375 46.015625 
Q 51.90625 39.015625 51.90625 26.65625 
Q 51.90625 16.65625 48.90625 10.90625 
Q 45.90625 5.171875 40.15625 2 
Q 34.421875 -1.171875 27.640625 -1.171875 
Q 16.75 -1.171875 10.03125 5.8125 
Q 3.328125 12.796875 3.328125 25.921875 
z
M 12.359375 25.921875 
Q 12.359375 15.96875 16.703125 11.015625 
Q 21.046875 6.0625 27.640625 6.0625 
Q 34.1875 6.0625 38.53125 11.03125 
Q 42.875 16.015625 42.875 26.21875 
Q 42.875 35.84375 38.5 40.796875 
Q 34.125 45.75 27.640625 45.75 
Q 21.046875 45.75 16.703125 40.8125 
Q 12.359375 35.890625 12.359375 25.921875 
z
" id="ArialMT-111"/>
      <path d="M 3.078125 15.484375 
L 11.765625 16.84375 
Q 12.5 11.625 15.84375 8.84375 
Q 19.1875 6.0625 25.203125 6.0625 
Q 31.25 6.0625 34.171875 8.515625 
Q 37.109375 10.984375 37.109375 14.3125 
Q 37.109375 17.28125 34.515625 19 
Q 32.71875 20.171875 25.53125 21.96875 
Q 15.875 24.421875 12.140625 26.203125 
Q 8.40625 27.984375 6.46875 31.125 
Q 4.546875 34.28125 4.546875 38.09375 
Q 4.546875 41.546875 6.125 44.5 
Q 7.71875 47.46875 10.453125 49.421875 
Q 12.5 50.921875 16.03125 51.96875 
Q 19.578125 53.03125 23.640625 53.03125 
Q 29.734375 53.03125 34.34375 51.265625 
Q 38.96875 49.515625 41.15625 46.5 
Q 43.359375 43.5 44.1875 38.484375 
L 35.59375 37.3125 
Q 35.015625 41.3125 32.203125 43.546875 
Q 29.390625 45.796875 24.265625 45.796875 
Q 18.21875 45.796875 15.625 43.796875 
Q 13.03125 41.796875 13.03125 39.109375 
Q 13.03125 37.40625 14.109375 36.03125 
Q 15.1875 34.625 17.484375 33.6875 
Q 18.796875 33.203125 25.25 31.453125 
Q 34.578125 28.953125 38.25 27.359375 
Q 41.9375 25.78125 44.03125 22.75 
Q 46.140625 19.734375 46.140625 15.234375 
Q 46.140625 10.84375 43.578125 6.953125 
Q 41.015625 3.078125 36.171875 0.953125 
Q 31.34375 -1.171875 25.25 -1.171875 
Q 15.140625 -1.171875 9.84375 3.03125 
Q 4.546875 7.234375 3.078125 15.484375 
z
" id="ArialMT-115"/>
      <path d="M 6.59375 0 
L 6.59375 51.859375 
L 14.453125 51.859375 
L 14.453125 44.578125 
Q 16.890625 48.390625 20.9375 50.703125 
Q 25 53.03125 30.171875 53.03125 
Q 35.9375 53.03125 39.625 50.640625 
Q 43.3125 48.25 44.828125 43.953125 
Q 50.984375 53.03125 60.84375 53.03125 
Q 68.5625 53.03125 72.703125 48.75 
Q 76.859375 44.484375 76.859375 35.59375 
L 76.859375 0 
L 68.109375 0 
L 68.109375 32.671875 
Q 68.109375 37.9375 67.25 40.25 
Q 66.40625 42.578125 64.15625 43.984375 
Q 61.921875 45.40625 58.890625 45.40625 
Q 53.421875 45.40625 49.796875 41.765625 
Q 46.1875 38.140625 46.1875 30.125 
L 46.1875 0 
L 37.40625 0 
L 37.40625 33.6875 
Q 37.40625 39.546875 35.25 42.46875 
Q 33.109375 45.40625 28.21875 45.40625 
Q 24.515625 45.40625 21.359375 43.453125 
Q 18.21875 41.5 16.796875 37.734375 
Q 15.375 33.984375 15.375 26.90625 
L 15.375 0 
z
" id="ArialMT-109"/>
      <path d="M 40.4375 6.390625 
Q 35.546875 2.25 31.03125 0.53125 
Q 26.515625 -1.171875 21.34375 -1.171875 
Q 12.796875 -1.171875 8.203125 3 
Q 3.609375 7.171875 3.609375 13.671875 
Q 3.609375 17.484375 5.34375 20.625 
Q 7.078125 23.78125 9.890625 25.6875 
Q 12.703125 27.59375 16.21875 28.5625 
Q 18.796875 29.25 24.03125 29.890625 
Q 34.671875 31.15625 39.703125 32.90625 
Q 39.75 34.71875 39.75 35.203125 
Q 39.75 40.578125 37.25 42.78125 
Q 33.890625 45.75 27.25 45.75 
Q 21.046875 45.75 18.09375 43.578125 
Q 15.140625 41.40625 13.71875 35.890625 
L 5.125 37.0625 
Q 6.296875 42.578125 8.984375 45.96875 
Q 11.671875 49.359375 16.75 51.1875 
Q 21.828125 53.03125 28.515625 53.03125 
Q 35.15625 53.03125 39.296875 51.46875 
Q 43.453125 49.90625 45.40625 47.53125 
Q 47.359375 45.171875 48.140625 41.546875 
Q 48.578125 39.3125 48.578125 33.453125 
L 48.578125 21.734375 
Q 48.578125 9.46875 49.140625 6.21875 
Q 49.703125 2.984375 51.375 0 
L 42.1875 0 
Q 40.828125 2.734375 40.4375 6.390625 
z
M 39.703125 26.03125 
Q 34.90625 24.078125 25.34375 22.703125 
Q 19.921875 21.921875 17.671875 20.9375 
Q 15.4375 19.96875 14.203125 18.09375 
Q 12.984375 16.21875 12.984375 13.921875 
Q 12.984375 10.40625 15.640625 8.0625 
Q 18.3125 5.71875 23.4375 5.71875 
Q 28.515625 5.71875 32.46875 7.9375 
Q 36.421875 10.15625 38.28125 14.015625 
Q 39.703125 17 39.703125 22.796875 
z
" id="ArialMT-97"/>
      <path d="M 21 0 
L 1.265625 51.859375 
L 10.546875 51.859375 
L 21.6875 20.796875 
Q 23.484375 15.765625 25 10.359375 
Q 26.171875 14.453125 28.265625 20.21875 
L 39.796875 51.859375 
L 48.828125 51.859375 
L 29.203125 0 
z
" id="ArialMT-118"/>
      <path d="M 6.5 0 
L 6.5 51.859375 
L 14.40625 51.859375 
L 14.40625 44 
Q 17.4375 49.515625 20 51.265625 
Q 22.5625 53.03125 25.640625 53.03125 
Q 30.078125 53.03125 34.671875 50.203125 
L 31.640625 42.046875 
Q 28.421875 43.953125 25.203125 43.953125 
Q 22.3125 43.953125 20.015625 42.21875 
Q 17.71875 40.484375 16.75 37.40625 
Q 15.28125 32.71875 15.28125 27.15625 
L 15.28125 0 
z
" id="ArialMT-114"/>
      <path d="M 6.59375 -19.875 
L 6.59375 51.859375 
L 14.59375 51.859375 
L 14.59375 45.125 
Q 17.4375 49.078125 21 51.046875 
Q 24.5625 53.03125 29.640625 53.03125 
Q 36.28125 53.03125 41.359375 49.609375 
Q 46.4375 46.1875 49.015625 39.953125 
Q 51.609375 33.734375 51.609375 26.3125 
Q 51.609375 18.359375 48.75 11.984375 
Q 45.90625 5.609375 40.453125 2.21875 
Q 35.015625 -1.171875 29 -1.171875 
Q 24.609375 -1.171875 21.109375 0.6875 
Q 17.625 2.546875 15.375 5.375 
L 15.375 -19.875 
z
M 14.546875 25.640625 
Q 14.546875 15.625 18.59375 10.84375 
Q 22.65625 6.0625 28.421875 6.0625 
Q 34.28125 6.0625 38.453125 11.015625 
Q 42.625 15.96875 42.625 26.375 
Q 42.625 36.28125 38.546875 41.203125 
Q 34.46875 46.140625 28.8125 46.140625 
Q 23.1875 46.140625 18.859375 40.890625 
Q 14.546875 35.640625 14.546875 25.640625 
z
" id="ArialMT-112"/>
      <path d="M 6.640625 0 
L 6.640625 71.578125 
L 15.4375 71.578125 
L 15.4375 30.765625 
L 36.234375 51.859375 
L 47.609375 51.859375 
L 27.78125 32.625 
L 49.609375 0 
L 38.765625 0 
L 21.625 26.515625 
L 15.4375 20.5625 
L 15.4375 0 
z
" id="ArialMT-107"/>
     </defs>
     <g transform="translate(362.0925 33.0525)scale(0.16 -0.16)">
      <use xlink:href="#ArialMT-119"/>
      <use x="72.216797" xlink:href="#ArialMT-101"/>
      <use x="127.832031" xlink:href="#ArialMT-105"/>
      <use x="150.048828" xlink:href="#ArialMT-103"/>
      <use x="205.664062" xlink:href="#ArialMT-104"/>
      <use x="261.279297" xlink:href="#ArialMT-116"/>
      <use x="289.0625" xlink:href="#ArialMT-61"/>
      <use x="347.460938" xlink:href="#ArialMT-39"/>
      <use x="366.552734" xlink:href="#ArialMT-108"/>
      <use x="388.769531" xlink:href="#ArialMT-111"/>
      <use x="444.384766" xlink:href="#ArialMT-103"/>
      <use x="500" xlink:href="#ArialMT-45"/>
      <use x="533.300781" xlink:href="#ArialMT-115"/>
      <use x="583.300781" xlink:href="#ArialMT-105"/>
      <use x="605.517578" xlink:href="#ArialMT-103"/>
      <use x="661.132812" xlink:href="#ArialMT-109"/>
      <use x="744.433594" xlink:href="#ArialMT-97"/>
      <use x="800.048828" xlink:href="#ArialMT-45"/>
      <use x="833.349609" xlink:href="#ArialMT-111"/>
      <use x="888.964844" xlink:href="#ArialMT-118"/>
      <use x="938.964844" xlink:href="#ArialMT-101"/>
      <use x="994.580078" xlink:href="#ArialMT-114"/>
      <use x="1027.880859" xlink:href="#ArialMT-45"/>
      <use x="1061.181641" xlink:href="#ArialMT-112"/>
      <use x="1116.796875" xlink:href="#ArialMT-101"/>
      <use x="1172.412109" xlink:href="#ArialMT-97"/>
      <use x="1228.027344" xlink:href="#ArialMT-107"/>
      <use x="1278.027344" xlink:href="#ArialMT-39"/>
     </g>
    </g>
   </g>
  </g>
 </g>
 <defs>
  <clipPath id="p222a12412d">
   <rect height="108.72" width="558" x="26.02" y="7.2"/>
  </clipPath>
 </defs>
</svg>
