<?xml version="1.0" encoding="utf-8" standalone="no"?>
<!DOCTYPE svg PUBLIC "-//W3C//DTD SVG 1.1//EN"
  "http://www.w3.org/Graphics/SVG/1.1/DTD/svg11.dtd">
<svg xmlns:xlink="http://www.w3.org/1999/xlink" width="594.925pt" height="148.410625pt" viewBox="0 0 594.925 148.410625" xmlns="http://www.w3.org/2000/svg" version="1.1">
 <metadata>
  <rdf:RDF xmlns:dc="http://purl.org/dc/elements/1.1/" xmlns:cc="http://creativecommons.org/ns#" xmlns:rdf="http://www.w3.org/1999/02/22-rdf-syntax-ns#">
   <cc:Work>
    <dc:type rdf:resource="http://purl.org/dc/dcmitype/StillImage"/>
    <dc:date>2022-03-25T20:51:21.079293</dc:date>
    <dc:format>image/svg+xml</dc:format>
    <dc:creator>
     <cc:Agent>
      <dc:title>Matplotlib v3.5.1, https://matplotlib.org/</dc:title>
     </cc:Agent>
    </dc:creator>
   </cc:Work>
  </rdf:RDF>
 </metadata>
 <defs>
  <style type="text/css">*{stroke-linejoin: round; stroke-linecap: butt}</style>
 </defs>
 <g id="figure_1">
  <g id="patch_1">
   <path d="M 0 148.410625 
L 594.925 148.410625 
L 594.925 0 
L 0 0 
L 0 148.410625 
z
" style="fill: none"/>
  </g>
  <g id="axes_1">
   <g id="patch_2">
    <path d="M 29.725 115.92 
L 587.725 115.92 
L 587.725 7.2 
L 29.725 7.2 
z
" style="fill: #ffffff"/>
   </g>
   <g id="matplotlib.axis_1">
    <g id="xtick_1">
     <g id="line2d_1">
      <defs>
       <path id="m5044b39911" d="M 0 0 
L 0 3.5 
" style="stroke: #000000; stroke-width: 0.8"/>
      </defs>
      <g>
       <use xlink:href="#m5044b39911" x="55.088636" y="115.92" style="stroke: #000000; stroke-width: 0.8"/>
      </g>
     </g>
     <g id="text_1">
      <!-- $\sigma_{min}$ -->
      <g transform="translate(37.488636 137.235625)scale(0.2 -0.2)">
       <defs>
        <path id="Cmmi10-be" d="M 1197 -72 
Q 913 -72 692 64 
Q 472 200 351 431 
Q 231 663 231 941 
Q 231 1238 365 1566 
Q 500 1894 733 2166 
Q 966 2438 1259 2598 
Q 1553 2759 1863 2759 
L 3475 2759 
Q 3541 2759 3587 2715 
Q 3634 2672 3634 2597 
Q 3634 2503 3567 2433 
Q 3500 2363 3406 2363 
L 2625 2363 
Q 2809 2088 2809 1697 
Q 2809 1375 2684 1062 
Q 2559 750 2337 492 
Q 2116 234 1820 81 
Q 1525 -72 1197 -72 
z
M 1203 97 
Q 1553 97 1823 370 
Q 2094 644 2237 1039 
Q 2381 1434 2381 1772 
Q 2381 2047 2229 2205 
Q 2078 2363 1806 2363 
Q 1434 2363 1173 2113 
Q 913 1863 783 1484 
Q 653 1106 653 756 
Q 653 481 798 289 
Q 944 97 1203 97 
z
" transform="scale(0.015625)"/>
        <path id="Charter-Italic-6d" d="M 1158 3085 
L 211 2880 
L 211 2714 
L 736 2611 
L 205 0 
L 742 0 
L 1146 2170 
C 1549 2534 1888 2694 2054 2694 
C 2278 2694 2406 2554 2406 2317 
C 2406 2227 2387 2080 2349 1875 
L 1965 0 
L 2496 0 
L 2912 2176 
C 3206 2522 3539 2694 3782 2694 
C 3994 2694 4096 2554 4096 2285 
C 4096 2195 4083 2061 4038 1875 
L 3763 691 
C 3731 544 3712 422 3712 346 
C 3712 83 3859 -38 4179 -38 
C 4352 -38 4608 32 4947 160 
L 4947 333 
C 4800 294 4678 275 4589 275 
C 4384 275 4262 390 4262 595 
C 4262 698 4294 838 4333 1011 
L 4550 2003 
C 4602 2221 4627 2400 4627 2541 
C 4627 2880 4410 3085 4102 3085 
C 3795 3085 3398 2893 2931 2502 
C 2925 2880 2733 3085 2413 3085 
C 2112 3085 1702 2886 1203 2477 
L 1318 3085 
L 1158 3085 
z
" transform="scale(0.015625)"/>
        <path id="Charter-Italic-69" d="M 1286 4506 
C 1094 4506 941 4352 941 4160 
C 941 3962 1094 3814 1286 3814 
C 1472 3814 1632 3968 1632 4160 
C 1632 4346 1472 4506 1286 4506 
z
M 1158 3085 
L 211 2880 
L 211 2714 
L 730 2618 
L 352 710 
C 326 570 314 454 314 378 
C 314 96 448 -45 723 -45 
C 966 -45 1274 32 1626 179 
L 1626 378 
C 1427 314 1274 282 1152 282 
C 954 282 845 365 845 531 
C 845 570 851 621 864 691 
L 1325 3085 
L 1158 3085 
z
" transform="scale(0.015625)"/>
        <path id="Charter-Italic-6e" d="M 1158 3085 
L 211 2874 
L 211 2714 
L 736 2618 
L 205 0 
L 749 0 
L 1146 2163 
C 1536 2522 1875 2688 2093 2688 
C 2336 2688 2438 2566 2438 2285 
C 2438 2202 2426 2061 2381 1875 
L 2106 691 
C 2074 550 2054 429 2054 346 
C 2054 90 2208 -38 2522 -38 
C 2701 -38 2957 26 3290 154 
L 3290 333 
C 3142 294 3027 275 2938 275 
C 2726 275 2605 384 2605 589 
C 2605 685 2637 826 2675 1011 
L 2893 2003 
C 2944 2234 2982 2413 2982 2573 
C 2982 2886 2778 3085 2445 3085 
C 2106 3085 1709 2874 1203 2470 
L 1318 3085 
L 1158 3085 
z
" transform="scale(0.015625)"/>
       </defs>
       <use xlink:href="#Cmmi10-be" transform="translate(0 0.890625)"/>
       <use xlink:href="#Charter-Italic-6d" transform="translate(57.080078 -13.6875)scale(0.7)"/>
       <use xlink:href="#Charter-Italic-69" transform="translate(114.130067 -13.6875)scale(0.7)"/>
       <use xlink:href="#Charter-Italic-6e" transform="translate(134.220065 -13.6875)scale(0.7)"/>
      </g>
     </g>
    </g>
    <g id="xtick_2">
     <g id="line2d_2">
      <g>
       <use xlink:href="#m5044b39911" x="410.179545" y="115.92" style="stroke: #000000; stroke-width: 0.8"/>
      </g>
     </g>
     <g id="text_2">
      <!-- $\sigma_{peak}$ -->
      <g transform="translate(390.279545 135.210625)scale(0.2 -0.2)">
       <defs>
        <path id="Charter-Italic-70" d="M 1082 3085 
L 173 2893 
L 173 2733 
L 672 2669 
L 0 -1056 
L -64 -1126 
L -442 -1203 
L -442 -1395 
L 1094 -1395 
L 1094 -1203 
L 486 -1094 
L 698 96 
C 858 19 1024 -26 1190 -26 
C 1626 -26 2080 186 2406 544 
C 2771 947 2950 1414 2950 1971 
C 2950 2694 2643 3085 2138 3085 
C 1862 3085 1542 2957 1171 2694 
L 1248 3085 
L 1082 3085 
z
M 762 429 
L 1126 2413 
C 1414 2637 1651 2752 1843 2752 
C 2189 2752 2419 2464 2419 1958 
C 2419 1446 2240 928 2029 646 
C 1830 384 1594 256 1312 256 
C 1133 256 954 314 762 429 
z
" transform="scale(0.015625)"/>
        <path id="Charter-Italic-65" d="M 704 1638 
C 890 2413 1254 2816 1626 2816 
C 1811 2816 1958 2669 1958 2470 
C 1958 2067 1504 1683 704 1638 
z
M 672 1421 
C 1811 1498 2419 1907 2419 2451 
C 2419 2835 2163 3085 1760 3085 
C 1446 3085 1030 2899 704 2560 
C 346 2182 134 1645 134 1107 
C 134 365 499 -58 1101 -58 
C 1523 -58 1946 134 2342 518 
L 2342 819 
C 1971 474 1613 294 1318 294 
C 909 294 653 608 653 1126 
C 653 1229 659 1331 672 1421 
z
" transform="scale(0.015625)"/>
        <path id="Charter-Italic-61" d="M 2624 3085 
L 2496 2944 
C 2298 3040 2099 3085 1920 3085 
C 1286 3085 768 2784 442 2246 
C 224 1888 109 1491 109 1062 
C 109 358 448 -58 992 -58 
C 1299 -58 1606 122 1946 480 
C 1946 461 1946 448 1946 429 
C 1946 102 2067 -58 2336 -58 
C 2509 -58 2771 19 3123 166 
L 3123 358 
C 2950 320 2835 294 2765 294 
C 2528 294 2419 384 2419 589 
C 2419 678 2438 826 2483 1037 
L 2714 2170 
C 2810 2643 2893 2950 2957 3085 
L 2624 3085 
z
M 2029 2835 
L 2285 2445 
L 1952 755 
C 1690 474 1440 333 1197 333 
C 826 333 640 589 640 1101 
C 640 2118 1190 2835 1939 2835 
C 1971 2835 1997 2835 2029 2835 
z
" transform="scale(0.015625)"/>
        <path id="Charter-Italic-6b" d="M 1440 4710 
L 435 4525 
L 435 4346 
L 1024 4314 
L 160 0 
L 691 0 
L 896 1229 
L 1261 1562 
L 1805 461 
C 1971 128 2150 -32 2406 -32 
C 2528 -32 2784 19 3155 141 
L 3155 320 
C 3027 294 2918 275 2822 275 
C 2381 275 2125 819 1638 1920 
C 1920 2176 2189 2413 2464 2611 
L 2694 2362 
C 2931 2458 3046 2592 3046 2758 
C 3046 2944 2893 3085 2682 3085 
C 2528 3085 2342 2976 2118 2746 
L 934 1523 
L 1619 4710 
L 1440 4710 
z
" transform="scale(0.015625)"/>
       </defs>
       <use xlink:href="#Cmmi10-be" transform="translate(0 0.890625)"/>
       <use xlink:href="#Charter-Italic-70" transform="translate(57.080078 -13.6875)scale(0.7)"/>
       <use xlink:href="#Charter-Italic-65" transform="translate(93.200072 -13.6875)scale(0.7)"/>
       <use xlink:href="#Charter-Italic-61" transform="translate(122.880067 -13.6875)scale(0.7)"/>
       <use xlink:href="#Charter-Italic-6b" transform="translate(159.630057 -13.6875)scale(0.7)"/>
      </g>
     </g>
    </g>
    <g id="xtick_3">
     <g id="line2d_3">
      <g>
       <use xlink:href="#m5044b39911" x="562.361364" y="115.92" style="stroke: #000000; stroke-width: 0.8"/>
      </g>
     </g>
     <g id="text_3">
      <!-- $\sigma_{max}$ -->
      <g transform="translate(543.661364 137.235625)scale(0.2 -0.2)">
       <defs>
        <path id="Charter-Italic-78" d="M 826 3104 
L 179 2880 
L 179 2726 
L 710 2656 
C 883 2496 1030 2125 1197 1542 
C 934 909 595 499 307 346 
L 13 621 
C -186 582 -301 467 -301 294 
C -301 90 -147 -51 96 -51 
C 518 -51 902 378 1318 1248 
C 1530 339 1613 -38 2061 -38 
C 2234 -38 2477 26 2778 147 
L 2778 346 
C 2624 301 2509 275 2438 275 
C 2054 275 1965 678 1715 1542 
C 1997 2195 2278 2560 2573 2637 
L 2848 2387 
C 3053 2470 3162 2592 3162 2746 
C 3162 2944 3002 3104 2797 3104 
C 2394 3104 1997 2675 1574 1818 
C 1350 2688 1274 3110 896 3110 
C 870 3110 851 3104 826 3104 
z
" transform="scale(0.015625)"/>
       </defs>
       <use xlink:href="#Cmmi10-be" transform="translate(0 0.890625)"/>
       <use xlink:href="#Charter-Italic-6d" transform="translate(57.080078 -13.6875)scale(0.7)"/>
       <use xlink:href="#Charter-Italic-61" transform="translate(114.130067 -13.6875)scale(0.7)"/>
       <use xlink:href="#Charter-Italic-78" transform="translate(150.880057 -13.6875)scale(0.7)"/>
      </g>
     </g>
    </g>
   </g>
   <g id="matplotlib.axis_2">
    <g id="text_4">
     <!-- Penalty -->
     <g transform="translate(21.515625 94.913125)rotate(-90)scale(0.2 -0.2)">
      <defs>
       <path id="ArialMT-50" d="M 494 0 
L 494 4581 
L 2222 4581 
Q 2678 4581 2919 4538 
Q 3256 4481 3484 4323 
Q 3713 4166 3852 3881 
Q 3991 3597 3991 3256 
Q 3991 2672 3619 2267 
Q 3247 1863 2275 1863 
L 1100 1863 
L 1100 0 
L 494 0 
z
M 1100 2403 
L 2284 2403 
Q 2872 2403 3119 2622 
Q 3366 2841 3366 3238 
Q 3366 3525 3220 3729 
Q 3075 3934 2838 4000 
Q 2684 4041 2272 4041 
L 1100 4041 
L 1100 2403 
z
" transform="scale(0.015625)"/>
       <path id="ArialMT-65" d="M 2694 1069 
L 3275 997 
Q 3138 488 2766 206 
Q 2394 -75 1816 -75 
Q 1088 -75 661 373 
Q 234 822 234 1631 
Q 234 2469 665 2931 
Q 1097 3394 1784 3394 
Q 2450 3394 2872 2941 
Q 3294 2488 3294 1666 
Q 3294 1616 3291 1516 
L 816 1516 
Q 847 969 1125 678 
Q 1403 388 1819 388 
Q 2128 388 2347 550 
Q 2566 713 2694 1069 
z
M 847 1978 
L 2700 1978 
Q 2663 2397 2488 2606 
Q 2219 2931 1791 2931 
Q 1403 2931 1139 2672 
Q 875 2413 847 1978 
z
" transform="scale(0.015625)"/>
       <path id="ArialMT-6e" d="M 422 0 
L 422 3319 
L 928 3319 
L 928 2847 
Q 1294 3394 1984 3394 
Q 2284 3394 2536 3286 
Q 2788 3178 2913 3003 
Q 3038 2828 3088 2588 
Q 3119 2431 3119 2041 
L 3119 0 
L 2556 0 
L 2556 2019 
Q 2556 2363 2490 2533 
Q 2425 2703 2258 2804 
Q 2091 2906 1866 2906 
Q 1506 2906 1245 2678 
Q 984 2450 984 1813 
L 984 0 
L 422 0 
z
" transform="scale(0.015625)"/>
       <path id="ArialMT-61" d="M 2588 409 
Q 2275 144 1986 34 
Q 1697 -75 1366 -75 
Q 819 -75 525 192 
Q 231 459 231 875 
Q 231 1119 342 1320 
Q 453 1522 633 1644 
Q 813 1766 1038 1828 
Q 1203 1872 1538 1913 
Q 2219 1994 2541 2106 
Q 2544 2222 2544 2253 
Q 2544 2597 2384 2738 
Q 2169 2928 1744 2928 
Q 1347 2928 1158 2789 
Q 969 2650 878 2297 
L 328 2372 
Q 403 2725 575 2942 
Q 747 3159 1072 3276 
Q 1397 3394 1825 3394 
Q 2250 3394 2515 3294 
Q 2781 3194 2906 3042 
Q 3031 2891 3081 2659 
Q 3109 2516 3109 2141 
L 3109 1391 
Q 3109 606 3145 398 
Q 3181 191 3288 0 
L 2700 0 
Q 2613 175 2588 409 
z
M 2541 1666 
Q 2234 1541 1622 1453 
Q 1275 1403 1131 1340 
Q 988 1278 909 1158 
Q 831 1038 831 891 
Q 831 666 1001 516 
Q 1172 366 1500 366 
Q 1825 366 2078 508 
Q 2331 650 2450 897 
Q 2541 1088 2541 1459 
L 2541 1666 
z
" transform="scale(0.015625)"/>
       <path id="ArialMT-6c" d="M 409 0 
L 409 4581 
L 972 4581 
L 972 0 
L 409 0 
z
" transform="scale(0.015625)"/>
       <path id="ArialMT-74" d="M 1650 503 
L 1731 6 
Q 1494 -44 1306 -44 
Q 1000 -44 831 53 
Q 663 150 594 308 
Q 525 466 525 972 
L 525 2881 
L 113 2881 
L 113 3319 
L 525 3319 
L 525 4141 
L 1084 4478 
L 1084 3319 
L 1650 3319 
L 1650 2881 
L 1084 2881 
L 1084 941 
Q 1084 700 1114 631 
Q 1144 563 1211 522 
Q 1278 481 1403 481 
Q 1497 481 1650 503 
z
" transform="scale(0.015625)"/>
       <path id="ArialMT-79" d="M 397 -1278 
L 334 -750 
Q 519 -800 656 -800 
Q 844 -800 956 -737 
Q 1069 -675 1141 -563 
Q 1194 -478 1313 -144 
Q 1328 -97 1363 -6 
L 103 3319 
L 709 3319 
L 1400 1397 
Q 1534 1031 1641 628 
Q 1738 1016 1872 1384 
L 2581 3319 
L 3144 3319 
L 1881 -56 
Q 1678 -603 1566 -809 
Q 1416 -1088 1222 -1217 
Q 1028 -1347 759 -1347 
Q 597 -1347 397 -1278 
z
" transform="scale(0.015625)"/>
      </defs>
      <use xlink:href="#ArialMT-50"/>
      <use xlink:href="#ArialMT-65" x="66.699219"/>
      <use xlink:href="#ArialMT-6e" x="122.314453"/>
      <use xlink:href="#ArialMT-61" x="177.929688"/>
      <use xlink:href="#ArialMT-6c" x="233.544922"/>
      <use xlink:href="#ArialMT-74" x="255.761719"/>
      <use xlink:href="#ArialMT-79" x="283.544922"/>
     </g>
    </g>
   </g>
   <g id="line2d_4">
    <path d="M 55.088636 12.141818 
L 409.414813 110.978182 
L 411.963922 110.693761 
L 562.361364 68.741635 
L 562.361364 68.741635 
" clip-path="url(#pd3e4421e17)" style="fill: none; stroke-dasharray: 11.1,4.8; stroke-dashoffset: 0; stroke: #000000; stroke-width: 3"/>
   </g>
   <g id="patch_3">
    <path d="M 29.725 115.92 
L 29.725 7.2 
" style="fill: none; stroke: #000000; stroke-width: 0.8; stroke-linejoin: miter; stroke-linecap: square"/>
   </g>
   <g id="patch_4">
    <path d="M 29.725 115.92 
L 587.725 115.92 
" style="fill: none; stroke: #000000; stroke-width: 0.8; stroke-linejoin: miter; stroke-linecap: square"/>
   </g>
  </g>
 </g>
 <defs>
  <clipPath id="pd3e4421e17">
   <rect x="29.725" y="7.2" width="558" height="108.72"/>
  </clipPath>
 </defs>
</svg>
