<?xml version="1.0" encoding="utf-8" standalone="no"?>
<!DOCTYPE svg PUBLIC "-//W3C//DTD SVG 1.1//EN"
  "http://www.w3.org/Graphics/SVG/1.1/DTD/svg11.dtd">
<!-- Created with matplotlib (https://matplotlib.org/) -->
<svg height="167.130625pt" version="1.1" viewBox="0 0 599.6 167.130625" width="599.6pt" xmlns="http://www.w3.org/2000/svg" xmlns:xlink="http://www.w3.org/1999/xlink">
 <defs>
  <style type="text/css">
*{stroke-linecap:butt;stroke-linejoin:round;}
  </style>
 </defs>
 <g id="figure_1">
  <g id="patch_1">
   <path d="M 0 167.130625 
L 599.6 167.130625 
L 599.6 0 
L 0 0 
z
" style="fill:#ffffff;"/>
  </g>
  <g id="axes_1">
   <g id="patch_2">
    <path d="M 34.4 115.92 
L 592.4 115.92 
L 592.4 7.2 
L 34.4 7.2 
z
" style="fill:#ffffff;"/>
   </g>
   <g id="PolyCollection_1">
    <path clip-path="url(#paa63949380)" d="M 59.763636 110.978182 
L 59.763636 110.978182 
L 62.338625 110.978182 
L 64.913613 110.97818 
L 67.488602 110.978156 
L 70.06359 110.977977 
L 72.638579 110.976931 
L 75.213567 110.972191 
L 77.788556 110.955058 
L 80.363544 110.904553 
L 82.938533 110.780854 
L 85.513521 110.525228 
L 88.088509 110.073571 
L 90.663498 109.383268 
L 93.238486 108.461056 
L 95.813475 107.374284 
L 98.388463 106.236652 
L 100.963452 105.175609 
L 103.53844 104.298362 
L 106.113429 103.670406 
L 108.688417 103.310084 
L 111.263406 103.19385 
L 113.838394 103.264781 
L 116.413383 103.440725 
L 118.988371 103.624039 
L 121.563359 103.716452 
L 124.138348 103.637773 
L 126.713336 103.340959 
L 129.288325 102.816654 
L 131.863313 102.088122 
L 134.438302 101.202769 
L 137.01329 100.222839 
L 139.588279 99.212431 
L 142.163267 98.221023 
L 144.738256 97.272241 
L 147.313244 96.36705 
L 149.888233 95.498357 
L 152.463221 94.662213 
L 155.03821 93.85429 
L 157.613198 93.056151 
L 160.188186 92.226146 
L 162.763175 91.304096 
L 165.338163 90.226188 
L 167.913152 88.940376 
L 170.48814 87.415251 
L 173.063129 85.639478 
L 175.638117 83.612531 
L 178.213106 81.333459 
L 180.788094 78.799355 
L 183.363083 76.020593 
L 185.938071 73.046841 
L 188.51306 69.989235 
L 191.088048 67.028153 
L 193.663036 64.404741 
L 196.238025 62.395246 
L 198.813013 61.260873 
L 201.388002 61.167672 
L 203.96299 62.095043 
L 206.537979 63.787046 
L 209.112967 65.80458 
L 211.687956 67.676805 
L 214.262944 69.072546 
L 216.837933 69.902034 
L 219.412921 70.321533 
L 221.98791 70.670194 
L 224.562898 71.37478 
L 227.137886 72.840984 
L 229.712875 75.344678 
L 232.287863 78.945386 
L 234.862852 83.451731 
L 237.43784 88.460061 
L 240.012829 93.460864 
L 242.587817 97.976219 
L 245.162806 101.676138 
L 247.737794 104.4333 
L 250.312783 106.306465 
L 252.887771 107.473627 
L 255.46276 108.151075 
L 258.037748 108.530246 
L 260.612737 108.747414 
L 263.187725 108.883034 
L 265.762713 108.977057 
L 268.337702 109.046497 
L 270.91269 109.097902 
L 273.487679 109.133818 
L 276.062667 109.155355 
L 278.637656 109.163 
L 281.212644 109.156864 
L 283.787633 109.136844 
L 286.362621 109.102837 
L 288.93761 109.055044 
L 291.512598 108.994318 
L 294.087587 108.922421 
L 296.662575 108.841987 
L 299.237563 108.75602 
L 301.812552 108.666898 
L 304.38754 108.575111 
L 306.962529 108.478111 
L 309.537517 108.369656 
L 312.112506 108.239803 
L 314.687494 108.075421 
L 317.262483 107.860896 
L 319.837471 107.578673 
L 322.41246 107.209385 
L 324.987448 106.731442 
L 327.562437 106.120039 
L 330.137425 105.345604 
L 332.712413 104.37172 
L 335.287402 103.152641 
L 337.86239 101.630692 
L 340.437379 99.734063 
L 343.012367 97.375882 
L 345.587356 94.455778 
L 348.162344 90.865458 
L 350.737333 86.499865 
L 353.312321 81.275022 
L 355.88731 75.152395 
L 358.462298 68.16746 
L 361.037287 60.456992 
L 363.612275 52.276456 
L 366.187263 43.997537 
L 368.762252 36.078781 
L 371.33724 29.010186 
L 373.912229 23.242748 
L 376.487217 19.121218 
L 379.062206 16.838258 
L 381.637194 16.420359 
L 384.212183 17.744815 
L 386.787171 20.578073 
L 389.36216 24.622395 
L 391.937148 29.559525 
L 394.512137 35.084555 
L 397.087125 40.927806 
L 399.662114 46.865748 
L 402.237102 52.723574 
L 404.81209 58.372326 
L 407.387079 63.723047 
L 409.962067 68.719789 
L 412.537056 73.332622 
L 415.112044 77.55131 
L 417.687033 81.379918 
L 420.262021 84.832432 
L 422.83701 87.929321 
L 425.411998 90.694908 
L 427.986987 93.15544 
L 430.561975 95.337683 
L 433.136964 97.26796 
L 435.711952 98.9715 
L 438.28694 100.472039 
L 440.861929 101.791592 
L 443.436917 102.950351 
L 446.011906 103.966681 
L 448.586894 104.857161 
L 451.161883 105.636679 
L 453.736871 106.318534 
L 456.31186 106.914566 
L 458.886848 107.435279 
L 461.461837 107.889963 
L 464.036825 108.286822 
L 466.611814 108.63308 
L 469.186802 108.935092 
L 471.76179 109.198438 
L 474.336779 109.428012 
L 476.911767 109.628104 
L 479.486756 109.802467 
L 482.061744 109.954386 
L 484.636733 110.086732 
L 487.211721 110.202013 
L 489.78671 110.302418 
L 492.361698 110.38986 
L 494.936687 110.466005 
L 497.511675 110.532309 
L 500.086664 110.590041 
L 502.661652 110.640305 
L 505.236641 110.684067 
L 507.811629 110.722165 
L 510.386617 110.755332 
L 512.961606 110.784204 
L 515.536594 110.809338 
L 518.111583 110.831217 
L 520.686571 110.850262 
L 523.26156 110.866839 
L 525.836548 110.881269 
L 528.411537 110.89383 
L 530.986525 110.904763 
L 533.561514 110.914279 
L 536.136502 110.922562 
L 538.711491 110.929771 
L 541.286479 110.936047 
L 543.861467 110.941508 
L 546.436456 110.946262 
L 549.011444 110.9504 
L 551.586433 110.954001 
L 554.161421 110.957136 
L 556.73641 110.959864 
L 559.311398 110.962239 
L 561.886387 110.964306 
L 564.461375 110.966104 
L 567.036364 110.96767 
L 567.036364 110.978182 
L 567.036364 110.978182 
L 564.461375 110.978182 
L 561.886387 110.978182 
L 559.311398 110.978182 
L 556.73641 110.978182 
L 554.161421 110.978182 
L 551.586433 110.978182 
L 549.011444 110.978182 
L 546.436456 110.978182 
L 543.861467 110.978182 
L 541.286479 110.978182 
L 538.711491 110.978182 
L 536.136502 110.978182 
L 533.561514 110.978182 
L 530.986525 110.978182 
L 528.411537 110.978182 
L 525.836548 110.978182 
L 523.26156 110.978182 
L 520.686571 110.978182 
L 518.111583 110.978182 
L 515.536594 110.978182 
L 512.961606 110.978182 
L 510.386617 110.978182 
L 507.811629 110.978182 
L 505.236641 110.978182 
L 502.661652 110.978182 
L 500.086664 110.978182 
L 497.511675 110.978182 
L 494.936687 110.978182 
L 492.361698 110.978182 
L 489.78671 110.978182 
L 487.211721 110.978182 
L 484.636733 110.978182 
L 482.061744 110.978182 
L 479.486756 110.978182 
L 476.911767 110.978182 
L 474.336779 110.978182 
L 471.76179 110.978182 
L 469.186802 110.978182 
L 466.611814 110.978182 
L 464.036825 110.978182 
L 461.461837 110.978182 
L 458.886848 110.978182 
L 456.31186 110.978182 
L 453.736871 110.978182 
L 451.161883 110.978182 
L 448.586894 110.978182 
L 446.011906 110.978182 
L 443.436917 110.978182 
L 440.861929 110.978182 
L 438.28694 110.978182 
L 435.711952 110.978182 
L 433.136964 110.978182 
L 430.561975 110.978182 
L 427.986987 110.978182 
L 425.411998 110.978182 
L 422.83701 110.978182 
L 420.262021 110.978182 
L 417.687033 110.978182 
L 415.112044 110.978182 
L 412.537056 110.978182 
L 409.962067 110.978182 
L 407.387079 110.978182 
L 404.81209 110.978182 
L 402.237102 110.978182 
L 399.662114 110.978182 
L 397.087125 110.978182 
L 394.512137 110.978182 
L 391.937148 110.978182 
L 389.36216 110.978182 
L 386.787171 110.978182 
L 384.212183 110.978182 
L 381.637194 110.978182 
L 379.062206 110.978182 
L 376.487217 110.978182 
L 373.912229 110.978182 
L 371.33724 110.978182 
L 368.762252 110.978182 
L 366.187263 110.978182 
L 363.612275 110.978182 
L 361.037287 110.978182 
L 358.462298 110.978182 
L 355.88731 110.978182 
L 353.312321 110.978182 
L 350.737333 110.978182 
L 348.162344 110.978182 
L 345.587356 110.978182 
L 343.012367 110.978182 
L 340.437379 110.978182 
L 337.86239 110.978182 
L 335.287402 110.978182 
L 332.712413 110.978182 
L 330.137425 110.978182 
L 327.562437 110.978182 
L 324.987448 110.978182 
L 322.41246 110.978182 
L 319.837471 110.978182 
L 317.262483 110.978182 
L 314.687494 110.978182 
L 312.112506 110.978182 
L 309.537517 110.978182 
L 306.962529 110.978182 
L 304.38754 110.978182 
L 301.812552 110.978182 
L 299.237563 110.978182 
L 296.662575 110.978182 
L 294.087587 110.978182 
L 291.512598 110.978182 
L 288.93761 110.978182 
L 286.362621 110.978182 
L 283.787633 110.978182 
L 281.212644 110.978182 
L 278.637656 110.978182 
L 276.062667 110.978182 
L 273.487679 110.978182 
L 270.91269 110.978182 
L 268.337702 110.978182 
L 265.762713 110.978182 
L 263.187725 110.978182 
L 260.612737 110.978182 
L 258.037748 110.978182 
L 255.46276 110.978182 
L 252.887771 110.978182 
L 250.312783 110.978182 
L 247.737794 110.978182 
L 245.162806 110.978182 
L 242.587817 110.978182 
L 240.012829 110.978182 
L 237.43784 110.978182 
L 234.862852 110.978182 
L 232.287863 110.978182 
L 229.712875 110.978182 
L 227.137886 110.978182 
L 224.562898 110.978182 
L 221.98791 110.978182 
L 219.412921 110.978182 
L 216.837933 110.978182 
L 214.262944 110.978182 
L 211.687956 110.978182 
L 209.112967 110.978182 
L 206.537979 110.978182 
L 203.96299 110.978182 
L 201.388002 110.978182 
L 198.813013 110.978182 
L 196.238025 110.978182 
L 193.663036 110.978182 
L 191.088048 110.978182 
L 188.51306 110.978182 
L 185.938071 110.978182 
L 183.363083 110.978182 
L 180.788094 110.978182 
L 178.213106 110.978182 
L 175.638117 110.978182 
L 173.063129 110.978182 
L 170.48814 110.978182 
L 167.913152 110.978182 
L 165.338163 110.978182 
L 162.763175 110.978182 
L 160.188186 110.978182 
L 157.613198 110.978182 
L 155.03821 110.978182 
L 152.463221 110.978182 
L 149.888233 110.978182 
L 147.313244 110.978182 
L 144.738256 110.978182 
L 142.163267 110.978182 
L 139.588279 110.978182 
L 137.01329 110.978182 
L 134.438302 110.978182 
L 131.863313 110.978182 
L 129.288325 110.978182 
L 126.713336 110.978182 
L 124.138348 110.978182 
L 121.563359 110.978182 
L 118.988371 110.978182 
L 116.413383 110.978182 
L 113.838394 110.978182 
L 111.263406 110.978182 
L 108.688417 110.978182 
L 106.113429 110.978182 
L 103.53844 110.978182 
L 100.963452 110.978182 
L 98.388463 110.978182 
L 95.813475 110.978182 
L 93.238486 110.978182 
L 90.663498 110.978182 
L 88.088509 110.978182 
L 85.513521 110.978182 
L 82.938533 110.978182 
L 80.363544 110.978182 
L 77.788556 110.978182 
L 75.213567 110.978182 
L 72.638579 110.978182 
L 70.06359 110.978182 
L 67.488602 110.978182 
L 64.913613 110.978182 
L 62.338625 110.978182 
L 59.763636 110.978182 
z
" style="fill:#dddddd;"/>
   </g>
   <g id="matplotlib.axis_1">
    <g id="xtick_1">
     <g id="line2d_1">
      <defs>
       <path d="M 0 0 
L 0 3.5 
" id="mcbb958f392" style="stroke:#000000;stroke-width:0.8;"/>
      </defs>
      <g>
       <use style="stroke:#000000;stroke-width:0.8;" x="59.763636" xlink:href="#mcbb958f392" y="115.92"/>
      </g>
     </g>
     <g id="text_1">
      <!-- $\sigma_{min, i}$ -->
      <defs>
       <path d="M 18.703125 -1.125 
Q 14.265625 -1.125 10.8125 1 
Q 7.375 3.125 5.484375 6.734375 
Q 3.609375 10.359375 3.609375 14.703125 
Q 3.609375 19.34375 5.703125 24.46875 
Q 7.8125 29.59375 11.453125 33.84375 
Q 15.09375 38.09375 19.671875 40.59375 
Q 24.265625 43.109375 29.109375 43.109375 
L 54.296875 43.109375 
Q 55.328125 43.109375 56.046875 42.421875 
Q 56.78125 41.75 56.78125 40.578125 
Q 56.78125 39.109375 55.734375 38.015625 
Q 54.6875 36.921875 53.21875 36.921875 
L 41.015625 36.921875 
Q 43.890625 32.625 43.890625 26.515625 
Q 43.890625 21.484375 41.9375 16.59375 
Q 39.984375 11.71875 36.515625 7.6875 
Q 33.0625 3.65625 28.4375 1.265625 
Q 23.828125 -1.125 18.703125 -1.125 
z
M 18.796875 1.515625 
Q 24.265625 1.515625 28.484375 5.78125 
Q 32.71875 10.0625 34.953125 16.234375 
Q 37.203125 22.40625 37.203125 27.6875 
Q 37.203125 31.984375 34.828125 34.453125 
Q 32.46875 36.921875 28.21875 36.921875 
Q 22.40625 36.921875 18.328125 33.015625 
Q 14.265625 29.109375 12.234375 23.1875 
Q 10.203125 17.28125 10.203125 11.8125 
Q 10.203125 7.515625 12.46875 4.515625 
Q 14.75 1.515625 18.796875 1.515625 
z
" id="Cmmi10-190"/>
       <path d="M 18.09375 48.203125 
L 3.296875 45 
L 3.296875 42.40625 
L 11.5 40.796875 
L 3.203125 0 
L 11.59375 0 
L 17.90625 33.90625 
C 24.203125 39.59375 29.5 42.09375 32.09375 42.09375 
C 35.59375 42.09375 37.59375 39.90625 37.59375 36.203125 
C 37.59375 34.796875 37.296875 32.5 36.703125 29.296875 
L 30.703125 0 
L 39 0 
L 45.5 34 
C 50.09375 39.40625 55.296875 42.09375 59.09375 42.09375 
C 62.40625 42.09375 64 39.90625 64 35.703125 
C 64 34.296875 63.796875 32.203125 63.09375 29.296875 
L 58.796875 10.796875 
C 58.296875 8.5 58 6.59375 58 5.40625 
C 58 1.296875 60.296875 -0.59375 65.296875 -0.59375 
C 68 -0.59375 72 0.5 77.296875 2.5 
L 77.296875 5.203125 
C 75 4.59375 73.09375 4.296875 71.703125 4.296875 
C 68.5 4.296875 66.59375 6.09375 66.59375 9.296875 
C 66.59375 10.90625 67.09375 13.09375 67.703125 15.796875 
L 71.09375 31.296875 
C 71.90625 34.703125 72.296875 37.5 72.296875 39.703125 
C 72.296875 45 68.90625 48.203125 64.09375 48.203125 
C 59.296875 48.203125 53.09375 45.203125 45.796875 39.09375 
C 45.703125 45 42.703125 48.203125 37.703125 48.203125 
C 33 48.203125 26.59375 45.09375 18.796875 38.703125 
L 20.59375 48.203125 
z
" id="Charter-Italic-109"/>
       <path d="M 20.09375 70.40625 
C 17.09375 70.40625 14.703125 68 14.703125 65 
C 14.703125 61.90625 17.09375 59.59375 20.09375 59.59375 
C 23 59.59375 25.5 62 25.5 65 
C 25.5 67.90625 23 70.40625 20.09375 70.40625 
z
M 18.09375 48.203125 
L 3.296875 45 
L 3.296875 42.40625 
L 11.40625 40.90625 
L 5.5 11.09375 
C 5.09375 8.90625 4.90625 7.09375 4.90625 5.90625 
C 4.90625 1.5 7 -0.703125 11.296875 -0.703125 
C 15.09375 -0.703125 19.90625 0.5 25.40625 2.796875 
L 25.40625 5.90625 
C 22.296875 4.90625 19.90625 4.40625 18 4.40625 
C 14.90625 4.40625 13.203125 5.703125 13.203125 8.296875 
C 13.203125 8.90625 13.296875 9.703125 13.5 10.796875 
L 20.703125 48.203125 
z
" id="Charter-Italic-105"/>
       <path d="M 18.09375 48.203125 
L 3.296875 44.90625 
L 3.296875 42.40625 
L 11.5 40.90625 
L 3.203125 0 
L 11.703125 0 
L 17.90625 33.796875 
C 24 39.40625 29.296875 42 32.703125 42 
C 36.5 42 38.09375 40.09375 38.09375 35.703125 
C 38.09375 34.40625 37.90625 32.203125 37.203125 29.296875 
L 32.90625 10.796875 
C 32.40625 8.59375 32.09375 6.703125 32.09375 5.40625 
C 32.09375 1.40625 34.5 -0.59375 39.40625 -0.59375 
C 42.203125 -0.59375 46.203125 0.40625 51.40625 2.40625 
L 51.40625 5.203125 
C 49.09375 4.59375 47.296875 4.296875 45.90625 4.296875 
C 42.59375 4.296875 40.703125 6 40.703125 9.203125 
C 40.703125 10.703125 41.203125 12.90625 41.796875 15.796875 
L 45.203125 31.296875 
C 46 34.90625 46.59375 37.703125 46.59375 40.203125 
C 46.59375 45.09375 43.40625 48.203125 38.203125 48.203125 
C 32.90625 48.203125 26.703125 44.90625 18.796875 38.59375 
L 20.59375 48.203125 
z
" id="Charter-Italic-110"/>
       <path d="M 3.90625 -13.59375 
Q 14.90625 -11.5 14.90625 -0.40625 
L 14.90625 0.703125 
L 8.5 0.703125 
Q 6.90625 2.40625 6.90625 5.09375 
Q 6.90625 7.59375 8.546875 9.09375 
Q 10.203125 10.59375 12.796875 10.59375 
Q 16.59375 10.59375 18.6875 8 
Q 20.796875 5.40625 20.796875 0.59375 
Q 20.796875 -2.59375 19.59375 -5.59375 
Q 18.40625 -8.59375 16.15625 -10.9375 
Q 13.90625 -13.296875 10.796875 -14.890625 
Q 7.703125 -16.5 3.90625 -16.90625 
z
" id="Charter-44"/>
      </defs>
      <g transform="translate(37.063636 135.810625)scale(0.2 -0.2)">
       <use transform="translate(0 0.890625)" xlink:href="#Cmmi10-190"/>
       <use transform="translate(57.080078 -13.6875)scale(0.7)" xlink:href="#Charter-Italic-109"/>
       <use transform="translate(114.130067 -13.6875)scale(0.7)" xlink:href="#Charter-Italic-105"/>
       <use transform="translate(134.220065 -13.6875)scale(0.7)" xlink:href="#Charter-Italic-110"/>
       <use transform="translate(173.140059 -13.6875)scale(0.7)" xlink:href="#Charter-44"/>
       <use transform="translate(204.010048 -13.6875)scale(0.7)" xlink:href="#Charter-Italic-105"/>
      </g>
     </g>
    </g>
    <g id="xtick_2">
     <g id="line2d_2">
      <g>
       <use style="stroke:#000000;stroke-width:0.8;" x="381.637194" xlink:href="#mcbb958f392" y="115.92"/>
      </g>
     </g>
     <g id="text_2">
      <!-- $\sigma_{peak, i}$ -->
      <defs>
       <path d="M 16.90625 48.203125 
L 2.703125 45.203125 
L 2.703125 42.703125 
L 10.5 41.703125 
L 0 -16.5 
L -1 -17.59375 
L -6.90625 -18.796875 
L -6.90625 -21.796875 
L 17.09375 -21.796875 
L 17.09375 -18.796875 
L 7.59375 -17.09375 
L 10.90625 1.5 
C 13.40625 0.296875 16 -0.40625 18.59375 -0.40625 
C 25.40625 -0.40625 32.5 2.90625 37.59375 8.5 
C 43.296875 14.796875 46.09375 22.09375 46.09375 30.796875 
C 46.09375 42.09375 41.296875 48.203125 33.40625 48.203125 
C 29.09375 48.203125 24.09375 46.203125 18.296875 42.09375 
L 19.5 48.203125 
z
M 11.90625 6.703125 
L 17.59375 37.703125 
C 22.09375 41.203125 25.796875 43 28.796875 43 
C 34.203125 43 37.796875 38.5 37.796875 30.59375 
C 37.796875 22.59375 35 14.5 31.703125 10.09375 
C 28.59375 6 24.90625 4 20.5 4 
C 17.703125 4 14.90625 4.90625 11.90625 6.703125 
z
" id="Charter-Italic-112"/>
       <path d="M 11 25.59375 
C 13.90625 37.703125 19.59375 44 25.40625 44 
C 28.296875 44 30.59375 41.703125 30.59375 38.59375 
C 30.59375 32.296875 23.5 26.296875 11 25.59375 
z
M 10.5 22.203125 
C 28.296875 23.40625 37.796875 29.796875 37.796875 38.296875 
C 37.796875 44.296875 33.796875 48.203125 27.5 48.203125 
C 22.59375 48.203125 16.09375 45.296875 11 40 
C 5.40625 34.09375 2.09375 25.703125 2.09375 17.296875 
C 2.09375 5.703125 7.796875 -0.90625 17.203125 -0.90625 
C 23.796875 -0.90625 30.40625 2.09375 36.59375 8.09375 
L 36.59375 12.796875 
C 30.796875 7.40625 25.203125 4.59375 20.59375 4.59375 
C 14.203125 4.59375 10.203125 9.5 10.203125 17.59375 
C 10.203125 19.203125 10.296875 20.796875 10.5 22.203125 
z
" id="Charter-Italic-101"/>
       <path d="M 41 48.203125 
L 39 46 
C 35.90625 47.5 32.796875 48.203125 30 48.203125 
C 20.09375 48.203125 12 43.5 6.90625 35.09375 
C 3.5 29.5 1.703125 23.296875 1.703125 16.59375 
C 1.703125 5.59375 7 -0.90625 15.5 -0.90625 
C 20.296875 -0.90625 25.09375 1.90625 30.40625 7.5 
C 30.40625 7.203125 30.40625 7 30.40625 6.703125 
C 30.40625 1.59375 32.296875 -0.90625 36.5 -0.90625 
C 39.203125 -0.90625 43.296875 0.296875 48.796875 2.59375 
L 48.796875 5.59375 
C 46.09375 5 44.296875 4.59375 43.203125 4.59375 
C 39.5 4.59375 37.796875 6 37.796875 9.203125 
C 37.796875 10.59375 38.09375 12.90625 38.796875 16.203125 
L 42.40625 33.90625 
C 43.90625 41.296875 45.203125 46.09375 46.203125 48.203125 
z
M 31.703125 44.296875 
L 35.703125 38.203125 
L 30.5 11.796875 
C 26.40625 7.40625 22.5 5.203125 18.703125 5.203125 
C 12.90625 5.203125 10 9.203125 10 17.203125 
C 10 33.09375 18.59375 44.296875 30.296875 44.296875 
C 30.796875 44.296875 31.203125 44.296875 31.703125 44.296875 
z
" id="Charter-Italic-97"/>
       <path d="M 22.5 73.59375 
L 6.796875 70.703125 
L 6.796875 67.90625 
L 16 67.40625 
L 2.5 0 
L 10.796875 0 
L 14 19.203125 
L 19.703125 24.40625 
L 28.203125 7.203125 
C 30.796875 2 33.59375 -0.5 37.59375 -0.5 
C 39.5 -0.5 43.5 0.296875 49.296875 2.203125 
L 49.296875 5 
C 47.296875 4.59375 45.59375 4.296875 44.09375 4.296875 
C 37.203125 4.296875 33.203125 12.796875 25.59375 30 
C 30 34 34.203125 37.703125 38.5 40.796875 
L 42.09375 36.90625 
C 45.796875 38.40625 47.59375 40.5 47.59375 43.09375 
C 47.59375 46 45.203125 48.203125 41.90625 48.203125 
C 39.5 48.203125 36.59375 46.5 33.09375 42.90625 
L 14.59375 23.796875 
L 25.296875 73.59375 
z
" id="Charter-Italic-107"/>
      </defs>
      <g transform="translate(356.737194 135.210625)scale(0.2 -0.2)">
       <use transform="translate(0 0.890625)" xlink:href="#Cmmi10-190"/>
       <use transform="translate(57.080078 -13.6875)scale(0.7)" xlink:href="#Charter-Italic-112"/>
       <use transform="translate(93.200072 -13.6875)scale(0.7)" xlink:href="#Charter-Italic-101"/>
       <use transform="translate(122.880067 -13.6875)scale(0.7)" xlink:href="#Charter-Italic-97"/>
       <use transform="translate(159.630057 -13.6875)scale(0.7)" xlink:href="#Charter-Italic-107"/>
       <use transform="translate(195.610052 -13.6875)scale(0.7)" xlink:href="#Charter-44"/>
       <use transform="translate(226.480042 -13.6875)scale(0.7)" xlink:href="#Charter-Italic-105"/>
      </g>
     </g>
    </g>
    <g id="xtick_3">
     <g id="line2d_3">
      <g>
       <use style="stroke:#000000;stroke-width:0.8;" x="567.036364" xlink:href="#mcbb958f392" y="115.92"/>
      </g>
     </g>
     <g id="text_3">
      <!-- $\sigma_{max, i}$ -->
      <defs>
       <path d="M 12.90625 48.5 
L 2.796875 45 
L 2.796875 42.59375 
L 11.09375 41.5 
C 13.796875 39 16.09375 33.203125 18.703125 24.09375 
C 14.59375 14.203125 9.296875 7.796875 4.796875 5.40625 
L 0.203125 9.703125 
C -2.90625 9.09375 -4.703125 7.296875 -4.703125 4.59375 
C -4.703125 1.40625 -2.296875 -0.796875 1.5 -0.796875 
C 8.09375 -0.796875 14.09375 5.90625 20.59375 19.5 
C 23.90625 5.296875 25.203125 -0.59375 32.203125 -0.59375 
C 34.90625 -0.59375 38.703125 0.40625 43.40625 2.296875 
L 43.40625 5.40625 
C 41 4.703125 39.203125 4.296875 38.09375 4.296875 
C 32.09375 4.296875 30.703125 10.59375 26.796875 24.09375 
C 31.203125 34.296875 35.59375 40 40.203125 41.203125 
L 44.5 37.296875 
C 47.703125 38.59375 49.40625 40.5 49.40625 42.90625 
C 49.40625 46 46.90625 48.5 43.703125 48.5 
C 37.40625 48.5 31.203125 41.796875 24.59375 28.40625 
C 21.09375 42 19.90625 48.59375 14 48.59375 
C 13.59375 48.59375 13.296875 48.5 12.90625 48.5 
z
" id="Charter-Italic-120"/>
      </defs>
      <g transform="translate(543.236364 135.810625)scale(0.2 -0.2)">
       <use transform="translate(0 0.890625)" xlink:href="#Cmmi10-190"/>
       <use transform="translate(57.080078 -13.6875)scale(0.7)" xlink:href="#Charter-Italic-109"/>
       <use transform="translate(114.130067 -13.6875)scale(0.7)" xlink:href="#Charter-Italic-97"/>
       <use transform="translate(150.880057 -13.6875)scale(0.7)" xlink:href="#Charter-Italic-120"/>
       <use transform="translate(184.270055 -13.6875)scale(0.7)" xlink:href="#Charter-44"/>
       <use transform="translate(215.140044 -13.6875)scale(0.7)" xlink:href="#Charter-Italic-105"/>
      </g>
     </g>
    </g>
    <g id="text_4">
     <!-- $\sigma$ [-] -->
     <defs>
      <path id="ArialMT-32"/>
      <path d="M 6.78125 -19.875 
L 6.78125 71.578125 
L 26.171875 71.578125 
L 26.171875 64.3125 
L 15.578125 64.3125 
L 15.578125 -12.59375 
L 26.171875 -12.59375 
L 26.171875 -19.875 
z
" id="ArialMT-91"/>
      <path d="M 3.171875 21.484375 
L 3.171875 30.328125 
L 30.171875 30.328125 
L 30.171875 21.484375 
z
" id="ArialMT-45"/>
      <path d="M 21.296875 -19.875 
L 1.90625 -19.875 
L 1.90625 -12.59375 
L 12.5 -12.59375 
L 12.5 64.3125 
L 1.90625 64.3125 
L 1.90625 71.578125 
L 21.296875 71.578125 
z
" id="ArialMT-93"/>
     </defs>
     <g transform="translate(299.48 156.730625)scale(0.16 -0.16)">
      <use transform="translate(0 0.421875)" xlink:href="#Cmmi10-190"/>
      <use transform="translate(57.080078 0.421875)" xlink:href="#ArialMT-32"/>
      <use transform="translate(84.863281 0.421875)" xlink:href="#ArialMT-91"/>
      <use transform="translate(112.646484 0.421875)" xlink:href="#ArialMT-45"/>
      <use transform="translate(145.947266 0.421875)" xlink:href="#ArialMT-93"/>
     </g>
    </g>
   </g>
   <g id="matplotlib.axis_2">
    <g id="text_5">
     <!-- $\hat{D}_i(\sigma)$ [-] -->
     <defs>
      <path d="M 13.484375 53.8125 
L 11.53125 55.90625 
L 25 69.390625 
L 38.375 55.90625 
L 36.375 53.8125 
L 25 63.8125 
z
" id="Cmr10-94"/>
      <path d="M 8.40625 67.09375 
L 8.40625 63.296875 
L 14.90625 62.796875 
L 15.90625 61.296875 
L 5.203125 5.796875 
L 3.59375 4.40625 
L -2.796875 3.796875 
L -2.796875 0 
L 18.296875 0 
C 32 0 42 3.296875 49.90625 11.09375 
C 57.796875 18.90625 62.296875 29.90625 62.296875 41.59375 
C 62.296875 58.09375 51.59375 67.09375 31.09375 67.09375 
z
M 24.90625 62.5 
L 30.296875 62.5 
C 45.296875 62.5 52.59375 56.09375 52.59375 42.59375 
C 52.59375 32.203125 49.09375 21.90625 44 15.203125 
C 38.796875 8.40625 30.40625 4.703125 19.5 4.703125 
L 14 4.703125 
z
" id="Charter-Italic-68"/>
      <path d="M 38.59375 67.59375 
Q 28.296875 65.796875 23.6875 56.140625 
Q 19.09375 46.5 19.09375 28.40625 
Q 19.09375 10.703125 23.796875 1.203125 
Q 28.5 -8.296875 38.59375 -10 
L 38.59375 -14.203125 
Q 25.5 -12.703125 18.046875 -1.75 
Q 10.59375 9.203125 10.59375 28.5 
Q 10.59375 48.09375 17.890625 59.09375 
Q 25.203125 70.09375 38.59375 71.796875 
z
" id="Charter-40"/>
      <path d="M 3.09375 71.796875 
Q 16.5 70.09375 23.796875 59.09375 
Q 31.09375 48.09375 31.09375 28.5 
Q 31.09375 9.203125 23.640625 -1.75 
Q 16.203125 -12.703125 3.09375 -14.203125 
L 3.09375 -10 
Q 13.203125 -8.296875 17.890625 1.203125 
Q 22.59375 10.703125 22.59375 28.40625 
Q 22.59375 46.5 18 56.140625 
Q 13.40625 65.796875 3.09375 67.59375 
L 3.09375 71.796875 
z
" id="Charter-41"/>
     </defs>
     <g transform="translate(26.4 96.36)rotate(-90)scale(0.2 -0.2)">
      <use transform="translate(17.243748 26.609375)" xlink:href="#Cmr10-94"/>
      <use transform="translate(0 0.828125)" xlink:href="#Charter-Italic-68"/>
      <use transform="translate(67.950381 -13.75)scale(0.7)" xlink:href="#Charter-Italic-105"/>
      <use transform="translate(90.470067 0.828125)" xlink:href="#Charter-40"/>
      <use transform="translate(132.170064 0.828125)" xlink:href="#Cmmi10-190"/>
      <use transform="translate(189.250142 0.828125)" xlink:href="#Charter-41"/>
      <use transform="translate(230.950139 0.828125)" xlink:href="#ArialMT-32"/>
      <use transform="translate(258.733342 0.828125)" xlink:href="#ArialMT-91"/>
      <use transform="translate(286.516545 0.828125)" xlink:href="#ArialMT-45"/>
      <use transform="translate(319.817326 0.828125)" xlink:href="#ArialMT-93"/>
     </g>
    </g>
   </g>
   <g id="line2d_4">
    <path clip-path="url(#paa63949380)" d="M 59.763636 110.978182 
L 80.363544 110.904553 
L 82.938533 110.780854 
L 85.513521 110.525228 
L 88.088509 110.073571 
L 90.663498 109.383268 
L 93.238486 108.461056 
L 100.963452 105.175609 
L 103.53844 104.298362 
L 106.113429 103.670406 
L 108.688417 103.310084 
L 111.263406 103.19385 
L 116.413383 103.440725 
L 121.563359 103.716452 
L 124.138348 103.637773 
L 126.713336 103.340959 
L 129.288325 102.816654 
L 131.863313 102.088122 
L 137.01329 100.222839 
L 144.738256 97.272241 
L 152.463221 94.662213 
L 160.188186 92.226146 
L 162.763175 91.304096 
L 165.338163 90.226188 
L 167.913152 88.940376 
L 170.48814 87.415251 
L 173.063129 85.639478 
L 175.638117 83.612531 
L 178.213106 81.333459 
L 180.788094 78.799355 
L 183.363083 76.020593 
L 191.088048 67.028153 
L 193.663036 64.404741 
L 196.238025 62.395246 
L 198.813013 61.260873 
L 201.388002 61.167672 
L 203.96299 62.095043 
L 206.537979 63.787046 
L 209.112967 65.80458 
L 211.687956 67.676805 
L 214.262944 69.072546 
L 216.837933 69.902034 
L 221.98791 70.670194 
L 224.562898 71.37478 
L 227.137886 72.840984 
L 229.712875 75.344678 
L 232.287863 78.945386 
L 234.862852 83.451731 
L 240.012829 93.460864 
L 242.587817 97.976219 
L 245.162806 101.676138 
L 247.737794 104.4333 
L 250.312783 106.306465 
L 252.887771 107.473627 
L 255.46276 108.151075 
L 258.037748 108.530246 
L 263.187725 108.883034 
L 270.91269 109.097902 
L 281.212644 109.156864 
L 291.512598 108.994318 
L 306.962529 108.478111 
L 314.687494 108.075421 
L 319.837471 107.578673 
L 324.987448 106.731442 
L 327.562437 106.120039 
L 330.137425 105.345604 
L 332.712413 104.37172 
L 335.287402 103.152641 
L 337.86239 101.630692 
L 340.437379 99.734063 
L 343.012367 97.375882 
L 345.587356 94.455778 
L 348.162344 90.865458 
L 350.737333 86.499865 
L 353.312321 81.275022 
L 355.88731 75.152395 
L 358.462298 68.16746 
L 361.037287 60.456992 
L 368.762252 36.078781 
L 371.33724 29.010186 
L 373.912229 23.242748 
L 376.487217 19.121218 
L 379.062206 16.838258 
L 381.637194 16.420359 
L 384.212183 17.744815 
L 386.787171 20.578073 
L 389.36216 24.622395 
L 391.937148 29.559525 
L 394.512137 35.084555 
L 404.81209 58.372326 
L 407.387079 63.723047 
L 409.962067 68.719789 
L 412.537056 73.332622 
L 415.112044 77.55131 
L 417.687033 81.379918 
L 420.262021 84.832432 
L 422.83701 87.929321 
L 425.411998 90.694908 
L 427.986987 93.15544 
L 430.561975 95.337683 
L 433.136964 97.26796 
L 435.711952 98.9715 
L 438.28694 100.472039 
L 440.861929 101.791592 
L 443.436917 102.950351 
L 446.011906 103.966681 
L 451.161883 105.636679 
L 456.31186 106.914566 
L 461.461837 107.889963 
L 466.611814 108.63308 
L 474.336779 109.428012 
L 482.061744 109.954386 
L 492.361698 110.38986 
L 505.236641 110.684067 
L 525.836548 110.881269 
L 564.461375 110.966104 
L 567.036364 110.96767 
L 567.036364 110.96767 
" style="fill:none;stroke:#000000;stroke-linecap:square;stroke-width:2;"/>
   </g>
   <g id="patch_3">
    <path d="M 34.4 115.92 
L 34.4 7.2 
" style="fill:none;stroke:#000000;stroke-linecap:square;stroke-linejoin:miter;stroke-width:0.8;"/>
   </g>
   <g id="patch_4">
    <path d="M 592.4 115.92 
L 592.4 7.2 
" style="fill:none;stroke:#000000;stroke-linecap:square;stroke-linejoin:miter;stroke-width:0.8;"/>
   </g>
   <g id="patch_5">
    <path d="M 34.4 115.92 
L 592.4 115.92 
" style="fill:none;stroke:#000000;stroke-linecap:square;stroke-linejoin:miter;stroke-width:0.8;"/>
   </g>
   <g id="patch_6">
    <path d="M 34.4 7.2 
L 592.4 7.2 
" style="fill:none;stroke:#000000;stroke-linecap:square;stroke-linejoin:miter;stroke-width:0.8;"/>
   </g>
   <g id="PathCollection_1">
    <defs>
     <path d="M 0 4.472136 
C 1.186024 4.472136 2.323632 4.000923 3.162278 3.162278 
C 4.000923 2.323632 4.472136 1.186024 4.472136 0 
C 4.472136 -1.186024 4.000923 -2.323632 3.162278 -3.162278 
C 2.323632 -4.000923 1.186024 -4.472136 0 -4.472136 
C -1.186024 -4.472136 -2.323632 -4.000923 -3.162278 -3.162278 
C -4.000923 -2.323632 -4.472136 -1.186024 -4.472136 0 
C -4.472136 1.186024 -4.000923 2.323632 -3.162278 3.162278 
C -2.323632 4.000923 -1.186024 4.472136 0 4.472136 
z
" id="ma76448030d" style="stroke:#ff0000;"/>
    </defs>
    <g clip-path="url(#paa63949380)">
     <use style="fill:#ff0000;stroke:#ff0000;" x="381.637194" xlink:href="#ma76448030d" y="16.420359"/>
    </g>
   </g>
   <g id="legend_1">
    <g id="patch_7">
     <path d="M 516.56 42.6325 
L 581.2 42.6325 
Q 584.4 42.6325 584.4 39.4325 
L 584.4 18.4 
Q 584.4 15.2 581.2 15.2 
L 516.56 15.2 
Q 513.36 15.2 513.36 18.4 
L 513.36 39.4325 
Q 513.36 42.6325 516.56 42.6325 
z
" style="fill:#ffffff;opacity:0.8;stroke:#cccccc;stroke-linejoin:miter;"/>
    </g>
    <g id="patch_8">
     <path d="M 519.76 33.0525 
L 551.76 33.0525 
L 551.76 21.8525 
L 519.76 21.8525 
z
" style="fill:#dddddd;"/>
    </g>
    <g id="text_6">
     <!-- $A_i$ -->
     <defs>
      <path d="M 34.5 67.703125 
L -2.40625 4.40625 
L -7.90625 3.796875 
L -7.90625 0 
L 11.90625 0 
L 11.90625 3.796875 
L 5.796875 4.296875 
L 5 5.703125 
L 15.703125 24.796875 
L 40 24.796875 
L 43.09375 5.703125 
L 42.40625 4.296875 
L 36.5 3.796875 
L 36.5 0 
L 58.40625 0 
L 58.40625 3.796875 
L 53.5 4.296875 
L 51.796875 6.09375 
L 41.09375 67.703125 
z
M 34.5 57.90625 
L 39.09375 29.09375 
L 18.203125 29.09375 
z
" id="Charter-Italic-65"/>
     </defs>
     <g transform="translate(564.56 33.0525)scale(0.16 -0.16)">
      <use transform="translate(0 0.296875)" xlink:href="#Charter-Italic-65"/>
      <use transform="translate(60.599991 -14.28125)scale(0.7)" xlink:href="#Charter-Italic-105"/>
     </g>
    </g>
   </g>
  </g>
 </g>
 <defs>
  <clipPath id="paa63949380">
   <rect height="108.72" width="558" x="34.4" y="7.2"/>
  </clipPath>
 </defs>
</svg>
