<?xml version="1.0" encoding="utf-8" standalone="no"?>
<!DOCTYPE svg PUBLIC "-//W3C//DTD SVG 1.1//EN"
  "http://www.w3.org/Graphics/SVG/1.1/DTD/svg11.dtd">
<!-- Created with matplotlib (https://matplotlib.org/) -->
<svg height="362.8225pt" version="1.1" viewBox="0 0 684.33125 362.8225" width="684.33125pt" xmlns="http://www.w3.org/2000/svg" xmlns:xlink="http://www.w3.org/1999/xlink">
 <defs>
  <style type="text/css">
*{stroke-linecap:butt;stroke-linejoin:round;}
  </style>
 </defs>
 <g id="figure_1">
  <g id="patch_1">
   <path d="M 0 362.8225 
L 684.33125 362.8225 
L 684.33125 0 
L 0 0 
z
" style="fill:#ffffff;"/>
  </g>
  <g id="axes_1">
   <g id="patch_2">
    <path d="M 63.33125 333.36 
L 677.13125 333.36 
L 677.13125 7.2 
L 63.33125 7.2 
z
" style="fill:#ffffff;"/>
   </g>
   <g id="matplotlib.axis_1">
    <g id="xtick_1">
     <g id="line2d_1">
      <path clip-path="url(#p96ed84cc20)" d="M 114.48125 333.36 
L 114.48125 7.2 
" style="fill:none;stroke:#b0b0b0;stroke-linecap:square;stroke-opacity:0.3;stroke-width:0.8;"/>
     </g>
     <g id="line2d_2">
      <defs>
       <path d="M 0 0 
L 0 3.5 
" id="m30b9ee1402" style="stroke:#000000;stroke-width:0.8;"/>
      </defs>
      <g>
       <use style="stroke:#000000;stroke-width:0.8;" x="114.48125" xlink:href="#m30b9ee1402" y="333.36"/>
      </g>
     </g>
     <g id="text_1">
      <!-- $T$ -->
      <defs>
       <path d="M 7.203125 67.09375 
L 4.296875 52.203125 
L 9.796875 52.203125 
L 13 61.5 
L 14.703125 63 
L 28.796875 63 
L 18.09375 5.796875 
L 16.5 4.40625 
L 10.09375 3.796875 
L 10.09375 0 
L 34.5 0 
L 34.5 3.796875 
L 28 4.40625 
L 26.703125 5.796875 
L 37.703125 63 
L 51.90625 63 
L 53 61.5 
L 52.59375 52.203125 
L 58 52.203125 
L 61 67.09375 
z
" id="Charter-Italic-84"/>
      </defs>
      <g transform="translate(109.92125 352.135)scale(0.16 -0.16)">
       <use transform="translate(0 0.90625)" xlink:href="#Charter-Italic-84"/>
      </g>
     </g>
    </g>
    <g id="xtick_2">
     <g id="line2d_3">
      <path clip-path="url(#p96ed84cc20)" d="M 165.63125 333.36 
L 165.63125 7.2 
" style="fill:none;stroke:#b0b0b0;stroke-linecap:square;stroke-opacity:0.3;stroke-width:0.8;"/>
     </g>
     <g id="line2d_4">
      <g>
       <use style="stroke:#000000;stroke-width:0.8;" x="165.63125" xlink:href="#m30b9ee1402" y="333.36"/>
      </g>
     </g>
     <g id="text_2">
      <!-- $H_2$ -->
      <defs>
       <path d="M 8.40625 67.09375 
L 8.40625 63.296875 
L 14.90625 62.796875 
L 15.90625 61.296875 
L 5.203125 5.796875 
L 3.59375 4.40625 
L -2.796875 3.796875 
L -2.796875 0 
L 21.5 0 
L 21.5 3.796875 
L 15.09375 4.40625 
L 13.90625 5.796875 
L 19.09375 32.796875 
L 51.59375 32.796875 
L 46.5 5.796875 
L 45 4.40625 
L 38.5 3.796875 
L 38.5 0 
L 62.703125 0 
L 62.703125 3.796875 
L 56.296875 4.40625 
L 55.296875 5.796875 
L 65.90625 61.296875 
L 67.5 62.796875 
L 74.09375 63.296875 
L 74.09375 67.09375 
L 49.703125 67.09375 
L 49.703125 63.296875 
L 56.09375 62.796875 
L 57.296875 61.296875 
L 52.59375 37.40625 
L 20 37.40625 
L 24.703125 61.296875 
L 26.203125 62.796875 
L 32.796875 63.296875 
L 32.796875 67.09375 
z
" id="Charter-Italic-72"/>
       <path d="M 44.203125 7.90625 
L 46 16.40625 
L 50.5 16.40625 
L 50.5 0 
L 4.203125 0 
L 4.203125 6.296875 
Q 12.40625 13 18.796875 18.5 
Q 25.203125 24 29.59375 28.953125 
Q 34 33.90625 36.296875 38.546875 
Q 38.59375 43.203125 38.59375 48.09375 
Q 38.59375 55.296875 35.09375 59.25 
Q 31.59375 63.203125 25.296875 63.203125 
Q 23 63.203125 20.84375 62.640625 
Q 18.703125 62.09375 16.40625 60.796875 
L 16.40625 50.09375 
Q 14.296875 48.59375 11.90625 48.59375 
Q 9.296875 48.59375 7.796875 50.09375 
Q 6.296875 51.59375 6.296875 54.203125 
Q 6.296875 56.796875 7.84375 59.34375 
Q 9.40625 61.90625 12.25 63.90625 
Q 15.09375 65.90625 18.9375 67.09375 
Q 22.796875 68.296875 27.5 68.296875 
Q 32.296875 68.296875 36.140625 66.9375 
Q 40 65.59375 42.703125 63.09375 
Q 45.40625 60.59375 46.84375 57.09375 
Q 48.296875 53.59375 48.296875 49.40625 
Q 48.296875 44.703125 46.046875 40.09375 
Q 43.796875 35.5 39.4375 30.546875 
Q 35.09375 25.59375 28.75 20.046875 
Q 22.40625 14.5 14.09375 7.90625 
z
" id="Charter-50"/>
      </defs>
      <g transform="translate(156.59125 352.135)scale(0.16 -0.16)">
       <use transform="translate(0 0.90625)" xlink:href="#Charter-Italic-72"/>
       <use transform="translate(71.199982 -13.671875)scale(0.7)" xlink:href="#Charter-50"/>
      </g>
     </g>
    </g>
    <g id="xtick_3">
     <g id="line2d_5">
      <path clip-path="url(#p96ed84cc20)" d="M 216.78125 333.36 
L 216.78125 7.2 
" style="fill:none;stroke:#b0b0b0;stroke-linecap:square;stroke-opacity:0.3;stroke-width:0.8;"/>
     </g>
     <g id="line2d_6">
      <g>
       <use style="stroke:#000000;stroke-width:0.8;" x="216.78125" xlink:href="#m30b9ee1402" y="333.36"/>
      </g>
     </g>
     <g id="text_3">
      <!-- $O_2$ -->
      <defs>
       <path d="M 40.5 68.203125 
C 30.296875 68.203125 20.296875 63.09375 13.5 54.09375 
C 7.40625 46.09375 4.09375 36.296875 4.09375 25.90625 
C 4.09375 10 15 -1.203125 30.5 -1.203125 
C 40.90625 -1.203125 50.796875 3.90625 57.703125 12.90625 
C 63.59375 20.59375 66.90625 30.796875 66.90625 42 
C 66.90625 50.796875 63 58.59375 56.203125 63.59375 
C 52.203125 66.5 46.796875 68.203125 40.5 68.203125 
z
M 57.09375 41.90625 
C 57.09375 32 54 22 49.203125 14.90625 
C 44.09375 7.40625 37.90625 3.59375 31 3.59375 
C 20.703125 3.59375 13.703125 11.90625 13.703125 25.296875 
C 13.703125 35.09375 16.703125 45.09375 21.59375 52.296875 
C 26.703125 59.796875 33 63.59375 39.796875 63.59375 
C 50.203125 63.59375 57.09375 55.5 57.09375 41.90625 
z
" id="Charter-Italic-79"/>
      </defs>
      <g transform="translate(207.74125 352.135)scale(0.16 -0.16)">
       <use transform="translate(0 0.796875)" xlink:href="#Charter-Italic-79"/>
       <use transform="translate(70.799988 -13.78125)scale(0.7)" xlink:href="#Charter-50"/>
      </g>
     </g>
    </g>
    <g id="xtick_4">
     <g id="line2d_7">
      <path clip-path="url(#p96ed84cc20)" d="M 267.93125 333.36 
L 267.93125 7.2 
" style="fill:none;stroke:#b0b0b0;stroke-linecap:square;stroke-opacity:0.3;stroke-width:0.8;"/>
     </g>
     <g id="line2d_8">
      <g>
       <use style="stroke:#000000;stroke-width:0.8;" x="267.93125" xlink:href="#m30b9ee1402" y="333.36"/>
      </g>
     </g>
     <g id="text_4">
      <!-- $O$ -->
      <g transform="translate(262.25125 352.135)scale(0.16 -0.16)">
       <use transform="translate(0 0.796875)" xlink:href="#Charter-Italic-79"/>
      </g>
     </g>
    </g>
    <g id="xtick_5">
     <g id="line2d_9">
      <path clip-path="url(#p96ed84cc20)" d="M 319.08125 333.36 
L 319.08125 7.2 
" style="fill:none;stroke:#b0b0b0;stroke-linecap:square;stroke-opacity:0.3;stroke-width:0.8;"/>
     </g>
     <g id="line2d_10">
      <g>
       <use style="stroke:#000000;stroke-width:0.8;" x="319.08125" xlink:href="#m30b9ee1402" y="333.36"/>
      </g>
     </g>
     <g id="text_5">
      <!-- $OH$ -->
      <g transform="translate(307.72125 352.135)scale(0.16 -0.16)">
       <use transform="translate(0 0.796875)" xlink:href="#Charter-Italic-79"/>
       <use transform="translate(70.799988 0.796875)" xlink:href="#Charter-Italic-72"/>
      </g>
     </g>
    </g>
    <g id="xtick_6">
     <g id="line2d_11">
      <path clip-path="url(#p96ed84cc20)" d="M 370.23125 333.36 
L 370.23125 7.2 
" style="fill:none;stroke:#b0b0b0;stroke-linecap:square;stroke-opacity:0.3;stroke-width:0.8;"/>
     </g>
     <g id="line2d_12">
      <g>
       <use style="stroke:#000000;stroke-width:0.8;" x="370.23125" xlink:href="#m30b9ee1402" y="333.36"/>
      </g>
     </g>
     <g id="text_6">
      <!-- $H_2O$ -->
      <g transform="translate(355.51125 352.135)scale(0.16 -0.16)">
       <use transform="translate(0 0.796875)" xlink:href="#Charter-Italic-72"/>
       <use transform="translate(71.199982 -13.78125)scale(0.7)" xlink:href="#Charter-50"/>
       <use transform="translate(112.549663 0.796875)" xlink:href="#Charter-Italic-79"/>
      </g>
     </g>
    </g>
    <g id="xtick_7">
     <g id="line2d_13">
      <path clip-path="url(#p96ed84cc20)" d="M 421.38125 333.36 
L 421.38125 7.2 
" style="fill:none;stroke:#b0b0b0;stroke-linecap:square;stroke-opacity:0.3;stroke-width:0.8;"/>
     </g>
     <g id="line2d_14">
      <g>
       <use style="stroke:#000000;stroke-width:0.8;" x="421.38125" xlink:href="#m30b9ee1402" y="333.36"/>
      </g>
     </g>
     <g id="text_7">
      <!-- $H$ -->
      <g transform="translate(415.62125 352.135)scale(0.16 -0.16)">
       <use transform="translate(0 0.90625)" xlink:href="#Charter-Italic-72"/>
      </g>
     </g>
    </g>
    <g id="xtick_8">
     <g id="line2d_15">
      <path clip-path="url(#p96ed84cc20)" d="M 472.53125 333.36 
L 472.53125 7.2 
" style="fill:none;stroke:#b0b0b0;stroke-linecap:square;stroke-opacity:0.3;stroke-width:0.8;"/>
     </g>
     <g id="line2d_16">
      <g>
       <use style="stroke:#000000;stroke-width:0.8;" x="472.53125" xlink:href="#m30b9ee1402" y="333.36"/>
      </g>
     </g>
     <g id="text_8">
      <!-- $HO_2$ -->
      <g transform="translate(457.81125 352.135)scale(0.16 -0.16)">
       <use transform="translate(0 0.796875)" xlink:href="#Charter-Italic-72"/>
       <use transform="translate(71.199982 0.796875)" xlink:href="#Charter-Italic-79"/>
       <use transform="translate(141.999969 -13.78125)scale(0.7)" xlink:href="#Charter-50"/>
      </g>
     </g>
    </g>
    <g id="xtick_9">
     <g id="line2d_17">
      <path clip-path="url(#p96ed84cc20)" d="M 523.68125 333.36 
L 523.68125 7.2 
" style="fill:none;stroke:#b0b0b0;stroke-linecap:square;stroke-opacity:0.3;stroke-width:0.8;"/>
     </g>
     <g id="line2d_18">
      <g>
       <use style="stroke:#000000;stroke-width:0.8;" x="523.68125" xlink:href="#m30b9ee1402" y="333.36"/>
      </g>
     </g>
     <g id="text_9">
      <!-- $CO$ -->
      <defs>
       <path d="M 62.203125 64.90625 
C 55.703125 67.203125 49.703125 68.296875 44.09375 68.296875 
C 34.90625 68.296875 26.5 65.296875 19.59375 59.703125 
C 9.796875 51.59375 4.09375 39.5 4.09375 26.5 
C 4.09375 9.59375 14.5 -1.203125 31 -1.203125 
C 37.203125 -1.203125 44 0 50.90625 2.296875 
L 53.59375 18.09375 
L 49.296875 18.09375 
L 44.90625 6.59375 
L 43 4.90625 
C 40.09375 4 37.203125 3.5 34.40625 3.5 
C 21.203125 3.5 13.59375 11.5 13.59375 25.296875 
C 13.59375 38.40625 18.296875 49.796875 26.09375 56.796875 
C 31 61.203125 37.203125 63.59375 43.796875 63.59375 
C 47.5 63.59375 51 62.796875 54.40625 61 
L 55.203125 59.09375 
L 55.203125 49.5 
L 59.40625 49.5 
z
" id="Charter-Italic-67"/>
      </defs>
      <g transform="translate(513.12125 352.135)scale(0.16 -0.16)">
       <use transform="translate(0 0.703125)" xlink:href="#Charter-Italic-67"/>
       <use transform="translate(60.399994 0.703125)" xlink:href="#Charter-Italic-79"/>
      </g>
     </g>
    </g>
    <g id="xtick_10">
     <g id="line2d_19">
      <path clip-path="url(#p96ed84cc20)" d="M 574.83125 333.36 
L 574.83125 7.2 
" style="fill:none;stroke:#b0b0b0;stroke-linecap:square;stroke-opacity:0.3;stroke-width:0.8;"/>
     </g>
     <g id="line2d_20">
      <g>
       <use style="stroke:#000000;stroke-width:0.8;" x="574.83125" xlink:href="#m30b9ee1402" y="333.36"/>
      </g>
     </g>
     <g id="text_10">
      <!-- $CO_2$ -->
      <g transform="translate(560.99125 352.135)scale(0.16 -0.16)">
       <use transform="translate(0 0.703125)" xlink:href="#Charter-Italic-67"/>
       <use transform="translate(60.399994 0.703125)" xlink:href="#Charter-Italic-79"/>
       <use transform="translate(131.199982 -13.875)scale(0.7)" xlink:href="#Charter-50"/>
      </g>
     </g>
    </g>
    <g id="xtick_11">
     <g id="line2d_21">
      <path clip-path="url(#p96ed84cc20)" d="M 625.98125 333.36 
L 625.98125 7.2 
" style="fill:none;stroke:#b0b0b0;stroke-linecap:square;stroke-opacity:0.3;stroke-width:0.8;"/>
     </g>
     <g id="line2d_22">
      <g>
       <use style="stroke:#000000;stroke-width:0.8;" x="625.98125" xlink:href="#m30b9ee1402" y="333.36"/>
      </g>
     </g>
     <g id="text_11">
      <!-- $HCO$ -->
      <g transform="translate(609.74125 352.135)scale(0.16 -0.16)">
       <use transform="translate(0 0.703125)" xlink:href="#Charter-Italic-72"/>
       <use transform="translate(71.199982 0.703125)" xlink:href="#Charter-Italic-67"/>
       <use transform="translate(131.599976 0.703125)" xlink:href="#Charter-Italic-79"/>
      </g>
     </g>
    </g>
   </g>
   <g id="matplotlib.axis_2">
    <g id="ytick_1">
     <g id="line2d_23">
      <path clip-path="url(#p96ed84cc20)" d="M 63.33125 318.534545 
L 677.13125 318.534545 
" style="fill:none;stroke:#b0b0b0;stroke-linecap:square;stroke-opacity:0.3;stroke-width:0.8;"/>
     </g>
     <g id="line2d_24">
      <defs>
       <path d="M 0 0 
L -3.5 0 
" id="m454780ce84" style="stroke:#000000;stroke-width:0.8;"/>
      </defs>
      <g>
       <use style="stroke:#000000;stroke-width:0.8;" x="63.33125" xlink:href="#m454780ce84" y="318.534545"/>
      </g>
     </g>
     <g id="text_12">
      <!-- 0.0 -->
      <defs>
       <path d="M 27.796875 68.296875 
Q 33.203125 68.296875 37.546875 66 
Q 41.90625 63.703125 45 59.25 
Q 48.09375 54.796875 49.796875 48.34375 
Q 51.5 41.90625 51.5 33.59375 
Q 51.5 25.296875 49.796875 18.84375 
Q 48.09375 12.40625 45 7.953125 
Q 41.90625 3.5 37.546875 1.140625 
Q 33.203125 -1.203125 27.796875 -1.203125 
Q 22.40625 -1.203125 18.046875 1.140625 
Q 13.703125 3.5 10.59375 7.953125 
Q 7.5 12.40625 5.796875 18.84375 
Q 4.09375 25.296875 4.09375 33.59375 
Q 4.09375 41.90625 5.796875 48.34375 
Q 7.5 54.796875 10.59375 59.25 
Q 13.703125 63.703125 18.046875 66 
Q 22.40625 68.296875 27.796875 68.296875 
z
M 27.796875 63.59375 
Q 20.90625 63.59375 17.203125 56.046875 
Q 13.5 48.5 13.5 33.5 
Q 13.5 18.59375 17.203125 11.09375 
Q 20.90625 3.59375 27.796875 3.59375 
Q 34.703125 3.59375 38.34375 11.140625 
Q 42 18.703125 42 33.59375 
Q 42 48.5 38.34375 56.046875 
Q 34.703125 63.59375 27.796875 63.59375 
z
" id="Charter-48"/>
       <path d="M 13.90625 11.796875 
Q 16.5 11.796875 18.34375 9.9375 
Q 20.203125 8.09375 20.203125 5.40625 
Q 20.203125 2.796875 18.34375 0.9375 
Q 16.5 -0.90625 13.90625 -0.90625 
Q 11.296875 -0.90625 9.390625 0.890625 
Q 7.5 2.703125 7.5 5.40625 
Q 7.5 8.09375 9.390625 9.9375 
Q 11.296875 11.796875 13.90625 11.796875 
z
" id="Charter-46"/>
      </defs>
      <g transform="translate(34.09375 324.422045)scale(0.16 -0.16)">
       <use xlink:href="#Charter-48"/>
       <use x="55.599991" xlink:href="#Charter-46"/>
       <use x="83.399979" xlink:href="#Charter-48"/>
      </g>
     </g>
    </g>
    <g id="ytick_2">
     <g id="line2d_25">
      <path clip-path="url(#p96ed84cc20)" d="M 63.33125 259.232727 
L 677.13125 259.232727 
" style="fill:none;stroke:#b0b0b0;stroke-linecap:square;stroke-opacity:0.3;stroke-width:0.8;"/>
     </g>
     <g id="line2d_26">
      <g>
       <use style="stroke:#000000;stroke-width:0.8;" x="63.33125" xlink:href="#m454780ce84" y="259.232727"/>
      </g>
     </g>
     <g id="text_13">
      <!-- 0.2 -->
      <g transform="translate(34.09375 265.120227)scale(0.16 -0.16)">
       <use xlink:href="#Charter-48"/>
       <use x="55.599991" xlink:href="#Charter-46"/>
       <use x="83.399979" xlink:href="#Charter-50"/>
      </g>
     </g>
    </g>
    <g id="ytick_3">
     <g id="line2d_27">
      <path clip-path="url(#p96ed84cc20)" d="M 63.33125 199.930909 
L 677.13125 199.930909 
" style="fill:none;stroke:#b0b0b0;stroke-linecap:square;stroke-opacity:0.3;stroke-width:0.8;"/>
     </g>
     <g id="line2d_28">
      <g>
       <use style="stroke:#000000;stroke-width:0.8;" x="63.33125" xlink:href="#m454780ce84" y="199.930909"/>
      </g>
     </g>
     <g id="text_14">
      <!-- 0.4 -->
      <defs>
       <path d="M 42.59375 67.703125 
L 42.59375 25.90625 
L 53.90625 25.90625 
L 53.90625 19.40625 
L 42.59375 19.40625 
L 42.59375 -3.703125 
L 34.90625 -3.703125 
L 34.90625 19.40625 
L 2.703125 19.40625 
L 2.703125 25.90625 
L 36.796875 67.703125 
z
M 10.203125 25.90625 
L 34.90625 25.90625 
L 34.90625 56.796875 
z
" id="Charter-52"/>
      </defs>
      <g transform="translate(34.09375 205.818409)scale(0.16 -0.16)">
       <use xlink:href="#Charter-48"/>
       <use x="55.599991" xlink:href="#Charter-46"/>
       <use x="83.399979" xlink:href="#Charter-52"/>
      </g>
     </g>
    </g>
    <g id="ytick_4">
     <g id="line2d_29">
      <path clip-path="url(#p96ed84cc20)" d="M 63.33125 140.629091 
L 677.13125 140.629091 
" style="fill:none;stroke:#b0b0b0;stroke-linecap:square;stroke-opacity:0.3;stroke-width:0.8;"/>
     </g>
     <g id="line2d_30">
      <g>
       <use style="stroke:#000000;stroke-width:0.8;" x="63.33125" xlink:href="#m454780ce84" y="140.629091"/>
      </g>
     </g>
     <g id="text_15">
      <!-- 0.6 -->
      <defs>
       <path d="M 44.296875 65.59375 
L 44 65.59375 
Q 31.90625 65.59375 24.453125 58.6875 
Q 17 51.796875 14.703125 38.40625 
Q 22.59375 44.5 31.703125 44.5 
Q 36.203125 44.5 40 42.890625 
Q 43.796875 41.296875 46.546875 38.390625 
Q 49.296875 35.5 50.890625 31.5 
Q 52.5 27.5 52.5 22.703125 
Q 52.5 17.59375 50.640625 13.25 
Q 48.796875 8.90625 45.546875 5.703125 
Q 42.296875 2.5 37.84375 0.640625 
Q 33.40625 -1.203125 28.296875 -1.203125 
Q 23.203125 -1.203125 18.953125 0.796875 
Q 14.703125 2.796875 11.59375 6.5 
Q 8.5 10.203125 6.75 15.546875 
Q 5 20.90625 5 27.703125 
Q 5 37.296875 7.703125 45.09375 
Q 10.40625 52.90625 15.453125 58.546875 
Q 20.5 64.203125 27.796875 67.5 
Q 35.09375 70.796875 44.296875 71.40625 
z
M 14.5 34 
Q 14.296875 32.40625 14.296875 30.84375 
Q 14.296875 29.296875 14.296875 27.90625 
Q 14.296875 15.90625 18.140625 9.75 
Q 22 3.59375 29.09375 3.59375 
Q 32.203125 3.59375 34.84375 4.9375 
Q 37.5 6.296875 39.390625 8.6875 
Q 41.296875 11.09375 42.34375 14.4375 
Q 43.40625 17.796875 43.40625 21.796875 
Q 43.40625 29.59375 39.40625 34.046875 
Q 35.40625 38.5 29 38.5 
Q 20.59375 38.5 14.5 34 
z
" id="Charter-54"/>
      </defs>
      <g transform="translate(34.09375 146.516591)scale(0.16 -0.16)">
       <use xlink:href="#Charter-48"/>
       <use x="55.599991" xlink:href="#Charter-46"/>
       <use x="83.399979" xlink:href="#Charter-54"/>
      </g>
     </g>
    </g>
    <g id="ytick_5">
     <g id="line2d_31">
      <path clip-path="url(#p96ed84cc20)" d="M 63.33125 81.327273 
L 677.13125 81.327273 
" style="fill:none;stroke:#b0b0b0;stroke-linecap:square;stroke-opacity:0.3;stroke-width:0.8;"/>
     </g>
     <g id="line2d_32">
      <g>
       <use style="stroke:#000000;stroke-width:0.8;" x="63.33125" xlink:href="#m454780ce84" y="81.327273"/>
      </g>
     </g>
     <g id="text_16">
      <!-- 0.8 -->
      <defs>
       <path d="M 32.09375 36.90625 
Q 36 39.5 38.046875 43.09375 
Q 40.09375 46.703125 40.09375 50.703125 
Q 40.09375 56.703125 36.796875 60.203125 
Q 33.5 63.703125 28 63.703125 
Q 25.40625 63.703125 23.203125 62.796875 
Q 21 61.90625 19.34375 60.296875 
Q 17.703125 58.703125 16.796875 56.546875 
Q 15.90625 54.40625 15.90625 51.90625 
Q 15.90625 46.90625 19.90625 43.34375 
Q 23.90625 39.796875 32.09375 36.90625 
z
M 36.296875 35.09375 
Q 43.40625 32.59375 47 28.1875 
Q 50.59375 23.796875 50.59375 17.90625 
Q 50.59375 13.90625 48.9375 10.34375 
Q 47.296875 6.796875 44.25 4.140625 
Q 41.203125 1.5 36.953125 -0.046875 
Q 32.703125 -1.59375 27.5 -1.59375 
Q 22.09375 -1.59375 17.796875 -0.140625 
Q 13.5 1.296875 10.546875 3.84375 
Q 7.59375 6.40625 6 9.953125 
Q 4.40625 13.5 4.40625 17.703125 
Q 4.40625 29.703125 18.09375 35 
Q 7.59375 39.40625 7.59375 50.40625 
Q 7.59375 54.40625 9.09375 57.703125 
Q 10.59375 61 13.296875 63.390625 
Q 16 65.796875 19.796875 67.140625 
Q 23.59375 68.5 28.296875 68.5 
Q 32.796875 68.5 36.390625 67.25 
Q 40 66 42.546875 63.75 
Q 45.09375 61.5 46.4375 58.390625 
Q 47.796875 55.296875 47.796875 51.703125 
Q 47.796875 46.703125 44.84375 42.34375 
Q 41.90625 38 36.296875 35.09375 
z
M 21.90625 32.90625 
Q 16.796875 30.203125 14.4375 26.796875 
Q 12.09375 23.40625 12.09375 18.296875 
Q 12.09375 11.703125 16.34375 7.640625 
Q 20.59375 3.59375 27.796875 3.59375 
Q 34.296875 3.59375 38.140625 7.25 
Q 42 10.90625 42 16.90625 
Q 42 19.90625 40.75 22.046875 
Q 39.5 24.203125 37 26 
Q 34.5 27.796875 30.703125 29.390625 
Q 26.90625 31 21.90625 32.90625 
z
" id="Charter-56"/>
      </defs>
      <g transform="translate(34.09375 87.214773)scale(0.16 -0.16)">
       <use xlink:href="#Charter-48"/>
       <use x="55.599991" xlink:href="#Charter-46"/>
       <use x="83.399979" xlink:href="#Charter-56"/>
      </g>
     </g>
    </g>
    <g id="ytick_6">
     <g id="line2d_33">
      <path clip-path="url(#p96ed84cc20)" d="M 63.33125 22.025455 
L 677.13125 22.025455 
" style="fill:none;stroke:#b0b0b0;stroke-linecap:square;stroke-opacity:0.3;stroke-width:0.8;"/>
     </g>
     <g id="line2d_34">
      <g>
       <use style="stroke:#000000;stroke-width:0.8;" x="63.33125" xlink:href="#m454780ce84" y="22.025455"/>
      </g>
     </g>
     <g id="text_17">
      <!-- 1.0 -->
      <defs>
       <path d="M 33.90625 68.296875 
L 33.90625 6.203125 
L 35.09375 4.703125 
L 45.90625 4.203125 
L 45.90625 0 
L 12.40625 0 
L 12.40625 4.296875 
L 23.90625 4.90625 
L 25.09375 6.59375 
L 25.09375 60.40625 
L 9.40625 57.59375 
L 9.40625 61.796875 
L 31.09375 68.296875 
z
" id="Charter-49"/>
      </defs>
      <g transform="translate(34.09375 27.912955)scale(0.16 -0.16)">
       <use xlink:href="#Charter-49"/>
       <use x="55.599991" xlink:href="#Charter-46"/>
       <use x="83.399979" xlink:href="#Charter-48"/>
      </g>
     </g>
    </g>
    <g id="text_18">
     <!-- PC-1 absolute weight [-] -->
     <defs>
      <path d="M 3.296875 4.09375 
L 9 4.59375 
L 10.703125 6 
L 10.703125 61.09375 
L 9 62.5 
L 2.5 63.09375 
L 2.5 67.09375 
L 25.296875 67.09375 
Q 32.5 67.09375 37.75 66.046875 
Q 43 65 46.390625 62.59375 
Q 49.796875 60.203125 51.4375 56.296875 
Q 53.09375 52.40625 53.09375 46.703125 
Q 53.09375 41.90625 51.296875 37.953125 
Q 49.5 34 46.140625 31.140625 
Q 42.796875 28.296875 38 26.75 
Q 33.203125 25.203125 27.203125 25.203125 
Q 25.796875 25.203125 23.890625 25.34375 
Q 22 25.5 19.703125 25.703125 
L 19.703125 6 
L 21.40625 4.59375 
L 28.5 4.09375 
L 28.5 0 
L 3.296875 0 
z
M 19.703125 30.5 
Q 21.90625 30.296875 23.546875 30.140625 
Q 25.203125 30 26.296875 30 
Q 34.90625 30 39.34375 34.296875 
Q 43.796875 38.59375 43.796875 46.90625 
Q 43.796875 55 39.1875 58.75 
Q 34.59375 62.5 24.90625 62.5 
Q 23.703125 62.5 22.390625 62.5 
Q 21.09375 62.5 19.703125 62.296875 
z
" id="Charter-80"/>
      <path d="M 58.796875 2.296875 
Q 48.796875 -1.203125 38.59375 -1.203125 
Q 28.703125 -1.203125 21.59375 2.796875 
Q 13.5 7.40625 8.890625 15.546875 
Q 4.296875 23.703125 4.296875 33.59375 
Q 4.296875 41.40625 6.796875 47.796875 
Q 9.296875 54.203125 13.84375 58.75 
Q 18.40625 63.296875 24.796875 65.796875 
Q 31.203125 68.296875 39 68.296875 
Q 48 68.296875 58.796875 64.90625 
L 58.796875 49.5 
L 53.203125 49.5 
L 51.703125 58.59375 
L 50.40625 60.40625 
Q 47.59375 61.703125 44.84375 62.34375 
Q 42.09375 63 39.203125 63 
Q 33.59375 63 29.046875 61.046875 
Q 24.5 59.09375 21.296875 55.390625 
Q 18.09375 51.703125 16.34375 46.34375 
Q 14.59375 41 14.59375 34.296875 
Q 14.59375 27.203125 16.390625 21.59375 
Q 18.203125 16 21.546875 12.09375 
Q 24.90625 8.203125 29.75 6.140625 
Q 34.59375 4.09375 40.703125 4.09375 
Q 45.09375 4.09375 49.40625 5.40625 
L 51 7 
L 53.203125 18.09375 
L 58.796875 18.09375 
L 58.796875 2.296875 
z
" id="Charter-67"/>
      <path d="M 27.203125 27.40625 
L 27.203125 20.703125 
L 4.703125 20.703125 
L 4.703125 27.40625 
z
" id="Charter-45"/>
      <path id="Charter-32"/>
      <path d="M 33.40625 5.796875 
Q 28.59375 2.59375 24.59375 0.9375 
Q 20.59375 -0.703125 17 -0.703125 
Q 11 -0.703125 7.59375 2.84375 
Q 4.203125 6.40625 4.203125 12.09375 
Q 4.203125 16 5.953125 18.640625 
Q 7.703125 21.296875 11.296875 23.296875 
Q 14.90625 25.296875 20.40625 26.890625 
Q 25.90625 28.5 33.40625 30.296875 
L 33.40625 33.5 
Q 33.40625 39.5 31.5 42.09375 
Q 29.59375 44.703125 24.203125 44.703125 
Q 20.5 44.703125 16.59375 43.09375 
L 16.59375 34.703125 
L 9.703125 34.703125 
Q 8 34.703125 7.296875 35.34375 
Q 6.59375 36 6.59375 37.796875 
Q 6.59375 40.09375 8 42.140625 
Q 9.40625 44.203125 12 45.75 
Q 14.59375 47.296875 18.34375 48.1875 
Q 22.09375 49.09375 26.796875 49.09375 
Q 34.703125 49.09375 38.203125 45.6875 
Q 41.703125 42.296875 41.703125 34.703125 
L 41.703125 5.703125 
L 43.5 4.09375 
L 48.796875 3.59375 
L 48.796875 0 
L 34.703125 0 
z
M 33.40625 26.796875 
Q 28.09375 25.296875 24.25 24 
Q 20.40625 22.703125 17.90625 21.140625 
Q 15.40625 19.59375 14.203125 17.59375 
Q 13 15.59375 13 12.90625 
Q 13 9.203125 15.09375 6.953125 
Q 17.203125 4.703125 21 4.703125 
Q 23.5 4.703125 26.546875 5.84375 
Q 29.59375 7 33.40625 9.203125 
z
" id="Charter-97"/>
      <path d="M 16.90625 73.59375 
L 16.90625 45.59375 
Q 24.203125 49.09375 30.59375 49.09375 
Q 35 49.09375 38.640625 47.4375 
Q 42.296875 45.796875 44.890625 42.796875 
Q 47.5 39.796875 48.953125 35.59375 
Q 50.40625 31.40625 50.40625 26.296875 
Q 50.40625 13.296875 43.09375 6.640625 
Q 35.796875 0 21.40625 0 
L 8.59375 0 
L 8.59375 66.90625 
L 0.796875 66.90625 
L 0.796875 70 
L 13.09375 73.59375 
z
M 16.90625 4.59375 
Q 19.203125 4.5 20.59375 4.5 
Q 22 4.5 22.40625 4.5 
Q 32.203125 4.5 36.796875 9.25 
Q 41.40625 14 41.40625 24.40625 
Q 41.40625 33.796875 37.296875 38.796875 
Q 33.203125 43.796875 25.703125 43.796875 
Q 23.796875 43.796875 21.59375 43.390625 
Q 19.40625 43 16.90625 42.203125 
z
" id="Charter-98"/>
      <path d="M 34.40625 35.59375 
L 29.5 35.59375 
L 28.703125 42.703125 
Q 24.796875 44.796875 21.296875 44.796875 
Q 17.296875 44.796875 15.140625 42.890625 
Q 13 41 13 37.59375 
Q 13 34.40625 15.140625 32.453125 
Q 17.296875 30.5 21.5 28.5 
Q 24.09375 27.203125 26.84375 25.953125 
Q 29.59375 24.703125 32.09375 22.703125 
Q 35.90625 19.703125 35.90625 14.09375 
Q 35.90625 7.09375 31 3.09375 
Q 26.09375 -0.90625 17.203125 -0.90625 
Q 13.40625 -0.90625 10.09375 -0.34375 
Q 6.796875 0.203125 4.203125 1.203125 
L 4.203125 14.203125 
L 9 14.203125 
L 10.203125 5.703125 
Q 14.40625 3.296875 18.703125 3.296875 
Q 23.09375 3.296875 25.59375 5.59375 
Q 28.09375 7.90625 28.09375 11.40625 
Q 28.09375 13.296875 27.4375 14.6875 
Q 26.796875 16.09375 25.5 17.1875 
Q 24.203125 18.296875 22.296875 19.296875 
Q 20.40625 20.296875 17.90625 21.40625 
Q 11.5 24.203125 8.25 27.140625 
Q 5 30.09375 5 35.09375 
Q 5 41.703125 9.546875 45.390625 
Q 14.09375 49.09375 22.703125 49.09375 
Q 29.40625 49.09375 34.40625 46.90625 
z
" id="Charter-115"/>
      <path d="M 26.90625 49.09375 
Q 32 49.09375 36.25 47.25 
Q 40.5 45.40625 43.59375 42.09375 
Q 46.703125 38.796875 48.453125 34.1875 
Q 50.203125 29.59375 50.203125 24.09375 
Q 50.203125 18.5 48.453125 13.890625 
Q 46.703125 9.296875 43.59375 6 
Q 40.5 2.703125 36.203125 0.890625 
Q 31.90625 -0.90625 26.90625 -0.90625 
Q 21.90625 -0.90625 17.65625 0.890625 
Q 13.40625 2.703125 10.296875 6 
Q 7.203125 9.296875 5.453125 13.890625 
Q 3.703125 18.5 3.703125 24.09375 
Q 3.703125 29.703125 5.453125 34.296875 
Q 7.203125 38.90625 10.25 42.203125 
Q 13.296875 45.5 17.546875 47.296875 
Q 21.796875 49.09375 26.90625 49.09375 
z
M 26.90625 44.796875 
Q 20.796875 44.796875 16.9375 39.34375 
Q 13.09375 33.90625 13.09375 24.09375 
Q 13.09375 19.296875 14.140625 15.4375 
Q 15.203125 11.59375 17 8.890625 
Q 18.796875 6.203125 21.34375 4.796875 
Q 23.90625 3.40625 26.90625 3.40625 
Q 33 3.40625 36.890625 8.84375 
Q 40.796875 14.296875 40.796875 24.09375 
Q 40.796875 33.796875 36.890625 39.296875 
Q 33 44.796875 26.90625 44.796875 
z
" id="Charter-111"/>
      <path d="M 2.796875 3.59375 
L 8.703125 4.09375 
L 10.40625 5.703125 
L 10.40625 66.90625 
L 2.703125 66.90625 
L 2.703125 70 
L 14.90625 73.59375 
L 18.703125 73.59375 
L 18.703125 5.703125 
L 20.5 4.09375 
L 26.203125 3.59375 
L 26.203125 0 
L 2.796875 0 
z
" id="Charter-108"/>
      <path d="M 18 49.09375 
L 18 16 
Q 18 10.59375 20.296875 8 
Q 22.59375 5.40625 27.703125 5.40625 
Q 33.09375 5.40625 39.296875 8.40625 
L 39.296875 42.296875 
L 32.203125 42.296875 
L 32.203125 45.40625 
L 43.796875 49.09375 
L 47.59375 49.09375 
L 47.59375 5.703125 
L 49.40625 4.09375 
L 54.09375 3.59375 
L 54.09375 0 
L 39.296875 0 
L 39.296875 5.59375 
Q 34.796875 2.40625 30.796875 0.703125 
Q 26.796875 -1 23.09375 -1 
Q 16.59375 -1 13.140625 2.890625 
Q 9.703125 6.796875 9.703125 14.296875 
L 9.703125 42.296875 
L 2.59375 42.296875 
L 2.59375 45.40625 
L 14.203125 49.09375 
z
" id="Charter-117"/>
      <path d="M 2.5 42.09375 
L 2.5 45.203125 
L 9.09375 48.09375 
L 13.40625 57.40625 
L 17.09375 57.40625 
L 17.09375 46.796875 
L 32.296875 46.796875 
L 32.296875 42.09375 
L 17.09375 42.09375 
L 17.09375 15.703125 
Q 17.09375 12.796875 17.390625 10.75 
Q 17.703125 8.703125 18.59375 7.390625 
Q 19.5 6.09375 21.140625 5.4375 
Q 22.796875 4.796875 25.40625 4.796875 
Q 28.59375 4.796875 32.296875 5.59375 
L 32.296875 1.90625 
Q 28.796875 0.796875 25.4375 0.25 
Q 22.09375 -0.296875 19.203125 -0.296875 
Q 13 -0.296875 10.890625 2.09375 
Q 8.796875 4.5 8.796875 9.796875 
L 8.796875 42.09375 
z
" id="Charter-116"/>
      <path d="M 44.796875 5.09375 
Q 40.296875 2.09375 35.546875 0.59375 
Q 30.796875 -0.90625 26 -0.90625 
Q 21 -0.90625 16.890625 0.890625 
Q 12.796875 2.703125 9.890625 5.890625 
Q 7 9.09375 5.34375 13.640625 
Q 3.703125 18.203125 3.703125 23.703125 
Q 3.703125 29.40625 5.390625 34.046875 
Q 7.09375 38.703125 10.1875 42.046875 
Q 13.296875 45.40625 17.546875 47.25 
Q 21.796875 49.09375 26.796875 49.09375 
Q 35 49.09375 39.890625 43.890625 
Q 44.796875 38.703125 44.796875 29.40625 
Q 44.796875 28.59375 44.796875 27.84375 
Q 44.796875 27.09375 44.703125 26.296875 
L 12.296875 26.296875 
L 12.296875 25.203125 
Q 12.296875 15.5 16.890625 10.140625 
Q 21.5 4.796875 29.09375 4.796875 
Q 32.90625 4.796875 36.703125 6.25 
Q 40.5 7.703125 44.796875 10.59375 
z
M 35.90625 32.09375 
Q 35.90625 38.203125 33.25 41.390625 
Q 30.59375 44.59375 25.5 44.59375 
Q 23.09375 44.59375 20.890625 43.59375 
Q 18.703125 42.59375 16.953125 40.75 
Q 15.203125 38.90625 14.09375 36.296875 
Q 13 33.703125 12.796875 30.5 
L 35.90625 30.5 
z
" id="Charter-101"/>
      <path d="M 21.5 48.09375 
L 21.5 44.40625 
L 16.203125 44 
L 15 42.40625 
L 24.09375 9.90625 
L 37.5 48.09375 
L 43.59375 48.09375 
L 55.40625 9.90625 
L 65.59375 42.40625 
L 64.796875 44 
L 59.40625 44.40625 
L 59.40625 48.09375 
L 77.09375 48.09375 
L 77.09375 44.40625 
L 71.5 43.59375 
L 57.203125 0 
L 51 0 
L 38.90625 37.90625 
L 25.40625 0 
L 19.203125 0 
L 5.90625 43.796875 
L -0.203125 44.40625 
L -0.203125 48.09375 
z
" id="Charter-119"/>
      <path d="M 15.40625 70.796875 
Q 17.796875 70.796875 19.5 69.09375 
Q 21.203125 67.40625 21.203125 65 
Q 21.203125 62.59375 19.5 60.9375 
Q 17.796875 59.296875 15.40625 59.296875 
Q 13 59.296875 11.296875 60.9375 
Q 9.59375 62.59375 9.59375 65 
Q 9.59375 67.5 11.296875 69.140625 
Q 13 70.796875 15.40625 70.796875 
z
M 18.796875 48.59375 
L 18.796875 5.703125 
L 20.59375 4.09375 
L 26 3.59375 
L 26 0 
L 3.5 0 
L 3.5 3.59375 
L 8.796875 4.09375 
L 10.5 5.703125 
L 10.5 41.90625 
L 3.5 41.90625 
L 3.5 45 
L 15 48.59375 
z
" id="Charter-105"/>
      <path d="M 51.203125 46.296875 
L 51.203125 41.59375 
L 40.203125 41.59375 
Q 43 37.296875 43 32.296875 
Q 43 29 41.640625 26.140625 
Q 40.296875 23.296875 37.796875 21.1875 
Q 35.296875 19.09375 31.75 17.890625 
Q 28.203125 16.703125 23.90625 16.703125 
L 22.203125 16.703125 
Q 21.09375 14.5 21.09375 12.203125 
Q 21.09375 11.796875 21.140625 11.1875 
Q 21.203125 10.59375 21.296875 9.796875 
L 30.90625 8.296875 
Q 35.296875 7.59375 38.5 6.640625 
Q 41.703125 5.703125 43.796875 4.25 
Q 45.90625 2.796875 46.90625 0.796875 
Q 47.90625 -1.203125 47.90625 -4 
Q 47.90625 -6.796875 46.34375 -9.796875 
Q 44.796875 -12.796875 41.90625 -15.203125 
Q 37.90625 -18.40625 32.84375 -20.09375 
Q 27.796875 -21.796875 22.09375 -21.796875 
Q 13.40625 -21.796875 8.703125 -18.34375 
Q 4 -14.90625 4 -8.90625 
Q 4 -4.09375 6.84375 -0.75 
Q 9.703125 2.59375 14.796875 3.5 
Q 13.796875 5.796875 13.796875 8 
Q 13.796875 11.796875 18.59375 17.5 
Q 12.796875 18.796875 9.5 22.84375 
Q 6.203125 26.90625 6.203125 32.59375 
Q 6.203125 36.203125 7.546875 39.25 
Q 8.90625 42.296875 11.453125 44.5 
Q 14 46.703125 17.59375 47.890625 
Q 21.203125 49.09375 25.59375 49.09375 
Q 31.296875 49.09375 36.90625 46.296875 
z
M 24.59375 45.203125 
Q 20.203125 45.203125 17.5 41.953125 
Q 14.796875 38.703125 14.796875 32.90625 
Q 14.796875 27.203125 17.5 23.890625 
Q 20.203125 20.59375 24.59375 20.59375 
Q 29 20.59375 31.703125 23.890625 
Q 34.40625 27.203125 34.40625 32.90625 
Q 34.40625 38.59375 31.703125 41.890625 
Q 29 45.203125 24.59375 45.203125 
z
M 20.59375 3 
Q 16.40625 1.703125 14.203125 -0.890625 
Q 12 -3.5 12 -6.796875 
Q 12 -11.203125 15.703125 -14.203125 
Q 19.40625 -17.203125 25.59375 -17.203125 
Q 28.90625 -17.203125 31.65625 -16.34375 
Q 34.40625 -15.5 36.34375 -14 
Q 38.296875 -12.5 39.390625 -10.59375 
Q 40.5 -8.703125 40.5 -6.59375 
Q 40.5 -4.59375 39.890625 -3.296875 
Q 39.296875 -2 38.046875 -1.140625 
Q 36.796875 -0.296875 34.84375 0.203125 
Q 32.90625 0.703125 30.296875 1.203125 
z
" id="Charter-103"/>
      <path d="M 17.90625 73.59375 
L 17.90625 43.09375 
Q 23 45.90625 26.953125 47.5 
Q 30.90625 49.09375 34.09375 49.09375 
Q 40.703125 49.09375 44.09375 45.25 
Q 47.5 41.40625 47.5 33.90625 
L 47.5 5.703125 
L 49.296875 4.09375 
L 54.59375 3.59375 
L 54.59375 0 
L 32.796875 0 
L 32.796875 3.59375 
L 37.5 4.09375 
L 39.203125 5.703125 
L 39.203125 32.203125 
Q 39.203125 37.703125 36.953125 40.09375 
Q 34.703125 42.5 29.09375 42.5 
Q 24.296875 42.5 17.90625 39.203125 
L 17.90625 5.703125 
L 19.703125 4.09375 
L 24.40625 3.59375 
L 24.40625 0 
L 2.5 0 
L 2.5 3.59375 
L 7.90625 4.09375 
L 9.59375 5.703125 
L 9.59375 66.90625 
L 1.90625 66.90625 
L 1.90625 70 
L 14.09375 73.59375 
z
" id="Charter-104"/>
      <path d="M 37.59375 70.796875 
L 37.59375 66.5 
L 21.796875 66.5 
L 21.796875 -9 
L 37.59375 -9 
L 37.59375 -13.203125 
L 13.90625 -13.203125 
L 13.90625 70.796875 
z
" id="Charter-91"/>
      <path d="M 28.203125 70.796875 
L 28.203125 -13.296875 
L 4.59375 -13.296875 
L 4.59375 -9 
L 20.40625 -9 
L 20.40625 66.5 
L 4.59375 66.5 
L 4.59375 70.796875 
z
" id="Charter-93"/>
     </defs>
     <g transform="translate(24.8625 298.48875)rotate(-90)scale(0.24 -0.24)">
      <use xlink:href="#Charter-80"/>
      <use x="55.799988" xlink:href="#Charter-67"/>
      <use x="118.999985" xlink:href="#Charter-45"/>
      <use x="150.899979" xlink:href="#Charter-49"/>
      <use x="206.499969" xlink:href="#Charter-32"/>
      <use x="234.299957" xlink:href="#Charter-97"/>
      <use x="284.999954" xlink:href="#Charter-98"/>
      <use x="338.899948" xlink:href="#Charter-115"/>
      <use x="378.899933" xlink:href="#Charter-111"/>
      <use x="432.799927" xlink:href="#Charter-108"/>
      <use x="460.999924" xlink:href="#Charter-117"/>
      <use x="517.899918" xlink:href="#Charter-116"/>
      <use x="551.299911" xlink:href="#Charter-101"/>
      <use x="600.399902" xlink:href="#Charter-32"/>
      <use x="628.19989" xlink:href="#Charter-119"/>
      <use x="705.299881" xlink:href="#Charter-101"/>
      <use x="754.399872" xlink:href="#Charter-105"/>
      <use x="782.399857" xlink:href="#Charter-103"/>
      <use x="834.699844" xlink:href="#Charter-104"/>
      <use x="891.099838" xlink:href="#Charter-116"/>
      <use x="924.499832" xlink:href="#Charter-32"/>
      <use x="952.29982" xlink:href="#Charter-91"/>
      <use x="994.399811" xlink:href="#Charter-45"/>
      <use x="1026.299805" xlink:href="#Charter-93"/>
     </g>
    </g>
   </g>
   <g id="patch_3">
    <path clip-path="url(#p96ed84cc20)" d="M 104.25125 318.534545 
L 124.71125 318.534545 
L 124.71125 194.579614 
L 104.25125 194.579614 
z
" style="fill:#191b27;stroke:#191b27;stroke-linejoin:miter;"/>
   </g>
   <g id="patch_4">
    <path clip-path="url(#p96ed84cc20)" d="M 155.40125 318.534545 
L 175.86125 318.534545 
L 175.86125 200.462068 
L 155.40125 200.462068 
z
" style="fill:#191b27;stroke:#191b27;stroke-linejoin:miter;"/>
   </g>
   <g id="patch_5">
    <path clip-path="url(#p96ed84cc20)" d="M 206.55125 318.534545 
L 227.01125 318.534545 
L 227.01125 311.110261 
L 206.55125 311.110261 
z
" style="fill:#191b27;stroke:#191b27;stroke-linejoin:miter;"/>
   </g>
   <g id="patch_6">
    <path clip-path="url(#p96ed84cc20)" d="M 257.70125 318.534545 
L 278.16125 318.534545 
L 278.16125 246.92157 
L 257.70125 246.92157 
z
" style="fill:#191b27;stroke:#191b27;stroke-linejoin:miter;"/>
   </g>
   <g id="patch_7">
    <path clip-path="url(#p96ed84cc20)" d="M 308.85125 318.534545 
L 329.31125 318.534545 
L 329.31125 214.886649 
L 308.85125 214.886649 
z
" style="fill:#191b27;stroke:#191b27;stroke-linejoin:miter;"/>
   </g>
   <g id="patch_8">
    <path clip-path="url(#p96ed84cc20)" d="M 360.00125 318.534545 
L 380.46125 318.534545 
L 380.46125 219.257745 
L 360.00125 219.257745 
z
" style="fill:#191b27;stroke:#191b27;stroke-linejoin:miter;"/>
   </g>
   <g id="patch_9">
    <path clip-path="url(#p96ed84cc20)" d="M 411.15125 318.534545 
L 431.61125 318.534545 
L 431.61125 268.228355 
L 411.15125 268.228355 
z
" style="fill:#191b27;stroke:#191b27;stroke-linejoin:miter;"/>
   </g>
   <g id="patch_10">
    <path clip-path="url(#p96ed84cc20)" d="M 462.30125 318.534545 
L 482.76125 318.534545 
L 482.76125 303.25266 
L 462.30125 303.25266 
z
" style="fill:#191b27;stroke:#191b27;stroke-linejoin:miter;"/>
   </g>
   <g id="patch_11">
    <path clip-path="url(#p96ed84cc20)" d="M 513.45125 318.534545 
L 533.91125 318.534545 
L 533.91125 209.654615 
L 513.45125 209.654615 
z
" style="fill:#191b27;stroke:#191b27;stroke-linejoin:miter;"/>
   </g>
   <g id="patch_12">
    <path clip-path="url(#p96ed84cc20)" d="M 564.60125 318.534545 
L 585.06125 318.534545 
L 585.06125 191.97056 
L 564.60125 191.97056 
z
" style="fill:#191b27;stroke:#191b27;stroke-linejoin:miter;"/>
   </g>
   <g id="patch_13">
    <path clip-path="url(#p96ed84cc20)" d="M 615.75125 318.534545 
L 636.21125 318.534545 
L 636.21125 271.717162 
L 615.75125 271.717162 
z
" style="fill:#191b27;stroke:#191b27;stroke-linejoin:miter;"/>
   </g>
   <g id="patch_14">
    <path d="M 63.33125 333.36 
L 63.33125 7.2 
" style="fill:none;stroke:#000000;stroke-linecap:square;stroke-linejoin:miter;stroke-width:0.8;"/>
   </g>
   <g id="patch_15">
    <path d="M 677.13125 333.36 
L 677.13125 7.2 
" style="fill:none;stroke:#000000;stroke-linecap:square;stroke-linejoin:miter;stroke-width:0.8;"/>
   </g>
   <g id="patch_16">
    <path d="M 63.33125 333.36 
L 677.13125 333.36 
" style="fill:none;stroke:#000000;stroke-linecap:square;stroke-linejoin:miter;stroke-width:0.8;"/>
   </g>
   <g id="patch_17">
    <path d="M 63.33125 7.2 
L 677.13125 7.2 
" style="fill:none;stroke:#000000;stroke-linecap:square;stroke-linejoin:miter;stroke-width:0.8;"/>
   </g>
  </g>
 </g>
 <defs>
  <clipPath id="p96ed84cc20">
   <rect height="326.16" width="613.8" x="63.33125" y="7.2"/>
  </clipPath>
 </defs>
</svg>
