<?xml version="1.0" encoding="utf-8" standalone="no"?>
<!DOCTYPE svg PUBLIC "-//W3C//DTD SVG 1.1//EN"
  "http://www.w3.org/Graphics/SVG/1.1/DTD/svg11.dtd">
<!-- Created with matplotlib (https://matplotlib.org/) -->
<svg height="362.8225pt" version="1.1" viewBox="0 0 349.53125 362.8225" width="349.53125pt" xmlns="http://www.w3.org/2000/svg" xmlns:xlink="http://www.w3.org/1999/xlink">
 <defs>
  <style type="text/css">
*{stroke-linecap:butt;stroke-linejoin:round;}
  </style>
 </defs>
 <g id="figure_1">
  <g id="patch_1">
   <path d="M 0 362.8225 
L 349.53125 362.8225 
L 349.53125 0 
L 0 0 
z
" style="fill:#ffffff;"/>
  </g>
  <g id="axes_1">
   <g id="patch_2">
    <path d="M 63.33125 333.36 
L 342.33125 333.36 
L 342.33125 7.2 
L 63.33125 7.2 
z
" style="fill:#ffffff;"/>
   </g>
   <g id="patch_3">
    <path clip-path="url(#pe4c985c37b)" d="M 109.83125 229.469849 
L 109.7615 228.135558 
L 109.808 228.135558 
L 109.808 200.462068 
L 109.8545 200.462068 
L 109.8545 228.135558 
L 109.901 228.135558 
z
" style="fill:#bbbbbb;stroke:#bbbbbb;stroke-linejoin:miter;"/>
   </g>
   <g id="patch_4">
    <path clip-path="url(#pe4c985c37b)" d="M 156.33125 166.979357 
L 156.401 168.313648 
L 156.3545 168.313648 
L 156.3545 246.92157 
L 156.308 246.92157 
L 156.308 168.313648 
L 156.2615 168.313648 
z
" style="fill:#bbbbbb;stroke:#bbbbbb;stroke-linejoin:miter;"/>
   </g>
   <g id="patch_5">
    <path clip-path="url(#pe4c985c37b)" d="M 202.83125 191.110536 
L 202.901 192.444826 
L 202.8545 192.444826 
L 202.8545 214.886649 
L 202.808 214.886649 
L 202.808 192.444826 
L 202.7615 192.444826 
z
" style="fill:#bbbbbb;stroke:#bbbbbb;stroke-linejoin:miter;"/>
   </g>
   <g id="patch_6">
    <path clip-path="url(#pe4c985c37b)" d="M 249.33125 213.10222 
L 249.401 214.436511 
L 249.3545 214.436511 
L 249.3545 268.228355 
L 249.308 268.228355 
L 249.308 214.436511 
L 249.2615 214.436511 
z
" style="fill:#bbbbbb;stroke:#bbbbbb;stroke-linejoin:miter;"/>
   </g>
   <g id="patch_7">
    <path clip-path="url(#pe4c985c37b)" d="M 295.83125 237.311108 
L 295.7615 235.976817 
L 295.808 235.976817 
L 295.808 209.654615 
L 295.8545 209.654615 
L 295.8545 235.976817 
L 295.901 235.976817 
z
" style="fill:#bbbbbb;stroke:#bbbbbb;stroke-linejoin:miter;"/>
   </g>
   <g id="matplotlib.axis_1">
    <g id="xtick_1">
     <g id="line2d_1">
      <path clip-path="url(#pe4c985c37b)" d="M 109.83125 333.36 
L 109.83125 7.2 
" style="fill:none;stroke:#b0b0b0;stroke-linecap:square;stroke-opacity:0.3;stroke-width:0.8;"/>
     </g>
     <g id="line2d_2">
      <defs>
       <path d="M 0 0 
L 0 3.5 
" id="ma1df07124b" style="stroke:#000000;stroke-width:0.8;"/>
      </defs>
      <g>
       <use style="stroke:#000000;stroke-width:0.8;" x="109.83125" xlink:href="#ma1df07124b" y="333.36"/>
      </g>
     </g>
     <g id="text_1">
      <!-- $H_2$ -->
      <defs>
       <path d="M 8.40625 67.09375 
L 8.40625 63.296875 
L 14.90625 62.796875 
L 15.90625 61.296875 
L 5.203125 5.796875 
L 3.59375 4.40625 
L -2.796875 3.796875 
L -2.796875 0 
L 21.5 0 
L 21.5 3.796875 
L 15.09375 4.40625 
L 13.90625 5.796875 
L 19.09375 32.796875 
L 51.59375 32.796875 
L 46.5 5.796875 
L 45 4.40625 
L 38.5 3.796875 
L 38.5 0 
L 62.703125 0 
L 62.703125 3.796875 
L 56.296875 4.40625 
L 55.296875 5.796875 
L 65.90625 61.296875 
L 67.5 62.796875 
L 74.09375 63.296875 
L 74.09375 67.09375 
L 49.703125 67.09375 
L 49.703125 63.296875 
L 56.09375 62.796875 
L 57.296875 61.296875 
L 52.59375 37.40625 
L 20 37.40625 
L 24.703125 61.296875 
L 26.203125 62.796875 
L 32.796875 63.296875 
L 32.796875 67.09375 
z
" id="Charter-Italic-72"/>
       <path d="M 44.203125 7.90625 
L 46 16.40625 
L 50.5 16.40625 
L 50.5 0 
L 4.203125 0 
L 4.203125 6.296875 
Q 12.40625 13 18.796875 18.5 
Q 25.203125 24 29.59375 28.953125 
Q 34 33.90625 36.296875 38.546875 
Q 38.59375 43.203125 38.59375 48.09375 
Q 38.59375 55.296875 35.09375 59.25 
Q 31.59375 63.203125 25.296875 63.203125 
Q 23 63.203125 20.84375 62.640625 
Q 18.703125 62.09375 16.40625 60.796875 
L 16.40625 50.09375 
Q 14.296875 48.59375 11.90625 48.59375 
Q 9.296875 48.59375 7.796875 50.09375 
Q 6.296875 51.59375 6.296875 54.203125 
Q 6.296875 56.796875 7.84375 59.34375 
Q 9.40625 61.90625 12.25 63.90625 
Q 15.09375 65.90625 18.9375 67.09375 
Q 22.796875 68.296875 27.5 68.296875 
Q 32.296875 68.296875 36.140625 66.9375 
Q 40 65.59375 42.703125 63.09375 
Q 45.40625 60.59375 46.84375 57.09375 
Q 48.296875 53.59375 48.296875 49.40625 
Q 48.296875 44.703125 46.046875 40.09375 
Q 43.796875 35.5 39.4375 30.546875 
Q 35.09375 25.59375 28.75 20.046875 
Q 22.40625 14.5 14.09375 7.90625 
z
" id="Charter-50"/>
      </defs>
      <g transform="translate(100.79125 352.135)scale(0.16 -0.16)">
       <use transform="translate(0 0.90625)" xlink:href="#Charter-Italic-72"/>
       <use transform="translate(71.199982 -13.671875)scale(0.7)" xlink:href="#Charter-50"/>
      </g>
     </g>
    </g>
    <g id="xtick_2">
     <g id="line2d_3">
      <path clip-path="url(#pe4c985c37b)" d="M 156.33125 333.36 
L 156.33125 7.2 
" style="fill:none;stroke:#b0b0b0;stroke-linecap:square;stroke-opacity:0.3;stroke-width:0.8;"/>
     </g>
     <g id="line2d_4">
      <g>
       <use style="stroke:#000000;stroke-width:0.8;" x="156.33125" xlink:href="#ma1df07124b" y="333.36"/>
      </g>
     </g>
     <g id="text_2">
      <!-- $O$ -->
      <defs>
       <path d="M 40.5 68.203125 
C 30.296875 68.203125 20.296875 63.09375 13.5 54.09375 
C 7.40625 46.09375 4.09375 36.296875 4.09375 25.90625 
C 4.09375 10 15 -1.203125 30.5 -1.203125 
C 40.90625 -1.203125 50.796875 3.90625 57.703125 12.90625 
C 63.59375 20.59375 66.90625 30.796875 66.90625 42 
C 66.90625 50.796875 63 58.59375 56.203125 63.59375 
C 52.203125 66.5 46.796875 68.203125 40.5 68.203125 
z
M 57.09375 41.90625 
C 57.09375 32 54 22 49.203125 14.90625 
C 44.09375 7.40625 37.90625 3.59375 31 3.59375 
C 20.703125 3.59375 13.703125 11.90625 13.703125 25.296875 
C 13.703125 35.09375 16.703125 45.09375 21.59375 52.296875 
C 26.703125 59.796875 33 63.59375 39.796875 63.59375 
C 50.203125 63.59375 57.09375 55.5 57.09375 41.90625 
z
" id="Charter-Italic-79"/>
      </defs>
      <g transform="translate(150.65125 352.135)scale(0.16 -0.16)">
       <use transform="translate(0 0.796875)" xlink:href="#Charter-Italic-79"/>
      </g>
     </g>
    </g>
    <g id="xtick_3">
     <g id="line2d_5">
      <path clip-path="url(#pe4c985c37b)" d="M 202.83125 333.36 
L 202.83125 7.2 
" style="fill:none;stroke:#b0b0b0;stroke-linecap:square;stroke-opacity:0.3;stroke-width:0.8;"/>
     </g>
     <g id="line2d_6">
      <g>
       <use style="stroke:#000000;stroke-width:0.8;" x="202.83125" xlink:href="#ma1df07124b" y="333.36"/>
      </g>
     </g>
     <g id="text_3">
      <!-- $OH$ -->
      <g transform="translate(191.47125 352.135)scale(0.16 -0.16)">
       <use transform="translate(0 0.796875)" xlink:href="#Charter-Italic-79"/>
       <use transform="translate(70.799988 0.796875)" xlink:href="#Charter-Italic-72"/>
      </g>
     </g>
    </g>
    <g id="xtick_4">
     <g id="line2d_7">
      <path clip-path="url(#pe4c985c37b)" d="M 249.33125 333.36 
L 249.33125 7.2 
" style="fill:none;stroke:#b0b0b0;stroke-linecap:square;stroke-opacity:0.3;stroke-width:0.8;"/>
     </g>
     <g id="line2d_8">
      <g>
       <use style="stroke:#000000;stroke-width:0.8;" x="249.33125" xlink:href="#ma1df07124b" y="333.36"/>
      </g>
     </g>
     <g id="text_4">
      <!-- $H$ -->
      <g transform="translate(243.57125 352.135)scale(0.16 -0.16)">
       <use transform="translate(0 0.90625)" xlink:href="#Charter-Italic-72"/>
      </g>
     </g>
    </g>
    <g id="xtick_5">
     <g id="line2d_9">
      <path clip-path="url(#pe4c985c37b)" d="M 295.83125 333.36 
L 295.83125 7.2 
" style="fill:none;stroke:#b0b0b0;stroke-linecap:square;stroke-opacity:0.3;stroke-width:0.8;"/>
     </g>
     <g id="line2d_10">
      <g>
       <use style="stroke:#000000;stroke-width:0.8;" x="295.83125" xlink:href="#ma1df07124b" y="333.36"/>
      </g>
     </g>
     <g id="text_5">
      <!-- $CO$ -->
      <defs>
       <path d="M 62.203125 64.90625 
C 55.703125 67.203125 49.703125 68.296875 44.09375 68.296875 
C 34.90625 68.296875 26.5 65.296875 19.59375 59.703125 
C 9.796875 51.59375 4.09375 39.5 4.09375 26.5 
C 4.09375 9.59375 14.5 -1.203125 31 -1.203125 
C 37.203125 -1.203125 44 0 50.90625 2.296875 
L 53.59375 18.09375 
L 49.296875 18.09375 
L 44.90625 6.59375 
L 43 4.90625 
C 40.09375 4 37.203125 3.5 34.40625 3.5 
C 21.203125 3.5 13.59375 11.5 13.59375 25.296875 
C 13.59375 38.40625 18.296875 49.796875 26.09375 56.796875 
C 31 61.203125 37.203125 63.59375 43.796875 63.59375 
C 47.5 63.59375 51 62.796875 54.40625 61 
L 55.203125 59.09375 
L 55.203125 49.5 
L 59.40625 49.5 
z
" id="Charter-Italic-67"/>
      </defs>
      <g transform="translate(285.27125 352.135)scale(0.16 -0.16)">
       <use transform="translate(0 0.703125)" xlink:href="#Charter-Italic-67"/>
       <use transform="translate(60.399994 0.703125)" xlink:href="#Charter-Italic-79"/>
      </g>
     </g>
    </g>
   </g>
   <g id="matplotlib.axis_2">
    <g id="ytick_1">
     <g id="line2d_11">
      <path clip-path="url(#pe4c985c37b)" d="M 63.33125 318.534545 
L 342.33125 318.534545 
" style="fill:none;stroke:#b0b0b0;stroke-linecap:square;stroke-opacity:0.3;stroke-width:0.8;"/>
     </g>
     <g id="line2d_12">
      <defs>
       <path d="M 0 0 
L -3.5 0 
" id="m41a6666741" style="stroke:#000000;stroke-width:0.8;"/>
      </defs>
      <g>
       <use style="stroke:#000000;stroke-width:0.8;" x="63.33125" xlink:href="#m41a6666741" y="318.534545"/>
      </g>
     </g>
     <g id="text_6">
      <!-- 0.0 -->
      <defs>
       <path d="M 27.796875 68.296875 
Q 33.203125 68.296875 37.546875 66 
Q 41.90625 63.703125 45 59.25 
Q 48.09375 54.796875 49.796875 48.34375 
Q 51.5 41.90625 51.5 33.59375 
Q 51.5 25.296875 49.796875 18.84375 
Q 48.09375 12.40625 45 7.953125 
Q 41.90625 3.5 37.546875 1.140625 
Q 33.203125 -1.203125 27.796875 -1.203125 
Q 22.40625 -1.203125 18.046875 1.140625 
Q 13.703125 3.5 10.59375 7.953125 
Q 7.5 12.40625 5.796875 18.84375 
Q 4.09375 25.296875 4.09375 33.59375 
Q 4.09375 41.90625 5.796875 48.34375 
Q 7.5 54.796875 10.59375 59.25 
Q 13.703125 63.703125 18.046875 66 
Q 22.40625 68.296875 27.796875 68.296875 
z
M 27.796875 63.59375 
Q 20.90625 63.59375 17.203125 56.046875 
Q 13.5 48.5 13.5 33.5 
Q 13.5 18.59375 17.203125 11.09375 
Q 20.90625 3.59375 27.796875 3.59375 
Q 34.703125 3.59375 38.34375 11.140625 
Q 42 18.703125 42 33.59375 
Q 42 48.5 38.34375 56.046875 
Q 34.703125 63.59375 27.796875 63.59375 
z
" id="Charter-48"/>
       <path d="M 13.90625 11.796875 
Q 16.5 11.796875 18.34375 9.9375 
Q 20.203125 8.09375 20.203125 5.40625 
Q 20.203125 2.796875 18.34375 0.9375 
Q 16.5 -0.90625 13.90625 -0.90625 
Q 11.296875 -0.90625 9.390625 0.890625 
Q 7.5 2.703125 7.5 5.40625 
Q 7.5 8.09375 9.390625 9.9375 
Q 11.296875 11.796875 13.90625 11.796875 
z
" id="Charter-46"/>
      </defs>
      <g transform="translate(34.09375 324.422045)scale(0.16 -0.16)">
       <use xlink:href="#Charter-48"/>
       <use x="55.599991" xlink:href="#Charter-46"/>
       <use x="83.399979" xlink:href="#Charter-48"/>
      </g>
     </g>
    </g>
    <g id="ytick_2">
     <g id="line2d_13">
      <path clip-path="url(#pe4c985c37b)" d="M 63.33125 259.232727 
L 342.33125 259.232727 
" style="fill:none;stroke:#b0b0b0;stroke-linecap:square;stroke-opacity:0.3;stroke-width:0.8;"/>
     </g>
     <g id="line2d_14">
      <g>
       <use style="stroke:#000000;stroke-width:0.8;" x="63.33125" xlink:href="#m41a6666741" y="259.232727"/>
      </g>
     </g>
     <g id="text_7">
      <!-- 0.2 -->
      <g transform="translate(34.09375 265.120227)scale(0.16 -0.16)">
       <use xlink:href="#Charter-48"/>
       <use x="55.599991" xlink:href="#Charter-46"/>
       <use x="83.399979" xlink:href="#Charter-50"/>
      </g>
     </g>
    </g>
    <g id="ytick_3">
     <g id="line2d_15">
      <path clip-path="url(#pe4c985c37b)" d="M 63.33125 199.930909 
L 342.33125 199.930909 
" style="fill:none;stroke:#b0b0b0;stroke-linecap:square;stroke-opacity:0.3;stroke-width:0.8;"/>
     </g>
     <g id="line2d_16">
      <g>
       <use style="stroke:#000000;stroke-width:0.8;" x="63.33125" xlink:href="#m41a6666741" y="199.930909"/>
      </g>
     </g>
     <g id="text_8">
      <!-- 0.4 -->
      <defs>
       <path d="M 42.59375 67.703125 
L 42.59375 25.90625 
L 53.90625 25.90625 
L 53.90625 19.40625 
L 42.59375 19.40625 
L 42.59375 -3.703125 
L 34.90625 -3.703125 
L 34.90625 19.40625 
L 2.703125 19.40625 
L 2.703125 25.90625 
L 36.796875 67.703125 
z
M 10.203125 25.90625 
L 34.90625 25.90625 
L 34.90625 56.796875 
z
" id="Charter-52"/>
      </defs>
      <g transform="translate(34.09375 205.818409)scale(0.16 -0.16)">
       <use xlink:href="#Charter-48"/>
       <use x="55.599991" xlink:href="#Charter-46"/>
       <use x="83.399979" xlink:href="#Charter-52"/>
      </g>
     </g>
    </g>
    <g id="ytick_4">
     <g id="line2d_17">
      <path clip-path="url(#pe4c985c37b)" d="M 63.33125 140.629091 
L 342.33125 140.629091 
" style="fill:none;stroke:#b0b0b0;stroke-linecap:square;stroke-opacity:0.3;stroke-width:0.8;"/>
     </g>
     <g id="line2d_18">
      <g>
       <use style="stroke:#000000;stroke-width:0.8;" x="63.33125" xlink:href="#m41a6666741" y="140.629091"/>
      </g>
     </g>
     <g id="text_9">
      <!-- 0.6 -->
      <defs>
       <path d="M 44.296875 65.59375 
L 44 65.59375 
Q 31.90625 65.59375 24.453125 58.6875 
Q 17 51.796875 14.703125 38.40625 
Q 22.59375 44.5 31.703125 44.5 
Q 36.203125 44.5 40 42.890625 
Q 43.796875 41.296875 46.546875 38.390625 
Q 49.296875 35.5 50.890625 31.5 
Q 52.5 27.5 52.5 22.703125 
Q 52.5 17.59375 50.640625 13.25 
Q 48.796875 8.90625 45.546875 5.703125 
Q 42.296875 2.5 37.84375 0.640625 
Q 33.40625 -1.203125 28.296875 -1.203125 
Q 23.203125 -1.203125 18.953125 0.796875 
Q 14.703125 2.796875 11.59375 6.5 
Q 8.5 10.203125 6.75 15.546875 
Q 5 20.90625 5 27.703125 
Q 5 37.296875 7.703125 45.09375 
Q 10.40625 52.90625 15.453125 58.546875 
Q 20.5 64.203125 27.796875 67.5 
Q 35.09375 70.796875 44.296875 71.40625 
z
M 14.5 34 
Q 14.296875 32.40625 14.296875 30.84375 
Q 14.296875 29.296875 14.296875 27.90625 
Q 14.296875 15.90625 18.140625 9.75 
Q 22 3.59375 29.09375 3.59375 
Q 32.203125 3.59375 34.84375 4.9375 
Q 37.5 6.296875 39.390625 8.6875 
Q 41.296875 11.09375 42.34375 14.4375 
Q 43.40625 17.796875 43.40625 21.796875 
Q 43.40625 29.59375 39.40625 34.046875 
Q 35.40625 38.5 29 38.5 
Q 20.59375 38.5 14.5 34 
z
" id="Charter-54"/>
      </defs>
      <g transform="translate(34.09375 146.516591)scale(0.16 -0.16)">
       <use xlink:href="#Charter-48"/>
       <use x="55.599991" xlink:href="#Charter-46"/>
       <use x="83.399979" xlink:href="#Charter-54"/>
      </g>
     </g>
    </g>
    <g id="ytick_5">
     <g id="line2d_19">
      <path clip-path="url(#pe4c985c37b)" d="M 63.33125 81.327273 
L 342.33125 81.327273 
" style="fill:none;stroke:#b0b0b0;stroke-linecap:square;stroke-opacity:0.3;stroke-width:0.8;"/>
     </g>
     <g id="line2d_20">
      <g>
       <use style="stroke:#000000;stroke-width:0.8;" x="63.33125" xlink:href="#m41a6666741" y="81.327273"/>
      </g>
     </g>
     <g id="text_10">
      <!-- 0.8 -->
      <defs>
       <path d="M 32.09375 36.90625 
Q 36 39.5 38.046875 43.09375 
Q 40.09375 46.703125 40.09375 50.703125 
Q 40.09375 56.703125 36.796875 60.203125 
Q 33.5 63.703125 28 63.703125 
Q 25.40625 63.703125 23.203125 62.796875 
Q 21 61.90625 19.34375 60.296875 
Q 17.703125 58.703125 16.796875 56.546875 
Q 15.90625 54.40625 15.90625 51.90625 
Q 15.90625 46.90625 19.90625 43.34375 
Q 23.90625 39.796875 32.09375 36.90625 
z
M 36.296875 35.09375 
Q 43.40625 32.59375 47 28.1875 
Q 50.59375 23.796875 50.59375 17.90625 
Q 50.59375 13.90625 48.9375 10.34375 
Q 47.296875 6.796875 44.25 4.140625 
Q 41.203125 1.5 36.953125 -0.046875 
Q 32.703125 -1.59375 27.5 -1.59375 
Q 22.09375 -1.59375 17.796875 -0.140625 
Q 13.5 1.296875 10.546875 3.84375 
Q 7.59375 6.40625 6 9.953125 
Q 4.40625 13.5 4.40625 17.703125 
Q 4.40625 29.703125 18.09375 35 
Q 7.59375 39.40625 7.59375 50.40625 
Q 7.59375 54.40625 9.09375 57.703125 
Q 10.59375 61 13.296875 63.390625 
Q 16 65.796875 19.796875 67.140625 
Q 23.59375 68.5 28.296875 68.5 
Q 32.796875 68.5 36.390625 67.25 
Q 40 66 42.546875 63.75 
Q 45.09375 61.5 46.4375 58.390625 
Q 47.796875 55.296875 47.796875 51.703125 
Q 47.796875 46.703125 44.84375 42.34375 
Q 41.90625 38 36.296875 35.09375 
z
M 21.90625 32.90625 
Q 16.796875 30.203125 14.4375 26.796875 
Q 12.09375 23.40625 12.09375 18.296875 
Q 12.09375 11.703125 16.34375 7.640625 
Q 20.59375 3.59375 27.796875 3.59375 
Q 34.296875 3.59375 38.140625 7.25 
Q 42 10.90625 42 16.90625 
Q 42 19.90625 40.75 22.046875 
Q 39.5 24.203125 37 26 
Q 34.5 27.796875 30.703125 29.390625 
Q 26.90625 31 21.90625 32.90625 
z
" id="Charter-56"/>
      </defs>
      <g transform="translate(34.09375 87.214773)scale(0.16 -0.16)">
       <use xlink:href="#Charter-48"/>
       <use x="55.599991" xlink:href="#Charter-46"/>
       <use x="83.399979" xlink:href="#Charter-56"/>
      </g>
     </g>
    </g>
    <g id="ytick_6">
     <g id="line2d_21">
      <path clip-path="url(#pe4c985c37b)" d="M 63.33125 22.025455 
L 342.33125 22.025455 
" style="fill:none;stroke:#b0b0b0;stroke-linecap:square;stroke-opacity:0.3;stroke-width:0.8;"/>
     </g>
     <g id="line2d_22">
      <g>
       <use style="stroke:#000000;stroke-width:0.8;" x="63.33125" xlink:href="#m41a6666741" y="22.025455"/>
      </g>
     </g>
     <g id="text_11">
      <!-- 1.0 -->
      <defs>
       <path d="M 33.90625 68.296875 
L 33.90625 6.203125 
L 35.09375 4.703125 
L 45.90625 4.203125 
L 45.90625 0 
L 12.40625 0 
L 12.40625 4.296875 
L 23.90625 4.90625 
L 25.09375 6.59375 
L 25.09375 60.40625 
L 9.40625 57.59375 
L 9.40625 61.796875 
L 31.09375 68.296875 
z
" id="Charter-49"/>
      </defs>
      <g transform="translate(34.09375 27.912955)scale(0.16 -0.16)">
       <use xlink:href="#Charter-49"/>
       <use x="55.599991" xlink:href="#Charter-46"/>
       <use x="83.399979" xlink:href="#Charter-48"/>
      </g>
     </g>
    </g>
    <g id="text_12">
     <!-- Absolute weight [-] -->
     <defs>
      <path d="M 35 67.90625 
L 59 5.296875 
L 65 4.09375 
L 65 0 
L 42.296875 0 
L 42.296875 4.09375 
L 48.5 4.59375 
L 49.203125 6 
L 42 25.09375 
L 18.40625 25.09375 
L 11.296875 6 
L 12.296875 4.59375 
L 18.796875 4.09375 
L 18.796875 0 
L -0.796875 0 
L -0.796875 4.09375 
L 5 5.296875 
L 28.40625 67.90625 
z
M 20.09375 29.703125 
L 40.296875 29.703125 
L 30 57.40625 
z
" id="Charter-65"/>
      <path d="M 16.90625 73.59375 
L 16.90625 45.59375 
Q 24.203125 49.09375 30.59375 49.09375 
Q 35 49.09375 38.640625 47.4375 
Q 42.296875 45.796875 44.890625 42.796875 
Q 47.5 39.796875 48.953125 35.59375 
Q 50.40625 31.40625 50.40625 26.296875 
Q 50.40625 13.296875 43.09375 6.640625 
Q 35.796875 0 21.40625 0 
L 8.59375 0 
L 8.59375 66.90625 
L 0.796875 66.90625 
L 0.796875 70 
L 13.09375 73.59375 
z
M 16.90625 4.59375 
Q 19.203125 4.5 20.59375 4.5 
Q 22 4.5 22.40625 4.5 
Q 32.203125 4.5 36.796875 9.25 
Q 41.40625 14 41.40625 24.40625 
Q 41.40625 33.796875 37.296875 38.796875 
Q 33.203125 43.796875 25.703125 43.796875 
Q 23.796875 43.796875 21.59375 43.390625 
Q 19.40625 43 16.90625 42.203125 
z
" id="Charter-98"/>
      <path d="M 34.40625 35.59375 
L 29.5 35.59375 
L 28.703125 42.703125 
Q 24.796875 44.796875 21.296875 44.796875 
Q 17.296875 44.796875 15.140625 42.890625 
Q 13 41 13 37.59375 
Q 13 34.40625 15.140625 32.453125 
Q 17.296875 30.5 21.5 28.5 
Q 24.09375 27.203125 26.84375 25.953125 
Q 29.59375 24.703125 32.09375 22.703125 
Q 35.90625 19.703125 35.90625 14.09375 
Q 35.90625 7.09375 31 3.09375 
Q 26.09375 -0.90625 17.203125 -0.90625 
Q 13.40625 -0.90625 10.09375 -0.34375 
Q 6.796875 0.203125 4.203125 1.203125 
L 4.203125 14.203125 
L 9 14.203125 
L 10.203125 5.703125 
Q 14.40625 3.296875 18.703125 3.296875 
Q 23.09375 3.296875 25.59375 5.59375 
Q 28.09375 7.90625 28.09375 11.40625 
Q 28.09375 13.296875 27.4375 14.6875 
Q 26.796875 16.09375 25.5 17.1875 
Q 24.203125 18.296875 22.296875 19.296875 
Q 20.40625 20.296875 17.90625 21.40625 
Q 11.5 24.203125 8.25 27.140625 
Q 5 30.09375 5 35.09375 
Q 5 41.703125 9.546875 45.390625 
Q 14.09375 49.09375 22.703125 49.09375 
Q 29.40625 49.09375 34.40625 46.90625 
z
" id="Charter-115"/>
      <path d="M 26.90625 49.09375 
Q 32 49.09375 36.25 47.25 
Q 40.5 45.40625 43.59375 42.09375 
Q 46.703125 38.796875 48.453125 34.1875 
Q 50.203125 29.59375 50.203125 24.09375 
Q 50.203125 18.5 48.453125 13.890625 
Q 46.703125 9.296875 43.59375 6 
Q 40.5 2.703125 36.203125 0.890625 
Q 31.90625 -0.90625 26.90625 -0.90625 
Q 21.90625 -0.90625 17.65625 0.890625 
Q 13.40625 2.703125 10.296875 6 
Q 7.203125 9.296875 5.453125 13.890625 
Q 3.703125 18.5 3.703125 24.09375 
Q 3.703125 29.703125 5.453125 34.296875 
Q 7.203125 38.90625 10.25 42.203125 
Q 13.296875 45.5 17.546875 47.296875 
Q 21.796875 49.09375 26.90625 49.09375 
z
M 26.90625 44.796875 
Q 20.796875 44.796875 16.9375 39.34375 
Q 13.09375 33.90625 13.09375 24.09375 
Q 13.09375 19.296875 14.140625 15.4375 
Q 15.203125 11.59375 17 8.890625 
Q 18.796875 6.203125 21.34375 4.796875 
Q 23.90625 3.40625 26.90625 3.40625 
Q 33 3.40625 36.890625 8.84375 
Q 40.796875 14.296875 40.796875 24.09375 
Q 40.796875 33.796875 36.890625 39.296875 
Q 33 44.796875 26.90625 44.796875 
z
" id="Charter-111"/>
      <path d="M 2.796875 3.59375 
L 8.703125 4.09375 
L 10.40625 5.703125 
L 10.40625 66.90625 
L 2.703125 66.90625 
L 2.703125 70 
L 14.90625 73.59375 
L 18.703125 73.59375 
L 18.703125 5.703125 
L 20.5 4.09375 
L 26.203125 3.59375 
L 26.203125 0 
L 2.796875 0 
z
" id="Charter-108"/>
      <path d="M 18 49.09375 
L 18 16 
Q 18 10.59375 20.296875 8 
Q 22.59375 5.40625 27.703125 5.40625 
Q 33.09375 5.40625 39.296875 8.40625 
L 39.296875 42.296875 
L 32.203125 42.296875 
L 32.203125 45.40625 
L 43.796875 49.09375 
L 47.59375 49.09375 
L 47.59375 5.703125 
L 49.40625 4.09375 
L 54.09375 3.59375 
L 54.09375 0 
L 39.296875 0 
L 39.296875 5.59375 
Q 34.796875 2.40625 30.796875 0.703125 
Q 26.796875 -1 23.09375 -1 
Q 16.59375 -1 13.140625 2.890625 
Q 9.703125 6.796875 9.703125 14.296875 
L 9.703125 42.296875 
L 2.59375 42.296875 
L 2.59375 45.40625 
L 14.203125 49.09375 
z
" id="Charter-117"/>
      <path d="M 2.5 42.09375 
L 2.5 45.203125 
L 9.09375 48.09375 
L 13.40625 57.40625 
L 17.09375 57.40625 
L 17.09375 46.796875 
L 32.296875 46.796875 
L 32.296875 42.09375 
L 17.09375 42.09375 
L 17.09375 15.703125 
Q 17.09375 12.796875 17.390625 10.75 
Q 17.703125 8.703125 18.59375 7.390625 
Q 19.5 6.09375 21.140625 5.4375 
Q 22.796875 4.796875 25.40625 4.796875 
Q 28.59375 4.796875 32.296875 5.59375 
L 32.296875 1.90625 
Q 28.796875 0.796875 25.4375 0.25 
Q 22.09375 -0.296875 19.203125 -0.296875 
Q 13 -0.296875 10.890625 2.09375 
Q 8.796875 4.5 8.796875 9.796875 
L 8.796875 42.09375 
z
" id="Charter-116"/>
      <path d="M 44.796875 5.09375 
Q 40.296875 2.09375 35.546875 0.59375 
Q 30.796875 -0.90625 26 -0.90625 
Q 21 -0.90625 16.890625 0.890625 
Q 12.796875 2.703125 9.890625 5.890625 
Q 7 9.09375 5.34375 13.640625 
Q 3.703125 18.203125 3.703125 23.703125 
Q 3.703125 29.40625 5.390625 34.046875 
Q 7.09375 38.703125 10.1875 42.046875 
Q 13.296875 45.40625 17.546875 47.25 
Q 21.796875 49.09375 26.796875 49.09375 
Q 35 49.09375 39.890625 43.890625 
Q 44.796875 38.703125 44.796875 29.40625 
Q 44.796875 28.59375 44.796875 27.84375 
Q 44.796875 27.09375 44.703125 26.296875 
L 12.296875 26.296875 
L 12.296875 25.203125 
Q 12.296875 15.5 16.890625 10.140625 
Q 21.5 4.796875 29.09375 4.796875 
Q 32.90625 4.796875 36.703125 6.25 
Q 40.5 7.703125 44.796875 10.59375 
z
M 35.90625 32.09375 
Q 35.90625 38.203125 33.25 41.390625 
Q 30.59375 44.59375 25.5 44.59375 
Q 23.09375 44.59375 20.890625 43.59375 
Q 18.703125 42.59375 16.953125 40.75 
Q 15.203125 38.90625 14.09375 36.296875 
Q 13 33.703125 12.796875 30.5 
L 35.90625 30.5 
z
" id="Charter-101"/>
      <path id="Charter-32"/>
      <path d="M 21.5 48.09375 
L 21.5 44.40625 
L 16.203125 44 
L 15 42.40625 
L 24.09375 9.90625 
L 37.5 48.09375 
L 43.59375 48.09375 
L 55.40625 9.90625 
L 65.59375 42.40625 
L 64.796875 44 
L 59.40625 44.40625 
L 59.40625 48.09375 
L 77.09375 48.09375 
L 77.09375 44.40625 
L 71.5 43.59375 
L 57.203125 0 
L 51 0 
L 38.90625 37.90625 
L 25.40625 0 
L 19.203125 0 
L 5.90625 43.796875 
L -0.203125 44.40625 
L -0.203125 48.09375 
z
" id="Charter-119"/>
      <path d="M 15.40625 70.796875 
Q 17.796875 70.796875 19.5 69.09375 
Q 21.203125 67.40625 21.203125 65 
Q 21.203125 62.59375 19.5 60.9375 
Q 17.796875 59.296875 15.40625 59.296875 
Q 13 59.296875 11.296875 60.9375 
Q 9.59375 62.59375 9.59375 65 
Q 9.59375 67.5 11.296875 69.140625 
Q 13 70.796875 15.40625 70.796875 
z
M 18.796875 48.59375 
L 18.796875 5.703125 
L 20.59375 4.09375 
L 26 3.59375 
L 26 0 
L 3.5 0 
L 3.5 3.59375 
L 8.796875 4.09375 
L 10.5 5.703125 
L 10.5 41.90625 
L 3.5 41.90625 
L 3.5 45 
L 15 48.59375 
z
" id="Charter-105"/>
      <path d="M 51.203125 46.296875 
L 51.203125 41.59375 
L 40.203125 41.59375 
Q 43 37.296875 43 32.296875 
Q 43 29 41.640625 26.140625 
Q 40.296875 23.296875 37.796875 21.1875 
Q 35.296875 19.09375 31.75 17.890625 
Q 28.203125 16.703125 23.90625 16.703125 
L 22.203125 16.703125 
Q 21.09375 14.5 21.09375 12.203125 
Q 21.09375 11.796875 21.140625 11.1875 
Q 21.203125 10.59375 21.296875 9.796875 
L 30.90625 8.296875 
Q 35.296875 7.59375 38.5 6.640625 
Q 41.703125 5.703125 43.796875 4.25 
Q 45.90625 2.796875 46.90625 0.796875 
Q 47.90625 -1.203125 47.90625 -4 
Q 47.90625 -6.796875 46.34375 -9.796875 
Q 44.796875 -12.796875 41.90625 -15.203125 
Q 37.90625 -18.40625 32.84375 -20.09375 
Q 27.796875 -21.796875 22.09375 -21.796875 
Q 13.40625 -21.796875 8.703125 -18.34375 
Q 4 -14.90625 4 -8.90625 
Q 4 -4.09375 6.84375 -0.75 
Q 9.703125 2.59375 14.796875 3.5 
Q 13.796875 5.796875 13.796875 8 
Q 13.796875 11.796875 18.59375 17.5 
Q 12.796875 18.796875 9.5 22.84375 
Q 6.203125 26.90625 6.203125 32.59375 
Q 6.203125 36.203125 7.546875 39.25 
Q 8.90625 42.296875 11.453125 44.5 
Q 14 46.703125 17.59375 47.890625 
Q 21.203125 49.09375 25.59375 49.09375 
Q 31.296875 49.09375 36.90625 46.296875 
z
M 24.59375 45.203125 
Q 20.203125 45.203125 17.5 41.953125 
Q 14.796875 38.703125 14.796875 32.90625 
Q 14.796875 27.203125 17.5 23.890625 
Q 20.203125 20.59375 24.59375 20.59375 
Q 29 20.59375 31.703125 23.890625 
Q 34.40625 27.203125 34.40625 32.90625 
Q 34.40625 38.59375 31.703125 41.890625 
Q 29 45.203125 24.59375 45.203125 
z
M 20.59375 3 
Q 16.40625 1.703125 14.203125 -0.890625 
Q 12 -3.5 12 -6.796875 
Q 12 -11.203125 15.703125 -14.203125 
Q 19.40625 -17.203125 25.59375 -17.203125 
Q 28.90625 -17.203125 31.65625 -16.34375 
Q 34.40625 -15.5 36.34375 -14 
Q 38.296875 -12.5 39.390625 -10.59375 
Q 40.5 -8.703125 40.5 -6.59375 
Q 40.5 -4.59375 39.890625 -3.296875 
Q 39.296875 -2 38.046875 -1.140625 
Q 36.796875 -0.296875 34.84375 0.203125 
Q 32.90625 0.703125 30.296875 1.203125 
z
" id="Charter-103"/>
      <path d="M 17.90625 73.59375 
L 17.90625 43.09375 
Q 23 45.90625 26.953125 47.5 
Q 30.90625 49.09375 34.09375 49.09375 
Q 40.703125 49.09375 44.09375 45.25 
Q 47.5 41.40625 47.5 33.90625 
L 47.5 5.703125 
L 49.296875 4.09375 
L 54.59375 3.59375 
L 54.59375 0 
L 32.796875 0 
L 32.796875 3.59375 
L 37.5 4.09375 
L 39.203125 5.703125 
L 39.203125 32.203125 
Q 39.203125 37.703125 36.953125 40.09375 
Q 34.703125 42.5 29.09375 42.5 
Q 24.296875 42.5 17.90625 39.203125 
L 17.90625 5.703125 
L 19.703125 4.09375 
L 24.40625 3.59375 
L 24.40625 0 
L 2.5 0 
L 2.5 3.59375 
L 7.90625 4.09375 
L 9.59375 5.703125 
L 9.59375 66.90625 
L 1.90625 66.90625 
L 1.90625 70 
L 14.09375 73.59375 
z
" id="Charter-104"/>
      <path d="M 37.59375 70.796875 
L 37.59375 66.5 
L 21.796875 66.5 
L 21.796875 -9 
L 37.59375 -9 
L 37.59375 -13.203125 
L 13.90625 -13.203125 
L 13.90625 70.796875 
z
" id="Charter-91"/>
      <path d="M 27.203125 27.40625 
L 27.203125 20.703125 
L 4.703125 20.703125 
L 4.703125 27.40625 
z
" id="Charter-45"/>
      <path d="M 28.203125 70.796875 
L 28.203125 -13.296875 
L 4.59375 -13.296875 
L 4.59375 -9 
L 20.40625 -9 
L 20.40625 66.5 
L 4.59375 66.5 
L 4.59375 70.796875 
z
" id="Charter-93"/>
     </defs>
     <g transform="translate(24.8625 271.9575)rotate(-90)scale(0.24 -0.24)">
      <use xlink:href="#Charter-65"/>
      <use x="63.899994" xlink:href="#Charter-98"/>
      <use x="117.799988" xlink:href="#Charter-115"/>
      <use x="157.799973" xlink:href="#Charter-111"/>
      <use x="211.699966" xlink:href="#Charter-108"/>
      <use x="239.899963" xlink:href="#Charter-117"/>
      <use x="296.799957" xlink:href="#Charter-116"/>
      <use x="330.199951" xlink:href="#Charter-101"/>
      <use x="379.299942" xlink:href="#Charter-32"/>
      <use x="407.09993" xlink:href="#Charter-119"/>
      <use x="484.199921" xlink:href="#Charter-101"/>
      <use x="533.299911" xlink:href="#Charter-105"/>
      <use x="561.299896" xlink:href="#Charter-103"/>
      <use x="613.599884" xlink:href="#Charter-104"/>
      <use x="669.999878" xlink:href="#Charter-116"/>
      <use x="703.399872" xlink:href="#Charter-32"/>
      <use x="731.19986" xlink:href="#Charter-91"/>
      <use x="773.29985" xlink:href="#Charter-45"/>
      <use x="805.199844" xlink:href="#Charter-93"/>
     </g>
    </g>
   </g>
   <g id="PathCollection_1">
    <defs>
     <path d="M 0 3.535534 
C 0.937635 3.535534 1.836992 3.163008 2.5 2.5 
C 3.163008 1.836992 3.535534 0.937635 3.535534 0 
C 3.535534 -0.937635 3.163008 -1.836992 2.5 -2.5 
C 1.836992 -3.163008 0.937635 -3.535534 0 -3.535534 
C -0.937635 -3.535534 -1.836992 -3.163008 -2.5 -2.5 
C -3.163008 -1.836992 -3.535534 -0.937635 -3.535534 0 
C -3.535534 0.937635 -3.163008 1.836992 -2.5 2.5 
C -1.836992 3.163008 -0.937635 3.535534 0 3.535534 
z
" id="C0_0_6c9ebc871b"/>
    </defs>
    <g clip-path="url(#pe4c985c37b)">
     <use style="fill:#191b27;" x="109.83125" xlink:href="#C0_0_6c9ebc871b" y="200.462068"/>
    </g>
    <g clip-path="url(#pe4c985c37b)">
     <use style="fill:#191b27;" x="156.33125" xlink:href="#C0_0_6c9ebc871b" y="246.92157"/>
    </g>
    <g clip-path="url(#pe4c985c37b)">
     <use style="fill:#191b27;" x="202.83125" xlink:href="#C0_0_6c9ebc871b" y="214.886649"/>
    </g>
    <g clip-path="url(#pe4c985c37b)">
     <use style="fill:#191b27;" x="249.33125" xlink:href="#C0_0_6c9ebc871b" y="268.228355"/>
    </g>
    <g clip-path="url(#pe4c985c37b)">
     <use style="fill:#191b27;" x="295.83125" xlink:href="#C0_0_6c9ebc871b" y="209.654615"/>
    </g>
   </g>
   <g id="PathCollection_2">
    <path clip-path="url(#pe4c985c37b)" d="M 113.366784 228.135558 
L 106.295716 224.600024 
L 106.295716 231.671092 
z
" style="fill:#ff2f18;"/>
    <path clip-path="url(#pe4c985c37b)" d="M 159.866784 168.313648 
L 152.795716 164.778114 
L 152.795716 171.849182 
z
" style="fill:#ff2f18;"/>
    <path clip-path="url(#pe4c985c37b)" d="M 206.366784 192.444826 
L 199.295716 188.909293 
L 199.295716 195.98036 
z
" style="fill:#ff2f18;"/>
    <path clip-path="url(#pe4c985c37b)" d="M 252.866784 214.436511 
L 245.795716 210.900977 
L 245.795716 217.972045 
z
" style="fill:#ff2f18;"/>
    <path clip-path="url(#pe4c985c37b)" d="M 299.366784 235.976817 
L 292.295716 232.441284 
L 292.295716 239.512351 
z
" style="fill:#ff2f18;"/>
   </g>
   <g id="patch_8">
    <path d="M 63.33125 333.36 
L 63.33125 7.2 
" style="fill:none;stroke:#000000;stroke-linecap:square;stroke-linejoin:miter;stroke-width:0.8;"/>
   </g>
   <g id="patch_9">
    <path d="M 342.33125 333.36 
L 342.33125 7.2 
" style="fill:none;stroke:#000000;stroke-linecap:square;stroke-linejoin:miter;stroke-width:0.8;"/>
   </g>
   <g id="patch_10">
    <path d="M 63.33125 333.36 
L 342.33125 333.36 
" style="fill:none;stroke:#000000;stroke-linecap:square;stroke-linejoin:miter;stroke-width:0.8;"/>
   </g>
   <g id="patch_11">
    <path d="M 63.33125 7.2 
L 342.33125 7.2 
" style="fill:none;stroke:#000000;stroke-linecap:square;stroke-linejoin:miter;stroke-width:0.8;"/>
   </g>
   <g id="legend_1">
    <g id="patch_12">
     <path d="M 264.41125 66.525 
L 331.13125 66.525 
Q 334.33125 66.525 334.33125 63.325 
L 334.33125 18.4 
Q 334.33125 15.2 331.13125 15.2 
L 264.41125 15.2 
Q 261.21125 15.2 261.21125 18.4 
L 261.21125 63.325 
Q 261.21125 66.525 264.41125 66.525 
z
" style="fill:#ffffff;opacity:0.8;stroke:#cccccc;stroke-linejoin:miter;"/>
    </g>
    <g id="PathCollection_3">
     <path d="M 283.61125 33.505127 
C 284.759613 33.505127 285.861097 33.048878 286.673112 32.236862 
C 287.485128 31.424847 287.941377 30.323363 287.941377 29.175 
C 287.941377 28.026637 287.485128 26.925153 286.673112 26.113138 
C 285.861097 25.301122 284.759613 24.844873 283.61125 24.844873 
C 282.462887 24.844873 281.361403 25.301122 280.549388 26.113138 
C 279.737372 26.925153 279.281123 28.026637 279.281123 29.175 
C 279.281123 30.323363 279.737372 31.424847 280.549388 32.236862 
C 281.361403 33.048878 282.462887 33.505127 283.61125 33.505127 
z
" style="fill:#191b27;"/>
    </g>
    <g id="text_13">
     <!-- $\mathbf{X}$ -->
     <defs>
      <path d="M 29.703125 67.09375 
L 29.703125 62.296875 
L 23.703125 61.796875 
L 22.90625 60.5 
L 34.296875 41.90625 
L 47.296875 60.203125 
L 46.40625 61.59375 
L 40.90625 62.296875 
L 40.90625 67.09375 
L 63.296875 67.09375 
L 63.296875 62.296875 
L 57.09375 61.5 
L 38.5 36.296875 
L 57.703125 6.09375 
L 64.40625 4.796875 
L 64.40625 0 
L 35.40625 0 
L 35.40625 4.796875 
L 41.703125 5.59375 
L 42.40625 6.90625 
L 30.203125 26.90625 
L 16 7.09375 
L 16.59375 5.40625 
L 23.09375 4.796875 
L 23.09375 0 
L 0 0 
L 0 4.796875 
L 6.40625 5.796875 
L 25.90625 32.5 
L 7.703125 61.296875 
L 1.40625 62.296875 
L 1.40625 67.09375 
z
" id="Charter-Bold-88"/>
     </defs>
     <g transform="translate(312.41125 33.375)scale(0.16 -0.16)">
      <use transform="translate(0 0.90625)" xlink:href="#Charter-Bold-88"/>
     </g>
    </g>
    <g id="PathCollection_4">
     <path d="M 287.941377 52.4375 
L 279.281123 48.107373 
L 279.281123 56.767627 
z
" style="fill:#ff2f18;"/>
    </g>
    <g id="text_14">
     <!-- $\mathbf{X_r}$ -->
     <defs>
      <path d="M 2.90625 4.5 
L 8.203125 4.90625 
L 9.59375 6.40625 
L 9.59375 40.90625 
L 2.40625 40.90625 
L 2.40625 44.90625 
L 17.09375 49.59375 
L 21.90625 49.59375 
L 21.5 39.40625 
Q 24.203125 42.296875 27.140625 44.84375 
Q 30.09375 47.40625 33.203125 49.59375 
Q 33.703125 49.703125 34.296875 49.75 
Q 34.90625 49.796875 35.40625 49.796875 
Q 38.59375 49.796875 42 48.09375 
L 40.703125 34.296875 
L 35.5 34.296875 
Q 33.296875 37.90625 29 37.90625 
Q 26.5 37.90625 21.90625 35.09375 
L 21.90625 6.40625 
L 23.40625 4.90625 
L 30.5 4.5 
L 30.5 0 
L 2.90625 0 
z
" id="Charter-Bold-114"/>
     </defs>
     <g transform="translate(312.41125 56.6375)scale(0.16 -0.16)">
      <use transform="translate(0 0.90625)" xlink:href="#Charter-Bold-88"/>
      <use transform="translate(64.552302 -13.704688)scale(0.7)" xlink:href="#Charter-Bold-114"/>
     </g>
    </g>
   </g>
  </g>
 </g>
 <defs>
  <clipPath id="pe4c985c37b">
   <rect height="326.16" width="279" x="63.33125" y="7.2"/>
  </clipPath>
 </defs>
</svg>
