<?xml version="1.0" encoding="utf-8" standalone="no"?>
<!DOCTYPE svg PUBLIC "-//W3C//DTD SVG 1.1//EN"
  "http://www.w3.org/Graphics/SVG/1.1/DTD/svg11.dtd">
<!-- Created with matplotlib (https://matplotlib.org/) -->
<svg height="482.868pt" version="1.1" viewBox="0 0 482.943995 482.868" width="482.943995pt" xmlns="http://www.w3.org/2000/svg" xmlns:xlink="http://www.w3.org/1999/xlink">
 <defs>
  <style type="text/css">
*{stroke-linecap:butt;stroke-linejoin:round;}
  </style>
 </defs>
 <g id="figure_1">
  <g id="patch_1">
   <path d="M 0 482.868 
L 482.943995 482.868 
L 482.943995 0 
L 0 0 
z
" style="fill:none;"/>
  </g>
  <g id="axes_1">
   <g id="patch_2">
    <path d="M 140.943995 475.668 
L 475.743995 475.668 
L 475.743995 7.2 
L 140.943995 7.2 
z
" style="fill:none;"/>
   </g>
   <g id="matplotlib.axis_1"/>
   <g id="matplotlib.axis_2"/>
   <g id="line2d_1">
    <path clip-path="url(#p0b7d901a30)" d="M 331.521168 215.683517 
L 330.611076 214.056534 
L 329.569897 218.860608 
L 337.109203 215.911417 
L 328.14902 209.032646 
L 326.323378 223.420862 
L 342.669382 216.594361 
L 326.099098 203.813685 
L 322.70714 227.714093 
L 348.173923 217.73008 
L 324.472777 198.425059 
L 318.737861 231.717961 
L 353.595203 219.314796 
L 323.280133 192.892771 
L 314.433418 235.411055 
L 358.905825 221.343235 
L 322.529817 187.24335 
L 309.812837 238.772953 
L 364.078703 223.80864 
L 322.229037 181.503777 
L 304.89624 241.78428 
L 369.087129 226.702785 
L 322.383531 175.701409 
L 299.704792 244.426758 
L 373.904854 230.015997 
L 322.997549 169.863909 
L 294.260648 246.683268 
L 378.506158 233.73718 
L 324.073839 164.019166 
L 288.586887 248.537889 
L 382.865924 237.853845 
L 325.61364 158.195219 
L 282.707455 249.975953 
L 386.959708 242.352138 
L 327.616667 152.42018 
L 276.6471 250.984084 
L 390.763806 247.216874 
L 330.081116 146.722158 
L 270.431305 251.55024 
L 394.255325 252.431581 
L 333.003659 141.129182 
L 264.086221 251.66375 
L 397.412247 257.978533 
L 336.379451 135.669119 
L 257.6386 251.315349 
L 400.213492 263.838801 
L 340.202134 130.369604 
L 251.115716 250.497204 
L 402.638981 269.992298 
L 344.463856 125.257956 
L 244.5453 249.202949 
L 404.669693 276.41783 
L 349.15528 120.361107 
L 237.955462 247.4277 
L 406.287723 283.093149 
L 354.265605 115.705524 
L 231.374617 245.168081 
L 407.476333 289.995009 
L 359.782592 111.317137 
L 224.831408 242.422237 
L 408.220008 297.099226 
L 365.692586 107.221263 
L 218.354629 239.189846 
L 408.504502 304.380739 
L 371.980549 103.442536 
L 211.973148 235.472131 
L 408.31688 311.813672 
L 378.630093 100.004833 
L 205.71583 231.27186 
L 407.645566 319.371402 
L 385.623516 96.931212 
L 199.611454 226.593351 
L 406.480378 327.026625 
L 392.941845 94.243836 
L 193.688642 221.442469 
L 404.812564 334.751429 
L 400.564878 91.963917 
L 187.975775 215.826616 
L 402.634837 342.517363 
L 408.47123 90.111644 
L 182.500915 209.754724 
L 399.941401 350.295508 
L 416.638384 88.70613 
L 177.291733 203.237241 
L 396.727975 358.056558 
L 425.042746 87.765349 
L 172.375426 196.28611 
L 392.991821 365.77089 
L 433.659698 87.30608 
L 167.778644 188.91475 
L 388.731755 373.408644 
L 442.463657 87.343857 
L 163.527416 181.13803 
L 383.948164 380.939802 
L 451.428137 87.892916 
L 159.647072 172.972238 
L 378.643018 388.334261 
L 460.525813 88.96615 
L 156.162177 164.435053 
L 372.819875 395.56192 
" style="fill:none;stroke:#4c4c4c;stroke-linecap:square;stroke-width:1.5;"/>
   </g>
   <g id="text_1">
    <!-- PCA -->
    <defs>
     <path d="M 2.90625 4.90625 
L 8.796875 5.40625 
L 10.59375 7 
L 10.59375 60.296875 
L 9.09375 61.703125 
L 2.5 62.203125 
L 2.5 67.09375 
L 29.5 67.09375 
Q 43.40625 67.09375 50.09375 62.390625 
Q 56.796875 57.703125 56.796875 46.90625 
Q 56.796875 36.5 50.046875 30.59375 
Q 43.296875 24.703125 30.59375 24.703125 
Q 28.296875 24.703125 23.796875 25 
L 23.796875 7 
L 25.296875 5.40625 
L 32.40625 4.90625 
L 32.40625 0 
L 2.90625 0 
z
M 23.796875 30.703125 
Q 24.796875 30.59375 25.6875 30.546875 
Q 26.59375 30.5 27.40625 30.5 
Q 43 30.5 43 46.5 
Q 43 53.703125 39.453125 57.5 
Q 35.90625 61.296875 29 61.296875 
L 23.796875 61.296875 
z
" id="Charter-Bold-80"/>
     <path d="M 60.09375 2.40625 
Q 50 -1.203125 39.09375 -1.203125 
Q 33.703125 -1.203125 29.046875 -0.046875 
Q 24.40625 1.09375 20.703125 3.296875 
Q 12.90625 8 8.5 15.890625 
Q 4.09375 23.796875 4.09375 33.5 
Q 4.09375 41.203125 6.75 47.703125 
Q 9.40625 54.203125 14.5 59.09375 
Q 24 68.296875 39.703125 68.296875 
Q 49.796875 68.296875 60.09375 64.59375 
L 60.09375 47.90625 
L 52.703125 47.90625 
L 50.796875 58.59375 
L 49.40625 60.296875 
Q 45.296875 61.796875 41.5 61.796875 
Q 36.40625 61.796875 32.203125 59.890625 
Q 28 58 25 54.34375 
Q 22 50.703125 20.390625 45.453125 
Q 18.796875 40.203125 18.796875 33.59375 
Q 18.796875 26.90625 20.4375 21.59375 
Q 22.09375 16.296875 25.1875 12.640625 
Q 28.296875 9 32.75 7.046875 
Q 37.203125 5.09375 42.796875 5.09375 
Q 45.296875 5.09375 48.90625 6 
L 50.40625 7.5 
L 52.90625 19.59375 
L 60.09375 19.59375 
L 60.09375 2.40625 
z
" id="Charter-Bold-67"/>
     <path d="M 38 67.796875 
L 61 5.90625 
L 66.90625 4.90625 
L 66.90625 0 
L 39.90625 0 
L 39.90625 4.90625 
L 46.203125 5.5 
L 46.90625 6.796875 
L 40.90625 23.796875 
L 19.09375 23.796875 
L 13.09375 6.90625 
L 14.09375 5.59375 
L 20.40625 4.90625 
L 20.40625 0 
L -1.09375 0 
L -1.09375 4.90625 
L 4.90625 5.796875 
L 27.5 67.796875 
z
M 21 29.40625 
L 38.59375 29.40625 
L 29.703125 54.09375 
z
" id="Charter-Bold-65"/>
    </defs>
    <g style="fill:#cc0000;" transform="translate(7.2 341.111593)scale(1 -1)">
     <use xlink:href="#Charter-Bold-80"/>
     <use x="58.699997" xlink:href="#Charter-Bold-67"/>
     <use x="122.499985" xlink:href="#Charter-Bold-65"/>
    </g>
   </g>
   <g id="text_2">
    <!-- fold -->
    <defs>
     <path d="M 3.09375 4.59375 
L 8.09375 5.09375 
L 9.5 6.703125 
L 9.5 41.40625 
L 3 41.40625 
L 3 45.203125 
L 9.5 48.203125 
Q 9.5 62.59375 19.703125 70.09375 
Q 22.5 72.203125 25.59375 73.25 
Q 28.703125 74.296875 31.796875 74.296875 
Q 36.203125 74.296875 38.703125 72.25 
Q 41.203125 70.203125 41.203125 67 
Q 41.203125 62.796875 35.40625 60.796875 
L 25.703125 69.40625 
Q 21.796875 65.296875 21.796875 54.203125 
L 21.796875 53.40625 
L 21.796875 47.40625 
L 35.203125 47.40625 
L 35.203125 41.40625 
L 21.796875 41.40625 
L 21.796875 6.59375 
L 23.40625 5.09375 
L 30.09375 4.59375 
L 30.09375 0 
L 3.09375 0 
z
" id="Charter-Bold-102"/>
     <path d="M 29.59375 49.90625 
Q 35.296875 49.90625 39.9375 48.09375 
Q 44.59375 46.296875 47.890625 42.9375 
Q 51.203125 39.59375 52.953125 34.84375 
Q 54.703125 30.09375 54.703125 24.09375 
Q 54.703125 18.5 52.84375 13.953125 
Q 51 9.40625 47.640625 6.09375 
Q 44.296875 2.796875 39.5 1 
Q 34.703125 -0.796875 28.796875 -0.796875 
Q 23.203125 -0.796875 18.546875 1 
Q 13.90625 2.796875 10.59375 6.09375 
Q 7.296875 9.40625 5.5 14 
Q 3.703125 18.59375 3.703125 24.296875 
Q 3.703125 30.09375 5.546875 34.796875 
Q 7.40625 39.5 10.75 42.84375 
Q 14.09375 46.203125 18.890625 48.046875 
Q 23.703125 49.90625 29.59375 49.90625 
z
M 29.203125 44.59375 
Q 23.796875 44.59375 20.6875 39.5 
Q 17.59375 34.40625 17.59375 24.703125 
Q 17.59375 14.796875 20.6875 9.640625 
Q 23.796875 4.5 29.09375 4.5 
Q 34.703125 4.5 37.796875 9.546875 
Q 40.90625 14.59375 40.90625 24.40625 
Q 40.90625 34.296875 37.75 39.4375 
Q 34.59375 44.59375 29.203125 44.59375 
z
" id="Charter-Bold-111"/>
     <path d="M 2.296875 4.40625 
L 8.09375 5 
L 9.5 6.40625 
L 9.5 65.203125 
L 2.296875 65.203125 
L 2.296875 69.09375 
L 17.40625 73.90625 
L 21.796875 73.90625 
L 21.796875 6.59375 
L 23.296875 5 
L 29.09375 4.40625 
L 29.09375 0 
L 2.296875 0 
z
" id="Charter-Bold-108"/>
     <path d="M 31.59375 65.203125 
L 31.59375 69.203125 
L 46.5 73.90625 
L 51.09375 73.90625 
L 51.09375 6.40625 
L 52.5 4.796875 
L 57.59375 4.40625 
L 57.59375 0 
L 38.90625 0 
L 38.90625 5.59375 
Q 34.59375 2.40625 30.75 0.75 
Q 26.90625 -0.90625 23.09375 -0.90625 
Q 18.90625 -0.90625 15.34375 0.84375 
Q 11.796875 2.59375 9.1875 5.75 
Q 6.59375 8.90625 5.140625 13.34375 
Q 3.703125 17.796875 3.703125 23.203125 
Q 3.703125 29.203125 5.59375 34.140625 
Q 7.5 39.09375 10.890625 42.640625 
Q 14.296875 46.203125 19.046875 48.09375 
Q 23.796875 50 29.5 50 
Q 31.5 50 33.84375 49.75 
Q 36.203125 49.5 38.90625 49 
L 38.90625 65.203125 
z
M 38.90625 42.90625 
Q 34.5 44.40625 31.5 44.40625 
Q 25.09375 44.40625 21.09375 39.34375 
Q 17.09375 34.296875 17.09375 25.296875 
Q 17.09375 16.796875 20.640625 12.1875 
Q 24.203125 7.59375 30.5 7.59375 
Q 32.296875 7.59375 34.390625 8.09375 
Q 36.5 8.59375 38.90625 9.5 
z
" id="Charter-Bold-100"/>
    </defs>
    <g style="fill:#004d95;" transform="translate(192.65437 341.111593)scale(1 -1)">
     <use xlink:href="#Charter-Bold-102"/>
     <use x="34.099991" xlink:href="#Charter-Bold-111"/>
     <use x="91.799988" xlink:href="#Charter-Bold-108"/>
     <use x="122.199982" xlink:href="#Charter-Bold-100"/>
    </g>
   </g>
  </g>
 </g>
 <defs>
  <clipPath id="p0b7d901a30">
   <rect height="468.468" width="334.8" x="140.943995" y="7.2"/>
  </clipPath>
 </defs>
</svg>
