<?xml version="1.0" encoding="utf-8" standalone="no"?>
<!DOCTYPE svg PUBLIC "-//W3C//DTD SVG 1.1//EN"
  "http://www.w3.org/Graphics/SVG/1.1/DTD/svg11.dtd">
<!-- Created with matplotlib (http://matplotlib.org/) -->
<svg height="475.4536pt" version="1.1" viewBox="0 0 486.443995 475.4536" width="486.443995pt" xmlns="http://www.w3.org/2000/svg" xmlns:xlink="http://www.w3.org/1999/xlink">
 <defs>
  <style type="text/css">
*{stroke-linecap:butt;stroke-linejoin:round;}
  </style>
 </defs>
 <g id="figure_1">
  <g id="patch_1">
   <path d="M 0 475.4536 
L 486.443995 475.4536 
L 486.443995 0 
L 0 0 
z
" style="fill:none;"/>
  </g>
  <g id="axes_1">
   <g id="patch_2">
    <path d="M 140.943995 464.7536 
L 475.743995 464.7536 
L 475.743995 10.7 
L 140.943995 10.7 
z
" style="fill:none;"/>
   </g>
   <g id="matplotlib.axis_1"/>
   <g id="matplotlib.axis_2"/>
   <g id="line2d_1">
    <path clip-path="url(#pa551d77afd)" d="M 331.521168 211.976317 
L 330.611076 210.349334 
L 329.569897 215.153408 
L 337.109203 212.204217 
L 328.14902 205.325446 
L 326.323378 219.713662 
L 342.669382 212.887161 
L 326.099098 200.106485 
L 322.70714 224.006893 
L 348.173923 214.02288 
L 324.472777 194.717859 
L 318.737861 228.010761 
L 353.595203 215.607596 
L 323.280133 189.185571 
L 314.433418 231.703855 
L 358.905825 217.636035 
L 322.529817 183.53615 
L 309.812837 235.065753 
L 364.078703 220.10144 
L 322.229037 177.796577 
L 304.89624 238.07708 
L 369.087129 222.995585 
L 322.383531 171.994209 
L 299.704792 240.719558 
L 373.904854 226.308797 
L 322.997549 166.156709 
L 294.260648 242.976068 
L 378.506158 230.02998 
L 324.073839 160.311966 
L 288.586887 244.830689 
L 382.865924 234.146645 
L 325.61364 154.488019 
L 282.707455 246.268753 
L 386.959708 238.644938 
L 327.616667 148.71298 
L 276.6471 247.276884 
L 390.763806 243.509674 
L 330.081116 143.014958 
L 270.431305 247.84304 
L 394.255325 248.724381 
L 333.003659 137.421982 
L 264.086221 247.95655 
L 397.412247 254.271333 
L 336.379451 131.961919 
L 257.6386 247.608149 
L 400.213492 260.131601 
L 340.202134 126.662404 
L 251.115716 246.790004 
L 402.638981 266.285098 
L 344.463856 121.550756 
L 244.5453 245.495749 
L 404.669693 272.71063 
L 349.15528 116.653907 
L 237.955462 243.7205 
L 406.287723 279.385949 
L 354.265605 111.998324 
L 231.374617 241.460881 
L 407.476333 286.287809 
L 359.782592 107.609937 
L 224.831408 238.715037 
L 408.220008 293.392026 
L 365.692586 103.514063 
L 218.354629 235.482646 
L 408.504502 300.673539 
L 371.980549 99.735336 
L 211.973148 231.764931 
L 408.31688 308.106472 
L 378.630093 96.297633 
L 205.71583 227.56466 
L 407.645566 315.664202 
L 385.623516 93.224012 
L 199.611454 222.886151 
L 406.480378 323.319425 
L 392.941845 90.536636 
L 193.688642 217.735269 
L 404.812564 331.044229 
L 400.564878 88.256717 
L 187.975775 212.119416 
L 402.634837 338.810163 
L 408.47123 86.404444 
L 182.500915 206.047524 
L 399.941401 346.588308 
L 416.638384 84.99893 
L 177.291733 199.530041 
L 396.727975 354.349358 
L 425.042746 84.058149 
L 172.375426 192.57891 
L 392.991821 362.06369 
L 433.659698 83.59888 
L 167.778644 185.20755 
L 388.731755 369.701444 
L 442.463657 83.636657 
L 163.527416 177.43083 
L 383.948164 377.232602 
L 451.428137 84.185716 
L 159.647072 169.265038 
L 378.643018 384.627061 
L 460.525813 85.25895 
L 156.162177 160.727853 
L 372.819875 391.85472 
" style="fill:none;stroke:#4c4c4c;stroke-linecap:square;stroke-width:1.5;"/>
   </g>
   <g id="text_1">
    <!-- PCA -->
    <defs>
     <path d="M 2.90625 4.90625 
L 8.796875 5.40625 
L 10.59375 7 
L 10.59375 60.296875 
L 9.09375 61.703125 
L 2.5 62.203125 
L 2.5 67.09375 
L 29.5 67.09375 
Q 43.40625 67.09375 50.09375 62.390625 
Q 56.796875 57.703125 56.796875 46.90625 
Q 56.796875 36.5 50.046875 30.59375 
Q 43.296875 24.703125 30.59375 24.703125 
Q 28.296875 24.703125 23.796875 25 
L 23.796875 7 
L 25.296875 5.40625 
L 32.40625 4.90625 
L 32.40625 0 
L 2.90625 0 
z
M 23.796875 30.703125 
Q 24.796875 30.59375 25.6875 30.546875 
Q 26.59375 30.5 27.40625 30.5 
Q 43 30.5 43 46.5 
Q 43 53.703125 39.453125 57.5 
Q 35.90625 61.296875 29 61.296875 
L 23.796875 61.296875 
z
" id="Charter-Bold-50"/>
     <path d="M 60.09375 2.40625 
Q 50 -1.203125 39.09375 -1.203125 
Q 33.703125 -1.203125 29.046875 -0.046875 
Q 24.40625 1.09375 20.703125 3.296875 
Q 12.90625 8 8.5 15.890625 
Q 4.09375 23.796875 4.09375 33.5 
Q 4.09375 41.203125 6.75 47.703125 
Q 9.40625 54.203125 14.5 59.09375 
Q 24 68.296875 39.703125 68.296875 
Q 49.796875 68.296875 60.09375 64.59375 
L 60.09375 47.90625 
L 52.703125 47.90625 
L 50.796875 58.59375 
L 49.40625 60.296875 
Q 45.296875 61.796875 41.5 61.796875 
Q 36.40625 61.796875 32.203125 59.890625 
Q 28 58 25 54.34375 
Q 22 50.703125 20.390625 45.453125 
Q 18.796875 40.203125 18.796875 33.59375 
Q 18.796875 26.90625 20.4375 21.59375 
Q 22.09375 16.296875 25.1875 12.640625 
Q 28.296875 9 32.75 7.046875 
Q 37.203125 5.09375 42.796875 5.09375 
Q 45.296875 5.09375 48.90625 6 
L 50.40625 7.5 
L 52.90625 19.59375 
L 60.09375 19.59375 
L 60.09375 2.40625 
z
" id="Charter-Bold-43"/>
     <path d="M 38 67.796875 
L 61 5.90625 
L 66.90625 4.90625 
L 66.90625 0 
L 39.90625 0 
L 39.90625 4.90625 
L 46.203125 5.5 
L 46.90625 6.796875 
L 40.90625 23.796875 
L 19.09375 23.796875 
L 13.09375 6.90625 
L 14.09375 5.59375 
L 20.40625 4.90625 
L 20.40625 0 
L -1.09375 0 
L -1.09375 4.90625 
L 4.90625 5.796875 
L 27.5 67.796875 
z
M 21 29.40625 
L 38.59375 29.40625 
L 29.703125 54.09375 
z
" id="Charter-Bold-41"/>
    </defs>
    <g style="fill:#ca0614;" transform="translate(7.2 337.404393)scale(1 -1)">
     <use xlink:href="#Charter-Bold-50"/>
     <use x="58.699997" xlink:href="#Charter-Bold-43"/>
     <use x="122.499985" xlink:href="#Charter-Bold-41"/>
    </g>
   </g>
   <g id="text_2">
    <!-- fold -->
    <defs>
     <path d="M 3.09375 4.59375 
L 8.09375 5.09375 
L 9.5 6.703125 
L 9.5 41.40625 
L 3 41.40625 
L 3 45.203125 
L 9.5 48.203125 
Q 9.5 62.59375 19.703125 70.09375 
Q 22.5 72.203125 25.59375 73.25 
Q 28.703125 74.296875 31.796875 74.296875 
Q 36.203125 74.296875 38.703125 72.25 
Q 41.203125 70.203125 41.203125 67 
Q 41.203125 62.796875 35.40625 60.796875 
L 25.703125 69.40625 
Q 21.796875 65.296875 21.796875 54.203125 
L 21.796875 53.40625 
L 21.796875 47.40625 
L 35.203125 47.40625 
L 35.203125 41.40625 
L 21.796875 41.40625 
L 21.796875 6.59375 
L 23.40625 5.09375 
L 30.09375 4.59375 
L 30.09375 0 
L 3.09375 0 
z
" id="Charter-Bold-66"/>
     <path d="M 29.59375 49.90625 
Q 35.296875 49.90625 39.9375 48.09375 
Q 44.59375 46.296875 47.890625 42.9375 
Q 51.203125 39.59375 52.953125 34.84375 
Q 54.703125 30.09375 54.703125 24.09375 
Q 54.703125 18.5 52.84375 13.953125 
Q 51 9.40625 47.640625 6.09375 
Q 44.296875 2.796875 39.5 1 
Q 34.703125 -0.796875 28.796875 -0.796875 
Q 23.203125 -0.796875 18.546875 1 
Q 13.90625 2.796875 10.59375 6.09375 
Q 7.296875 9.40625 5.5 14 
Q 3.703125 18.59375 3.703125 24.296875 
Q 3.703125 30.09375 5.546875 34.796875 
Q 7.40625 39.5 10.75 42.84375 
Q 14.09375 46.203125 18.890625 48.046875 
Q 23.703125 49.90625 29.59375 49.90625 
z
M 29.203125 44.59375 
Q 23.796875 44.59375 20.6875 39.5 
Q 17.59375 34.40625 17.59375 24.703125 
Q 17.59375 14.796875 20.6875 9.640625 
Q 23.796875 4.5 29.09375 4.5 
Q 34.703125 4.5 37.796875 9.546875 
Q 40.90625 14.59375 40.90625 24.40625 
Q 40.90625 34.296875 37.75 39.4375 
Q 34.59375 44.59375 29.203125 44.59375 
z
" id="Charter-Bold-6f"/>
     <path d="M 2.296875 4.40625 
L 8.09375 5 
L 9.5 6.40625 
L 9.5 65.203125 
L 2.296875 65.203125 
L 2.296875 69.09375 
L 17.40625 73.90625 
L 21.796875 73.90625 
L 21.796875 6.59375 
L 23.296875 5 
L 29.09375 4.40625 
L 29.09375 0 
L 2.296875 0 
z
" id="Charter-Bold-6c"/>
     <path d="M 31.59375 65.203125 
L 31.59375 69.203125 
L 46.5 73.90625 
L 51.09375 73.90625 
L 51.09375 6.40625 
L 52.5 4.796875 
L 57.59375 4.40625 
L 57.59375 0 
L 38.90625 0 
L 38.90625 5.59375 
Q 34.59375 2.40625 30.75 0.75 
Q 26.90625 -0.90625 23.09375 -0.90625 
Q 18.90625 -0.90625 15.34375 0.84375 
Q 11.796875 2.59375 9.1875 5.75 
Q 6.59375 8.90625 5.140625 13.34375 
Q 3.703125 17.796875 3.703125 23.203125 
Q 3.703125 29.203125 5.59375 34.140625 
Q 7.5 39.09375 10.890625 42.640625 
Q 14.296875 46.203125 19.046875 48.09375 
Q 23.796875 50 29.5 50 
Q 31.5 50 33.84375 49.75 
Q 36.203125 49.5 38.90625 49 
L 38.90625 65.203125 
z
M 38.90625 42.90625 
Q 34.5 44.40625 31.5 44.40625 
Q 25.09375 44.40625 21.09375 39.34375 
Q 17.09375 34.296875 17.09375 25.296875 
Q 17.09375 16.796875 20.640625 12.1875 
Q 24.203125 7.59375 30.5 7.59375 
Q 32.296875 7.59375 34.390625 8.09375 
Q 36.5 8.59375 38.90625 9.5 
z
" id="Charter-Bold-64"/>
    </defs>
    <g style="fill:#004a8d;" transform="translate(192.65437 337.404393)scale(1 -1)">
     <use xlink:href="#Charter-Bold-66"/>
     <use x="34.099991" xlink:href="#Charter-Bold-6f"/>
     <use x="91.799988" xlink:href="#Charter-Bold-6c"/>
     <use x="122.199982" xlink:href="#Charter-Bold-64"/>
    </g>
   </g>
  </g>
 </g>
 <defs>
  <clipPath id="pa551d77afd">
   <rect height="454.0536" width="334.8" x="140.943995" y="10.7"/>
  </clipPath>
 </defs>
</svg>
