<?xml version="1.0" encoding="utf-8" standalone="no"?>
<!DOCTYPE svg PUBLIC "-//W3C//DTD SVG 1.1//EN"
  "http://www.w3.org/Graphics/SVG/1.1/DTD/svg11.dtd">
<!-- Created with matplotlib (https://matplotlib.org/) -->
<svg height="425.5465pt" version="1.1" viewBox="0 0 706.55375 425.5465" width="706.55375pt" xmlns="http://www.w3.org/2000/svg" xmlns:xlink="http://www.w3.org/1999/xlink">
 <defs>
  <style type="text/css">
*{stroke-linecap:butt;stroke-linejoin:round;}
  </style>
 </defs>
 <g id="figure_1">
  <g id="patch_1">
   <path d="M 0 425.5465 
L 706.55375 425.5465 
L 706.55375 0 
L 0 0 
z
" style="fill:#ffffff;"/>
  </g>
  <g id="axes_1">
   <g id="patch_2">
    <path d="M 85.55375 333.36 
L 699.35375 333.36 
L 699.35375 7.2 
L 85.55375 7.2 
z
" style="fill:#ffffff;"/>
   </g>
   <g id="matplotlib.axis_1">
    <g id="xtick_1">
     <g id="line2d_1">
      <path clip-path="url(#p8ef3e0576d)" d="M 136.70375 333.36 
L 136.70375 7.2 
" style="fill:none;stroke:#b0b0b0;stroke-linecap:square;stroke-opacity:0.3;stroke-width:0.8;"/>
     </g>
     <g id="line2d_2">
      <defs>
       <path d="M 0 0 
L 0 3.5 
" id="m7d54684422" style="stroke:#000000;stroke-width:0.8;"/>
      </defs>
      <g>
       <use style="stroke:#000000;stroke-width:0.8;" x="136.70375" xlink:href="#m7d54684422" y="333.36"/>
      </g>
     </g>
     <g id="text_1">
      <!-- $T$ -->
      <defs>
       <path d="M 7.203125 67.09375 
L 4.296875 52.203125 
L 9.796875 52.203125 
L 13 61.5 
L 14.703125 63 
L 28.796875 63 
L 18.09375 5.796875 
L 16.5 4.40625 
L 10.09375 3.796875 
L 10.09375 0 
L 34.5 0 
L 34.5 3.796875 
L 28 4.40625 
L 26.703125 5.796875 
L 37.703125 63 
L 51.90625 63 
L 53 61.5 
L 52.59375 52.203125 
L 58 52.203125 
L 61 67.09375 
z
" id="Charter-Italic-84"/>
      </defs>
      <g transform="translate(132.14375 352.135)scale(0.16 -0.16)">
       <use transform="translate(0 0.90625)" xlink:href="#Charter-Italic-84"/>
      </g>
     </g>
    </g>
    <g id="xtick_2">
     <g id="line2d_3">
      <path clip-path="url(#p8ef3e0576d)" d="M 187.85375 333.36 
L 187.85375 7.2 
" style="fill:none;stroke:#b0b0b0;stroke-linecap:square;stroke-opacity:0.3;stroke-width:0.8;"/>
     </g>
     <g id="line2d_4">
      <g>
       <use style="stroke:#000000;stroke-width:0.8;" x="187.85375" xlink:href="#m7d54684422" y="333.36"/>
      </g>
     </g>
     <g id="text_2">
      <!-- $H_2$ -->
      <defs>
       <path d="M 8.40625 67.09375 
L 8.40625 63.296875 
L 14.90625 62.796875 
L 15.90625 61.296875 
L 5.203125 5.796875 
L 3.59375 4.40625 
L -2.796875 3.796875 
L -2.796875 0 
L 21.5 0 
L 21.5 3.796875 
L 15.09375 4.40625 
L 13.90625 5.796875 
L 19.09375 32.796875 
L 51.59375 32.796875 
L 46.5 5.796875 
L 45 4.40625 
L 38.5 3.796875 
L 38.5 0 
L 62.703125 0 
L 62.703125 3.796875 
L 56.296875 4.40625 
L 55.296875 5.796875 
L 65.90625 61.296875 
L 67.5 62.796875 
L 74.09375 63.296875 
L 74.09375 67.09375 
L 49.703125 67.09375 
L 49.703125 63.296875 
L 56.09375 62.796875 
L 57.296875 61.296875 
L 52.59375 37.40625 
L 20 37.40625 
L 24.703125 61.296875 
L 26.203125 62.796875 
L 32.796875 63.296875 
L 32.796875 67.09375 
z
" id="Charter-Italic-72"/>
       <path d="M 44.203125 7.90625 
L 46 16.40625 
L 50.5 16.40625 
L 50.5 0 
L 4.203125 0 
L 4.203125 6.296875 
Q 12.40625 13 18.796875 18.5 
Q 25.203125 24 29.59375 28.953125 
Q 34 33.90625 36.296875 38.546875 
Q 38.59375 43.203125 38.59375 48.09375 
Q 38.59375 55.296875 35.09375 59.25 
Q 31.59375 63.203125 25.296875 63.203125 
Q 23 63.203125 20.84375 62.640625 
Q 18.703125 62.09375 16.40625 60.796875 
L 16.40625 50.09375 
Q 14.296875 48.59375 11.90625 48.59375 
Q 9.296875 48.59375 7.796875 50.09375 
Q 6.296875 51.59375 6.296875 54.203125 
Q 6.296875 56.796875 7.84375 59.34375 
Q 9.40625 61.90625 12.25 63.90625 
Q 15.09375 65.90625 18.9375 67.09375 
Q 22.796875 68.296875 27.5 68.296875 
Q 32.296875 68.296875 36.140625 66.9375 
Q 40 65.59375 42.703125 63.09375 
Q 45.40625 60.59375 46.84375 57.09375 
Q 48.296875 53.59375 48.296875 49.40625 
Q 48.296875 44.703125 46.046875 40.09375 
Q 43.796875 35.5 39.4375 30.546875 
Q 35.09375 25.59375 28.75 20.046875 
Q 22.40625 14.5 14.09375 7.90625 
z
" id="Charter-50"/>
      </defs>
      <g transform="translate(178.81375 352.135)scale(0.16 -0.16)">
       <use transform="translate(0 0.90625)" xlink:href="#Charter-Italic-72"/>
       <use transform="translate(71.199982 -13.671875)scale(0.7)" xlink:href="#Charter-50"/>
      </g>
     </g>
    </g>
    <g id="xtick_3">
     <g id="line2d_5">
      <path clip-path="url(#p8ef3e0576d)" d="M 239.00375 333.36 
L 239.00375 7.2 
" style="fill:none;stroke:#b0b0b0;stroke-linecap:square;stroke-opacity:0.3;stroke-width:0.8;"/>
     </g>
     <g id="line2d_6">
      <g>
       <use style="stroke:#000000;stroke-width:0.8;" x="239.00375" xlink:href="#m7d54684422" y="333.36"/>
      </g>
     </g>
     <g id="text_3">
      <!-- $O_2$ -->
      <defs>
       <path d="M 40.5 68.203125 
C 30.296875 68.203125 20.296875 63.09375 13.5 54.09375 
C 7.40625 46.09375 4.09375 36.296875 4.09375 25.90625 
C 4.09375 10 15 -1.203125 30.5 -1.203125 
C 40.90625 -1.203125 50.796875 3.90625 57.703125 12.90625 
C 63.59375 20.59375 66.90625 30.796875 66.90625 42 
C 66.90625 50.796875 63 58.59375 56.203125 63.59375 
C 52.203125 66.5 46.796875 68.203125 40.5 68.203125 
z
M 57.09375 41.90625 
C 57.09375 32 54 22 49.203125 14.90625 
C 44.09375 7.40625 37.90625 3.59375 31 3.59375 
C 20.703125 3.59375 13.703125 11.90625 13.703125 25.296875 
C 13.703125 35.09375 16.703125 45.09375 21.59375 52.296875 
C 26.703125 59.796875 33 63.59375 39.796875 63.59375 
C 50.203125 63.59375 57.09375 55.5 57.09375 41.90625 
z
" id="Charter-Italic-79"/>
      </defs>
      <g transform="translate(229.96375 352.135)scale(0.16 -0.16)">
       <use transform="translate(0 0.796875)" xlink:href="#Charter-Italic-79"/>
       <use transform="translate(70.799988 -13.78125)scale(0.7)" xlink:href="#Charter-50"/>
      </g>
     </g>
    </g>
    <g id="xtick_4">
     <g id="line2d_7">
      <path clip-path="url(#p8ef3e0576d)" d="M 290.15375 333.36 
L 290.15375 7.2 
" style="fill:none;stroke:#b0b0b0;stroke-linecap:square;stroke-opacity:0.3;stroke-width:0.8;"/>
     </g>
     <g id="line2d_8">
      <g>
       <use style="stroke:#000000;stroke-width:0.8;" x="290.15375" xlink:href="#m7d54684422" y="333.36"/>
      </g>
     </g>
     <g id="text_4">
      <!-- $O$ -->
      <g transform="translate(284.47375 352.135)scale(0.16 -0.16)">
       <use transform="translate(0 0.796875)" xlink:href="#Charter-Italic-79"/>
      </g>
     </g>
    </g>
    <g id="xtick_5">
     <g id="line2d_9">
      <path clip-path="url(#p8ef3e0576d)" d="M 341.30375 333.36 
L 341.30375 7.2 
" style="fill:none;stroke:#b0b0b0;stroke-linecap:square;stroke-opacity:0.3;stroke-width:0.8;"/>
     </g>
     <g id="line2d_10">
      <g>
       <use style="stroke:#000000;stroke-width:0.8;" x="341.30375" xlink:href="#m7d54684422" y="333.36"/>
      </g>
     </g>
     <g id="text_5">
      <!-- $OH$ -->
      <g transform="translate(329.94375 352.135)scale(0.16 -0.16)">
       <use transform="translate(0 0.796875)" xlink:href="#Charter-Italic-79"/>
       <use transform="translate(70.799988 0.796875)" xlink:href="#Charter-Italic-72"/>
      </g>
     </g>
    </g>
    <g id="xtick_6">
     <g id="line2d_11">
      <path clip-path="url(#p8ef3e0576d)" d="M 392.45375 333.36 
L 392.45375 7.2 
" style="fill:none;stroke:#b0b0b0;stroke-linecap:square;stroke-opacity:0.3;stroke-width:0.8;"/>
     </g>
     <g id="line2d_12">
      <g>
       <use style="stroke:#000000;stroke-width:0.8;" x="392.45375" xlink:href="#m7d54684422" y="333.36"/>
      </g>
     </g>
     <g id="text_6">
      <!-- $H_2O$ -->
      <g transform="translate(377.73375 352.135)scale(0.16 -0.16)">
       <use transform="translate(0 0.796875)" xlink:href="#Charter-Italic-72"/>
       <use transform="translate(71.199982 -13.78125)scale(0.7)" xlink:href="#Charter-50"/>
       <use transform="translate(112.549663 0.796875)" xlink:href="#Charter-Italic-79"/>
      </g>
     </g>
    </g>
    <g id="xtick_7">
     <g id="line2d_13">
      <path clip-path="url(#p8ef3e0576d)" d="M 443.60375 333.36 
L 443.60375 7.2 
" style="fill:none;stroke:#b0b0b0;stroke-linecap:square;stroke-opacity:0.3;stroke-width:0.8;"/>
     </g>
     <g id="line2d_14">
      <g>
       <use style="stroke:#000000;stroke-width:0.8;" x="443.60375" xlink:href="#m7d54684422" y="333.36"/>
      </g>
     </g>
     <g id="text_7">
      <!-- $H$ -->
      <g transform="translate(437.84375 352.135)scale(0.16 -0.16)">
       <use transform="translate(0 0.90625)" xlink:href="#Charter-Italic-72"/>
      </g>
     </g>
    </g>
    <g id="xtick_8">
     <g id="line2d_15">
      <path clip-path="url(#p8ef3e0576d)" d="M 494.75375 333.36 
L 494.75375 7.2 
" style="fill:none;stroke:#b0b0b0;stroke-linecap:square;stroke-opacity:0.3;stroke-width:0.8;"/>
     </g>
     <g id="line2d_16">
      <g>
       <use style="stroke:#000000;stroke-width:0.8;" x="494.75375" xlink:href="#m7d54684422" y="333.36"/>
      </g>
     </g>
     <g id="text_8">
      <!-- $HO_2$ -->
      <g transform="translate(480.03375 352.135)scale(0.16 -0.16)">
       <use transform="translate(0 0.796875)" xlink:href="#Charter-Italic-72"/>
       <use transform="translate(71.199982 0.796875)" xlink:href="#Charter-Italic-79"/>
       <use transform="translate(141.999969 -13.78125)scale(0.7)" xlink:href="#Charter-50"/>
      </g>
     </g>
    </g>
    <g id="xtick_9">
     <g id="line2d_17">
      <path clip-path="url(#p8ef3e0576d)" d="M 545.90375 333.36 
L 545.90375 7.2 
" style="fill:none;stroke:#b0b0b0;stroke-linecap:square;stroke-opacity:0.3;stroke-width:0.8;"/>
     </g>
     <g id="line2d_18">
      <g>
       <use style="stroke:#000000;stroke-width:0.8;" x="545.90375" xlink:href="#m7d54684422" y="333.36"/>
      </g>
     </g>
     <g id="text_9">
      <!-- $CO$ -->
      <defs>
       <path d="M 62.203125 64.90625 
C 55.703125 67.203125 49.703125 68.296875 44.09375 68.296875 
C 34.90625 68.296875 26.5 65.296875 19.59375 59.703125 
C 9.796875 51.59375 4.09375 39.5 4.09375 26.5 
C 4.09375 9.59375 14.5 -1.203125 31 -1.203125 
C 37.203125 -1.203125 44 0 50.90625 2.296875 
L 53.59375 18.09375 
L 49.296875 18.09375 
L 44.90625 6.59375 
L 43 4.90625 
C 40.09375 4 37.203125 3.5 34.40625 3.5 
C 21.203125 3.5 13.59375 11.5 13.59375 25.296875 
C 13.59375 38.40625 18.296875 49.796875 26.09375 56.796875 
C 31 61.203125 37.203125 63.59375 43.796875 63.59375 
C 47.5 63.59375 51 62.796875 54.40625 61 
L 55.203125 59.09375 
L 55.203125 49.5 
L 59.40625 49.5 
z
" id="Charter-Italic-67"/>
      </defs>
      <g transform="translate(535.34375 352.135)scale(0.16 -0.16)">
       <use transform="translate(0 0.703125)" xlink:href="#Charter-Italic-67"/>
       <use transform="translate(60.399994 0.703125)" xlink:href="#Charter-Italic-79"/>
      </g>
     </g>
    </g>
    <g id="xtick_10">
     <g id="line2d_19">
      <path clip-path="url(#p8ef3e0576d)" d="M 597.05375 333.36 
L 597.05375 7.2 
" style="fill:none;stroke:#b0b0b0;stroke-linecap:square;stroke-opacity:0.3;stroke-width:0.8;"/>
     </g>
     <g id="line2d_20">
      <g>
       <use style="stroke:#000000;stroke-width:0.8;" x="597.05375" xlink:href="#m7d54684422" y="333.36"/>
      </g>
     </g>
     <g id="text_10">
      <!-- $CO_2$ -->
      <g transform="translate(583.21375 352.135)scale(0.16 -0.16)">
       <use transform="translate(0 0.703125)" xlink:href="#Charter-Italic-67"/>
       <use transform="translate(60.399994 0.703125)" xlink:href="#Charter-Italic-79"/>
       <use transform="translate(131.199982 -13.875)scale(0.7)" xlink:href="#Charter-50"/>
      </g>
     </g>
    </g>
    <g id="xtick_11">
     <g id="line2d_21">
      <path clip-path="url(#p8ef3e0576d)" d="M 648.20375 333.36 
L 648.20375 7.2 
" style="fill:none;stroke:#b0b0b0;stroke-linecap:square;stroke-opacity:0.3;stroke-width:0.8;"/>
     </g>
     <g id="line2d_22">
      <g>
       <use style="stroke:#000000;stroke-width:0.8;" x="648.20375" xlink:href="#m7d54684422" y="333.36"/>
      </g>
     </g>
     <g id="text_11">
      <!-- $HCO$ -->
      <g transform="translate(631.96375 352.135)scale(0.16 -0.16)">
       <use transform="translate(0 0.703125)" xlink:href="#Charter-Italic-72"/>
       <use transform="translate(71.199982 0.703125)" xlink:href="#Charter-Italic-67"/>
       <use transform="translate(131.599976 0.703125)" xlink:href="#Charter-Italic-79"/>
      </g>
     </g>
    </g>
   </g>
   <g id="matplotlib.axis_2">
    <g id="ytick_1">
     <g id="line2d_23">
      <path clip-path="url(#p8ef3e0576d)" d="M 85.55375 325.594286 
L 699.35375 325.594286 
" style="fill:none;stroke:#b0b0b0;stroke-linecap:square;stroke-opacity:0.3;stroke-width:0.8;"/>
     </g>
     <g id="line2d_24">
      <defs>
       <path d="M 0 0 
L -3.5 0 
" id="m881871cecb" style="stroke:#000000;stroke-width:0.8;"/>
      </defs>
      <g>
       <use style="stroke:#000000;stroke-width:0.8;" x="85.55375" xlink:href="#m881871cecb" y="325.594286"/>
      </g>
     </g>
     <g id="text_12">
      <!-- −1.00 -->
      <defs>
       <path d="M 70.90625 32.703125 
L 70.90625 26.90625 
L 12.40625 26.90625 
L 12.40625 32.703125 
z
" id="Charter-8722"/>
       <path d="M 33.90625 68.296875 
L 33.90625 6.203125 
L 35.09375 4.703125 
L 45.90625 4.203125 
L 45.90625 0 
L 12.40625 0 
L 12.40625 4.296875 
L 23.90625 4.90625 
L 25.09375 6.59375 
L 25.09375 60.40625 
L 9.40625 57.59375 
L 9.40625 61.796875 
L 31.09375 68.296875 
z
" id="Charter-49"/>
       <path d="M 13.90625 11.796875 
Q 16.5 11.796875 18.34375 9.9375 
Q 20.203125 8.09375 20.203125 5.40625 
Q 20.203125 2.796875 18.34375 0.9375 
Q 16.5 -0.90625 13.90625 -0.90625 
Q 11.296875 -0.90625 9.390625 0.890625 
Q 7.5 2.703125 7.5 5.40625 
Q 7.5 8.09375 9.390625 9.9375 
Q 11.296875 11.796875 13.90625 11.796875 
z
" id="Charter-46"/>
       <path d="M 27.796875 68.296875 
Q 33.203125 68.296875 37.546875 66 
Q 41.90625 63.703125 45 59.25 
Q 48.09375 54.796875 49.796875 48.34375 
Q 51.5 41.90625 51.5 33.59375 
Q 51.5 25.296875 49.796875 18.84375 
Q 48.09375 12.40625 45 7.953125 
Q 41.90625 3.5 37.546875 1.140625 
Q 33.203125 -1.203125 27.796875 -1.203125 
Q 22.40625 -1.203125 18.046875 1.140625 
Q 13.703125 3.5 10.59375 7.953125 
Q 7.5 12.40625 5.796875 18.84375 
Q 4.09375 25.296875 4.09375 33.59375 
Q 4.09375 41.90625 5.796875 48.34375 
Q 7.5 54.796875 10.59375 59.25 
Q 13.703125 63.703125 18.046875 66 
Q 22.40625 68.296875 27.796875 68.296875 
z
M 27.796875 63.59375 
Q 20.90625 63.59375 17.203125 56.046875 
Q 13.5 48.5 13.5 33.5 
Q 13.5 18.59375 17.203125 11.09375 
Q 20.90625 3.59375 27.796875 3.59375 
Q 34.703125 3.59375 38.34375 11.140625 
Q 42 18.703125 42 33.59375 
Q 42 48.5 38.34375 56.046875 
Q 34.703125 63.59375 27.796875 63.59375 
z
" id="Charter-48"/>
      </defs>
      <g transform="translate(34.09375 331.481786)scale(0.16 -0.16)">
       <use xlink:href="#Charter-8722"/>
       <use x="83.299988" xlink:href="#Charter-49"/>
       <use x="138.899979" xlink:href="#Charter-46"/>
       <use x="166.699966" xlink:href="#Charter-48"/>
       <use x="222.299957" xlink:href="#Charter-48"/>
      </g>
     </g>
    </g>
    <g id="ytick_2">
     <g id="line2d_25">
      <path clip-path="url(#p8ef3e0576d)" d="M 85.55375 286.765714 
L 699.35375 286.765714 
" style="fill:none;stroke:#b0b0b0;stroke-linecap:square;stroke-opacity:0.3;stroke-width:0.8;"/>
     </g>
     <g id="line2d_26">
      <g>
       <use style="stroke:#000000;stroke-width:0.8;" x="85.55375" xlink:href="#m881871cecb" y="286.765714"/>
      </g>
     </g>
     <g id="text_13">
      <!-- −0.75 -->
      <defs>
       <path d="M 53.09375 67.09375 
L 53.09375 63.09375 
L 19.90625 -1.5 
L 19.90625 -3.703125 
L 11.59375 -3.703125 
L 44.203125 59.5 
L 13.40625 59.5 
L 11.796875 50.40625 
L 7.09375 50.40625 
L 7.09375 67.09375 
z
" id="Charter-55"/>
       <path d="M 45.90625 67.09375 
L 45.90625 59.296875 
L 16.296875 59.296875 
L 16.296875 39.296875 
Q 22 40.90625 27 40.90625 
Q 32 40.90625 36.046875 39.5 
Q 40.09375 38.09375 42.9375 35.546875 
Q 45.796875 33 47.34375 29.5 
Q 48.90625 26 48.90625 21.703125 
Q 48.90625 16.90625 47.046875 12.75 
Q 45.203125 8.59375 41.703125 5.546875 
Q 38.203125 2.5 33.25 0.796875 
Q 28.296875 -0.90625 22.203125 -0.90625 
Q 18.296875 -0.90625 15.140625 -0.09375 
Q 12 0.703125 9.75 2 
Q 7.5 3.296875 6.25 5 
Q 5 6.703125 5 8.5 
Q 5 10.796875 6.59375 12.296875 
Q 8.203125 13.796875 10.796875 13.796875 
Q 11.703125 13.796875 13.203125 13.5 
L 17.203125 4.90625 
Q 20.5 3.703125 23.90625 3.703125 
Q 27.40625 3.703125 30.296875 4.890625 
Q 33.203125 6.09375 35.296875 8.1875 
Q 37.40625 10.296875 38.546875 13.25 
Q 39.703125 16.203125 39.703125 19.703125 
Q 39.703125 27.5 34.546875 31.09375 
Q 29.40625 34.703125 18.90625 34.703125 
Q 13.40625 34.703125 10.09375 34.09375 
L 10.09375 67.09375 
z
" id="Charter-53"/>
      </defs>
      <g transform="translate(34.09375 292.653214)scale(0.16 -0.16)">
       <use xlink:href="#Charter-8722"/>
       <use x="83.299988" xlink:href="#Charter-48"/>
       <use x="138.899979" xlink:href="#Charter-46"/>
       <use x="166.699966" xlink:href="#Charter-55"/>
       <use x="222.299957" xlink:href="#Charter-53"/>
      </g>
     </g>
    </g>
    <g id="ytick_3">
     <g id="line2d_27">
      <path clip-path="url(#p8ef3e0576d)" d="M 85.55375 247.937143 
L 699.35375 247.937143 
" style="fill:none;stroke:#b0b0b0;stroke-linecap:square;stroke-opacity:0.3;stroke-width:0.8;"/>
     </g>
     <g id="line2d_28">
      <g>
       <use style="stroke:#000000;stroke-width:0.8;" x="85.55375" xlink:href="#m881871cecb" y="247.937143"/>
      </g>
     </g>
     <g id="text_14">
      <!-- −0.50 -->
      <g transform="translate(34.09375 253.824643)scale(0.16 -0.16)">
       <use xlink:href="#Charter-8722"/>
       <use x="83.299988" xlink:href="#Charter-48"/>
       <use x="138.899979" xlink:href="#Charter-46"/>
       <use x="166.699966" xlink:href="#Charter-53"/>
       <use x="222.299957" xlink:href="#Charter-48"/>
      </g>
     </g>
    </g>
    <g id="ytick_4">
     <g id="line2d_29">
      <path clip-path="url(#p8ef3e0576d)" d="M 85.55375 209.108571 
L 699.35375 209.108571 
" style="fill:none;stroke:#b0b0b0;stroke-linecap:square;stroke-opacity:0.3;stroke-width:0.8;"/>
     </g>
     <g id="line2d_30">
      <g>
       <use style="stroke:#000000;stroke-width:0.8;" x="85.55375" xlink:href="#m881871cecb" y="209.108571"/>
      </g>
     </g>
     <g id="text_15">
      <!-- −0.25 -->
      <g transform="translate(34.09375 214.996071)scale(0.16 -0.16)">
       <use xlink:href="#Charter-8722"/>
       <use x="83.299988" xlink:href="#Charter-48"/>
       <use x="138.899979" xlink:href="#Charter-46"/>
       <use x="166.699966" xlink:href="#Charter-50"/>
       <use x="222.299957" xlink:href="#Charter-53"/>
      </g>
     </g>
    </g>
    <g id="ytick_5">
     <g id="line2d_31">
      <path clip-path="url(#p8ef3e0576d)" d="M 85.55375 170.28 
L 699.35375 170.28 
" style="fill:none;stroke:#b0b0b0;stroke-linecap:square;stroke-opacity:0.3;stroke-width:0.8;"/>
     </g>
     <g id="line2d_32">
      <g>
       <use style="stroke:#000000;stroke-width:0.8;" x="85.55375" xlink:href="#m881871cecb" y="170.28"/>
      </g>
     </g>
     <g id="text_16">
      <!-- 0.00 -->
      <g transform="translate(47.42125 176.1675)scale(0.16 -0.16)">
       <use xlink:href="#Charter-48"/>
       <use x="55.599991" xlink:href="#Charter-46"/>
       <use x="83.399979" xlink:href="#Charter-48"/>
       <use x="138.999969" xlink:href="#Charter-48"/>
      </g>
     </g>
    </g>
    <g id="ytick_6">
     <g id="line2d_33">
      <path clip-path="url(#p8ef3e0576d)" d="M 85.55375 131.451429 
L 699.35375 131.451429 
" style="fill:none;stroke:#b0b0b0;stroke-linecap:square;stroke-opacity:0.3;stroke-width:0.8;"/>
     </g>
     <g id="line2d_34">
      <g>
       <use style="stroke:#000000;stroke-width:0.8;" x="85.55375" xlink:href="#m881871cecb" y="131.451429"/>
      </g>
     </g>
     <g id="text_17">
      <!-- 0.25 -->
      <g transform="translate(47.42125 137.338929)scale(0.16 -0.16)">
       <use xlink:href="#Charter-48"/>
       <use x="55.599991" xlink:href="#Charter-46"/>
       <use x="83.399979" xlink:href="#Charter-50"/>
       <use x="138.999969" xlink:href="#Charter-53"/>
      </g>
     </g>
    </g>
    <g id="ytick_7">
     <g id="line2d_35">
      <path clip-path="url(#p8ef3e0576d)" d="M 85.55375 92.622857 
L 699.35375 92.622857 
" style="fill:none;stroke:#b0b0b0;stroke-linecap:square;stroke-opacity:0.3;stroke-width:0.8;"/>
     </g>
     <g id="line2d_36">
      <g>
       <use style="stroke:#000000;stroke-width:0.8;" x="85.55375" xlink:href="#m881871cecb" y="92.622857"/>
      </g>
     </g>
     <g id="text_18">
      <!-- 0.50 -->
      <g transform="translate(47.42125 98.510357)scale(0.16 -0.16)">
       <use xlink:href="#Charter-48"/>
       <use x="55.599991" xlink:href="#Charter-46"/>
       <use x="83.399979" xlink:href="#Charter-53"/>
       <use x="138.999969" xlink:href="#Charter-48"/>
      </g>
     </g>
    </g>
    <g id="ytick_8">
     <g id="line2d_37">
      <path clip-path="url(#p8ef3e0576d)" d="M 85.55375 53.794286 
L 699.35375 53.794286 
" style="fill:none;stroke:#b0b0b0;stroke-linecap:square;stroke-opacity:0.3;stroke-width:0.8;"/>
     </g>
     <g id="line2d_38">
      <g>
       <use style="stroke:#000000;stroke-width:0.8;" x="85.55375" xlink:href="#m881871cecb" y="53.794286"/>
      </g>
     </g>
     <g id="text_19">
      <!-- 0.75 -->
      <g transform="translate(47.42125 59.681786)scale(0.16 -0.16)">
       <use xlink:href="#Charter-48"/>
       <use x="55.599991" xlink:href="#Charter-46"/>
       <use x="83.399979" xlink:href="#Charter-55"/>
       <use x="138.999969" xlink:href="#Charter-53"/>
      </g>
     </g>
    </g>
    <g id="ytick_9">
     <g id="line2d_39">
      <path clip-path="url(#p8ef3e0576d)" d="M 85.55375 14.965714 
L 699.35375 14.965714 
" style="fill:none;stroke:#b0b0b0;stroke-linecap:square;stroke-opacity:0.3;stroke-width:0.8;"/>
     </g>
     <g id="line2d_40">
      <g>
       <use style="stroke:#000000;stroke-width:0.8;" x="85.55375" xlink:href="#m881871cecb" y="14.965714"/>
      </g>
     </g>
     <g id="text_20">
      <!-- 1.00 -->
      <g transform="translate(47.42125 20.853214)scale(0.16 -0.16)">
       <use xlink:href="#Charter-49"/>
       <use x="55.599991" xlink:href="#Charter-46"/>
       <use x="83.399979" xlink:href="#Charter-48"/>
       <use x="138.999969" xlink:href="#Charter-48"/>
      </g>
     </g>
    </g>
    <g id="text_21">
     <!-- Weight [-] -->
     <defs>
      <path d="M 6.296875 61.703125 
L 0 63.09375 
L 0 67.09375 
L 22.40625 67.09375 
L 22.40625 63.09375 
L 16.09375 62.296875 
L 15.296875 60.90625 
L 28.203125 14.703125 
L 44.296875 67.09375 
L 51.296875 67.09375 
L 67.703125 13.59375 
L 79.796875 60.5 
L 78.703125 61.90625 
L 72 63.09375 
L 72 67.09375 
L 92.703125 67.09375 
L 92.703125 63.09375 
L 86 61.703125 
L 70.09375 0 
L 63.296875 0 
L 46.40625 54.703125 
L 29.796875 0 
L 23.09375 0 
z
" id="Charter-87"/>
      <path d="M 44.796875 5.09375 
Q 40.296875 2.09375 35.546875 0.59375 
Q 30.796875 -0.90625 26 -0.90625 
Q 21 -0.90625 16.890625 0.890625 
Q 12.796875 2.703125 9.890625 5.890625 
Q 7 9.09375 5.34375 13.640625 
Q 3.703125 18.203125 3.703125 23.703125 
Q 3.703125 29.40625 5.390625 34.046875 
Q 7.09375 38.703125 10.1875 42.046875 
Q 13.296875 45.40625 17.546875 47.25 
Q 21.796875 49.09375 26.796875 49.09375 
Q 35 49.09375 39.890625 43.890625 
Q 44.796875 38.703125 44.796875 29.40625 
Q 44.796875 28.59375 44.796875 27.84375 
Q 44.796875 27.09375 44.703125 26.296875 
L 12.296875 26.296875 
L 12.296875 25.203125 
Q 12.296875 15.5 16.890625 10.140625 
Q 21.5 4.796875 29.09375 4.796875 
Q 32.90625 4.796875 36.703125 6.25 
Q 40.5 7.703125 44.796875 10.59375 
z
M 35.90625 32.09375 
Q 35.90625 38.203125 33.25 41.390625 
Q 30.59375 44.59375 25.5 44.59375 
Q 23.09375 44.59375 20.890625 43.59375 
Q 18.703125 42.59375 16.953125 40.75 
Q 15.203125 38.90625 14.09375 36.296875 
Q 13 33.703125 12.796875 30.5 
L 35.90625 30.5 
z
" id="Charter-101"/>
      <path d="M 15.40625 70.796875 
Q 17.796875 70.796875 19.5 69.09375 
Q 21.203125 67.40625 21.203125 65 
Q 21.203125 62.59375 19.5 60.9375 
Q 17.796875 59.296875 15.40625 59.296875 
Q 13 59.296875 11.296875 60.9375 
Q 9.59375 62.59375 9.59375 65 
Q 9.59375 67.5 11.296875 69.140625 
Q 13 70.796875 15.40625 70.796875 
z
M 18.796875 48.59375 
L 18.796875 5.703125 
L 20.59375 4.09375 
L 26 3.59375 
L 26 0 
L 3.5 0 
L 3.5 3.59375 
L 8.796875 4.09375 
L 10.5 5.703125 
L 10.5 41.90625 
L 3.5 41.90625 
L 3.5 45 
L 15 48.59375 
z
" id="Charter-105"/>
      <path d="M 51.203125 46.296875 
L 51.203125 41.59375 
L 40.203125 41.59375 
Q 43 37.296875 43 32.296875 
Q 43 29 41.640625 26.140625 
Q 40.296875 23.296875 37.796875 21.1875 
Q 35.296875 19.09375 31.75 17.890625 
Q 28.203125 16.703125 23.90625 16.703125 
L 22.203125 16.703125 
Q 21.09375 14.5 21.09375 12.203125 
Q 21.09375 11.796875 21.140625 11.1875 
Q 21.203125 10.59375 21.296875 9.796875 
L 30.90625 8.296875 
Q 35.296875 7.59375 38.5 6.640625 
Q 41.703125 5.703125 43.796875 4.25 
Q 45.90625 2.796875 46.90625 0.796875 
Q 47.90625 -1.203125 47.90625 -4 
Q 47.90625 -6.796875 46.34375 -9.796875 
Q 44.796875 -12.796875 41.90625 -15.203125 
Q 37.90625 -18.40625 32.84375 -20.09375 
Q 27.796875 -21.796875 22.09375 -21.796875 
Q 13.40625 -21.796875 8.703125 -18.34375 
Q 4 -14.90625 4 -8.90625 
Q 4 -4.09375 6.84375 -0.75 
Q 9.703125 2.59375 14.796875 3.5 
Q 13.796875 5.796875 13.796875 8 
Q 13.796875 11.796875 18.59375 17.5 
Q 12.796875 18.796875 9.5 22.84375 
Q 6.203125 26.90625 6.203125 32.59375 
Q 6.203125 36.203125 7.546875 39.25 
Q 8.90625 42.296875 11.453125 44.5 
Q 14 46.703125 17.59375 47.890625 
Q 21.203125 49.09375 25.59375 49.09375 
Q 31.296875 49.09375 36.90625 46.296875 
z
M 24.59375 45.203125 
Q 20.203125 45.203125 17.5 41.953125 
Q 14.796875 38.703125 14.796875 32.90625 
Q 14.796875 27.203125 17.5 23.890625 
Q 20.203125 20.59375 24.59375 20.59375 
Q 29 20.59375 31.703125 23.890625 
Q 34.40625 27.203125 34.40625 32.90625 
Q 34.40625 38.59375 31.703125 41.890625 
Q 29 45.203125 24.59375 45.203125 
z
M 20.59375 3 
Q 16.40625 1.703125 14.203125 -0.890625 
Q 12 -3.5 12 -6.796875 
Q 12 -11.203125 15.703125 -14.203125 
Q 19.40625 -17.203125 25.59375 -17.203125 
Q 28.90625 -17.203125 31.65625 -16.34375 
Q 34.40625 -15.5 36.34375 -14 
Q 38.296875 -12.5 39.390625 -10.59375 
Q 40.5 -8.703125 40.5 -6.59375 
Q 40.5 -4.59375 39.890625 -3.296875 
Q 39.296875 -2 38.046875 -1.140625 
Q 36.796875 -0.296875 34.84375 0.203125 
Q 32.90625 0.703125 30.296875 1.203125 
z
" id="Charter-103"/>
      <path d="M 17.90625 73.59375 
L 17.90625 43.09375 
Q 23 45.90625 26.953125 47.5 
Q 30.90625 49.09375 34.09375 49.09375 
Q 40.703125 49.09375 44.09375 45.25 
Q 47.5 41.40625 47.5 33.90625 
L 47.5 5.703125 
L 49.296875 4.09375 
L 54.59375 3.59375 
L 54.59375 0 
L 32.796875 0 
L 32.796875 3.59375 
L 37.5 4.09375 
L 39.203125 5.703125 
L 39.203125 32.203125 
Q 39.203125 37.703125 36.953125 40.09375 
Q 34.703125 42.5 29.09375 42.5 
Q 24.296875 42.5 17.90625 39.203125 
L 17.90625 5.703125 
L 19.703125 4.09375 
L 24.40625 3.59375 
L 24.40625 0 
L 2.5 0 
L 2.5 3.59375 
L 7.90625 4.09375 
L 9.59375 5.703125 
L 9.59375 66.90625 
L 1.90625 66.90625 
L 1.90625 70 
L 14.09375 73.59375 
z
" id="Charter-104"/>
      <path d="M 2.5 42.09375 
L 2.5 45.203125 
L 9.09375 48.09375 
L 13.40625 57.40625 
L 17.09375 57.40625 
L 17.09375 46.796875 
L 32.296875 46.796875 
L 32.296875 42.09375 
L 17.09375 42.09375 
L 17.09375 15.703125 
Q 17.09375 12.796875 17.390625 10.75 
Q 17.703125 8.703125 18.59375 7.390625 
Q 19.5 6.09375 21.140625 5.4375 
Q 22.796875 4.796875 25.40625 4.796875 
Q 28.59375 4.796875 32.296875 5.59375 
L 32.296875 1.90625 
Q 28.796875 0.796875 25.4375 0.25 
Q 22.09375 -0.296875 19.203125 -0.296875 
Q 13 -0.296875 10.890625 2.09375 
Q 8.796875 4.5 8.796875 9.796875 
L 8.796875 42.09375 
z
" id="Charter-116"/>
      <path id="Charter-32"/>
      <path d="M 37.59375 70.796875 
L 37.59375 66.5 
L 21.796875 66.5 
L 21.796875 -9 
L 37.59375 -9 
L 37.59375 -13.203125 
L 13.90625 -13.203125 
L 13.90625 70.796875 
z
" id="Charter-91"/>
      <path d="M 27.203125 27.40625 
L 27.203125 20.703125 
L 4.703125 20.703125 
L 4.703125 27.40625 
z
" id="Charter-45"/>
      <path d="M 28.203125 70.796875 
L 28.203125 -13.296875 
L 4.59375 -13.296875 
L 4.59375 -9 
L 20.40625 -9 
L 20.40625 66.5 
L 4.59375 66.5 
L 4.59375 70.796875 
z
" id="Charter-93"/>
     </defs>
     <g transform="translate(24.8625 224.986875)rotate(-90)scale(0.24 -0.24)">
      <use xlink:href="#Charter-87"/>
      <use x="92.799988" xlink:href="#Charter-101"/>
      <use x="141.899979" xlink:href="#Charter-105"/>
      <use x="169.899963" xlink:href="#Charter-103"/>
      <use x="222.199951" xlink:href="#Charter-104"/>
      <use x="278.599945" xlink:href="#Charter-116"/>
      <use x="311.999939" xlink:href="#Charter-32"/>
      <use x="339.799927" xlink:href="#Charter-91"/>
      <use x="381.899918" xlink:href="#Charter-45"/>
      <use x="413.799911" xlink:href="#Charter-93"/>
     </g>
    </g>
   </g>
   <g id="patch_3">
    <path clip-path="url(#p8ef3e0576d)" d="M 134.14625 170.28 
L 139.26125 170.28 
L 139.26125 235.208774 
L 134.14625 235.208774 
z
" style="fill:#3b4cc0;stroke:#3b4cc0;stroke-linejoin:miter;"/>
   </g>
   <g id="patch_4">
    <path clip-path="url(#p8ef3e0576d)" d="M 185.29625 170.28 
L 190.41125 170.28 
L 190.41125 108.432512 
L 185.29625 108.432512 
z
" style="fill:#3b4cc0;stroke:#3b4cc0;stroke-linejoin:miter;"/>
   </g>
   <g id="patch_5">
    <path clip-path="url(#p8ef3e0576d)" d="M 236.44625 170.28 
L 241.56125 170.28 
L 241.56125 174.168911 
L 236.44625 174.168911 
z
" style="fill:#3b4cc0;stroke:#3b4cc0;stroke-linejoin:miter;"/>
   </g>
   <g id="patch_6">
    <path clip-path="url(#p8ef3e0576d)" d="M 287.59625 170.28 
L 292.71125 170.28 
L 292.71125 207.791559 
L 287.59625 207.791559 
z
" style="fill:#3b4cc0;stroke:#3b4cc0;stroke-linejoin:miter;"/>
   </g>
   <g id="patch_7">
    <path clip-path="url(#p8ef3e0576d)" d="M 338.74625 170.28 
L 343.86125 170.28 
L 343.86125 224.571755 
L 338.74625 224.571755 
z
" style="fill:#3b4cc0;stroke:#3b4cc0;stroke-linejoin:miter;"/>
   </g>
   <g id="patch_8">
    <path clip-path="url(#p8ef3e0576d)" d="M 389.89625 170.28 
L 395.01125 170.28 
L 395.01125 222.282134 
L 389.89625 222.282134 
z
" style="fill:#3b4cc0;stroke:#3b4cc0;stroke-linejoin:miter;"/>
   </g>
   <g id="patch_9">
    <path clip-path="url(#p8ef3e0576d)" d="M 441.04625 170.28 
L 446.16125 170.28 
L 446.16125 196.630862 
L 441.04625 196.630862 
z
" style="fill:#3b4cc0;stroke:#3b4cc0;stroke-linejoin:miter;"/>
   </g>
   <g id="patch_10">
    <path clip-path="url(#p8ef3e0576d)" d="M 492.19625 170.28 
L 497.31125 170.28 
L 497.31125 178.284797 
L 492.19625 178.284797 
z
" style="fill:#3b4cc0;stroke:#3b4cc0;stroke-linejoin:miter;"/>
   </g>
   <g id="patch_11">
    <path clip-path="url(#p8ef3e0576d)" d="M 543.34625 170.28 
L 548.46125 170.28 
L 548.46125 113.247656 
L 543.34625 113.247656 
z
" style="fill:#3b4cc0;stroke:#3b4cc0;stroke-linejoin:miter;"/>
   </g>
   <g id="patch_12">
    <path clip-path="url(#p8ef3e0576d)" d="M 594.49625 170.28 
L 599.61125 170.28 
L 599.61125 236.575421 
L 594.49625 236.575421 
z
" style="fill:#3b4cc0;stroke:#3b4cc0;stroke-linejoin:miter;"/>
   </g>
   <g id="patch_13">
    <path clip-path="url(#p8ef3e0576d)" d="M 645.64625 170.28 
L 650.76125 170.28 
L 650.76125 145.756608 
L 645.64625 145.756608 
z
" style="fill:#3b4cc0;stroke:#3b4cc0;stroke-linejoin:miter;"/>
   </g>
   <g id="patch_14">
    <path clip-path="url(#p8ef3e0576d)" d="M 139.26125 170.28 
L 144.37625 170.28 
L 144.37625 235.406738 
L 139.26125 235.406738 
z
" style="fill:#aac7fd;stroke:#aac7fd;stroke-linejoin:miter;"/>
   </g>
   <g id="patch_15">
    <path clip-path="url(#p8ef3e0576d)" d="M 190.41125 170.28 
L 195.52625 170.28 
L 195.52625 96.284176 
L 190.41125 96.284176 
z
" style="fill:#aac7fd;stroke:#aac7fd;stroke-linejoin:miter;"/>
   </g>
   <g id="patch_16">
    <path clip-path="url(#p8ef3e0576d)" d="M 241.56125 170.28 
L 246.67625 170.28 
L 246.67625 178.42671 
L 241.56125 178.42671 
z
" style="fill:#aac7fd;stroke:#aac7fd;stroke-linejoin:miter;"/>
   </g>
   <g id="patch_17">
    <path clip-path="url(#p8ef3e0576d)" d="M 292.71125 170.28 
L 297.82625 170.28 
L 297.82625 187.610875 
L 292.71125 187.610875 
z
" style="fill:#aac7fd;stroke:#aac7fd;stroke-linejoin:miter;"/>
   </g>
   <g id="patch_18">
    <path clip-path="url(#p8ef3e0576d)" d="M 343.86125 170.28 
L 348.97625 170.28 
L 348.97625 212.884441 
L 343.86125 212.884441 
z
" style="fill:#aac7fd;stroke:#aac7fd;stroke-linejoin:miter;"/>
   </g>
   <g id="patch_19">
    <path clip-path="url(#p8ef3e0576d)" d="M 395.01125 170.28 
L 400.12625 170.28 
L 400.12625 223.837808 
L 395.01125 223.837808 
z
" style="fill:#aac7fd;stroke:#aac7fd;stroke-linejoin:miter;"/>
   </g>
   <g id="patch_20">
    <path clip-path="url(#p8ef3e0576d)" d="M 446.16125 170.28 
L 451.27625 170.28 
L 451.27625 180.631294 
L 446.16125 180.631294 
z
" style="fill:#aac7fd;stroke:#aac7fd;stroke-linejoin:miter;"/>
   </g>
   <g id="patch_21">
    <path clip-path="url(#p8ef3e0576d)" d="M 497.31125 170.28 
L 502.42625 170.28 
L 502.42625 171.886103 
L 497.31125 171.886103 
z
" style="fill:#aac7fd;stroke:#aac7fd;stroke-linejoin:miter;"/>
   </g>
   <g id="patch_22">
    <path clip-path="url(#p8ef3e0576d)" d="M 548.46125 170.28 
L 553.57625 170.28 
L 553.57625 101.440092 
L 548.46125 101.440092 
z
" style="fill:#aac7fd;stroke:#aac7fd;stroke-linejoin:miter;"/>
   </g>
   <g id="patch_23">
    <path clip-path="url(#p8ef3e0576d)" d="M 599.61125 170.28 
L 604.72625 170.28 
L 604.72625 236.494519 
L 599.61125 236.494519 
z
" style="fill:#aac7fd;stroke:#aac7fd;stroke-linejoin:miter;"/>
   </g>
   <g id="patch_24">
    <path clip-path="url(#p8ef3e0576d)" d="M 650.76125 170.28 
L 655.87625 170.28 
L 655.87625 159.219997 
L 650.76125 159.219997 
z
" style="fill:#aac7fd;stroke:#aac7fd;stroke-linejoin:miter;"/>
   </g>
   <g id="patch_25">
    <path clip-path="url(#p8ef3e0576d)" d="M 144.37625 170.28 
L 149.49125 170.28 
L 149.49125 274.346707 
L 144.37625 274.346707 
z
" style="fill:#f7b89c;stroke:#f7b89c;stroke-linejoin:miter;"/>
   </g>
   <g id="patch_26">
    <path clip-path="url(#p8ef3e0576d)" d="M 195.52625 170.28 
L 200.64125 170.28 
L 200.64125 140.917815 
L 195.52625 140.917815 
z
" style="fill:#f7b89c;stroke:#f7b89c;stroke-linejoin:miter;"/>
   </g>
   <g id="patch_27">
    <path clip-path="url(#p8ef3e0576d)" d="M 246.67625 170.28 
L 251.79125 170.28 
L 251.79125 164.366492 
L 246.67625 164.366492 
z
" style="fill:#f7b89c;stroke:#f7b89c;stroke-linejoin:miter;"/>
   </g>
   <g id="patch_28">
    <path clip-path="url(#p8ef3e0576d)" d="M 297.82625 170.28 
L 302.94125 170.28 
L 302.94125 174.85951 
L 297.82625 174.85951 
z
" style="fill:#f7b89c;stroke:#f7b89c;stroke-linejoin:miter;"/>
   </g>
   <g id="patch_29">
    <path clip-path="url(#p8ef3e0576d)" d="M 348.97625 170.28 
L 354.09125 170.28 
L 354.09125 185.867876 
L 348.97625 185.867876 
z
" style="fill:#f7b89c;stroke:#f7b89c;stroke-linejoin:miter;"/>
   </g>
   <g id="patch_30">
    <path clip-path="url(#p8ef3e0576d)" d="M 400.12625 170.28 
L 405.24125 170.28 
L 405.24125 241.977217 
L 400.12625 241.977217 
z
" style="fill:#f7b89c;stroke:#f7b89c;stroke-linejoin:miter;"/>
   </g>
   <g id="patch_31">
    <path clip-path="url(#p8ef3e0576d)" d="M 451.27625 170.28 
L 456.39125 170.28 
L 456.39125 174.402321 
L 451.27625 174.402321 
z
" style="fill:#f7b89c;stroke:#f7b89c;stroke-linejoin:miter;"/>
   </g>
   <g id="patch_32">
    <path clip-path="url(#p8ef3e0576d)" d="M 502.42625 170.28 
L 507.54125 170.28 
L 507.54125 169.421034 
L 502.42625 169.421034 
z
" style="fill:#f7b89c;stroke:#f7b89c;stroke-linejoin:miter;"/>
   </g>
   <g id="patch_33">
    <path clip-path="url(#p8ef3e0576d)" d="M 553.57625 170.28 
L 558.69125 170.28 
L 558.69125 138.613452 
L 553.57625 138.613452 
z
" style="fill:#f7b89c;stroke:#f7b89c;stroke-linejoin:miter;"/>
   </g>
   <g id="patch_34">
    <path clip-path="url(#p8ef3e0576d)" d="M 604.72625 170.28 
L 609.84125 170.28 
L 609.84125 247.437677 
L 604.72625 247.437677 
z
" style="fill:#f7b89c;stroke:#f7b89c;stroke-linejoin:miter;"/>
   </g>
   <g id="patch_35">
    <path clip-path="url(#p8ef3e0576d)" d="M 655.87625 170.28 
L 660.99125 170.28 
L 660.99125 166.122226 
L 655.87625 166.122226 
z
" style="fill:#f7b89c;stroke:#f7b89c;stroke-linejoin:miter;"/>
   </g>
   <g id="patch_36">
    <path clip-path="url(#p8ef3e0576d)" d="M 149.49125 170.28 
L 154.60625 170.28 
L 154.60625 14.995281 
L 149.49125 14.995281 
z
" style="fill:#b40426;stroke:#b40426;stroke-linejoin:miter;"/>
   </g>
   <g id="patch_37">
    <path clip-path="url(#p8ef3e0576d)" d="M 200.64125 170.28 
L 205.75625 170.28 
L 205.75625 170.485733 
L 200.64125 170.485733 
z
" style="fill:#b40426;stroke:#b40426;stroke-linejoin:miter;"/>
   </g>
   <g id="patch_38">
    <path clip-path="url(#p8ef3e0576d)" d="M 251.79125 170.28 
L 256.90625 170.28 
L 256.90625 170.705675 
L 251.79125 170.705675 
z
" style="fill:#b40426;stroke:#b40426;stroke-linejoin:miter;"/>
   </g>
   <g id="patch_39">
    <path clip-path="url(#p8ef3e0576d)" d="M 302.94125 170.28 
L 308.05625 170.28 
L 308.05625 170.226809 
L 302.94125 170.226809 
z
" style="fill:#b40426;stroke:#b40426;stroke-linejoin:miter;"/>
   </g>
   <g id="patch_40">
    <path clip-path="url(#p8ef3e0576d)" d="M 354.09125 170.28 
L 359.20625 170.28 
L 359.20625 170.176411 
L 354.09125 170.176411 
z
" style="fill:#b40426;stroke:#b40426;stroke-linejoin:miter;"/>
   </g>
   <g id="patch_41">
    <path clip-path="url(#p8ef3e0576d)" d="M 405.24125 170.28 
L 410.35625 170.28 
L 410.35625 169.824315 
L 405.24125 169.824315 
z
" style="fill:#b40426;stroke:#b40426;stroke-linejoin:miter;"/>
   </g>
   <g id="patch_42">
    <path clip-path="url(#p8ef3e0576d)" d="M 456.39125 170.28 
L 461.50625 170.28 
L 461.50625 170.265991 
L 456.39125 170.265991 
z
" style="fill:#b40426;stroke:#b40426;stroke-linejoin:miter;"/>
   </g>
   <g id="patch_43">
    <path clip-path="url(#p8ef3e0576d)" d="M 507.54125 170.28 
L 512.65625 170.28 
L 512.65625 170.281581 
L 507.54125 170.281581 
z
" style="fill:#b40426;stroke:#b40426;stroke-linejoin:miter;"/>
   </g>
   <g id="patch_44">
    <path clip-path="url(#p8ef3e0576d)" d="M 558.69125 170.28 
L 563.80625 170.28 
L 563.80625 172.38179 
L 558.69125 172.38179 
z
" style="fill:#b40426;stroke:#b40426;stroke-linejoin:miter;"/>
   </g>
   <g id="patch_45">
    <path clip-path="url(#p8ef3e0576d)" d="M 609.84125 170.28 
L 614.95625 170.28 
L 614.95625 168.201309 
L 609.84125 168.201309 
z
" style="fill:#b40426;stroke:#b40426;stroke-linejoin:miter;"/>
   </g>
   <g id="patch_46">
    <path clip-path="url(#p8ef3e0576d)" d="M 660.99125 170.28 
L 666.10625 170.28 
L 666.10625 170.282735 
L 660.99125 170.282735 
z
" style="fill:#b40426;stroke:#b40426;stroke-linejoin:miter;"/>
   </g>
   <g id="patch_47">
    <path d="M 85.55375 333.36 
L 85.55375 7.2 
" style="fill:none;stroke:#000000;stroke-linecap:square;stroke-linejoin:miter;stroke-width:0.8;"/>
   </g>
   <g id="patch_48">
    <path d="M 699.35375 333.36 
L 699.35375 7.2 
" style="fill:none;stroke:#000000;stroke-linecap:square;stroke-linejoin:miter;stroke-width:0.8;"/>
   </g>
   <g id="patch_49">
    <path d="M 85.55375 333.36 
L 699.35375 333.36 
" style="fill:none;stroke:#000000;stroke-linecap:square;stroke-linejoin:miter;stroke-width:0.8;"/>
   </g>
   <g id="patch_50">
    <path d="M 85.55375 7.2 
L 699.35375 7.2 
" style="fill:none;stroke:#000000;stroke-linecap:square;stroke-linejoin:miter;stroke-width:0.8;"/>
   </g>
   <g id="legend_1">
    <g id="patch_51">
     <path d="M 177.76375 420.3465 
L 611.14375 420.3465 
Q 614.34375 420.3465 614.34375 417.1465 
L 614.34375 395.484 
Q 614.34375 392.284 611.14375 392.284 
L 177.76375 392.284 
Q 174.56375 392.284 174.56375 395.484 
L 174.56375 417.1465 
Q 174.56375 420.3465 177.76375 420.3465 
z
" style="fill:#4c4c4c;opacity:0.5;stroke:#4c4c4c;stroke-linejoin:miter;"/>
    </g>
    <g id="patch_52">
     <path d="M 175.76375 418.3465 
L 609.14375 418.3465 
Q 612.34375 418.3465 612.34375 415.1465 
L 612.34375 393.484 
Q 612.34375 390.284 609.14375 390.284 
L 175.76375 390.284 
Q 172.56375 390.284 172.56375 393.484 
L 172.56375 415.1465 
Q 172.56375 418.3465 175.76375 418.3465 
z
" style="fill:#ffffff;stroke:#cccccc;stroke-linejoin:miter;"/>
    </g>
    <g id="patch_53">
     <path d="M 178.96375 408.459 
L 210.96375 408.459 
L 210.96375 397.259 
L 178.96375 397.259 
z
" style="fill:#3b4cc0;stroke:#3b4cc0;stroke-linejoin:miter;"/>
    </g>
    <g id="text_22">
     <!-- Auto -->
     <defs>
      <path d="M 35 67.90625 
L 59 5.296875 
L 65 4.09375 
L 65 0 
L 42.296875 0 
L 42.296875 4.09375 
L 48.5 4.59375 
L 49.203125 6 
L 42 25.09375 
L 18.40625 25.09375 
L 11.296875 6 
L 12.296875 4.59375 
L 18.796875 4.09375 
L 18.796875 0 
L -0.796875 0 
L -0.796875 4.09375 
L 5 5.296875 
L 28.40625 67.90625 
z
M 20.09375 29.703125 
L 40.296875 29.703125 
L 30 57.40625 
z
" id="Charter-65"/>
      <path d="M 18 49.09375 
L 18 16 
Q 18 10.59375 20.296875 8 
Q 22.59375 5.40625 27.703125 5.40625 
Q 33.09375 5.40625 39.296875 8.40625 
L 39.296875 42.296875 
L 32.203125 42.296875 
L 32.203125 45.40625 
L 43.796875 49.09375 
L 47.59375 49.09375 
L 47.59375 5.703125 
L 49.40625 4.09375 
L 54.09375 3.59375 
L 54.09375 0 
L 39.296875 0 
L 39.296875 5.59375 
Q 34.796875 2.40625 30.796875 0.703125 
Q 26.796875 -1 23.09375 -1 
Q 16.59375 -1 13.140625 2.890625 
Q 9.703125 6.796875 9.703125 14.296875 
L 9.703125 42.296875 
L 2.59375 42.296875 
L 2.59375 45.40625 
L 14.203125 49.09375 
z
" id="Charter-117"/>
      <path d="M 26.90625 49.09375 
Q 32 49.09375 36.25 47.25 
Q 40.5 45.40625 43.59375 42.09375 
Q 46.703125 38.796875 48.453125 34.1875 
Q 50.203125 29.59375 50.203125 24.09375 
Q 50.203125 18.5 48.453125 13.890625 
Q 46.703125 9.296875 43.59375 6 
Q 40.5 2.703125 36.203125 0.890625 
Q 31.90625 -0.90625 26.90625 -0.90625 
Q 21.90625 -0.90625 17.65625 0.890625 
Q 13.40625 2.703125 10.296875 6 
Q 7.203125 9.296875 5.453125 13.890625 
Q 3.703125 18.5 3.703125 24.09375 
Q 3.703125 29.703125 5.453125 34.296875 
Q 7.203125 38.90625 10.25 42.203125 
Q 13.296875 45.5 17.546875 47.296875 
Q 21.796875 49.09375 26.90625 49.09375 
z
M 26.90625 44.796875 
Q 20.796875 44.796875 16.9375 39.34375 
Q 13.09375 33.90625 13.09375 24.09375 
Q 13.09375 19.296875 14.140625 15.4375 
Q 15.203125 11.59375 17 8.890625 
Q 18.796875 6.203125 21.34375 4.796875 
Q 23.90625 3.40625 26.90625 3.40625 
Q 33 3.40625 36.890625 8.84375 
Q 40.796875 14.296875 40.796875 24.09375 
Q 40.796875 33.796875 36.890625 39.296875 
Q 33 44.796875 26.90625 44.796875 
z
" id="Charter-111"/>
     </defs>
     <g transform="translate(223.76375 408.459)scale(0.16 -0.16)">
      <use xlink:href="#Charter-65"/>
      <use x="63.899994" xlink:href="#Charter-117"/>
      <use x="120.799988" xlink:href="#Charter-116"/>
      <use x="154.199982" xlink:href="#Charter-111"/>
     </g>
    </g>
    <g id="patch_54">
     <path d="M 289.06375 408.459 
L 321.06375 408.459 
L 321.06375 397.259 
L 289.06375 397.259 
z
" style="fill:#aac7fd;stroke:#aac7fd;stroke-linejoin:miter;"/>
    </g>
    <g id="text_23">
     <!-- Range -->
     <defs>
      <path d="M 28.796875 67.09375 
Q 41 67.09375 46.953125 62.75 
Q 52.90625 58.40625 52.90625 49.09375 
Q 52.90625 36.09375 36.703125 32.5 
Q 44.09375 30.5 47 25.796875 
Q 48 24.09375 48.640625 22.1875 
Q 49.296875 20.296875 49.75 18.390625 
Q 50.203125 16.5 50.59375 14.640625 
Q 51 12.796875 51.703125 11 
Q 52.5 8.796875 53.59375 7.390625 
Q 54.703125 6 56.203125 5.25 
Q 57.703125 4.5 59.75 4.203125 
Q 61.796875 3.90625 64.703125 3.90625 
L 65.59375 3.90625 
L 65.59375 0.09375 
Q 61.09375 -0.796875 57.796875 -0.796875 
Q 51 -0.796875 47.703125 2.09375 
Q 45.90625 3.703125 44.84375 5.640625 
Q 43.796875 7.59375 43.046875 9.796875 
Q 42.296875 12 41.75 14.390625 
Q 41.203125 16.796875 40.40625 19.203125 
Q 39.40625 22.296875 38.09375 24.34375 
Q 36.796875 26.40625 34.9375 27.65625 
Q 33.09375 28.90625 30.59375 29.453125 
Q 28.09375 30 24.703125 30 
Q 23.59375 30 22.34375 29.953125 
Q 21.09375 29.90625 19.703125 29.796875 
L 19.703125 6 
L 21.40625 4.59375 
L 27.09375 4.09375 
L 27.09375 0 
L 3.296875 0 
L 3.296875 4.09375 
L 9 4.59375 
L 10.703125 6 
L 10.703125 61.09375 
L 9 62.5 
L 3.296875 63.09375 
L 3.296875 67.09375 
z
M 19.703125 34.59375 
Q 22 34.5 23.34375 34.5 
Q 24.703125 34.5 25.203125 34.5 
Q 34.296875 34.5 38.59375 37.640625 
Q 42.90625 40.796875 42.90625 48.296875 
Q 42.90625 56.09375 38.40625 59.296875 
Q 33.90625 62.5 24.5 62.5 
L 19.703125 62.5 
z
" id="Charter-82"/>
      <path d="M 33.40625 5.796875 
Q 28.59375 2.59375 24.59375 0.9375 
Q 20.59375 -0.703125 17 -0.703125 
Q 11 -0.703125 7.59375 2.84375 
Q 4.203125 6.40625 4.203125 12.09375 
Q 4.203125 16 5.953125 18.640625 
Q 7.703125 21.296875 11.296875 23.296875 
Q 14.90625 25.296875 20.40625 26.890625 
Q 25.90625 28.5 33.40625 30.296875 
L 33.40625 33.5 
Q 33.40625 39.5 31.5 42.09375 
Q 29.59375 44.703125 24.203125 44.703125 
Q 20.5 44.703125 16.59375 43.09375 
L 16.59375 34.703125 
L 9.703125 34.703125 
Q 8 34.703125 7.296875 35.34375 
Q 6.59375 36 6.59375 37.796875 
Q 6.59375 40.09375 8 42.140625 
Q 9.40625 44.203125 12 45.75 
Q 14.59375 47.296875 18.34375 48.1875 
Q 22.09375 49.09375 26.796875 49.09375 
Q 34.703125 49.09375 38.203125 45.6875 
Q 41.703125 42.296875 41.703125 34.703125 
L 41.703125 5.703125 
L 43.5 4.09375 
L 48.796875 3.59375 
L 48.796875 0 
L 34.703125 0 
z
M 33.40625 26.796875 
Q 28.09375 25.296875 24.25 24 
Q 20.40625 22.703125 17.90625 21.140625 
Q 15.40625 19.59375 14.203125 17.59375 
Q 13 15.59375 13 12.90625 
Q 13 9.203125 15.09375 6.953125 
Q 17.203125 4.703125 21 4.703125 
Q 23.5 4.703125 26.546875 5.84375 
Q 29.59375 7 33.40625 9.203125 
z
" id="Charter-97"/>
      <path d="M 3 3.59375 
L 8.40625 4.09375 
L 10.09375 5.703125 
L 10.09375 41.90625 
L 3 41.90625 
L 3 45 
L 14.59375 48.59375 
L 18.40625 48.59375 
L 18.40625 43.09375 
Q 23.5 45.90625 27.390625 47.5 
Q 31.296875 49.09375 34.5 49.09375 
Q 41.09375 49.09375 44.546875 45.25 
Q 48 41.40625 48 33.90625 
L 48 5.703125 
L 49.703125 4.09375 
L 55.09375 3.59375 
L 55.09375 0 
L 33.203125 0 
L 33.203125 3.59375 
L 38 4.09375 
L 39.703125 5.703125 
L 39.703125 32.203125 
Q 39.703125 37.703125 37.453125 40.09375 
Q 35.203125 42.5 29.59375 42.5 
Q 24.796875 42.5 18.40625 39.203125 
L 18.40625 5.703125 
L 20.09375 4.09375 
L 24.90625 3.59375 
L 24.90625 0 
L 3 0 
z
" id="Charter-110"/>
     </defs>
     <g transform="translate(333.86375 408.459)scale(0.16 -0.16)">
      <use xlink:href="#Charter-82"/>
      <use x="64.599991" xlink:href="#Charter-97"/>
      <use x="115.299988" xlink:href="#Charter-110"/>
      <use x="172.099976" xlink:href="#Charter-103"/>
      <use x="224.399963" xlink:href="#Charter-101"/>
     </g>
    </g>
    <g id="patch_55">
     <path d="M 409.62125 408.459 
L 441.62125 408.459 
L 441.62125 397.259 
L 409.62125 397.259 
z
" style="fill:#f7b89c;stroke:#f7b89c;stroke-linejoin:miter;"/>
    </g>
    <g id="text_24">
     <!-- Vast -->
     <defs>
      <path d="M 21 67.09375 
L 21 63.09375 
L 15.203125 62.5 
L 14.09375 61.09375 
L 32.90625 10.703125 
L 51 61.09375 
L 50 62.5 
L 43.796875 63.09375 
L 43.796875 67.09375 
L 63.703125 67.09375 
L 63.703125 63.09375 
L 57.5 61.90625 
L 34.5 -0.5 
L 27.59375 -0.5 
L 4.09375 61.90625 
L -2.296875 63.09375 
L -2.296875 67.09375 
z
" id="Charter-86"/>
      <path d="M 34.40625 35.59375 
L 29.5 35.59375 
L 28.703125 42.703125 
Q 24.796875 44.796875 21.296875 44.796875 
Q 17.296875 44.796875 15.140625 42.890625 
Q 13 41 13 37.59375 
Q 13 34.40625 15.140625 32.453125 
Q 17.296875 30.5 21.5 28.5 
Q 24.09375 27.203125 26.84375 25.953125 
Q 29.59375 24.703125 32.09375 22.703125 
Q 35.90625 19.703125 35.90625 14.09375 
Q 35.90625 7.09375 31 3.09375 
Q 26.09375 -0.90625 17.203125 -0.90625 
Q 13.40625 -0.90625 10.09375 -0.34375 
Q 6.796875 0.203125 4.203125 1.203125 
L 4.203125 14.203125 
L 9 14.203125 
L 10.203125 5.703125 
Q 14.40625 3.296875 18.703125 3.296875 
Q 23.09375 3.296875 25.59375 5.59375 
Q 28.09375 7.90625 28.09375 11.40625 
Q 28.09375 13.296875 27.4375 14.6875 
Q 26.796875 16.09375 25.5 17.1875 
Q 24.203125 18.296875 22.296875 19.296875 
Q 20.40625 20.296875 17.90625 21.40625 
Q 11.5 24.203125 8.25 27.140625 
Q 5 30.09375 5 35.09375 
Q 5 41.703125 9.546875 45.390625 
Q 14.09375 49.09375 22.703125 49.09375 
Q 29.40625 49.09375 34.40625 46.90625 
z
" id="Charter-115"/>
     </defs>
     <g transform="translate(454.42125 408.459)scale(0.16 -0.16)">
      <use xlink:href="#Charter-86"/>
      <use x="61.799988" xlink:href="#Charter-97"/>
      <use x="112.499985" xlink:href="#Charter-115"/>
      <use x="152.499969" xlink:href="#Charter-116"/>
     </g>
    </g>
    <g id="patch_56">
     <path d="M 516.16625 408.459 
L 548.16625 408.459 
L 548.16625 397.259 
L 516.16625 397.259 
z
" style="fill:#b40426;stroke:#b40426;stroke-linejoin:miter;"/>
    </g>
    <g id="text_25">
     <!-- Pareto -->
     <defs>
      <path d="M 3.296875 4.09375 
L 9 4.59375 
L 10.703125 6 
L 10.703125 61.09375 
L 9 62.5 
L 2.5 63.09375 
L 2.5 67.09375 
L 25.296875 67.09375 
Q 32.5 67.09375 37.75 66.046875 
Q 43 65 46.390625 62.59375 
Q 49.796875 60.203125 51.4375 56.296875 
Q 53.09375 52.40625 53.09375 46.703125 
Q 53.09375 41.90625 51.296875 37.953125 
Q 49.5 34 46.140625 31.140625 
Q 42.796875 28.296875 38 26.75 
Q 33.203125 25.203125 27.203125 25.203125 
Q 25.796875 25.203125 23.890625 25.34375 
Q 22 25.5 19.703125 25.703125 
L 19.703125 6 
L 21.40625 4.59375 
L 28.5 4.09375 
L 28.5 0 
L 3.296875 0 
z
M 19.703125 30.5 
Q 21.90625 30.296875 23.546875 30.140625 
Q 25.203125 30 26.296875 30 
Q 34.90625 30 39.34375 34.296875 
Q 43.796875 38.59375 43.796875 46.90625 
Q 43.796875 55 39.1875 58.75 
Q 34.59375 62.5 24.90625 62.5 
Q 23.703125 62.5 22.390625 62.5 
Q 21.09375 62.5 19.703125 62.296875 
z
" id="Charter-80"/>
      <path d="M 3 3.59375 
L 8.296875 4.09375 
L 10.09375 5.703125 
L 10.09375 41.90625 
L 3 41.90625 
L 3 45 
L 14.59375 48.59375 
L 18.40625 48.59375 
L 18.40625 39.203125 
Q 21 41.90625 23.703125 44.296875 
Q 26.40625 46.703125 29.09375 48.90625 
Q 29.703125 49.09375 30.34375 49.09375 
Q 31 49.09375 31.59375 49.09375 
Q 34.59375 49.09375 37.59375 47.796875 
L 37.59375 39.203125 
L 34.40625 39.203125 
Q 32.40625 41.59375 29.296875 41.59375 
Q 24.59375 41.59375 18.40625 34.296875 
L 18.40625 5.703125 
L 20.09375 4.09375 
L 27.09375 3.59375 
L 27.09375 0 
L 3 0 
z
" id="Charter-114"/>
     </defs>
     <g transform="translate(560.96625 408.459)scale(0.16 -0.16)">
      <use xlink:href="#Charter-80"/>
      <use x="55.799988" xlink:href="#Charter-97"/>
      <use x="106.499985" xlink:href="#Charter-114"/>
      <use x="144.699982" xlink:href="#Charter-101"/>
      <use x="193.799973" xlink:href="#Charter-116"/>
      <use x="227.199966" xlink:href="#Charter-111"/>
     </g>
    </g>
   </g>
  </g>
 </g>
 <defs>
  <clipPath id="p8ef3e0576d">
   <rect height="326.16" width="613.8" x="85.55375" y="7.2"/>
  </clipPath>
 </defs>
</svg>
