<?xml version="1.0" encoding="utf-8" standalone="no"?>
<!DOCTYPE svg PUBLIC "-//W3C//DTD SVG 1.1//EN"
  "http://www.w3.org/Graphics/SVG/1.1/DTD/svg11.dtd">
<!-- Created with matplotlib (https://matplotlib.org/) -->
<svg height="226.63625pt" version="1.1" viewBox="0 0 414.22625 226.63625" width="414.22625pt" xmlns="http://www.w3.org/2000/svg" xmlns:xlink="http://www.w3.org/1999/xlink">
 <defs>
  <style type="text/css">
*{stroke-linecap:butt;stroke-linejoin:round;}
  </style>
 </defs>
 <g id="figure_1">
  <g id="patch_1">
   <path d="M 0 226.63625 
L 414.22625 226.63625 
L 414.22625 0 
L 0 0 
z
" style="fill:#ffffff;"/>
  </g>
  <g id="axes_1">
   <g id="patch_2">
    <path d="M 72.22625 170.28 
L 407.02625 170.28 
L 407.02625 7.2 
L 72.22625 7.2 
z
" style="fill:#ffffff;"/>
   </g>
   <g id="PathCollection_1">
    <defs>
     <path d="M 0 1.581139 
C 0.419323 1.581139 0.821528 1.41454 1.118034 1.118034 
C 1.41454 0.821528 1.581139 0.419323 1.581139 0 
C 1.581139 -0.419323 1.41454 -0.821528 1.118034 -1.118034 
C 0.821528 -1.41454 0.419323 -1.581139 0 -1.581139 
C -0.419323 -1.581139 -0.821528 -1.41454 -1.118034 -1.118034 
C -1.41454 -0.821528 -1.581139 -0.419323 -1.581139 0 
C -1.581139 0.419323 -1.41454 0.821528 -1.118034 1.118034 
C -0.821528 1.41454 -0.419323 1.581139 0 1.581139 
z
" id="C0_0_0d0fa9395f"/>
    </defs>
    <g clip-path="url(#p19b13ea95d)">
     <use x="88.159753" xlink:href="#C0_0_0d0fa9395f" y="161.457075"/>
    </g>
    <g clip-path="url(#p19b13ea95d)">
     <use x="91.219682" xlink:href="#C0_0_0d0fa9395f" y="155.639709"/>
    </g>
    <g clip-path="url(#p19b13ea95d)">
     <use x="94.279612" xlink:href="#C0_0_0d0fa9395f" y="149.941065"/>
    </g>
    <g clip-path="url(#p19b13ea95d)">
     <use x="97.339541" xlink:href="#C0_0_0d0fa9395f" y="144.361142"/>
    </g>
    <g clip-path="url(#p19b13ea95d)">
     <use x="100.39947" xlink:href="#C0_0_0d0fa9395f" y="138.899942"/>
    </g>
    <g clip-path="url(#p19b13ea95d)">
     <use x="103.459399" xlink:href="#C0_0_0d0fa9395f" y="133.557463"/>
    </g>
    <g clip-path="url(#p19b13ea95d)">
     <use x="106.519328" xlink:href="#C0_0_0d0fa9395f" y="128.333705"/>
    </g>
    <g clip-path="url(#p19b13ea95d)">
     <use x="109.579258" xlink:href="#C0_0_0d0fa9395f" y="123.22867"/>
    </g>
    <g clip-path="url(#p19b13ea95d)">
     <use x="112.639187" xlink:href="#C0_0_0d0fa9395f" y="118.242356"/>
    </g>
    <g clip-path="url(#p19b13ea95d)">
     <use x="115.699116" xlink:href="#C0_0_0d0fa9395f" y="113.374764"/>
    </g>
    <g clip-path="url(#p19b13ea95d)">
     <use x="118.759045" xlink:href="#C0_0_0d0fa9395f" y="108.625894"/>
    </g>
    <g clip-path="url(#p19b13ea95d)">
     <use x="121.818975" xlink:href="#C0_0_0d0fa9395f" y="103.995746"/>
    </g>
    <g clip-path="url(#p19b13ea95d)">
     <use x="124.878904" xlink:href="#C0_0_0d0fa9395f" y="99.484319"/>
    </g>
    <g clip-path="url(#p19b13ea95d)">
     <use x="127.938833" xlink:href="#C0_0_0d0fa9395f" y="95.091614"/>
    </g>
    <g clip-path="url(#p19b13ea95d)">
     <use x="130.998762" xlink:href="#C0_0_0d0fa9395f" y="90.817631"/>
    </g>
    <g clip-path="url(#p19b13ea95d)">
     <use x="134.058692" xlink:href="#C0_0_0d0fa9395f" y="86.662369"/>
    </g>
    <g clip-path="url(#p19b13ea95d)">
     <use x="137.118621" xlink:href="#C0_0_0d0fa9395f" y="82.62583"/>
    </g>
    <g clip-path="url(#p19b13ea95d)">
     <use x="140.17855" xlink:href="#C0_0_0d0fa9395f" y="78.708012"/>
    </g>
    <g clip-path="url(#p19b13ea95d)">
     <use x="143.238479" xlink:href="#C0_0_0d0fa9395f" y="74.908916"/>
    </g>
    <g clip-path="url(#p19b13ea95d)">
     <use x="146.298408" xlink:href="#C0_0_0d0fa9395f" y="71.228541"/>
    </g>
    <g clip-path="url(#p19b13ea95d)">
     <use x="149.358338" xlink:href="#C0_0_0d0fa9395f" y="67.666888"/>
    </g>
    <g clip-path="url(#p19b13ea95d)">
     <use x="152.418267" xlink:href="#C0_0_0d0fa9395f" y="64.223958"/>
    </g>
    <g clip-path="url(#p19b13ea95d)">
     <use x="155.478196" xlink:href="#C0_0_0d0fa9395f" y="60.899748"/>
    </g>
    <g clip-path="url(#p19b13ea95d)">
     <use x="158.538125" xlink:href="#C0_0_0d0fa9395f" y="57.694261"/>
    </g>
    <g clip-path="url(#p19b13ea95d)">
     <use x="161.598055" xlink:href="#C0_0_0d0fa9395f" y="54.607495"/>
    </g>
    <g clip-path="url(#p19b13ea95d)">
     <use x="164.657984" xlink:href="#C0_0_0d0fa9395f" y="51.639452"/>
    </g>
    <g clip-path="url(#p19b13ea95d)">
     <use x="167.717913" xlink:href="#C0_0_0d0fa9395f" y="48.790129"/>
    </g>
    <g clip-path="url(#p19b13ea95d)">
     <use x="170.777842" xlink:href="#C0_0_0d0fa9395f" y="46.059529"/>
    </g>
    <g clip-path="url(#p19b13ea95d)">
     <use x="173.837772" xlink:href="#C0_0_0d0fa9395f" y="43.44765"/>
    </g>
    <g clip-path="url(#p19b13ea95d)">
     <use x="176.897701" xlink:href="#C0_0_0d0fa9395f" y="40.954494"/>
    </g>
    <g clip-path="url(#p19b13ea95d)">
     <use x="179.95763" xlink:href="#C0_0_0d0fa9395f" y="38.580058"/>
    </g>
    <g clip-path="url(#p19b13ea95d)">
     <use x="183.017559" xlink:href="#C0_0_0d0fa9395f" y="36.324345"/>
    </g>
    <g clip-path="url(#p19b13ea95d)">
     <use x="186.077488" xlink:href="#C0_0_0d0fa9395f" y="34.187354"/>
    </g>
    <g clip-path="url(#p19b13ea95d)">
     <use x="189.137418" xlink:href="#C0_0_0d0fa9395f" y="32.169084"/>
    </g>
    <g clip-path="url(#p19b13ea95d)">
     <use x="192.197347" xlink:href="#C0_0_0d0fa9395f" y="30.269536"/>
    </g>
    <g clip-path="url(#p19b13ea95d)">
     <use x="195.257276" xlink:href="#C0_0_0d0fa9395f" y="28.488709"/>
    </g>
    <g clip-path="url(#p19b13ea95d)">
     <use x="198.317205" xlink:href="#C0_0_0d0fa9395f" y="26.826605"/>
    </g>
    <g clip-path="url(#p19b13ea95d)">
     <use x="201.377135" xlink:href="#C0_0_0d0fa9395f" y="25.283222"/>
    </g>
    <g clip-path="url(#p19b13ea95d)">
     <use x="204.437064" xlink:href="#C0_0_0d0fa9395f" y="23.858561"/>
    </g>
    <g clip-path="url(#p19b13ea95d)">
     <use x="207.496993" xlink:href="#C0_0_0d0fa9395f" y="22.552622"/>
    </g>
    <g clip-path="url(#p19b13ea95d)">
     <use x="210.556922" xlink:href="#C0_0_0d0fa9395f" y="21.365404"/>
    </g>
    <g clip-path="url(#p19b13ea95d)">
     <use x="213.616852" xlink:href="#C0_0_0d0fa9395f" y="20.296908"/>
    </g>
    <g clip-path="url(#p19b13ea95d)">
     <use x="216.676781" xlink:href="#C0_0_0d0fa9395f" y="19.347134"/>
    </g>
    <g clip-path="url(#p19b13ea95d)">
     <use x="219.73671" xlink:href="#C0_0_0d0fa9395f" y="18.516082"/>
    </g>
    <g clip-path="url(#p19b13ea95d)">
     <use x="222.796639" xlink:href="#C0_0_0d0fa9395f" y="17.803751"/>
    </g>
    <g clip-path="url(#p19b13ea95d)">
     <use x="225.856568" xlink:href="#C0_0_0d0fa9395f" y="17.210143"/>
    </g>
    <g clip-path="url(#p19b13ea95d)">
     <use x="228.916498" xlink:href="#C0_0_0d0fa9395f" y="16.735256"/>
    </g>
    <g clip-path="url(#p19b13ea95d)">
     <use x="231.976427" xlink:href="#C0_0_0d0fa9395f" y="16.37909"/>
    </g>
    <g clip-path="url(#p19b13ea95d)">
     <use x="235.036356" xlink:href="#C0_0_0d0fa9395f" y="16.141647"/>
    </g>
    <g clip-path="url(#p19b13ea95d)">
     <use x="238.096285" xlink:href="#C0_0_0d0fa9395f" y="16.022925"/>
    </g>
    <g clip-path="url(#p19b13ea95d)">
     <use x="241.156215" xlink:href="#C0_0_0d0fa9395f" y="16.022925"/>
    </g>
    <g clip-path="url(#p19b13ea95d)">
     <use x="244.216144" xlink:href="#C0_0_0d0fa9395f" y="16.141647"/>
    </g>
    <g clip-path="url(#p19b13ea95d)">
     <use x="247.276073" xlink:href="#C0_0_0d0fa9395f" y="16.37909"/>
    </g>
    <g clip-path="url(#p19b13ea95d)">
     <use x="250.336002" xlink:href="#C0_0_0d0fa9395f" y="16.735256"/>
    </g>
    <g clip-path="url(#p19b13ea95d)">
     <use x="253.395932" xlink:href="#C0_0_0d0fa9395f" y="17.210143"/>
    </g>
    <g clip-path="url(#p19b13ea95d)">
     <use x="256.455861" xlink:href="#C0_0_0d0fa9395f" y="17.803751"/>
    </g>
    <g clip-path="url(#p19b13ea95d)">
     <use x="259.51579" xlink:href="#C0_0_0d0fa9395f" y="18.516082"/>
    </g>
    <g clip-path="url(#p19b13ea95d)">
     <use x="262.575719" xlink:href="#C0_0_0d0fa9395f" y="19.347134"/>
    </g>
    <g clip-path="url(#p19b13ea95d)">
     <use x="265.635648" xlink:href="#C0_0_0d0fa9395f" y="20.296908"/>
    </g>
    <g clip-path="url(#p19b13ea95d)">
     <use x="268.695578" xlink:href="#C0_0_0d0fa9395f" y="21.365404"/>
    </g>
    <g clip-path="url(#p19b13ea95d)">
     <use x="271.755507" xlink:href="#C0_0_0d0fa9395f" y="22.552622"/>
    </g>
    <g clip-path="url(#p19b13ea95d)">
     <use x="274.815436" xlink:href="#C0_0_0d0fa9395f" y="23.858561"/>
    </g>
    <g clip-path="url(#p19b13ea95d)">
     <use x="277.875365" xlink:href="#C0_0_0d0fa9395f" y="25.283222"/>
    </g>
    <g clip-path="url(#p19b13ea95d)">
     <use x="280.935295" xlink:href="#C0_0_0d0fa9395f" y="26.826605"/>
    </g>
    <g clip-path="url(#p19b13ea95d)">
     <use x="283.995224" xlink:href="#C0_0_0d0fa9395f" y="28.488709"/>
    </g>
    <g clip-path="url(#p19b13ea95d)">
     <use x="287.055153" xlink:href="#C0_0_0d0fa9395f" y="30.269536"/>
    </g>
    <g clip-path="url(#p19b13ea95d)">
     <use x="290.115082" xlink:href="#C0_0_0d0fa9395f" y="32.169084"/>
    </g>
    <g clip-path="url(#p19b13ea95d)">
     <use x="293.175012" xlink:href="#C0_0_0d0fa9395f" y="34.187354"/>
    </g>
    <g clip-path="url(#p19b13ea95d)">
     <use x="296.234941" xlink:href="#C0_0_0d0fa9395f" y="36.324345"/>
    </g>
    <g clip-path="url(#p19b13ea95d)">
     <use x="299.29487" xlink:href="#C0_0_0d0fa9395f" y="38.580058"/>
    </g>
    <g clip-path="url(#p19b13ea95d)">
     <use x="302.354799" xlink:href="#C0_0_0d0fa9395f" y="40.954494"/>
    </g>
    <g clip-path="url(#p19b13ea95d)">
     <use x="305.414728" xlink:href="#C0_0_0d0fa9395f" y="43.44765"/>
    </g>
    <g clip-path="url(#p19b13ea95d)">
     <use x="308.474658" xlink:href="#C0_0_0d0fa9395f" y="46.059529"/>
    </g>
    <g clip-path="url(#p19b13ea95d)">
     <use x="311.534587" xlink:href="#C0_0_0d0fa9395f" y="48.790129"/>
    </g>
    <g clip-path="url(#p19b13ea95d)">
     <use x="314.594516" xlink:href="#C0_0_0d0fa9395f" y="51.639452"/>
    </g>
    <g clip-path="url(#p19b13ea95d)">
     <use x="317.654445" xlink:href="#C0_0_0d0fa9395f" y="54.607495"/>
    </g>
    <g clip-path="url(#p19b13ea95d)">
     <use x="320.714375" xlink:href="#C0_0_0d0fa9395f" y="57.694261"/>
    </g>
    <g clip-path="url(#p19b13ea95d)">
     <use x="323.774304" xlink:href="#C0_0_0d0fa9395f" y="60.899748"/>
    </g>
    <g clip-path="url(#p19b13ea95d)">
     <use x="326.834233" xlink:href="#C0_0_0d0fa9395f" y="64.223958"/>
    </g>
    <g clip-path="url(#p19b13ea95d)">
     <use x="329.894162" xlink:href="#C0_0_0d0fa9395f" y="67.666888"/>
    </g>
    <g clip-path="url(#p19b13ea95d)">
     <use x="332.954092" xlink:href="#C0_0_0d0fa9395f" y="71.228541"/>
    </g>
    <g clip-path="url(#p19b13ea95d)">
     <use x="336.014021" xlink:href="#C0_0_0d0fa9395f" y="74.908916"/>
    </g>
    <g clip-path="url(#p19b13ea95d)">
     <use x="339.07395" xlink:href="#C0_0_0d0fa9395f" y="78.708012"/>
    </g>
    <g clip-path="url(#p19b13ea95d)">
     <use x="342.133879" xlink:href="#C0_0_0d0fa9395f" y="82.62583"/>
    </g>
    <g clip-path="url(#p19b13ea95d)">
     <use x="345.193808" xlink:href="#C0_0_0d0fa9395f" y="86.662369"/>
    </g>
    <g clip-path="url(#p19b13ea95d)">
     <use x="348.253738" xlink:href="#C0_0_0d0fa9395f" y="90.817631"/>
    </g>
    <g clip-path="url(#p19b13ea95d)">
     <use x="351.313667" xlink:href="#C0_0_0d0fa9395f" y="95.091614"/>
    </g>
    <g clip-path="url(#p19b13ea95d)">
     <use x="354.373596" xlink:href="#C0_0_0d0fa9395f" y="99.484319"/>
    </g>
    <g clip-path="url(#p19b13ea95d)">
     <use x="357.433525" xlink:href="#C0_0_0d0fa9395f" y="103.995746"/>
    </g>
    <g clip-path="url(#p19b13ea95d)">
     <use x="360.493455" xlink:href="#C0_0_0d0fa9395f" y="108.625894"/>
    </g>
    <g clip-path="url(#p19b13ea95d)">
     <use x="363.553384" xlink:href="#C0_0_0d0fa9395f" y="113.374764"/>
    </g>
    <g clip-path="url(#p19b13ea95d)">
     <use x="366.613313" xlink:href="#C0_0_0d0fa9395f" y="118.242356"/>
    </g>
    <g clip-path="url(#p19b13ea95d)">
     <use x="369.673242" xlink:href="#C0_0_0d0fa9395f" y="123.22867"/>
    </g>
    <g clip-path="url(#p19b13ea95d)">
     <use x="372.733172" xlink:href="#C0_0_0d0fa9395f" y="128.333705"/>
    </g>
    <g clip-path="url(#p19b13ea95d)">
     <use x="375.793101" xlink:href="#C0_0_0d0fa9395f" y="133.557463"/>
    </g>
    <g clip-path="url(#p19b13ea95d)">
     <use x="378.85303" xlink:href="#C0_0_0d0fa9395f" y="138.899942"/>
    </g>
    <g clip-path="url(#p19b13ea95d)">
     <use x="381.912959" xlink:href="#C0_0_0d0fa9395f" y="144.361142"/>
    </g>
    <g clip-path="url(#p19b13ea95d)">
     <use x="384.972888" xlink:href="#C0_0_0d0fa9395f" y="149.941065"/>
    </g>
    <g clip-path="url(#p19b13ea95d)">
     <use x="388.032818" xlink:href="#C0_0_0d0fa9395f" y="155.639709"/>
    </g>
    <g clip-path="url(#p19b13ea95d)">
     <use x="391.092747" xlink:href="#C0_0_0d0fa9395f" y="161.457075"/>
    </g>
   </g>
   <g id="matplotlib.axis_1">
    <g id="xtick_1">
     <g id="line2d_1">
      <path clip-path="url(#p19b13ea95d)" d="M 88.159753 170.28 
L 88.159753 7.2 
" style="fill:none;stroke:#b0b0b0;stroke-linecap:square;stroke-opacity:0.3;stroke-width:0.8;"/>
     </g>
     <g id="line2d_2">
      <defs>
       <path d="M 0 0 
L 0 3.5 
" id="m6ba06d4cb9" style="stroke:#000000;stroke-width:0.8;"/>
      </defs>
      <g>
       <use style="stroke:#000000;stroke-width:0.8;" x="88.159753" xlink:href="#m6ba06d4cb9" y="170.28"/>
      </g>
     </g>
     <g id="text_1">
      <!-- −1.0 -->
      <defs>
       <path d="M 70.90625 32.703125 
L 70.90625 26.90625 
L 12.40625 26.90625 
L 12.40625 32.703125 
z
" id="Charter-8722"/>
       <path d="M 33.90625 68.296875 
L 33.90625 6.203125 
L 35.09375 4.703125 
L 45.90625 4.203125 
L 45.90625 0 
L 12.40625 0 
L 12.40625 4.296875 
L 23.90625 4.90625 
L 25.09375 6.59375 
L 25.09375 60.40625 
L 9.40625 57.59375 
L 9.40625 61.796875 
L 31.09375 68.296875 
z
" id="Charter-49"/>
       <path d="M 13.90625 11.796875 
Q 16.5 11.796875 18.34375 9.9375 
Q 20.203125 8.09375 20.203125 5.40625 
Q 20.203125 2.796875 18.34375 0.9375 
Q 16.5 -0.90625 13.90625 -0.90625 
Q 11.296875 -0.90625 9.390625 0.890625 
Q 7.5 2.703125 7.5 5.40625 
Q 7.5 8.09375 9.390625 9.9375 
Q 11.296875 11.796875 13.90625 11.796875 
z
" id="Charter-46"/>
       <path d="M 27.796875 68.296875 
Q 33.203125 68.296875 37.546875 66 
Q 41.90625 63.703125 45 59.25 
Q 48.09375 54.796875 49.796875 48.34375 
Q 51.5 41.90625 51.5 33.59375 
Q 51.5 25.296875 49.796875 18.84375 
Q 48.09375 12.40625 45 7.953125 
Q 41.90625 3.5 37.546875 1.140625 
Q 33.203125 -1.203125 27.796875 -1.203125 
Q 22.40625 -1.203125 18.046875 1.140625 
Q 13.703125 3.5 10.59375 7.953125 
Q 7.5 12.40625 5.796875 18.84375 
Q 4.09375 25.296875 4.09375 33.59375 
Q 4.09375 41.90625 5.796875 48.34375 
Q 7.5 54.796875 10.59375 59.25 
Q 13.703125 63.703125 18.046875 66 
Q 22.40625 68.296875 27.796875 68.296875 
z
M 27.796875 63.59375 
Q 20.90625 63.59375 17.203125 56.046875 
Q 13.5 48.5 13.5 33.5 
Q 13.5 18.59375 17.203125 11.09375 
Q 20.90625 3.59375 27.796875 3.59375 
Q 34.703125 3.59375 38.34375 11.140625 
Q 42 18.703125 42 33.59375 
Q 42 48.5 38.34375 56.046875 
Q 34.703125 63.59375 27.796875 63.59375 
z
" id="Charter-48"/>
      </defs>
      <g transform="translate(70.377253 189.055)scale(0.16 -0.16)">
       <use xlink:href="#Charter-8722"/>
       <use x="83.299988" xlink:href="#Charter-49"/>
       <use x="138.899979" xlink:href="#Charter-46"/>
       <use x="166.699966" xlink:href="#Charter-48"/>
      </g>
     </g>
    </g>
    <g id="xtick_2">
     <g id="line2d_3">
      <path clip-path="url(#p19b13ea95d)" d="M 163.893002 170.28 
L 163.893002 7.2 
" style="fill:none;stroke:#b0b0b0;stroke-linecap:square;stroke-opacity:0.3;stroke-width:0.8;"/>
     </g>
     <g id="line2d_4">
      <g>
       <use style="stroke:#000000;stroke-width:0.8;" x="163.893002" xlink:href="#m6ba06d4cb9" y="170.28"/>
      </g>
     </g>
     <g id="text_2">
      <!-- −0.5 -->
      <defs>
       <path d="M 45.90625 67.09375 
L 45.90625 59.296875 
L 16.296875 59.296875 
L 16.296875 39.296875 
Q 22 40.90625 27 40.90625 
Q 32 40.90625 36.046875 39.5 
Q 40.09375 38.09375 42.9375 35.546875 
Q 45.796875 33 47.34375 29.5 
Q 48.90625 26 48.90625 21.703125 
Q 48.90625 16.90625 47.046875 12.75 
Q 45.203125 8.59375 41.703125 5.546875 
Q 38.203125 2.5 33.25 0.796875 
Q 28.296875 -0.90625 22.203125 -0.90625 
Q 18.296875 -0.90625 15.140625 -0.09375 
Q 12 0.703125 9.75 2 
Q 7.5 3.296875 6.25 5 
Q 5 6.703125 5 8.5 
Q 5 10.796875 6.59375 12.296875 
Q 8.203125 13.796875 10.796875 13.796875 
Q 11.703125 13.796875 13.203125 13.5 
L 17.203125 4.90625 
Q 20.5 3.703125 23.90625 3.703125 
Q 27.40625 3.703125 30.296875 4.890625 
Q 33.203125 6.09375 35.296875 8.1875 
Q 37.40625 10.296875 38.546875 13.25 
Q 39.703125 16.203125 39.703125 19.703125 
Q 39.703125 27.5 34.546875 31.09375 
Q 29.40625 34.703125 18.90625 34.703125 
Q 13.40625 34.703125 10.09375 34.09375 
L 10.09375 67.09375 
z
" id="Charter-53"/>
      </defs>
      <g transform="translate(146.110502 189.055)scale(0.16 -0.16)">
       <use xlink:href="#Charter-8722"/>
       <use x="83.299988" xlink:href="#Charter-48"/>
       <use x="138.899979" xlink:href="#Charter-46"/>
       <use x="166.699966" xlink:href="#Charter-53"/>
      </g>
     </g>
    </g>
    <g id="xtick_3">
     <g id="line2d_5">
      <path clip-path="url(#p19b13ea95d)" d="M 239.62625 170.28 
L 239.62625 7.2 
" style="fill:none;stroke:#b0b0b0;stroke-linecap:square;stroke-opacity:0.3;stroke-width:0.8;"/>
     </g>
     <g id="line2d_6">
      <g>
       <use style="stroke:#000000;stroke-width:0.8;" x="239.62625" xlink:href="#m6ba06d4cb9" y="170.28"/>
      </g>
     </g>
     <g id="text_3">
      <!-- 0.0 -->
      <g transform="translate(228.5075 189.055)scale(0.16 -0.16)">
       <use xlink:href="#Charter-48"/>
       <use x="55.599991" xlink:href="#Charter-46"/>
       <use x="83.399979" xlink:href="#Charter-48"/>
      </g>
     </g>
    </g>
    <g id="xtick_4">
     <g id="line2d_7">
      <path clip-path="url(#p19b13ea95d)" d="M 315.359498 170.28 
L 315.359498 7.2 
" style="fill:none;stroke:#b0b0b0;stroke-linecap:square;stroke-opacity:0.3;stroke-width:0.8;"/>
     </g>
     <g id="line2d_8">
      <g>
       <use style="stroke:#000000;stroke-width:0.8;" x="315.359498" xlink:href="#m6ba06d4cb9" y="170.28"/>
      </g>
     </g>
     <g id="text_4">
      <!-- 0.5 -->
      <g transform="translate(304.240748 189.055)scale(0.16 -0.16)">
       <use xlink:href="#Charter-48"/>
       <use x="55.599991" xlink:href="#Charter-46"/>
       <use x="83.399979" xlink:href="#Charter-53"/>
      </g>
     </g>
    </g>
    <g id="xtick_5">
     <g id="line2d_9">
      <path clip-path="url(#p19b13ea95d)" d="M 391.092747 170.28 
L 391.092747 7.2 
" style="fill:none;stroke:#b0b0b0;stroke-linecap:square;stroke-opacity:0.3;stroke-width:0.8;"/>
     </g>
     <g id="line2d_10">
      <g>
       <use style="stroke:#000000;stroke-width:0.8;" x="391.092747" xlink:href="#m6ba06d4cb9" y="170.28"/>
      </g>
     </g>
     <g id="text_5">
      <!-- 1.0 -->
      <g transform="translate(379.973997 189.055)scale(0.16 -0.16)">
       <use xlink:href="#Charter-49"/>
       <use x="55.599991" xlink:href="#Charter-46"/>
       <use x="83.399979" xlink:href="#Charter-48"/>
      </g>
     </g>
    </g>
    <g id="text_6">
     <!-- $x$ -->
     <defs>
      <path d="M 12.90625 48.5 
L 2.796875 45 
L 2.796875 42.59375 
L 11.09375 41.5 
C 13.796875 39 16.09375 33.203125 18.703125 24.09375 
C 14.59375 14.203125 9.296875 7.796875 4.796875 5.40625 
L 0.203125 9.703125 
C -2.90625 9.09375 -4.703125 7.296875 -4.703125 4.59375 
C -4.703125 1.40625 -2.296875 -0.796875 1.5 -0.796875 
C 8.09375 -0.796875 14.09375 5.90625 20.59375 19.5 
C 23.90625 5.296875 25.203125 -0.59375 32.203125 -0.59375 
C 34.90625 -0.59375 38.703125 0.40625 43.40625 2.296875 
L 43.40625 5.40625 
C 41 4.703125 39.203125 4.296875 38.09375 4.296875 
C 32.09375 4.296875 30.703125 10.59375 26.796875 24.09375 
C 31.203125 34.296875 35.59375 40 40.203125 41.203125 
L 44.5 37.296875 
C 47.703125 38.59375 49.40625 40.5 49.40625 42.90625 
C 49.40625 46 46.90625 48.5 43.703125 48.5 
C 37.40625 48.5 31.203125 41.796875 24.59375 28.40625 
C 21.09375 42 19.90625 48.59375 14 48.59375 
C 13.59375 48.59375 13.296875 48.5 12.90625 48.5 
z
" id="Charter-Italic-120"/>
     </defs>
     <g transform="translate(233.86625 214.205)scale(0.24 -0.24)">
      <use transform="translate(0 0.40625)" xlink:href="#Charter-Italic-120"/>
     </g>
    </g>
   </g>
   <g id="matplotlib.axis_2">
    <g id="ytick_1">
     <g id="line2d_11">
      <path clip-path="url(#p19b13ea95d)" d="M 72.22625 161.457075 
L 407.02625 161.457075 
" style="fill:none;stroke:#b0b0b0;stroke-linecap:square;stroke-opacity:0.3;stroke-width:0.8;"/>
     </g>
     <g id="line2d_12">
      <defs>
       <path d="M 0 0 
L -3.5 0 
" id="m8ccb7b056c" style="stroke:#000000;stroke-width:0.8;"/>
      </defs>
      <g>
       <use style="stroke:#000000;stroke-width:0.8;" x="72.22625" xlink:href="#m8ccb7b056c" y="161.457075"/>
      </g>
     </g>
     <g id="text_7">
      <!-- 0.00 -->
      <g transform="translate(34.09375 167.344575)scale(0.16 -0.16)">
       <use xlink:href="#Charter-48"/>
       <use x="55.599991" xlink:href="#Charter-46"/>
       <use x="83.399979" xlink:href="#Charter-48"/>
       <use x="138.999969" xlink:href="#Charter-48"/>
      </g>
     </g>
    </g>
    <g id="ytick_2">
     <g id="line2d_13">
      <path clip-path="url(#p19b13ea95d)" d="M 72.22625 125.094827 
L 407.02625 125.094827 
" style="fill:none;stroke:#b0b0b0;stroke-linecap:square;stroke-opacity:0.3;stroke-width:0.8;"/>
     </g>
     <g id="line2d_14">
      <g>
       <use style="stroke:#000000;stroke-width:0.8;" x="72.22625" xlink:href="#m8ccb7b056c" y="125.094827"/>
      </g>
     </g>
     <g id="text_8">
      <!-- 0.25 -->
      <defs>
       <path d="M 44.203125 7.90625 
L 46 16.40625 
L 50.5 16.40625 
L 50.5 0 
L 4.203125 0 
L 4.203125 6.296875 
Q 12.40625 13 18.796875 18.5 
Q 25.203125 24 29.59375 28.953125 
Q 34 33.90625 36.296875 38.546875 
Q 38.59375 43.203125 38.59375 48.09375 
Q 38.59375 55.296875 35.09375 59.25 
Q 31.59375 63.203125 25.296875 63.203125 
Q 23 63.203125 20.84375 62.640625 
Q 18.703125 62.09375 16.40625 60.796875 
L 16.40625 50.09375 
Q 14.296875 48.59375 11.90625 48.59375 
Q 9.296875 48.59375 7.796875 50.09375 
Q 6.296875 51.59375 6.296875 54.203125 
Q 6.296875 56.796875 7.84375 59.34375 
Q 9.40625 61.90625 12.25 63.90625 
Q 15.09375 65.90625 18.9375 67.09375 
Q 22.796875 68.296875 27.5 68.296875 
Q 32.296875 68.296875 36.140625 66.9375 
Q 40 65.59375 42.703125 63.09375 
Q 45.40625 60.59375 46.84375 57.09375 
Q 48.296875 53.59375 48.296875 49.40625 
Q 48.296875 44.703125 46.046875 40.09375 
Q 43.796875 35.5 39.4375 30.546875 
Q 35.09375 25.59375 28.75 20.046875 
Q 22.40625 14.5 14.09375 7.90625 
z
" id="Charter-50"/>
      </defs>
      <g transform="translate(34.09375 130.982327)scale(0.16 -0.16)">
       <use xlink:href="#Charter-48"/>
       <use x="55.599991" xlink:href="#Charter-46"/>
       <use x="83.399979" xlink:href="#Charter-50"/>
       <use x="138.999969" xlink:href="#Charter-53"/>
      </g>
     </g>
    </g>
    <g id="ytick_3">
     <g id="line2d_15">
      <path clip-path="url(#p19b13ea95d)" d="M 72.22625 88.73258 
L 407.02625 88.73258 
" style="fill:none;stroke:#b0b0b0;stroke-linecap:square;stroke-opacity:0.3;stroke-width:0.8;"/>
     </g>
     <g id="line2d_16">
      <g>
       <use style="stroke:#000000;stroke-width:0.8;" x="72.22625" xlink:href="#m8ccb7b056c" y="88.73258"/>
      </g>
     </g>
     <g id="text_9">
      <!-- 0.50 -->
      <g transform="translate(34.09375 94.62008)scale(0.16 -0.16)">
       <use xlink:href="#Charter-48"/>
       <use x="55.599991" xlink:href="#Charter-46"/>
       <use x="83.399979" xlink:href="#Charter-53"/>
       <use x="138.999969" xlink:href="#Charter-48"/>
      </g>
     </g>
    </g>
    <g id="ytick_4">
     <g id="line2d_17">
      <path clip-path="url(#p19b13ea95d)" d="M 72.22625 52.370332 
L 407.02625 52.370332 
" style="fill:none;stroke:#b0b0b0;stroke-linecap:square;stroke-opacity:0.3;stroke-width:0.8;"/>
     </g>
     <g id="line2d_18">
      <g>
       <use style="stroke:#000000;stroke-width:0.8;" x="72.22625" xlink:href="#m8ccb7b056c" y="52.370332"/>
      </g>
     </g>
     <g id="text_10">
      <!-- 0.75 -->
      <defs>
       <path d="M 53.09375 67.09375 
L 53.09375 63.09375 
L 19.90625 -1.5 
L 19.90625 -3.703125 
L 11.59375 -3.703125 
L 44.203125 59.5 
L 13.40625 59.5 
L 11.796875 50.40625 
L 7.09375 50.40625 
L 7.09375 67.09375 
z
" id="Charter-55"/>
      </defs>
      <g transform="translate(34.09375 58.257832)scale(0.16 -0.16)">
       <use xlink:href="#Charter-48"/>
       <use x="55.599991" xlink:href="#Charter-46"/>
       <use x="83.399979" xlink:href="#Charter-55"/>
       <use x="138.999969" xlink:href="#Charter-53"/>
      </g>
     </g>
    </g>
    <g id="ytick_5">
     <g id="line2d_19">
      <path clip-path="url(#p19b13ea95d)" d="M 72.22625 16.008085 
L 407.02625 16.008085 
" style="fill:none;stroke:#b0b0b0;stroke-linecap:square;stroke-opacity:0.3;stroke-width:0.8;"/>
     </g>
     <g id="line2d_20">
      <g>
       <use style="stroke:#000000;stroke-width:0.8;" x="72.22625" xlink:href="#m8ccb7b056c" y="16.008085"/>
      </g>
     </g>
     <g id="text_11">
      <!-- 1.00 -->
      <g transform="translate(34.09375 21.895585)scale(0.16 -0.16)">
       <use xlink:href="#Charter-49"/>
       <use x="55.599991" xlink:href="#Charter-46"/>
       <use x="83.399979" xlink:href="#Charter-48"/>
       <use x="138.999969" xlink:href="#Charter-48"/>
      </g>
     </g>
    </g>
    <g id="text_12">
     <!-- $y$ -->
     <defs>
      <path d="M 8.296875 48.5 
L -1.5 45.296875 
L -1.5 43.09375 
L 7 42.40625 
C 8.796875 40 10.09375 36.59375 11 32 
L 17.203125 1.90625 
L 17.5 2.09375 
C 11.59375 -9.203125 6.09375 -15.09375 0 -15.5 
L -5.90625 -9.59375 
C -9.203125 -10.09375 -11.296875 -12.40625 -11.296875 -15.09375 
C -11.296875 -18.703125 -7.796875 -21.703125 -2.90625 -21.703125 
C 5.40625 -21.703125 14.5 -13.296875 23.703125 3.40625 
C 32 18.40625 36 32.296875 43.296875 40.5 
L 48.40625 43.5 
L 48.40625 45.59375 
L 40.5 48.203125 
L 38.59375 48.203125 
C 32.296875 33.5 27.09375 20.90625 22.90625 10.203125 
L 19.59375 27.09375 
C 16.703125 41.703125 16 48.59375 9.59375 48.59375 
C 9.203125 48.59375 8.703125 48.59375 8.296875 48.5 
z
" id="Charter-Italic-121"/>
     </defs>
     <g transform="translate(24.81375 94.5)rotate(-90)scale(0.24 -0.24)">
      <use transform="translate(0 0.40625)" xlink:href="#Charter-Italic-121"/>
     </g>
    </g>
   </g>
   <g id="patch_3">
    <path d="M 72.22625 170.28 
L 72.22625 7.2 
" style="fill:none;stroke:#000000;stroke-linecap:square;stroke-linejoin:miter;stroke-width:0.8;"/>
   </g>
   <g id="patch_4">
    <path d="M 407.02625 170.28 
L 407.02625 7.2 
" style="fill:none;stroke:#000000;stroke-linecap:square;stroke-linejoin:miter;stroke-width:0.8;"/>
   </g>
   <g id="patch_5">
    <path d="M 72.22625 170.28 
L 407.02625 170.28 
" style="fill:none;stroke:#000000;stroke-linecap:square;stroke-linejoin:miter;stroke-width:0.8;"/>
   </g>
   <g id="patch_6">
    <path d="M 72.22625 7.2 
L 407.02625 7.2 
" style="fill:none;stroke:#000000;stroke-linecap:square;stroke-linejoin:miter;stroke-width:0.8;"/>
   </g>
  </g>
 </g>
 <defs>
  <clipPath id="p19b13ea95d">
   <rect height="163.08" width="334.8" x="72.22625" y="7.2"/>
  </clipPath>
 </defs>
</svg>
