<?xml version="1.0" encoding="utf-8" standalone="no"?>
<!DOCTYPE svg PUBLIC "-//W3C//DTD SVG 1.1//EN"
  "http://www.w3.org/Graphics/SVG/1.1/DTD/svg11.dtd">
<!-- Created with matplotlib (https://matplotlib.org/) -->
<svg height="226.79025pt" version="1.1" viewBox="0 0 526.54625 226.79025" width="526.54625pt" xmlns="http://www.w3.org/2000/svg" xmlns:xlink="http://www.w3.org/1999/xlink">
 <defs>
  <style type="text/css">
*{stroke-linecap:butt;stroke-linejoin:round;}
  </style>
 </defs>
 <g id="figure_1">
  <g id="patch_1">
   <path d="M 0 226.79025 
L 526.54625 226.79025 
L 526.54625 0 
L 0 0 
z
" style="fill:#ffffff;"/>
  </g>
  <g id="axes_1">
   <g id="patch_2">
    <path d="M 72.22625 170.434 
L 407.02625 170.434 
L 407.02625 7.354 
L 72.22625 7.354 
z
" style="fill:#ffffff;"/>
   </g>
   <g id="PathCollection_1">
    <defs>
     <path d="M 0 1.581139 
C 0.419323 1.581139 0.821528 1.41454 1.118034 1.118034 
C 1.41454 0.821528 1.581139 0.419323 1.581139 0 
C 1.581139 -0.419323 1.41454 -0.821528 1.118034 -1.118034 
C 0.821528 -1.41454 0.419323 -1.581139 0 -1.581139 
C -0.419323 -1.581139 -0.821528 -1.41454 -1.118034 -1.118034 
C -1.41454 -0.821528 -1.581139 -0.419323 -1.581139 0 
C -1.581139 0.419323 -1.41454 0.821528 -1.118034 1.118034 
C -0.821528 1.41454 -0.419323 1.581139 0 1.581139 
z
" id="m5358e6f310" style="stroke:#0e7da7;"/>
    </defs>
    <g clip-path="url(#pa73068d298)">
     <use style="fill:#0e7da7;stroke:#0e7da7;" x="88.869887" xlink:href="#m5358e6f310" y="80.732686"/>
     <use style="fill:#0e7da7;stroke:#0e7da7;" x="91.918722" xlink:href="#m5358e6f310" y="77.478546"/>
     <use style="fill:#0e7da7;stroke:#0e7da7;" x="94.967557" xlink:href="#m5358e6f310" y="74.307633"/>
     <use style="fill:#0e7da7;stroke:#0e7da7;" x="98.016393" xlink:href="#m5358e6f310" y="71.219946"/>
     <use style="fill:#0e7da7;stroke:#0e7da7;" x="101.065228" xlink:href="#m5358e6f310" y="68.215484"/>
     <use style="fill:#0e7da7;stroke:#0e7da7;" x="104.114063" xlink:href="#m5358e6f310" y="65.294249"/>
     <use style="fill:#0e7da7;stroke:#0e7da7;" x="107.162898" xlink:href="#m5358e6f310" y="62.45624"/>
     <use style="fill:#0e7da7;stroke:#0e7da7;" x="110.211733" xlink:href="#m5358e6f310" y="59.701457"/>
     <use style="fill:#0e7da7;stroke:#0e7da7;" x="113.260568" xlink:href="#m5358e6f310" y="57.0299"/>
     <use style="fill:#0e7da7;stroke:#0e7da7;" x="116.309403" xlink:href="#m5358e6f310" y="54.441569"/>
     <use style="fill:#0e7da7;stroke:#0e7da7;" x="119.358238" xlink:href="#m5358e6f310" y="51.936464"/>
     <use style="fill:#0e7da7;stroke:#0e7da7;" x="122.407073" xlink:href="#m5358e6f310" y="49.514585"/>
     <use style="fill:#0e7da7;stroke:#0e7da7;" x="125.455908" xlink:href="#m5358e6f310" y="47.175933"/>
     <use style="fill:#0e7da7;stroke:#0e7da7;" x="128.504743" xlink:href="#m5358e6f310" y="44.920506"/>
     <use style="fill:#0e7da7;stroke:#0e7da7;" x="131.553578" xlink:href="#m5358e6f310" y="42.748305"/>
     <use style="fill:#0e7da7;stroke:#0e7da7;" x="134.602413" xlink:href="#m5358e6f310" y="40.659331"/>
     <use style="fill:#0e7da7;stroke:#0e7da7;" x="137.651248" xlink:href="#m5358e6f310" y="38.653583"/>
     <use style="fill:#0e7da7;stroke:#0e7da7;" x="140.700083" xlink:href="#m5358e6f310" y="36.73106"/>
     <use style="fill:#0e7da7;stroke:#0e7da7;" x="143.748918" xlink:href="#m5358e6f310" y="34.891764"/>
     <use style="fill:#0e7da7;stroke:#0e7da7;" x="146.797753" xlink:href="#m5358e6f310" y="33.135694"/>
    </g>
   </g>
   <g id="PathCollection_2">
    <defs>
     <path d="M 0 1.581139 
C 0.419323 1.581139 0.821528 1.41454 1.118034 1.118034 
C 1.41454 0.821528 1.581139 0.419323 1.581139 0 
C 1.581139 -0.419323 1.41454 -0.821528 1.118034 -1.118034 
C 0.821528 -1.41454 0.419323 -1.581139 0 -1.581139 
C -0.419323 -1.581139 -0.821528 -1.41454 -1.118034 -1.118034 
C -1.41454 -0.821528 -1.581139 -0.419323 -1.581139 0 
C -1.581139 0.419323 -1.41454 0.821528 -1.118034 1.118034 
C -0.821528 1.41454 -0.419323 1.581139 0 1.581139 
z
" id="m919661cdfd" style="stroke:#ceca70;"/>
    </defs>
    <g clip-path="url(#pa73068d298)">
     <use style="fill:#ceca70;stroke:#ceca70;" x="149.846588" xlink:href="#m919661cdfd" y="31.46285"/>
     <use style="fill:#ceca70;stroke:#ceca70;" x="152.895424" xlink:href="#m919661cdfd" y="29.873232"/>
     <use style="fill:#ceca70;stroke:#ceca70;" x="155.944259" xlink:href="#m919661cdfd" y="28.36684"/>
     <use style="fill:#ceca70;stroke:#ceca70;" x="158.993094" xlink:href="#m919661cdfd" y="26.943674"/>
     <use style="fill:#ceca70;stroke:#ceca70;" x="162.041929" xlink:href="#m919661cdfd" y="25.603734"/>
     <use style="fill:#ceca70;stroke:#ceca70;" x="165.090764" xlink:href="#m919661cdfd" y="24.34702"/>
     <use style="fill:#ceca70;stroke:#ceca70;" x="168.139599" xlink:href="#m919661cdfd" y="23.173533"/>
     <use style="fill:#ceca70;stroke:#ceca70;" x="171.188434" xlink:href="#m919661cdfd" y="22.083271"/>
     <use style="fill:#ceca70;stroke:#ceca70;" x="174.237269" xlink:href="#m919661cdfd" y="21.076236"/>
     <use style="fill:#ceca70;stroke:#ceca70;" x="177.286104" xlink:href="#m919661cdfd" y="20.152426"/>
     <use style="fill:#ceca70;stroke:#ceca70;" x="180.334939" xlink:href="#m919661cdfd" y="19.311843"/>
     <use style="fill:#ceca70;stroke:#ceca70;" x="183.383774" xlink:href="#m919661cdfd" y="18.554485"/>
     <use style="fill:#ceca70;stroke:#ceca70;" x="186.432609" xlink:href="#m919661cdfd" y="17.880354"/>
     <use style="fill:#ceca70;stroke:#ceca70;" x="189.481444" xlink:href="#m919661cdfd" y="17.289449"/>
     <use style="fill:#ceca70;stroke:#ceca70;" x="192.530279" xlink:href="#m919661cdfd" y="16.78177"/>
     <use style="fill:#ceca70;stroke:#ceca70;" x="195.579114" xlink:href="#m919661cdfd" y="16.357317"/>
     <use style="fill:#ceca70;stroke:#ceca70;" x="198.627949" xlink:href="#m919661cdfd" y="16.01609"/>
     <use style="fill:#ceca70;stroke:#ceca70;" x="201.676784" xlink:href="#m919661cdfd" y="15.758089"/>
     <use style="fill:#ceca70;stroke:#ceca70;" x="204.72562" xlink:href="#m919661cdfd" y="15.583315"/>
     <use style="fill:#ceca70;stroke:#ceca70;" x="207.774455" xlink:href="#m919661cdfd" y="15.491766"/>
    </g>
   </g>
   <g id="PathCollection_3">
    <defs>
     <path d="M 0 1.581139 
C 0.419323 1.581139 0.821528 1.41454 1.118034 1.118034 
C 1.41454 0.821528 1.581139 0.419323 1.581139 0 
C 1.581139 -0.419323 1.41454 -0.821528 1.118034 -1.118034 
C 0.821528 -1.41454 0.419323 -1.581139 0 -1.581139 
C -0.419323 -1.581139 -0.821528 -1.41454 -1.118034 -1.118034 
C -1.41454 -0.821528 -1.581139 -0.419323 -1.581139 0 
C -1.581139 0.419323 -1.41454 0.821528 -1.118034 1.118034 
C -0.821528 1.41454 -0.419323 1.581139 0 1.581139 
z
" id="meb89922656" style="stroke:#b45050;"/>
    </defs>
    <g clip-path="url(#pa73068d298)">
     <use style="fill:#b45050;stroke:#b45050;" x="210.82329" xlink:href="#meb89922656" y="15.483443"/>
     <use style="fill:#b45050;stroke:#b45050;" x="213.872125" xlink:href="#meb89922656" y="15.558347"/>
     <use style="fill:#b45050;stroke:#b45050;" x="216.92096" xlink:href="#meb89922656" y="15.716476"/>
     <use style="fill:#b45050;stroke:#b45050;" x="219.969795" xlink:href="#meb89922656" y="15.957832"/>
     <use style="fill:#b45050;stroke:#b45050;" x="223.01863" xlink:href="#meb89922656" y="16.282414"/>
     <use style="fill:#b45050;stroke:#b45050;" x="226.067465" xlink:href="#meb89922656" y="16.690221"/>
     <use style="fill:#b45050;stroke:#b45050;" x="229.1163" xlink:href="#meb89922656" y="17.181255"/>
     <use style="fill:#b45050;stroke:#b45050;" x="232.165135" xlink:href="#meb89922656" y="17.755515"/>
     <use style="fill:#b45050;stroke:#b45050;" x="235.21397" xlink:href="#meb89922656" y="18.413001"/>
     <use style="fill:#b45050;stroke:#b45050;" x="238.262805" xlink:href="#meb89922656" y="19.153713"/>
     <use style="fill:#b45050;stroke:#b45050;" x="241.31164" xlink:href="#meb89922656" y="19.977651"/>
     <use style="fill:#b45050;stroke:#b45050;" x="244.360475" xlink:href="#meb89922656" y="20.884816"/>
     <use style="fill:#b45050;stroke:#b45050;" x="247.40931" xlink:href="#meb89922656" y="21.875206"/>
     <use style="fill:#b45050;stroke:#b45050;" x="250.458145" xlink:href="#meb89922656" y="22.948822"/>
     <use style="fill:#b45050;stroke:#b45050;" x="253.50698" xlink:href="#meb89922656" y="24.105665"/>
     <use style="fill:#b45050;stroke:#b45050;" x="256.555815" xlink:href="#meb89922656" y="25.345733"/>
     <use style="fill:#b45050;stroke:#b45050;" x="259.604651" xlink:href="#meb89922656" y="26.669028"/>
     <use style="fill:#b45050;stroke:#b45050;" x="262.653486" xlink:href="#meb89922656" y="28.075548"/>
     <use style="fill:#b45050;stroke:#b45050;" x="265.702321" xlink:href="#meb89922656" y="29.565295"/>
     <use style="fill:#b45050;stroke:#b45050;" x="268.751156" xlink:href="#meb89922656" y="31.138268"/>
     <use style="fill:#b45050;stroke:#b45050;" x="271.799991" xlink:href="#meb89922656" y="32.794467"/>
     <use style="fill:#b45050;stroke:#b45050;" x="274.848826" xlink:href="#meb89922656" y="34.533892"/>
     <use style="fill:#b45050;stroke:#b45050;" x="277.897661" xlink:href="#meb89922656" y="36.356543"/>
     <use style="fill:#b45050;stroke:#b45050;" x="280.946496" xlink:href="#meb89922656" y="38.26242"/>
     <use style="fill:#b45050;stroke:#b45050;" x="283.995331" xlink:href="#meb89922656" y="40.251523"/>
     <use style="fill:#b45050;stroke:#b45050;" x="287.044166" xlink:href="#meb89922656" y="42.323852"/>
     <use style="fill:#b45050;stroke:#b45050;" x="290.093001" xlink:href="#meb89922656" y="44.479408"/>
     <use style="fill:#b45050;stroke:#b45050;" x="293.141836" xlink:href="#meb89922656" y="46.718189"/>
     <use style="fill:#b45050;stroke:#b45050;" x="296.190671" xlink:href="#meb89922656" y="49.040197"/>
     <use style="fill:#b45050;stroke:#b45050;" x="299.239506" xlink:href="#meb89922656" y="51.44543"/>
    </g>
   </g>
   <g id="PathCollection_4">
    <defs>
     <path d="M 0 1.581139 
C 0.419323 1.581139 0.821528 1.41454 1.118034 1.118034 
C 1.41454 0.821528 1.581139 0.419323 1.581139 0 
C 1.581139 -0.419323 1.41454 -0.821528 1.118034 -1.118034 
C 0.821528 -1.41454 0.419323 -1.581139 0 -1.581139 
C -0.419323 -1.581139 -0.821528 -1.41454 -1.118034 -1.118034 
C -1.41454 -0.821528 -1.581139 -0.419323 -1.581139 0 
C -1.581139 0.419323 -1.41454 0.821528 -1.118034 1.118034 
C -0.821528 1.41454 -0.419323 1.581139 0 1.581139 
z
" id="m1f3e281e43" style="stroke:#2d2d54;"/>
    </defs>
    <g clip-path="url(#pa73068d298)">
     <use style="fill:#2d2d54;stroke:#2d2d54;" x="302.288341" xlink:href="#m1f3e281e43" y="53.93389"/>
     <use style="fill:#2d2d54;stroke:#2d2d54;" x="305.337176" xlink:href="#m1f3e281e43" y="56.505576"/>
     <use style="fill:#2d2d54;stroke:#2d2d54;" x="308.386011" xlink:href="#m1f3e281e43" y="59.160487"/>
     <use style="fill:#2d2d54;stroke:#2d2d54;" x="311.434846" xlink:href="#m1f3e281e43" y="61.898625"/>
     <use style="fill:#2d2d54;stroke:#2d2d54;" x="314.483682" xlink:href="#m1f3e281e43" y="64.719989"/>
     <use style="fill:#2d2d54;stroke:#2d2d54;" x="317.532517" xlink:href="#m1f3e281e43" y="67.624579"/>
     <use style="fill:#2d2d54;stroke:#2d2d54;" x="320.581352" xlink:href="#m1f3e281e43" y="70.612395"/>
     <use style="fill:#2d2d54;stroke:#2d2d54;" x="323.630187" xlink:href="#m1f3e281e43" y="73.683437"/>
     <use style="fill:#2d2d54;stroke:#2d2d54;" x="326.679022" xlink:href="#m1f3e281e43" y="76.837706"/>
     <use style="fill:#2d2d54;stroke:#2d2d54;" x="329.727857" xlink:href="#m1f3e281e43" y="80.0752"/>
     <use style="fill:#2d2d54;stroke:#2d2d54;" x="332.776692" xlink:href="#m1f3e281e43" y="83.39592"/>
     <use style="fill:#2d2d54;stroke:#2d2d54;" x="335.825527" xlink:href="#m1f3e281e43" y="86.799867"/>
     <use style="fill:#2d2d54;stroke:#2d2d54;" x="338.874362" xlink:href="#m1f3e281e43" y="90.287039"/>
     <use style="fill:#2d2d54;stroke:#2d2d54;" x="341.923197" xlink:href="#m1f3e281e43" y="93.857438"/>
     <use style="fill:#2d2d54;stroke:#2d2d54;" x="344.972032" xlink:href="#m1f3e281e43" y="97.511063"/>
     <use style="fill:#2d2d54;stroke:#2d2d54;" x="348.020867" xlink:href="#m1f3e281e43" y="101.247913"/>
     <use style="fill:#2d2d54;stroke:#2d2d54;" x="351.069702" xlink:href="#m1f3e281e43" y="105.06799"/>
     <use style="fill:#2d2d54;stroke:#2d2d54;" x="354.118537" xlink:href="#m1f3e281e43" y="108.971293"/>
     <use style="fill:#2d2d54;stroke:#2d2d54;" x="357.167372" xlink:href="#m1f3e281e43" y="112.957822"/>
     <use style="fill:#2d2d54;stroke:#2d2d54;" x="360.216207" xlink:href="#m1f3e281e43" y="117.027577"/>
     <use style="fill:#2d2d54;stroke:#2d2d54;" x="363.265042" xlink:href="#m1f3e281e43" y="121.180558"/>
     <use style="fill:#2d2d54;stroke:#2d2d54;" x="366.313878" xlink:href="#m1f3e281e43" y="125.416765"/>
     <use style="fill:#2d2d54;stroke:#2d2d54;" x="369.362713" xlink:href="#m1f3e281e43" y="129.736199"/>
     <use style="fill:#2d2d54;stroke:#2d2d54;" x="372.411548" xlink:href="#m1f3e281e43" y="134.138858"/>
     <use style="fill:#2d2d54;stroke:#2d2d54;" x="375.460383" xlink:href="#m1f3e281e43" y="138.624744"/>
     <use style="fill:#2d2d54;stroke:#2d2d54;" x="378.509218" xlink:href="#m1f3e281e43" y="143.193855"/>
     <use style="fill:#2d2d54;stroke:#2d2d54;" x="381.558053" xlink:href="#m1f3e281e43" y="147.846193"/>
     <use style="fill:#2d2d54;stroke:#2d2d54;" x="384.606888" xlink:href="#m1f3e281e43" y="152.581756"/>
     <use style="fill:#2d2d54;stroke:#2d2d54;" x="387.655723" xlink:href="#m1f3e281e43" y="157.400546"/>
     <use style="fill:#2d2d54;stroke:#2d2d54;" x="390.704558" xlink:href="#m1f3e281e43" y="162.302562"/>
    </g>
   </g>
   <g id="matplotlib.axis_1">
    <g id="xtick_1">
     <g id="line2d_1">
      <path clip-path="url(#pa73068d298)" d="M 88.869887 170.434 
L 88.869887 7.354 
" style="fill:none;stroke:#b0b0b0;stroke-linecap:square;stroke-opacity:0.3;stroke-width:0.8;"/>
     </g>
     <g id="line2d_2">
      <defs>
       <path d="M 0 0 
L 0 3.5 
" id="m2db13ddd95" style="stroke:#000000;stroke-width:0.8;"/>
      </defs>
      <g>
       <use style="stroke:#000000;stroke-width:0.8;" x="88.869887" xlink:href="#m2db13ddd95" y="170.434"/>
      </g>
     </g>
     <g id="text_1">
      <!-- 0.0 -->
      <defs>
       <path d="M 27.796875 68.296875 
Q 33.203125 68.296875 37.546875 66 
Q 41.90625 63.703125 45 59.25 
Q 48.09375 54.796875 49.796875 48.34375 
Q 51.5 41.90625 51.5 33.59375 
Q 51.5 25.296875 49.796875 18.84375 
Q 48.09375 12.40625 45 7.953125 
Q 41.90625 3.5 37.546875 1.140625 
Q 33.203125 -1.203125 27.796875 -1.203125 
Q 22.40625 -1.203125 18.046875 1.140625 
Q 13.703125 3.5 10.59375 7.953125 
Q 7.5 12.40625 5.796875 18.84375 
Q 4.09375 25.296875 4.09375 33.59375 
Q 4.09375 41.90625 5.796875 48.34375 
Q 7.5 54.796875 10.59375 59.25 
Q 13.703125 63.703125 18.046875 66 
Q 22.40625 68.296875 27.796875 68.296875 
z
M 27.796875 63.59375 
Q 20.90625 63.59375 17.203125 56.046875 
Q 13.5 48.5 13.5 33.5 
Q 13.5 18.59375 17.203125 11.09375 
Q 20.90625 3.59375 27.796875 3.59375 
Q 34.703125 3.59375 38.34375 11.140625 
Q 42 18.703125 42 33.59375 
Q 42 48.5 38.34375 56.046875 
Q 34.703125 63.59375 27.796875 63.59375 
z
" id="Charter-48"/>
       <path d="M 13.90625 11.796875 
Q 16.5 11.796875 18.34375 9.9375 
Q 20.203125 8.09375 20.203125 5.40625 
Q 20.203125 2.796875 18.34375 0.9375 
Q 16.5 -0.90625 13.90625 -0.90625 
Q 11.296875 -0.90625 9.390625 0.890625 
Q 7.5 2.703125 7.5 5.40625 
Q 7.5 8.09375 9.390625 9.9375 
Q 11.296875 11.796875 13.90625 11.796875 
z
" id="Charter-46"/>
      </defs>
      <g transform="translate(77.751137 189.209)scale(0.16 -0.16)">
       <use xlink:href="#Charter-48"/>
       <use x="55.599991" xlink:href="#Charter-46"/>
       <use x="83.399979" xlink:href="#Charter-48"/>
      </g>
     </g>
    </g>
    <g id="xtick_2">
     <g id="line2d_3">
      <path clip-path="url(#pa73068d298)" d="M 149.236821 170.434 
L 149.236821 7.354 
" style="fill:none;stroke:#b0b0b0;stroke-linecap:square;stroke-opacity:0.3;stroke-width:0.8;"/>
     </g>
     <g id="line2d_4">
      <g>
       <use style="stroke:#000000;stroke-width:0.8;" x="149.236821" xlink:href="#m2db13ddd95" y="170.434"/>
      </g>
     </g>
     <g id="text_2">
      <!-- 0.2 -->
      <defs>
       <path d="M 44.203125 7.90625 
L 46 16.40625 
L 50.5 16.40625 
L 50.5 0 
L 4.203125 0 
L 4.203125 6.296875 
Q 12.40625 13 18.796875 18.5 
Q 25.203125 24 29.59375 28.953125 
Q 34 33.90625 36.296875 38.546875 
Q 38.59375 43.203125 38.59375 48.09375 
Q 38.59375 55.296875 35.09375 59.25 
Q 31.59375 63.203125 25.296875 63.203125 
Q 23 63.203125 20.84375 62.640625 
Q 18.703125 62.09375 16.40625 60.796875 
L 16.40625 50.09375 
Q 14.296875 48.59375 11.90625 48.59375 
Q 9.296875 48.59375 7.796875 50.09375 
Q 6.296875 51.59375 6.296875 54.203125 
Q 6.296875 56.796875 7.84375 59.34375 
Q 9.40625 61.90625 12.25 63.90625 
Q 15.09375 65.90625 18.9375 67.09375 
Q 22.796875 68.296875 27.5 68.296875 
Q 32.296875 68.296875 36.140625 66.9375 
Q 40 65.59375 42.703125 63.09375 
Q 45.40625 60.59375 46.84375 57.09375 
Q 48.296875 53.59375 48.296875 49.40625 
Q 48.296875 44.703125 46.046875 40.09375 
Q 43.796875 35.5 39.4375 30.546875 
Q 35.09375 25.59375 28.75 20.046875 
Q 22.40625 14.5 14.09375 7.90625 
z
" id="Charter-50"/>
      </defs>
      <g transform="translate(138.118071 189.209)scale(0.16 -0.16)">
       <use xlink:href="#Charter-48"/>
       <use x="55.599991" xlink:href="#Charter-46"/>
       <use x="83.399979" xlink:href="#Charter-50"/>
      </g>
     </g>
    </g>
    <g id="xtick_3">
     <g id="line2d_5">
      <path clip-path="url(#pa73068d298)" d="M 209.603756 170.434 
L 209.603756 7.354 
" style="fill:none;stroke:#b0b0b0;stroke-linecap:square;stroke-opacity:0.3;stroke-width:0.8;"/>
     </g>
     <g id="line2d_6">
      <g>
       <use style="stroke:#000000;stroke-width:0.8;" x="209.603756" xlink:href="#m2db13ddd95" y="170.434"/>
      </g>
     </g>
     <g id="text_3">
      <!-- 0.4 -->
      <defs>
       <path d="M 42.59375 67.703125 
L 42.59375 25.90625 
L 53.90625 25.90625 
L 53.90625 19.40625 
L 42.59375 19.40625 
L 42.59375 -3.703125 
L 34.90625 -3.703125 
L 34.90625 19.40625 
L 2.703125 19.40625 
L 2.703125 25.90625 
L 36.796875 67.703125 
z
M 10.203125 25.90625 
L 34.90625 25.90625 
L 34.90625 56.796875 
z
" id="Charter-52"/>
      </defs>
      <g transform="translate(198.485006 189.209)scale(0.16 -0.16)">
       <use xlink:href="#Charter-48"/>
       <use x="55.599991" xlink:href="#Charter-46"/>
       <use x="83.399979" xlink:href="#Charter-52"/>
      </g>
     </g>
    </g>
    <g id="xtick_4">
     <g id="line2d_7">
      <path clip-path="url(#pa73068d298)" d="M 269.97069 170.434 
L 269.97069 7.354 
" style="fill:none;stroke:#b0b0b0;stroke-linecap:square;stroke-opacity:0.3;stroke-width:0.8;"/>
     </g>
     <g id="line2d_8">
      <g>
       <use style="stroke:#000000;stroke-width:0.8;" x="269.97069" xlink:href="#m2db13ddd95" y="170.434"/>
      </g>
     </g>
     <g id="text_4">
      <!-- 0.6 -->
      <defs>
       <path d="M 44.296875 65.59375 
L 44 65.59375 
Q 31.90625 65.59375 24.453125 58.6875 
Q 17 51.796875 14.703125 38.40625 
Q 22.59375 44.5 31.703125 44.5 
Q 36.203125 44.5 40 42.890625 
Q 43.796875 41.296875 46.546875 38.390625 
Q 49.296875 35.5 50.890625 31.5 
Q 52.5 27.5 52.5 22.703125 
Q 52.5 17.59375 50.640625 13.25 
Q 48.796875 8.90625 45.546875 5.703125 
Q 42.296875 2.5 37.84375 0.640625 
Q 33.40625 -1.203125 28.296875 -1.203125 
Q 23.203125 -1.203125 18.953125 0.796875 
Q 14.703125 2.796875 11.59375 6.5 
Q 8.5 10.203125 6.75 15.546875 
Q 5 20.90625 5 27.703125 
Q 5 37.296875 7.703125 45.09375 
Q 10.40625 52.90625 15.453125 58.546875 
Q 20.5 64.203125 27.796875 67.5 
Q 35.09375 70.796875 44.296875 71.40625 
z
M 14.5 34 
Q 14.296875 32.40625 14.296875 30.84375 
Q 14.296875 29.296875 14.296875 27.90625 
Q 14.296875 15.90625 18.140625 9.75 
Q 22 3.59375 29.09375 3.59375 
Q 32.203125 3.59375 34.84375 4.9375 
Q 37.5 6.296875 39.390625 8.6875 
Q 41.296875 11.09375 42.34375 14.4375 
Q 43.40625 17.796875 43.40625 21.796875 
Q 43.40625 29.59375 39.40625 34.046875 
Q 35.40625 38.5 29 38.5 
Q 20.59375 38.5 14.5 34 
z
" id="Charter-54"/>
      </defs>
      <g transform="translate(258.85194 189.209)scale(0.16 -0.16)">
       <use xlink:href="#Charter-48"/>
       <use x="55.599991" xlink:href="#Charter-46"/>
       <use x="83.399979" xlink:href="#Charter-54"/>
      </g>
     </g>
    </g>
    <g id="xtick_5">
     <g id="line2d_9">
      <path clip-path="url(#pa73068d298)" d="M 330.337624 170.434 
L 330.337624 7.354 
" style="fill:none;stroke:#b0b0b0;stroke-linecap:square;stroke-opacity:0.3;stroke-width:0.8;"/>
     </g>
     <g id="line2d_10">
      <g>
       <use style="stroke:#000000;stroke-width:0.8;" x="330.337624" xlink:href="#m2db13ddd95" y="170.434"/>
      </g>
     </g>
     <g id="text_5">
      <!-- 0.8 -->
      <defs>
       <path d="M 32.09375 36.90625 
Q 36 39.5 38.046875 43.09375 
Q 40.09375 46.703125 40.09375 50.703125 
Q 40.09375 56.703125 36.796875 60.203125 
Q 33.5 63.703125 28 63.703125 
Q 25.40625 63.703125 23.203125 62.796875 
Q 21 61.90625 19.34375 60.296875 
Q 17.703125 58.703125 16.796875 56.546875 
Q 15.90625 54.40625 15.90625 51.90625 
Q 15.90625 46.90625 19.90625 43.34375 
Q 23.90625 39.796875 32.09375 36.90625 
z
M 36.296875 35.09375 
Q 43.40625 32.59375 47 28.1875 
Q 50.59375 23.796875 50.59375 17.90625 
Q 50.59375 13.90625 48.9375 10.34375 
Q 47.296875 6.796875 44.25 4.140625 
Q 41.203125 1.5 36.953125 -0.046875 
Q 32.703125 -1.59375 27.5 -1.59375 
Q 22.09375 -1.59375 17.796875 -0.140625 
Q 13.5 1.296875 10.546875 3.84375 
Q 7.59375 6.40625 6 9.953125 
Q 4.40625 13.5 4.40625 17.703125 
Q 4.40625 29.703125 18.09375 35 
Q 7.59375 39.40625 7.59375 50.40625 
Q 7.59375 54.40625 9.09375 57.703125 
Q 10.59375 61 13.296875 63.390625 
Q 16 65.796875 19.796875 67.140625 
Q 23.59375 68.5 28.296875 68.5 
Q 32.796875 68.5 36.390625 67.25 
Q 40 66 42.546875 63.75 
Q 45.09375 61.5 46.4375 58.390625 
Q 47.796875 55.296875 47.796875 51.703125 
Q 47.796875 46.703125 44.84375 42.34375 
Q 41.90625 38 36.296875 35.09375 
z
M 21.90625 32.90625 
Q 16.796875 30.203125 14.4375 26.796875 
Q 12.09375 23.40625 12.09375 18.296875 
Q 12.09375 11.703125 16.34375 7.640625 
Q 20.59375 3.59375 27.796875 3.59375 
Q 34.296875 3.59375 38.140625 7.25 
Q 42 10.90625 42 16.90625 
Q 42 19.90625 40.75 22.046875 
Q 39.5 24.203125 37 26 
Q 34.5 27.796875 30.703125 29.390625 
Q 26.90625 31 21.90625 32.90625 
z
" id="Charter-56"/>
      </defs>
      <g transform="translate(319.218874 189.209)scale(0.16 -0.16)">
       <use xlink:href="#Charter-48"/>
       <use x="55.599991" xlink:href="#Charter-46"/>
       <use x="83.399979" xlink:href="#Charter-56"/>
      </g>
     </g>
    </g>
    <g id="xtick_6">
     <g id="line2d_11">
      <path clip-path="url(#pa73068d298)" d="M 390.704558 170.434 
L 390.704558 7.354 
" style="fill:none;stroke:#b0b0b0;stroke-linecap:square;stroke-opacity:0.3;stroke-width:0.8;"/>
     </g>
     <g id="line2d_12">
      <g>
       <use style="stroke:#000000;stroke-width:0.8;" x="390.704558" xlink:href="#m2db13ddd95" y="170.434"/>
      </g>
     </g>
     <g id="text_6">
      <!-- 1.0 -->
      <defs>
       <path d="M 33.90625 68.296875 
L 33.90625 6.203125 
L 35.09375 4.703125 
L 45.90625 4.203125 
L 45.90625 0 
L 12.40625 0 
L 12.40625 4.296875 
L 23.90625 4.90625 
L 25.09375 6.59375 
L 25.09375 60.40625 
L 9.40625 57.59375 
L 9.40625 61.796875 
L 31.09375 68.296875 
z
" id="Charter-49"/>
      </defs>
      <g transform="translate(379.585808 189.209)scale(0.16 -0.16)">
       <use xlink:href="#Charter-49"/>
       <use x="55.599991" xlink:href="#Charter-46"/>
       <use x="83.399979" xlink:href="#Charter-48"/>
      </g>
     </g>
    </g>
    <g id="text_7">
     <!-- Mixture fraction [-] -->
     <defs>
      <path d="M 3.09375 4.09375 
L 9.09375 4.90625 
L 10.90625 6.796875 
L 10.90625 61.09375 
L 9.59375 62.5 
L 3 63.09375 
L 3 67.09375 
L 24.203125 67.09375 
L 24.203125 64.40625 
L 43 14.203125 
L 62 64 
L 62 67.09375 
L 83.40625 67.09375 
L 83.40625 63.09375 
L 77.09375 62.5 
L 75.90625 61.09375 
L 75.90625 6 
L 77.09375 4.59375 
L 83.40625 4.09375 
L 83.40625 0 
L 59.5 0 
L 59.5 4.09375 
L 66.09375 4.59375 
L 67.09375 6 
L 67.09375 62.40625 
L 43.40625 0 
L 39.09375 0 
L 16.296875 61.40625 
L 16.296875 6.796875 
L 18.09375 4.90625 
L 24.203125 4.09375 
L 24.203125 0 
L 3.09375 0 
z
" id="Charter-77"/>
      <path d="M 15.40625 70.796875 
Q 17.796875 70.796875 19.5 69.09375 
Q 21.203125 67.40625 21.203125 65 
Q 21.203125 62.59375 19.5 60.9375 
Q 17.796875 59.296875 15.40625 59.296875 
Q 13 59.296875 11.296875 60.9375 
Q 9.59375 62.59375 9.59375 65 
Q 9.59375 67.5 11.296875 69.140625 
Q 13 70.796875 15.40625 70.796875 
z
M 18.796875 48.59375 
L 18.796875 5.703125 
L 20.59375 4.09375 
L 26 3.59375 
L 26 0 
L 3.5 0 
L 3.5 3.59375 
L 8.796875 4.09375 
L 10.5 5.703125 
L 10.5 41.90625 
L 3.5 41.90625 
L 3.5 45 
L 15 48.59375 
z
" id="Charter-105"/>
      <path d="M 23.296875 48.09375 
L 23.296875 44.40625 
L 18.703125 43.796875 
L 18.203125 42.796875 
L 26.59375 29.703125 
L 35.703125 42.5 
L 34.90625 43.796875 
L 30.09375 44.40625 
L 30.09375 48.09375 
L 48.09375 48.09375 
L 48.09375 44.40625 
L 42.5 43.40625 
L 29.296875 25.90625 
L 44 4.5 
L 50 3.703125 
L 50 0 
L 28.703125 0 
L 28.703125 3.703125 
L 32.90625 4.40625 
L 33.40625 5.203125 
L 24.09375 20.09375 
L 13.90625 5.59375 
L 14.40625 4.40625 
L 20.09375 3.703125 
L 20.09375 0 
L 1.203125 0 
L 1.203125 3.703125 
L 6.90625 4.5 
L 21.296875 23.796875 
L 7.90625 43.296875 
L 1.796875 44.40625 
L 1.796875 48.09375 
z
" id="Charter-120"/>
      <path d="M 2.5 42.09375 
L 2.5 45.203125 
L 9.09375 48.09375 
L 13.40625 57.40625 
L 17.09375 57.40625 
L 17.09375 46.796875 
L 32.296875 46.796875 
L 32.296875 42.09375 
L 17.09375 42.09375 
L 17.09375 15.703125 
Q 17.09375 12.796875 17.390625 10.75 
Q 17.703125 8.703125 18.59375 7.390625 
Q 19.5 6.09375 21.140625 5.4375 
Q 22.796875 4.796875 25.40625 4.796875 
Q 28.59375 4.796875 32.296875 5.59375 
L 32.296875 1.90625 
Q 28.796875 0.796875 25.4375 0.25 
Q 22.09375 -0.296875 19.203125 -0.296875 
Q 13 -0.296875 10.890625 2.09375 
Q 8.796875 4.5 8.796875 9.796875 
L 8.796875 42.09375 
z
" id="Charter-116"/>
      <path d="M 18 49.09375 
L 18 16 
Q 18 10.59375 20.296875 8 
Q 22.59375 5.40625 27.703125 5.40625 
Q 33.09375 5.40625 39.296875 8.40625 
L 39.296875 42.296875 
L 32.203125 42.296875 
L 32.203125 45.40625 
L 43.796875 49.09375 
L 47.59375 49.09375 
L 47.59375 5.703125 
L 49.40625 4.09375 
L 54.09375 3.59375 
L 54.09375 0 
L 39.296875 0 
L 39.296875 5.59375 
Q 34.796875 2.40625 30.796875 0.703125 
Q 26.796875 -1 23.09375 -1 
Q 16.59375 -1 13.140625 2.890625 
Q 9.703125 6.796875 9.703125 14.296875 
L 9.703125 42.296875 
L 2.59375 42.296875 
L 2.59375 45.40625 
L 14.203125 49.09375 
z
" id="Charter-117"/>
      <path d="M 3 3.59375 
L 8.296875 4.09375 
L 10.09375 5.703125 
L 10.09375 41.90625 
L 3 41.90625 
L 3 45 
L 14.59375 48.59375 
L 18.40625 48.59375 
L 18.40625 39.203125 
Q 21 41.90625 23.703125 44.296875 
Q 26.40625 46.703125 29.09375 48.90625 
Q 29.703125 49.09375 30.34375 49.09375 
Q 31 49.09375 31.59375 49.09375 
Q 34.59375 49.09375 37.59375 47.796875 
L 37.59375 39.203125 
L 34.40625 39.203125 
Q 32.40625 41.59375 29.296875 41.59375 
Q 24.59375 41.59375 18.40625 34.296875 
L 18.40625 5.703125 
L 20.09375 4.09375 
L 27.09375 3.59375 
L 27.09375 0 
L 3 0 
z
" id="Charter-114"/>
      <path d="M 44.796875 5.09375 
Q 40.296875 2.09375 35.546875 0.59375 
Q 30.796875 -0.90625 26 -0.90625 
Q 21 -0.90625 16.890625 0.890625 
Q 12.796875 2.703125 9.890625 5.890625 
Q 7 9.09375 5.34375 13.640625 
Q 3.703125 18.203125 3.703125 23.703125 
Q 3.703125 29.40625 5.390625 34.046875 
Q 7.09375 38.703125 10.1875 42.046875 
Q 13.296875 45.40625 17.546875 47.25 
Q 21.796875 49.09375 26.796875 49.09375 
Q 35 49.09375 39.890625 43.890625 
Q 44.796875 38.703125 44.796875 29.40625 
Q 44.796875 28.59375 44.796875 27.84375 
Q 44.796875 27.09375 44.703125 26.296875 
L 12.296875 26.296875 
L 12.296875 25.203125 
Q 12.296875 15.5 16.890625 10.140625 
Q 21.5 4.796875 29.09375 4.796875 
Q 32.90625 4.796875 36.703125 6.25 
Q 40.5 7.703125 44.796875 10.59375 
z
M 35.90625 32.09375 
Q 35.90625 38.203125 33.25 41.390625 
Q 30.59375 44.59375 25.5 44.59375 
Q 23.09375 44.59375 20.890625 43.59375 
Q 18.703125 42.59375 16.953125 40.75 
Q 15.203125 38.90625 14.09375 36.296875 
Q 13 33.703125 12.796875 30.5 
L 35.90625 30.5 
z
" id="Charter-101"/>
      <path id="Charter-32"/>
      <path d="M 2.90625 3.59375 
L 8.203125 4.09375 
L 10 5.703125 
L 10 42.09375 
L 3.59375 42.09375 
L 3.59375 45.296875 
L 10 46.796875 
L 10 47.90625 
Q 10 54.09375 11.5 59.046875 
Q 13 64 15.703125 67.390625 
Q 18.40625 70.796875 22.15625 72.59375 
Q 25.90625 74.40625 30.296875 74.40625 
Q 33.796875 74.40625 35.9375 72.75 
Q 38.09375 71.09375 38.09375 68.703125 
Q 38.09375 66.90625 37.046875 65.546875 
Q 36 64.203125 34 63.703125 
L 24.90625 69.703125 
Q 18.40625 66.703125 18.40625 54.09375 
L 18.40625 46.796875 
L 32.296875 46.796875 
L 32.296875 42.09375 
L 18.296875 42.09375 
L 18.296875 5.703125 
L 20 4.09375 
L 26.203125 3.59375 
L 26.203125 0 
L 2.90625 0 
z
" id="Charter-102"/>
      <path d="M 33.40625 5.796875 
Q 28.59375 2.59375 24.59375 0.9375 
Q 20.59375 -0.703125 17 -0.703125 
Q 11 -0.703125 7.59375 2.84375 
Q 4.203125 6.40625 4.203125 12.09375 
Q 4.203125 16 5.953125 18.640625 
Q 7.703125 21.296875 11.296875 23.296875 
Q 14.90625 25.296875 20.40625 26.890625 
Q 25.90625 28.5 33.40625 30.296875 
L 33.40625 33.5 
Q 33.40625 39.5 31.5 42.09375 
Q 29.59375 44.703125 24.203125 44.703125 
Q 20.5 44.703125 16.59375 43.09375 
L 16.59375 34.703125 
L 9.703125 34.703125 
Q 8 34.703125 7.296875 35.34375 
Q 6.59375 36 6.59375 37.796875 
Q 6.59375 40.09375 8 42.140625 
Q 9.40625 44.203125 12 45.75 
Q 14.59375 47.296875 18.34375 48.1875 
Q 22.09375 49.09375 26.796875 49.09375 
Q 34.703125 49.09375 38.203125 45.6875 
Q 41.703125 42.296875 41.703125 34.703125 
L 41.703125 5.703125 
L 43.5 4.09375 
L 48.796875 3.59375 
L 48.796875 0 
L 34.703125 0 
z
M 33.40625 26.796875 
Q 28.09375 25.296875 24.25 24 
Q 20.40625 22.703125 17.90625 21.140625 
Q 15.40625 19.59375 14.203125 17.59375 
Q 13 15.59375 13 12.90625 
Q 13 9.203125 15.09375 6.953125 
Q 17.203125 4.703125 21 4.703125 
Q 23.5 4.703125 26.546875 5.84375 
Q 29.59375 7 33.40625 9.203125 
z
" id="Charter-97"/>
      <path d="M 42.5 4.203125 
Q 34.09375 -0.703125 26.203125 -0.703125 
Q 21.09375 -0.703125 16.9375 1.09375 
Q 12.796875 2.90625 9.84375 6.15625 
Q 6.90625 9.40625 5.296875 13.953125 
Q 3.703125 18.5 3.703125 24.09375 
Q 3.703125 29.703125 5.453125 34.296875 
Q 7.203125 38.90625 10.296875 42.203125 
Q 13.40625 45.5 17.75 47.296875 
Q 22.09375 49.09375 27.40625 49.09375 
Q 34.59375 49.09375 38.5 46.390625 
Q 42.40625 43.703125 42.40625 39.296875 
Q 42.40625 36.90625 40.90625 35.453125 
Q 39.40625 34 36.796875 34 
Q 34.5 34 32.296875 35.5 
L 32.296875 43.703125 
Q 30 45.09375 27.5 45.09375 
Q 21 45.09375 16.890625 39.6875 
Q 12.796875 34.296875 12.796875 24.796875 
Q 12.796875 15.5 17.390625 10.34375 
Q 22 5.203125 29.796875 5.203125 
Q 36.203125 5.203125 42.5 9.40625 
L 42.5 4.203125 
z
" id="Charter-99"/>
      <path d="M 26.90625 49.09375 
Q 32 49.09375 36.25 47.25 
Q 40.5 45.40625 43.59375 42.09375 
Q 46.703125 38.796875 48.453125 34.1875 
Q 50.203125 29.59375 50.203125 24.09375 
Q 50.203125 18.5 48.453125 13.890625 
Q 46.703125 9.296875 43.59375 6 
Q 40.5 2.703125 36.203125 0.890625 
Q 31.90625 -0.90625 26.90625 -0.90625 
Q 21.90625 -0.90625 17.65625 0.890625 
Q 13.40625 2.703125 10.296875 6 
Q 7.203125 9.296875 5.453125 13.890625 
Q 3.703125 18.5 3.703125 24.09375 
Q 3.703125 29.703125 5.453125 34.296875 
Q 7.203125 38.90625 10.25 42.203125 
Q 13.296875 45.5 17.546875 47.296875 
Q 21.796875 49.09375 26.90625 49.09375 
z
M 26.90625 44.796875 
Q 20.796875 44.796875 16.9375 39.34375 
Q 13.09375 33.90625 13.09375 24.09375 
Q 13.09375 19.296875 14.140625 15.4375 
Q 15.203125 11.59375 17 8.890625 
Q 18.796875 6.203125 21.34375 4.796875 
Q 23.90625 3.40625 26.90625 3.40625 
Q 33 3.40625 36.890625 8.84375 
Q 40.796875 14.296875 40.796875 24.09375 
Q 40.796875 33.796875 36.890625 39.296875 
Q 33 44.796875 26.90625 44.796875 
z
" id="Charter-111"/>
      <path d="M 3 3.59375 
L 8.40625 4.09375 
L 10.09375 5.703125 
L 10.09375 41.90625 
L 3 41.90625 
L 3 45 
L 14.59375 48.59375 
L 18.40625 48.59375 
L 18.40625 43.09375 
Q 23.5 45.90625 27.390625 47.5 
Q 31.296875 49.09375 34.5 49.09375 
Q 41.09375 49.09375 44.546875 45.25 
Q 48 41.40625 48 33.90625 
L 48 5.703125 
L 49.703125 4.09375 
L 55.09375 3.59375 
L 55.09375 0 
L 33.203125 0 
L 33.203125 3.59375 
L 38 4.09375 
L 39.703125 5.703125 
L 39.703125 32.203125 
Q 39.703125 37.703125 37.453125 40.09375 
Q 35.203125 42.5 29.59375 42.5 
Q 24.796875 42.5 18.40625 39.203125 
L 18.40625 5.703125 
L 20.09375 4.09375 
L 24.90625 3.59375 
L 24.90625 0 
L 3 0 
z
" id="Charter-110"/>
      <path d="M 37.59375 70.796875 
L 37.59375 66.5 
L 21.796875 66.5 
L 21.796875 -9 
L 37.59375 -9 
L 37.59375 -13.203125 
L 13.90625 -13.203125 
L 13.90625 70.796875 
z
" id="Charter-91"/>
      <path d="M 27.203125 27.40625 
L 27.203125 20.703125 
L 4.703125 20.703125 
L 4.703125 27.40625 
z
" id="Charter-45"/>
      <path d="M 28.203125 70.796875 
L 28.203125 -13.296875 
L 4.59375 -13.296875 
L 4.59375 -9 
L 20.40625 -9 
L 20.40625 66.5 
L 4.59375 66.5 
L 4.59375 70.796875 
z
" id="Charter-93"/>
     </defs>
     <g transform="translate(137.399375 214.359)scale(0.24 -0.24)">
      <use xlink:href="#Charter-77"/>
      <use x="86.599991" xlink:href="#Charter-105"/>
      <use x="114.599976" xlink:href="#Charter-120"/>
      <use x="164.899963" xlink:href="#Charter-116"/>
      <use x="198.299957" xlink:href="#Charter-117"/>
      <use x="255.199951" xlink:href="#Charter-114"/>
      <use x="293.399948" xlink:href="#Charter-101"/>
      <use x="342.499939" xlink:href="#Charter-32"/>
      <use x="370.299927" xlink:href="#Charter-102"/>
      <use x="402.399918" xlink:href="#Charter-114"/>
      <use x="440.599915" xlink:href="#Charter-97"/>
      <use x="491.299911" xlink:href="#Charter-99"/>
      <use x="535.899902" xlink:href="#Charter-116"/>
      <use x="569.299896" xlink:href="#Charter-105"/>
      <use x="597.299881" xlink:href="#Charter-111"/>
      <use x="651.199875" xlink:href="#Charter-110"/>
      <use x="707.999863" xlink:href="#Charter-32"/>
      <use x="735.79985" xlink:href="#Charter-91"/>
      <use x="777.899841" xlink:href="#Charter-45"/>
      <use x="809.799835" xlink:href="#Charter-93"/>
     </g>
    </g>
   </g>
   <g id="matplotlib.axis_2">
    <g id="ytick_1">
     <g id="line2d_13">
      <path clip-path="url(#pa73068d298)" d="M 72.22625 162.302562 
L 407.02625 162.302562 
" style="fill:none;stroke:#b0b0b0;stroke-linecap:square;stroke-opacity:0.3;stroke-width:0.8;"/>
     </g>
     <g id="line2d_14">
      <defs>
       <path d="M 0 0 
L -3.5 0 
" id="m5bb117a72f" style="stroke:#000000;stroke-width:0.8;"/>
      </defs>
      <g>
       <use style="stroke:#000000;stroke-width:0.8;" x="72.22625" xlink:href="#m5bb117a72f" y="162.302562"/>
      </g>
     </g>
     <g id="text_8">
      <!-- 0.00 -->
      <g transform="translate(34.09375 168.190062)scale(0.16 -0.16)">
       <use xlink:href="#Charter-48"/>
       <use x="55.599991" xlink:href="#Charter-46"/>
       <use x="83.399979" xlink:href="#Charter-48"/>
       <use x="138.999969" xlink:href="#Charter-48"/>
      </g>
     </g>
    </g>
    <g id="ytick_2">
     <g id="line2d_15">
      <path clip-path="url(#pa73068d298)" d="M 72.22625 125.596118 
L 407.02625 125.596118 
" style="fill:none;stroke:#b0b0b0;stroke-linecap:square;stroke-opacity:0.3;stroke-width:0.8;"/>
     </g>
     <g id="line2d_16">
      <g>
       <use style="stroke:#000000;stroke-width:0.8;" x="72.22625" xlink:href="#m5bb117a72f" y="125.596118"/>
      </g>
     </g>
     <g id="text_9">
      <!-- 0.25 -->
      <defs>
       <path d="M 45.90625 67.09375 
L 45.90625 59.296875 
L 16.296875 59.296875 
L 16.296875 39.296875 
Q 22 40.90625 27 40.90625 
Q 32 40.90625 36.046875 39.5 
Q 40.09375 38.09375 42.9375 35.546875 
Q 45.796875 33 47.34375 29.5 
Q 48.90625 26 48.90625 21.703125 
Q 48.90625 16.90625 47.046875 12.75 
Q 45.203125 8.59375 41.703125 5.546875 
Q 38.203125 2.5 33.25 0.796875 
Q 28.296875 -0.90625 22.203125 -0.90625 
Q 18.296875 -0.90625 15.140625 -0.09375 
Q 12 0.703125 9.75 2 
Q 7.5 3.296875 6.25 5 
Q 5 6.703125 5 8.5 
Q 5 10.796875 6.59375 12.296875 
Q 8.203125 13.796875 10.796875 13.796875 
Q 11.703125 13.796875 13.203125 13.5 
L 17.203125 4.90625 
Q 20.5 3.703125 23.90625 3.703125 
Q 27.40625 3.703125 30.296875 4.890625 
Q 33.203125 6.09375 35.296875 8.1875 
Q 37.40625 10.296875 38.546875 13.25 
Q 39.703125 16.203125 39.703125 19.703125 
Q 39.703125 27.5 34.546875 31.09375 
Q 29.40625 34.703125 18.90625 34.703125 
Q 13.40625 34.703125 10.09375 34.09375 
L 10.09375 67.09375 
z
" id="Charter-53"/>
      </defs>
      <g transform="translate(34.09375 131.483618)scale(0.16 -0.16)">
       <use xlink:href="#Charter-48"/>
       <use x="55.599991" xlink:href="#Charter-46"/>
       <use x="83.399979" xlink:href="#Charter-50"/>
       <use x="138.999969" xlink:href="#Charter-53"/>
      </g>
     </g>
    </g>
    <g id="ytick_3">
     <g id="line2d_17">
      <path clip-path="url(#pa73068d298)" d="M 72.22625 88.889674 
L 407.02625 88.889674 
" style="fill:none;stroke:#b0b0b0;stroke-linecap:square;stroke-opacity:0.3;stroke-width:0.8;"/>
     </g>
     <g id="line2d_18">
      <g>
       <use style="stroke:#000000;stroke-width:0.8;" x="72.22625" xlink:href="#m5bb117a72f" y="88.889674"/>
      </g>
     </g>
     <g id="text_10">
      <!-- 0.50 -->
      <g transform="translate(34.09375 94.777174)scale(0.16 -0.16)">
       <use xlink:href="#Charter-48"/>
       <use x="55.599991" xlink:href="#Charter-46"/>
       <use x="83.399979" xlink:href="#Charter-53"/>
       <use x="138.999969" xlink:href="#Charter-48"/>
      </g>
     </g>
    </g>
    <g id="ytick_4">
     <g id="line2d_19">
      <path clip-path="url(#pa73068d298)" d="M 72.22625 52.183229 
L 407.02625 52.183229 
" style="fill:none;stroke:#b0b0b0;stroke-linecap:square;stroke-opacity:0.3;stroke-width:0.8;"/>
     </g>
     <g id="line2d_20">
      <g>
       <use style="stroke:#000000;stroke-width:0.8;" x="72.22625" xlink:href="#m5bb117a72f" y="52.183229"/>
      </g>
     </g>
     <g id="text_11">
      <!-- 0.75 -->
      <defs>
       <path d="M 53.09375 67.09375 
L 53.09375 63.09375 
L 19.90625 -1.5 
L 19.90625 -3.703125 
L 11.59375 -3.703125 
L 44.203125 59.5 
L 13.40625 59.5 
L 11.796875 50.40625 
L 7.09375 50.40625 
L 7.09375 67.09375 
z
" id="Charter-55"/>
      </defs>
      <g transform="translate(34.09375 58.070729)scale(0.16 -0.16)">
       <use xlink:href="#Charter-48"/>
       <use x="55.599991" xlink:href="#Charter-46"/>
       <use x="83.399979" xlink:href="#Charter-55"/>
       <use x="138.999969" xlink:href="#Charter-53"/>
      </g>
     </g>
    </g>
    <g id="ytick_5">
     <g id="line2d_21">
      <path clip-path="url(#pa73068d298)" d="M 72.22625 15.476785 
L 407.02625 15.476785 
" style="fill:none;stroke:#b0b0b0;stroke-linecap:square;stroke-opacity:0.3;stroke-width:0.8;"/>
     </g>
     <g id="line2d_22">
      <g>
       <use style="stroke:#000000;stroke-width:0.8;" x="72.22625" xlink:href="#m5bb117a72f" y="15.476785"/>
      </g>
     </g>
     <g id="text_12">
      <!-- 1.00 -->
      <g transform="translate(34.09375 21.364285)scale(0.16 -0.16)">
       <use xlink:href="#Charter-49"/>
       <use x="55.599991" xlink:href="#Charter-46"/>
       <use x="83.399979" xlink:href="#Charter-48"/>
       <use x="138.999969" xlink:href="#Charter-48"/>
      </g>
     </g>
    </g>
    <g id="text_13">
     <!-- $y$ -->
     <defs>
      <path d="M 8.296875 48.5 
L -1.5 45.296875 
L -1.5 43.09375 
L 7 42.40625 
C 8.796875 40 10.09375 36.59375 11 32 
L 17.203125 1.90625 
L 17.5 2.09375 
C 11.59375 -9.203125 6.09375 -15.09375 0 -15.5 
L -5.90625 -9.59375 
C -9.203125 -10.09375 -11.296875 -12.40625 -11.296875 -15.09375 
C -11.296875 -18.703125 -7.796875 -21.703125 -2.90625 -21.703125 
C 5.40625 -21.703125 14.5 -13.296875 23.703125 3.40625 
C 32 18.40625 36 32.296875 43.296875 40.5 
L 48.40625 43.5 
L 48.40625 45.59375 
L 40.5 48.203125 
L 38.59375 48.203125 
C 32.296875 33.5 27.09375 20.90625 22.90625 10.203125 
L 19.59375 27.09375 
C 16.703125 41.703125 16 48.59375 9.59375 48.59375 
C 9.203125 48.59375 8.703125 48.59375 8.296875 48.5 
z
" id="Charter-Italic-121"/>
     </defs>
     <g transform="translate(24.81375 94.654)rotate(-90)scale(0.24 -0.24)">
      <use transform="translate(0 0.40625)" xlink:href="#Charter-Italic-121"/>
     </g>
    </g>
   </g>
   <g id="patch_3">
    <path d="M 72.22625 170.434 
L 72.22625 7.354 
" style="fill:none;stroke:#000000;stroke-linecap:square;stroke-linejoin:miter;stroke-width:0.8;"/>
   </g>
   <g id="patch_4">
    <path d="M 407.02625 170.434 
L 407.02625 7.354 
" style="fill:none;stroke:#000000;stroke-linecap:square;stroke-linejoin:miter;stroke-width:0.8;"/>
   </g>
   <g id="patch_5">
    <path d="M 72.22625 170.434 
L 407.02625 170.434 
" style="fill:none;stroke:#000000;stroke-linecap:square;stroke-linejoin:miter;stroke-width:0.8;"/>
   </g>
   <g id="patch_6">
    <path d="M 72.22625 7.354 
L 407.02625 7.354 
" style="fill:none;stroke:#000000;stroke-linecap:square;stroke-linejoin:miter;stroke-width:0.8;"/>
   </g>
   <g id="legend_1">
    <g id="patch_7">
     <path d="M 420.22625 107.05 
L 518.14625 107.05 
Q 521.34625 107.05 521.34625 103.85 
L 521.34625 12.4 
Q 521.34625 9.2 518.14625 9.2 
L 420.22625 9.2 
Q 417.02625 9.2 417.02625 12.4 
L 417.02625 103.85 
Q 417.02625 107.05 420.22625 107.05 
z
" style="fill:#4c4c4c;opacity:0.5;stroke:#4c4c4c;stroke-linejoin:miter;"/>
    </g>
    <g id="patch_8">
     <path d="M 418.22625 105.05 
L 516.14625 105.05 
Q 519.34625 105.05 519.34625 101.85 
L 519.34625 10.4 
Q 519.34625 7.2 516.14625 7.2 
L 418.22625 7.2 
Q 415.02625 7.2 415.02625 10.4 
L 415.02625 101.85 
Q 415.02625 105.05 418.22625 105.05 
z
" style="fill:#ffffff;stroke:#cccccc;stroke-linejoin:miter;"/>
    </g>
    <g id="PathCollection_5">
     <defs>
      <path d="M 0 3.162278 
C 0.838646 3.162278 1.643056 2.82908 2.236068 2.236068 
C 2.82908 1.643056 3.162278 0.838646 3.162278 0 
C 3.162278 -0.838646 2.82908 -1.643056 2.236068 -2.236068 
C 1.643056 -2.82908 0.838646 -3.162278 0 -3.162278 
C -0.838646 -3.162278 -1.643056 -2.82908 -2.236068 -2.236068 
C -2.82908 -1.643056 -3.162278 -0.838646 -3.162278 0 
C -3.162278 0.838646 -2.82908 1.643056 -2.236068 2.236068 
C -1.643056 2.82908 -0.838646 3.162278 0 3.162278 
z
" id="mbe5505ec9a" style="stroke:#0e7da7;"/>
     </defs>
     <g>
      <use style="fill:#0e7da7;stroke:#0e7da7;" x="437.42625" xlink:href="#mbe5505ec9a" y="21.175"/>
     </g>
    </g>
    <g id="text_14">
     <!-- $k_{1}$ - 20 -->
     <defs>
      <path d="M 22.5 73.59375 
L 6.796875 70.703125 
L 6.796875 67.90625 
L 16 67.40625 
L 2.5 0 
L 10.796875 0 
L 14 19.203125 
L 19.703125 24.40625 
L 28.203125 7.203125 
C 30.796875 2 33.59375 -0.5 37.59375 -0.5 
C 39.5 -0.5 43.5 0.296875 49.296875 2.203125 
L 49.296875 5 
C 47.296875 4.59375 45.59375 4.296875 44.09375 4.296875 
C 37.203125 4.296875 33.203125 12.796875 25.59375 30 
C 30 34 34.203125 37.703125 38.5 40.796875 
L 42.09375 36.90625 
C 45.796875 38.40625 47.59375 40.5 47.59375 43.09375 
C 47.59375 46 45.203125 48.203125 41.90625 48.203125 
C 39.5 48.203125 36.59375 46.5 33.09375 42.90625 
L 14.59375 23.796875 
L 25.296875 73.59375 
z
" id="Charter-Italic-107"/>
     </defs>
     <g transform="translate(466.22625 25.375)scale(0.16 -0.16)">
      <use transform="translate(0 0.40625)" xlink:href="#Charter-Italic-107"/>
      <use transform="translate(51.399994 -14.171875)scale(0.7)" xlink:href="#Charter-49"/>
      <use transform="translate(92.749675 0.40625)" xlink:href="#Charter-32"/>
      <use transform="translate(120.549663 0.40625)" xlink:href="#Charter-45"/>
      <use transform="translate(152.449657 0.40625)" xlink:href="#Charter-32"/>
      <use transform="translate(180.249644 0.40625)" xlink:href="#Charter-50"/>
      <use transform="translate(235.849635 0.40625)" xlink:href="#Charter-48"/>
     </g>
    </g>
    <g id="PathCollection_6">
     <defs>
      <path d="M 0 3.162278 
C 0.838646 3.162278 1.643056 2.82908 2.236068 2.236068 
C 2.82908 1.643056 3.162278 0.838646 3.162278 0 
C 3.162278 -0.838646 2.82908 -1.643056 2.236068 -2.236068 
C 1.643056 -2.82908 0.838646 -3.162278 0 -3.162278 
C -0.838646 -3.162278 -1.643056 -2.82908 -2.236068 -2.236068 
C -2.82908 -1.643056 -3.162278 -0.838646 -3.162278 0 
C -3.162278 0.838646 -2.82908 1.643056 -2.236068 2.236068 
C -1.643056 2.82908 -0.838646 3.162278 0 3.162278 
z
" id="mecd3f83a48" style="stroke:#ceca70;"/>
     </defs>
     <g>
      <use style="fill:#ceca70;stroke:#ceca70;" x="437.42625" xlink:href="#mecd3f83a48" y="44.4375"/>
     </g>
    </g>
    <g id="text_15">
     <!-- $k_{2}$ - 20 -->
     <g transform="translate(466.22625 48.6375)scale(0.16 -0.16)">
      <use transform="translate(0 0.40625)" xlink:href="#Charter-Italic-107"/>
      <use transform="translate(51.399994 -14.171875)scale(0.7)" xlink:href="#Charter-50"/>
      <use transform="translate(92.749675 0.40625)" xlink:href="#Charter-32"/>
      <use transform="translate(120.549663 0.40625)" xlink:href="#Charter-45"/>
      <use transform="translate(152.449657 0.40625)" xlink:href="#Charter-32"/>
      <use transform="translate(180.249644 0.40625)" xlink:href="#Charter-50"/>
      <use transform="translate(235.849635 0.40625)" xlink:href="#Charter-48"/>
     </g>
    </g>
    <g id="PathCollection_7">
     <defs>
      <path d="M 0 3.162278 
C 0.838646 3.162278 1.643056 2.82908 2.236068 2.236068 
C 2.82908 1.643056 3.162278 0.838646 3.162278 0 
C 3.162278 -0.838646 2.82908 -1.643056 2.236068 -2.236068 
C 1.643056 -2.82908 0.838646 -3.162278 0 -3.162278 
C -0.838646 -3.162278 -1.643056 -2.82908 -2.236068 -2.236068 
C -2.82908 -1.643056 -3.162278 -0.838646 -3.162278 0 
C -3.162278 0.838646 -2.82908 1.643056 -2.236068 2.236068 
C -1.643056 2.82908 -0.838646 3.162278 0 3.162278 
z
" id="md311d8b36a" style="stroke:#b45050;"/>
     </defs>
     <g>
      <use style="fill:#b45050;stroke:#b45050;" x="437.42625" xlink:href="#md311d8b36a" y="67.7"/>
     </g>
    </g>
    <g id="text_16">
     <!-- $k_{3}$ - 30 -->
     <defs>
      <path d="M 31.703125 35.296875 
Q 40.09375 34.703125 44.640625 30.390625 
Q 49.203125 26.09375 49.203125 19.203125 
Q 49.203125 15 47.390625 11.296875 
Q 45.59375 7.59375 42.296875 4.84375 
Q 39 2.09375 34.34375 0.5 
Q 29.703125 -1.09375 23.90625 -1.09375 
Q 19.40625 -1.09375 15.75 -0.09375 
Q 12.09375 0.90625 9.5 2.5 
Q 6.90625 4.09375 5.5 6.046875 
Q 4.09375 8 4.09375 9.90625 
Q 4.09375 12.09375 5.6875 13.546875 
Q 7.296875 15 9.703125 15 
Q 11.296875 15 12.703125 14.5 
L 15.796875 6 
Q 19.796875 3.59375 24.296875 3.59375 
Q 27.703125 3.59375 30.59375 4.796875 
Q 33.5 6 35.59375 8.140625 
Q 37.703125 10.296875 38.84375 13.1875 
Q 40 16.09375 40 19.40625 
Q 40 25.40625 36.203125 28.65625 
Q 32.40625 31.90625 25.203125 31.90625 
Q 24 31.90625 22.640625 31.796875 
Q 21.296875 31.703125 19.90625 31.5 
L 19.90625 37.40625 
Q 20.40625 37.40625 20.953125 37.34375 
Q 21.5 37.296875 22 37.296875 
Q 29.59375 37.296875 33.546875 40.6875 
Q 37.5 44.09375 37.5 50.203125 
Q 37.5 56.203125 34.046875 59.703125 
Q 30.59375 63.203125 24.796875 63.203125 
Q 19.5 63.203125 15.296875 60.296875 
L 15.296875 50.90625 
Q 13.59375 49.59375 11.203125 49.59375 
Q 8.796875 49.59375 7.296875 51.09375 
Q 5.796875 52.59375 5.796875 55 
Q 5.796875 57.5 7.34375 59.84375 
Q 8.90625 62.203125 11.65625 64.09375 
Q 14.40625 66 18.296875 67.140625 
Q 22.203125 68.296875 26.90625 68.296875 
Q 31.40625 68.296875 35.046875 67.09375 
Q 38.703125 65.90625 41.25 63.703125 
Q 43.796875 61.5 45.1875 58.390625 
Q 46.59375 55.296875 46.59375 51.5 
Q 46.59375 45.703125 42.84375 41.546875 
Q 39.09375 37.40625 31.703125 35.296875 
z
" id="Charter-51"/>
     </defs>
     <g transform="translate(466.22625 71.9)scale(0.16 -0.16)">
      <use transform="translate(0 0.40625)" xlink:href="#Charter-Italic-107"/>
      <use transform="translate(51.399994 -14.171875)scale(0.7)" xlink:href="#Charter-51"/>
      <use transform="translate(92.749675 0.40625)" xlink:href="#Charter-32"/>
      <use transform="translate(120.549663 0.40625)" xlink:href="#Charter-45"/>
      <use transform="translate(152.449657 0.40625)" xlink:href="#Charter-32"/>
      <use transform="translate(180.249644 0.40625)" xlink:href="#Charter-51"/>
      <use transform="translate(235.849635 0.40625)" xlink:href="#Charter-48"/>
     </g>
    </g>
    <g id="PathCollection_8">
     <defs>
      <path d="M 0 3.162278 
C 0.838646 3.162278 1.643056 2.82908 2.236068 2.236068 
C 2.82908 1.643056 3.162278 0.838646 3.162278 0 
C 3.162278 -0.838646 2.82908 -1.643056 2.236068 -2.236068 
C 1.643056 -2.82908 0.838646 -3.162278 0 -3.162278 
C -0.838646 -3.162278 -1.643056 -2.82908 -2.236068 -2.236068 
C -2.82908 -1.643056 -3.162278 -0.838646 -3.162278 0 
C -3.162278 0.838646 -2.82908 1.643056 -2.236068 2.236068 
C -1.643056 2.82908 -0.838646 3.162278 0 3.162278 
z
" id="mf8627d88d0" style="stroke:#2d2d54;"/>
     </defs>
     <g>
      <use style="fill:#2d2d54;stroke:#2d2d54;" x="437.42625" xlink:href="#mf8627d88d0" y="90.9625"/>
     </g>
    </g>
    <g id="text_17">
     <!-- $k_{4}$ - 30 -->
     <g transform="translate(466.22625 95.1625)scale(0.16 -0.16)">
      <use transform="translate(0 0.40625)" xlink:href="#Charter-Italic-107"/>
      <use transform="translate(51.399994 -14.171875)scale(0.7)" xlink:href="#Charter-52"/>
      <use transform="translate(92.749675 0.40625)" xlink:href="#Charter-32"/>
      <use transform="translate(120.549663 0.40625)" xlink:href="#Charter-45"/>
      <use transform="translate(152.449657 0.40625)" xlink:href="#Charter-32"/>
      <use transform="translate(180.249644 0.40625)" xlink:href="#Charter-51"/>
      <use transform="translate(235.849635 0.40625)" xlink:href="#Charter-48"/>
     </g>
    </g>
   </g>
  </g>
 </g>
 <defs>
  <clipPath id="pa73068d298">
   <rect height="163.08" width="334.8" x="72.22625" y="7.354"/>
  </clipPath>
 </defs>
</svg>
